<?xml version="1.0" standalone="no"?>
<!DOCTYPE svg PUBLIC "-//W3C//DTD SVG 20010904//EN"
 "http://www.w3.org/TR/2001/REC-SVG-20010904/DTD/svg10.dtd">
<svg version="1.0" xmlns="http://www.w3.org/2000/svg"
 width="500.000000pt" height="500.000000pt" viewBox="0 0 500.000000 500.000000"
 preserveAspectRatio="xMidYMid meet">
<metadata>
Created by potrace 1.11, written by Peter Selinger 2001-2013
</metadata>
<g transform="translate(0.000000,500.000000) scale(0.100000,-0.100000)"
fill="#000000" stroke="none">
<path d="M1320 2500 l0 -1160 205 0 205 0 1 848 c0 694 3 842 13 818 7 -16
134 -352 282 -747 l269 -719 209 3 209 2 281 747 281 747 3 -849 2 -850 200 0
200 0 0 1160 0 1160 -282 0 -283 0 -304 -815 c-168 -448 -307 -813 -309 -810
-3 2 -141 368 -307 812 l-302 808 -286 3 -287 2 0 -1160z"/>
</g>
</svg>
