<?xml version="1.0" standalone="no"?>
<!DOCTYPE svg PUBLIC "-//W3C//DTD SVG 1.1//EN" "http://www.w3.org/Graphics/SVG/1.1/DTD/svg11.dtd" >
<svg xmlns="http://www.w3.org/2000/svg" xmlns:xlink="http://www.w3.org/1999/xlink" version="1.1">
<metadata></metadata>
<defs>
<font id="bushcraftone" horiz-adv-x="768" >
<font-face units-per-em="2048" ascent="1536" descent="-512" />
<missing-glyph horiz-adv-x="471" />
<glyph horiz-adv-x="0" />
<glyph horiz-adv-x="682" />
<glyph unicode=" "  horiz-adv-x="471" />
<glyph unicode="&#x09;" horiz-adv-x="471" />
<glyph unicode="&#xa0;" horiz-adv-x="471" />
<glyph unicode="!" horiz-adv-x="448" d="M0 180q0 71 46 123.5t126 52.5q67 0 111.5 -36.5t58.5 -92.5q4 -8 4 -12v-43v-4q-5 -68 -51 -116t-123 -48q-68 0 -119 45q-53 50 -53 131zM20 1434q0 19 17 36q37 39 143 39q94 0 127 -24l2 -2q21 -21 22 -77t-9 -118q-1 -7 -2 -17t-2 -16t-1 -10l-22 -758 q-1 -39 -40 -59t-91 -20q-46 0 -80.5 15.5t-34.5 45.5z" />
<glyph unicode="&#x22;" d="M10 991q-37 58 92 346l4 11q17 42 65 94.5t95 52.5q35 0 56 -27q8 -4 8 -8q0 -1 1 -2t1 -2q18 -44 -64 -309q-30 -100 -32 -117q-4 -29 -63 -44t-103 -15q-19 0 -31 4q-22 4 -29 16zM338 991q-37 58 92 346l4 11q17 42 65 94.5t95 52.5q34 0 55 -27q8 -4 8 -8q0 -1 1 -2 t1 -2q18 -46 -63 -309q-32 -105 -33 -117q-4 -29 -63 -44t-103 -15q-18 0 -30 4q-22 4 -29 16z" />
<glyph unicode="#" horiz-adv-x="897" d="M0 406v102q0 14 10 24q11 11 27 11h129l22 186h-110q-14 0 -24.5 10t-10.5 25v102q0 15 10.5 25t24.5 10h137l41 305q1 13 11 22t24 9h102q16 0 25 -12q10 -8 10 -27l-39 -297h111l43 305q1 13 11 22t24 9h102q18 0 27 -12q11 -11 8 -27l-39 -297h104q18 0 25 -10 q10 -10 10 -25v-102q0 -15 -10 -25t-25 -10h-129l-22 -186h110q15 0 26 -10t11 -25v-102q0 -15 -11 -25t-26 -10h-135l-41 -316q-1 -12 -12 -21t-23 -9h-106q-11 0 -27 12q-8 11 -8 29l41 305h-113l-41 -316q-2 -12 -11.5 -21t-22.5 -9h-105q-14 0 -26 12t-9 29l39 305h-102 q-17 0 -27 10t-10 25zM340 543h113l24 186h-112z" />
<glyph unicode="$" horiz-adv-x="825" d="M2 365q9 66 61 79q2 0 7 1t8 1q26 0 117 -38q70 -32 81 -33q16 -2 46 -2q99 0 141 57q31 51 20 90q-8 25 -29 48.5t-54 43.5t-54.5 30.5t-55.5 26.5q-7 3 -11 5q-247 102 -269 276q-17 112 43.5 209t173.5 137q28 9 34 17t5 37q-2 10 -2 36v13q-5 58 15 78q9 12 28 12 q24 16 55 16q44 0 72.5 -35t28.5 -79q0 -29 -2 -37q0 -25 2 -29q8 -5 47 -12q145 -27 168 -74q11 -13 4 -37q6 -55 -25 -94q-33 -33 -77 -33q-28 0 -45 10q-73 31 -154 31q-135 0 -135 -102q0 -24 13 -46t29.5 -37t47 -31t50.5 -24.5t54 -21.5q58 -22 82 -35 q170 -96 197 -258q4 -4 4 -8v-92q0 -5 -6 -8q-12 -78 -62.5 -143.5t-126.5 -102.5q-36 -16 -45 -19q-22 -8 -26 -15.5t-4 -43.5q0 -3 1 -12t1 -13q4 -71 -15 -98l-2 -2q-23 -18 -82 -18q-40 0 -67 12q-37 14 -37 47v117q-7 4 -41 12q-157 48 -160 49q-29 16 -42 58.5 t-7 83.5z" />
<glyph unicode="%" horiz-adv-x="1703" d="M0 1016q0 186 94 319q108 148 283 148q173 0 278 -142q90 -126 90 -309q0 -120 -41.5 -225.5t-129 -175.5t-205.5 -70q-91 0 -164 40t-116.5 106t-66 145t-22.5 164zM250 1031q2 -59 12 -118q9 -49 47 -93t76 -44q41 0 68 58q15 28 19 106.5t-9 168t-41 136.5 q-17 33 -43 33q-27 0 -64 -37q-33 -34 -50 -92.5t-15 -117.5zM305 41q-10 19 0 41q0 21 17.5 56.5t36 63.5t57.5 83q7 12 21.5 33t17.5 28l630 1110q17 33 95 33q94 0 118 -41q10 -24 -4 -45l-776 -1370q-17 -33 -96 -33q-93 0 -117 41zM866 463q0 89 24.5 172t70.5 150.5 t119 108.5t163 42q79 0 142.5 -30t106 -81.5t68 -116t35.5 -139.5q7 -7 7 -12v-168q0 -10 -11 -14q-26 -157 -120 -260t-240 -103q-85 0 -155.5 39t-115 103t-69 144t-25.5 165zM1112.5 468q0.5 -112 44.5 -185q32 -52 72 -52q34 0 65 31.5t43 77.5q37 138 0 272 q-12 43 -43 74t-63 31q-45 0 -76 -58q-43 -79 -42.5 -191z" />
<glyph unicode="&#x26;" horiz-adv-x="1396" d="M1 424.5q-3 118.5 54 224.5q21 40 121 109q5 4 23 18t25 20t19 16t18 17t9 13q-161 254 -63 452q47 94 136.5 147.5t201.5 53.5q90 0 173 -35t145.5 -109t76.5 -173q30 -221 -203 -396q8 -29 94 -120q5 -5 14 -15t13 -14q2 4 10 16q60 78 90 101q29 22 54 22t43 -18 q4 -5 30 -27q116 -89 123 -147q3 -26 -16 -48q-12 -14 -43 -45q-25 -24 -38.5 -39t-25 -33t-10.5 -33t12 -30l195 -243q17 -24 8 -46q-12 -25 -68 -39.5t-98 -17t-84 -2.5q-72 0 -92 8q-21 1 -44.5 20.5t-37 37t-35.5 49.5q-2 2 -5 7t-5 7q-36 -26 -170 -76 q-61 -24 -126 -43.5t-89 -19.5q-114 0 -212 55.5t-158 153.5q-62 103 -65 221.5zM352 449q0 -130 94 -130q38 0 84 20t86 54q-6 35 -129 170q-30 35 -34 39q-21 -19 -34 -32t-31 -34.5t-27 -43t-9 -43.5zM495.5 1166.5q-3.5 -22.5 6 -49t23 -50t34.5 -53.5q74 52 74 119 q0 34 -22 64t-50 30q-24 0 -45 -21q-17 -17 -20.5 -39.5z" />
<glyph unicode="'" horiz-adv-x="440" d="M10 991q-37 58 92 346l4 11q17 42 65 94.5t95 52.5q35 0 56 -27q8 -4 8 -8q0 -1 1 -2t1 -2q18 -44 -64 -309q-30 -100 -32 -117q-4 -29 -63 -44t-103 -15q-19 0 -31 4q-22 4 -29 16z" />
<glyph unicode="(" horiz-adv-x="542" d="M23.5 984q46.5 250 183.5 450q18 26 66 48.5t89 22.5q49 0 70 -35q11 -22 -7.5 -60t-64.5 -107q-26 -37 -32 -52q-58 -123 -80 -237q-51 -245 -7 -485.5t175 -434.5q9 -15 14 -20v-2q15 -20 6 -37q-10 -19 -45.5 -30t-73.5 -11q-62 0 -79 24q-158 202 -209 459 q-52 257 -5.5 507z" />
<glyph unicode=")" horiz-adv-x="542" d="M4 35q-5 22 6 37l2 2q2 3 15 20q130 193 173.5 434.5t-7.5 485.5q-23 121 -78 237q-20 33 -35 52q-46 69 -64.5 107t-7.5 60q21 35 72 35q40 0 89 -23t67 -48q135 -200 181.5 -450t-5.5 -507q-51 -255 -207 -459q-19 -24 -80 -24q-40 0 -75.5 11t-45.5 30z" />
<glyph unicode="*" horiz-adv-x="806" d="M0 1239q0 102 88 102q20 0 82 -12q4 -1 12.5 -2t12.5 -2q-3 3 -9.5 10.5t-9.5 10.5q-27 29 -39.5 45t-23.5 40.5t-7 45.5q6 36 60 67q41 23 65 23q28 0 49.5 -20.5t31.5 -41.5t26 -65q2 -12 10 -31q8 19 10 31q11 31 18.5 48t21 39t30 32t37.5 10q25 0 63 -21 q54 -31 60 -69q4 -21 -7.5 -46t-24.5 -41t-40 -46q-3 -3 -9 -10.5t-9 -10.5q2 0 6.5 1t7.5 1q83 19 115 19q31 0 51 -13q2 0 2 -2h2q4 -4 4 -6q16 -23 17.5 -77t-15.5 -87q-13 -26 -35 -26q-2 0 -4 2q-11 -7 -31 -7q-13 0 -30 2.5t-40 7.5t-34 7q-2 1 -7 2t-7 2 q3 -4 9 -11.5t9 -11.5q27 -28 39 -42.5t23.5 -37.5t7.5 -42q-6 -39 -62 -72q-41 -23 -67 -23q-20 0 -35.5 9t-29 32t-19.5 36.5t-19 49.5q-2 12 -10 31q-5 -16 -8 -20q-9 -26 -15 -41.5t-17 -38t-21.5 -35t-25.5 -22t-32 -9.5q-20 0 -41 15q-70 46 -75 88q-4 26 12 52.5 t53 69.5q3 4 10.5 12.5t10.5 12.5q-4 -1 -13 -2t-14 -2q-58 -12 -82 -12q-41 0 -63 22q-25 25 -25 80z" />
<glyph unicode="+" horiz-adv-x="806" d="M10 760q-20 44 2 86q21 37 60 37h235q6 0 10 4q18 20 5 143q-6 52 -5.5 99t15.5 65q10 10 24 10q64 36 99 -2q46 -50 30 -262q-2 -16 -2 -41q0 -22 58 -22q15 0 47 3t39 3q5 0 38.5 3t49.5 3q78 0 78 -43q0 -4 1 -12.5t1 -12.5q0 -61 -17 -78q-13 -16 -47 -16h-233 q-7 0 -11 -4q-17 -19 -4 -145q7 -52 6 -99.5t-18 -64.5q-8 -10 -22 -13q-29 -16 -54 -16q-24 0 -45 21q-47 51 -31 262q3 27 3 45q0 20 -58 20q-40 0 -86 -6q-5 0 -38.5 -3t-49.5 -3q-37 0 -53 8q-23 9 -27 31z" />
<glyph unicode="," horiz-adv-x="475" d="M4 -186q31 84 64 223q4 12 8 57q6 45 9 65t13 50t23 43q15 13 66.5 23t97.5 10q49 0 67 -15q3 0 10 -10v-2q25 -45 -15.5 -154.5t-123.5 -267.5q-4 -10 -12 -22q-11 -25 -56 -42.5t-87 -17.5q-46 0 -62 23q-11 17 -2 37z" />
<glyph unicode="-" d="M2 784q-4 63 8 90q3 58 103 58q8 0 24 -1t23 -1q4 0 11.5 -1t10.5 -1q15 0 97 8q118 12 198 12q125 0 162 -37q20 -18 25 -94q4 -58 -7 -90q-3 -57 -102 -57q-35 0 -47 2q-6 0 -14 1t-11 1q-14 0 -96 -8q-128 -13 -199 -13q-124 0 -161 37q-21 21 -25 94z" />
<glyph unicode="." horiz-adv-x="370" d="M0 123q0 64 40 100.5t93 36.5q55 0 95 -35.5t40 -101.5q0 -61 -40 -97t-95 -36q-53 0 -93 36t-40 97z" />
<glyph unicode="/" horiz-adv-x="997" d="M3.5 -25.5q-4.5 11.5 0.5 21.5l688 1595q3 14 17 17q13 3 22 0l146 -64q11 -6 15.5 -17t-1.5 -22l-688 -1597q-7 -11 -17 -14q-6 -3 -12 -3t-12 3l-144 65q-10 4 -14.5 15.5z" />
<glyph unicode="0" horiz-adv-x="1134" d="M0 752q0 346 134 545.5t376 199.5q273 0 412 -254q110 -202 110 -493q0 -297 -110 -496q-69 -123 -175.5 -187.5t-240.5 -64.5q-273 0 -406 256q-100 200 -100 494zM283 743q0 -52 3.5 -99.5t12.5 -101t26 -97t41.5 -80t61.5 -56.5t84 -20q86 0 137 63q94 107 94 381 q0 224 -60 348.5t-169 124.5q-58 0 -104 -40t-73 -107.5t-40.5 -148t-13.5 -167.5z" />
<glyph unicode="1" horiz-adv-x="634" d="M0 1264q2 46 72 141q10 14 28 41q35 55 166 55q60 0 115 -6q54 -4 68 -4q31 0 49 -21q18 -19 25 -58.5t6.5 -65.5t-3.5 -72q0 -9 -1 -21.5t-1 -15.5v-487v-474q0 -11 4 -47q7 -47 3 -110.5t-29 -87.5q-26 -29 -101 -29q-10 0 -31.5 1t-31.5 1q-32 4 -41 4q-80 0 -80 101 v366v500v31q9 157 -4 180q-4 0 -14 -1t-15 -1q-18 -2 -55 -2q-85 0 -111 30q-18 18 -18 52z" />
<glyph unicode="2" horiz-adv-x="1191" d="M4 53q-14 33 29 82l506 547l47 47q40 41 62.5 66.5t52 67t42.5 77.5q32 92 -8 168q-38 69 -119 88q-27 6 -51 6q-72 0 -126.5 -48.5t-71.5 -127.5q-5 -25 -5 -31q-3 -20 -4.5 -29t-7 -27t-13 -26.5t-21.5 -16t-33 -7.5q-16 -4 -29 -4q-5 0 -16.5 1t-16.5 1q-4 0 -12 1 t-12 1q-13 0 -21 -2h-22q-52 0 -76 24q-18 19 -21 54t0.5 56.5t12.5 61.5q1 2 2 7.5t2 7.5q41 185 186 299q134 106 311 106q117 -2 221.5 -50.5t172.5 -135.5q56 -72 79.5 -150t22.5 -144t-33.5 -146t-65 -136.5t-96.5 -134.5t-103.5 -121t-109.5 -116l-2 -2 q-11 -13 -31.5 -34.5t-27.5 -29.5h406q41 0 63.5 -43.5t22.5 -101.5q0 -57 -23 -105q-28 -51 -78 -51h-352h-449q-161 0 -184 51z" />
<glyph unicode="3" horiz-adv-x="1118" d="M4 479q5 21 21 33.5t42 16t48 3.5t51.5 -2t38.5 -2q34 0 58 -27.5t36 -62.5t32.5 -74t45.5 -55q100 -65 212 -16q83 37 126 115q48 91 3 165q-28 46 -89 74q-23 11 -74 17.5t-91 11t-72 26t-32 60.5q0 7 -2 45t-1.5 59.5t11 48t31.5 35.5q20 8 61 15t75.5 14t67 20.5 t47 43.5t5.5 75q-11 58 -63.5 86.5t-113 18.5t-95.5 -52q-12 -14 -30 -55.5t-39 -68.5t-52 -27q-10 -3 -23.5 -3t-30 1.5t-24.5 1.5q-34 0 -56.5 3t-42 11.5t-27.5 24t-7.5 41.5t12.5 63q43 129 141 218t221.5 112t258.5 -29q71 -30 128.5 -84t89.5 -122t40.5 -140.5 t-17.5 -146t-85 -131.5q131 -99 165.5 -264.5t-44.5 -311.5q-72 -131 -205 -200.5t-287 -61.5q-205 10 -334 154q-57 67 -102.5 163.5t-28.5 159.5z" />
<glyph unicode="4" horiz-adv-x="1196" d="M0.5 363q-2.5 27 14.5 59t32 53.5t39 50.5q20 25 23 29l536 762q7 12 25 37q17 29 30 49t33 44t42 37t44 13q55 0 86 -31q25 -26 30 -75t-1 -93q0 -9 -1 -27t-1 -26v-483v-160q0 -2 0.5 -3t6 -3t15.5 -2q13 0 33 4q5 0 14 1t13 1q28 0 51 -20q35 -39 25 -160v-33 q0 -40 -22.5 -64t-59.5 -24q-13 0 -21 2q-7 0 -22 1t-21 1q-4 0 -7.5 -0.5t-5.5 -1t-3 -0.5q-5 -19 -3.5 -61.5t5.5 -77.5q2 -18 2 -43q0 -56 -20 -88.5t-78 -32.5h-31q-16 -2 -51 -2q-123 0 -123 78q-8 29 -4 123q4 36 4 53v26v21q-4 2 -31 2h-201h-241q-17 0 -25 -2h-31 q-53 0 -75 20q-22 19 -24.5 46zM508 598h10q32 -4 60 -4q51 0 51 12v164l-56 -78z" />
<glyph unicode="5" horiz-adv-x="1128" d="M4 455q9 43 45 57q34 14 101 14q58 0 88 -6q26 -1 44.5 -17.5t26 -33.5t15.5 -43q10 -35 20 -49q25 -37 65.5 -58.5t86.5 -21.5q100 0 158.5 72.5t58.5 167.5q0 90 -49 145q-54 63 -152 63q-95 0 -205 -40q-1 0 -9.5 -4t-14.5 -5q-55 -22 -78 -22q-41 0 -62 37 q-18 32 0 100q4 16 4 20q4 19 36.5 193t49.5 264q1 7 3.5 21.5t3.5 21.5q4 30 7 47.5t12 43t21.5 39t34.5 24t52 10.5h440q5 0 16 1t19 1q14 2 43 2q41 0 61 -10q26 -12 39 -42t12 -62.5t-2 -65.5q-2 -12 -2 -33q0 -98 -186 -98q-67 0 -117 6q-13 0 -32 1t-25 1q-1 0 -9 1 t-14 1t-25 1t-28 1q-13 0 -22 -1t-13 -2l-4 -1q-4 -26 -13 -76t-13 -76q24 3 49 3q202 0 342 -146q73 -76 110 -180.5t31 -218.5q-7 -141 -79.5 -257t-193.5 -181.5t-264 -65.5q-107 0 -202.5 42t-161.5 118q-38 43 -85 139t-34 158z" />
<glyph unicode="6" horiz-adv-x="1056" d="M2 506q4 59 20 116t48.5 118t56 98t68.5 104l10 16l166 248l82 121q4 6 24 41q18 30 29 46.5t30 39.5t39.5 34t42.5 11q30 0 54 -16q4 -2 13 -8t15 -9q28 -15 41.5 -23.5t35.5 -26t31 -36.5t5 -41q-5 -28 -51 -90q-19 -23 -21 -28l-112 -170l-74 -109q159 -16 272 -141 q65 -72 98 -168.5t27 -194.5q-7 -121 -73.5 -221.5t-175 -158.5t-234.5 -58q-4 0 -14 1t-15 1q-91 4 -174 45t-145 111q-131 150 -119 348zM303 477q0 -72 45.5 -126t128.5 -54t127.5 54t44.5 126q0 74 -43 123q-46 55 -129 55q-82 0 -131 -55q-43 -53 -43 -123z" />
<glyph unicode="7" horiz-adv-x="1099" d="M2 1321v27q-5 97 25 129q22 22 57 22h840q46 0 65 -29q5 -7 6.5 -16.5t2 -18t-2.5 -20.5t-5 -19t-8 -21t-8.5 -19l-9.5 -19l-8 -16q-2 -4 -6 -8l-407 -787l-97 -182l-96 -186q-1 -1 -5.5 -12t-8.5 -17q-12 -25 -16.5 -35t-17.5 -32t-23.5 -32t-26 -19t-31.5 -9 q-22 0 -37 10q-4 2 -15 7t-17 8q-81 39 -106 63q-29 29 -26 62q2 17 25 59q1 3 4 8t4 6l180 348l181 347l147 280h-436q-66 0 -94.5 28t-28.5 93z" />
<glyph unicode="8" horiz-adv-x="1030" d="M22 593q44 137 164 224q-72 63 -102.5 141t-21 152t48.5 145t99.5 124t140.5 85.5t163 32.5t162.5 -32.5t139 -85t98 -123.5t47.5 -145t-21 -152t-100 -142q122 -89 163 -230.5t-14 -283.5q-55 -143 -188 -222t-293 -79q-163 0 -296.5 82t-184.5 231q-49 141 -5 278z M295 395q39 -72 132 -104q109 -38 200 8q29 14 51 35q93 87 56 186q-28 75 -112 118q-100 50 -197 17q-56 -19 -97 -67q-84 -98 -33 -193zM352 1045q27 -58 99 -86q89 -35 159 10q12 8 23 18q77 72 38 146q-30 57 -106 81q-92 28 -162 -20q-8 -5 -16 -12q-71 -63 -35 -137z M633 987z" />
<glyph unicode="9" horiz-adv-x="1050" d="M1 1011.5q-6 123.5 48 229.5q60 119 178 189.5t256 70.5q178 0 303 -110q4 0 33 -29q23 -23 27 -31q237 -289 -76 -756l-160 -239l-159 -238q-1 -3 -4.5 -8t-4.5 -6q-19 -28 -28.5 -41t-29 -27t-40.5 -14q-29 0 -59 21q-14 7 -29 16q-70 41 -91 65q-14 17 -18 35 q-6 30 15 64l125 190l114 172q-102 9 -188.5 66t-142.5 151q-63 106 -69 229.5zM303 1026q0 -70 43 -123q49 -55 131 -55q83 0 127.5 53t44.5 125q0 74 -43 123q-46 55 -129 55t-128.5 -53.5t-45.5 -124.5z" />
<glyph unicode=":" horiz-adv-x="475" d="M0 186q0 87 56 138t130 51q62 0 114.5 -37.5t66.5 -108.5q4 -4 4 -12q0 -17 2 -27v-2q0 -20 -2 -26q0 -11 -2 -15q-14 -70 -67.5 -107.5t-117.5 -37.5q-74 0 -125 45q-59 53 -59 139zM0 948q0 87 56 138t130 51q72 0 128 -49t59 -138q0 -87 -56.5 -137.5t-132.5 -50.5 q-73 0 -128.5 48.5t-55.5 137.5z" />
<glyph unicode=";" horiz-adv-x="387" d="M4 -221q30 81 64 221q5 16 8 59q6 45 9 65t13 49.5t23 41.5q14 14 65.5 24.5t98.5 10.5q50 0 67 -14q4 -2 10 -11v-2q25 -45 -15.5 -154.5t-123.5 -267.5q-6 -15 -12 -24q-12 -24 -56.5 -41t-86.5 -17q-47 0 -62 21q-10 20 -2 39zM76 688q0 71 45 111.5t106 40.5 q60 0 105 -39.5t45 -112.5q0 -71 -45 -111t-107 -40q-60 0 -104.5 40t-44.5 111z" />
<glyph unicode="&#x3c;" horiz-adv-x="966" d="M0 479v94q0 20 18 31l816 420q19 9 34 0q17 -14 17 -31v-121q0 -24 -19 -30l-628 -316l628 -315q19 -9 19 -31v-121q0 -20 -17 -30q-6 -4 -18 -4q-10 0 -16 4l-816 417q-18 11 -18 33z" />
<glyph unicode="=" horiz-adv-x="1003" d="M1.5 622.5q-3.5 34.5 8.5 59.5q22 51 64 51h610q25 0 43 2q40 4 70 4q53 0 77 -16q1 0 3 -2h2v-2q19 -19 20.5 -54.5t-10.5 -58.5q-19 -49 -62 -49h-610q-3 0 -16 -1t-21 -1q-69 -6 -78 -6q-60 0 -77 20q-20 19 -23.5 53.5zM10 926q0 26 0.5 37t5 27.5t13.5 25.5 q18 18 57 18h293q24 0 49 2q159 6 225 6q94 0 148.5 -7t70.5 -16.5t17 -23.5q25 -46 0 -92q-22 -45 -74 -45h-293q-24 0 -49 -2q-159 -6 -225 -6q-61 0 -105 3t-68.5 7t-39 11t-19 13.5t-4.5 14.5q0 19 -2 27z" />
<glyph unicode="&#x3e;" horiz-adv-x="966" d="M0 59v121q0 21 20 31l633 315l-633 316q-20 7 -20 30v121q0 18 16 31q18 10 35 0l815 -418q19 -10 19 -31v-98q0 -21 -19 -31l-815 -417q-4 -4 -16 -4q-13 0 -19 4q-16 10 -16 30z" />
<glyph unicode="?" horiz-adv-x="819" d="M3 1373.5q5 32.5 24 53.5q75 84 301 84q145 0 256.5 -82.5t128.5 -224.5q9 -79 -18.5 -155.5t-67 -129t-94.5 -126t-82 -127.5q-16 -33 -21.5 -77t-7 -75.5t-11 -59.5t-40 -40.5t-86.5 -7.5q-61 6 -90.5 41t-27.5 87t16.5 103t39.5 102q20 41 60.5 97t72.5 98.5t57.5 100 t26.5 112.5q1 56 -32 89t-80.5 39t-98 -3t-88.5 -31q-33 -18 -61 -13t-46.5 29.5t-27 54t-3.5 62zM139 197.5q8 36.5 26 66.5t52 49t78 19t78.5 -18.5t52.5 -48.5t26.5 -66t0 -72t-26.5 -66.5t-52.5 -50t-78.5 -20.5q-43 0 -77.5 19t-52 49t-26 66.5t-0.5 73z" />
<glyph unicode="@" horiz-adv-x="1476" d="M4.5 580q-16.5 173 46.5 346q63 174 192 301.5t292 177.5q116 33 213 33q125 0 238 -43t200 -123q91 -83 139.5 -197.5t48.5 -245.5q0 -141 -48 -255.5t-134 -180.5q-93 -74 -207 -74q-126 0 -180 105q-47 -49 -112.5 -77t-131.5 -28q-74 0 -132.5 35t-92.5 99 q-75 136 -23 299q32 102 103.5 187t161.5 130q35 17 124.5 34t169.5 17q132 0 172 -49q23 -30 15 -67q-9 -56 -21 -111q-36 -191 -41 -221q-19 -98 2 -133q7 -7 17 -7q32 0 77 55.5t58 125.5q15 65 9 137t-26.5 137t-66.5 121.5t-111 89.5q-107 55 -215 55 q-137 0 -258.5 -82.5t-193.5 -220.5t-72 -295q0 -142 63 -254t173 -168q114 -55 270 -43q6 1 80 23q93 33 139 33q52 0 64 -37l6 -14q9 -23 13 -35t6 -29.5t-4.5 -28.5t-22.5 -24.5t-43 -24.5q-137 -61 -320 -61q-164 0 -303.5 72.5t-224.5 201.5q-92 141 -108.5 314z M528 621q0 -93 47 -93q52 0 126 76t85 141l33 168q-8 2 -24 2q-110 0 -188.5 -86.5t-78.5 -207.5z" />
<glyph unicode="A" horiz-adv-x="1091" d="M12 160q24 104 68 229t47 137q34 131 101.5 393.5t101.5 393.5q1 6 5 32.5t7.5 47t10.5 42.5t16 31q5 21 67 30q31 4 61 4l61 -4q62 -9 67 -30q139 -539 329 -1288q2 -6 8.5 -23.5t12 -34.5t10 -36t4 -34.5t-7.5 -24.5q-13 -15 -83 -21q-27 -2 -53 -3q-43 0 -83 6 q-66 9 -72 30q-22 21 -25.5 82.5t-7.5 120t-28 75.5q-17 11 -132 11t-130 -11q-25 -17 -30 -75.5t-8.5 -120t-25.5 -82.5q-5 -21 -71 -30q-41 -6 -84 -6q-26 1 -53 3q-70 6 -83 21q-12 16 -12 50t12 85zM422 571h147l-73 336q-12 -56 -36.5 -167.5t-37.5 -168.5z" />
<glyph unicode="B" horiz-adv-x="927" d="M0 125v965v350q0 25 19 39t51.5 16.5t62.5 1.5t65 -4.5t46 -3.5q56 0 86 -0.5t84.5 -4t88 -11t79 -22t76.5 -35t62 -53t52 -73.5q41 -77 49 -174q2 -19 2 -38q-1 -77 -27 -151q-32 -92 -104 -141q90 -60 120 -193q14 -64 14 -128q0 -69 -17 -139q-32 -134 -107 -207 q-35 -34 -82 -57t-88.5 -34t-103 -16t-99.5 -5t-106 1.5t-96 1.5q-87 0 -107 17.5t-20 97.5zM294 337q-1 -9 1 -20t4.5 -15t12 -9t21 -7.5t32.5 -6.5q61 0 100 26.5t53 68.5t16 94v18q0 43 -10 85q-3 17 -9.5 31t-17.5 23.5t-21 17t-28 12l-28 7t-32 3.5t-30.5 1.5t-32 0 t-28.5 -0.5v-260q0 -18 -1 -39t-2 -30zM297 918q0 -8 19 -10t46.5 1t56 9t51 14t28.5 16q44 56 44 111q0 40 -24 80q-38 62 -109 88q-28 10 -50 10q-30 0 -48 -19q-14 -16 -14 -44v-256z" />
<glyph unicode="C" horiz-adv-x="950" d="M0 1049q0 69 18 156q18 90 60 145q62 82 164 122q85 34 175 33q17 0 35 -1q108 -8 197 -60q46 -27 101.5 -98.5t83.5 -151.5q12 -34 13 -65q0 -40 -22 -74q0 -18 -22 -28q-21 -9 -57 -11q-27 -1 -52 -2h-16q-32 0 -66.5 3t-40.5 3q-24 0 -35.5 23t-12.5 51.5t-6.5 61 t-18.5 46.5q-49 56 -86 56q-60 0 -86 -149q-17 -101 -17 -300v-43q0 -19 -4 -73.5t-7 -104.5q-2 -25 -2 -52q0 -28 2 -58q3 -60 13.5 -103t37 -73t67.5 -30q42 0 65.5 21.5t30 52.5t9.5 62.5t11.5 53t28.5 21.5q15 11 115 11t117 -11q44 0 44 -54q0 -39 -23 -107 q-37 -108 -90 -191l-15 -20q-109 -97 -273 -107q-16 -1 -33 -1q-144 0 -253 77q-46 32 -76 81t-44 97q-14 46 -20 114q-5 58 -5 101v14q1 47 4 119t3 107q0 38 -6 150q-6 123 -6 186z" />
<glyph unicode="D" horiz-adv-x="942" d="M2 154q0 32 3 67.5t3 42.5v1139q0 34 11 56t27 31.5t44 13t50.5 2t59 -4t58.5 -2.5q71 0 126 -4t121 -14.5t115.5 -33.5t94.5 -58t73.5 -91t38.5 -129q10 -75 11 -159v-34q0 -72 -3 -159q-4 -109 -4 -160q0 -26 1.5 -92.5t1.5 -102.5t-5.5 -95.5t-18 -98t-38.5 -82.5 t-63 -75q-48 -41 -109.5 -66t-139.5 -33q-76 -8 -132 -10h-37q-47 0 -111 2q-92 4 -129 4q-21 0 -33 22q-13 20 -15 56q-2 28 -2 55q1 7 1 13zM309 270q8 -3 57 -1.5t106.5 42t57.5 101.5v602q0 8 0.5 32.5t0.5 35.5t-2 33.5t-5 34.5t-10 29t-17 26.5t-25.5 18t-35.5 11.5 q-65 10 -85 10h-6q-33 -5 -36 -53v-12v-699v-211z" />
<glyph unicode="E" horiz-adv-x="876" d="M2 1406q2 47 18 64q21 22 84 24q16 1 33 0q51 0 113 -6q83 -8 92 -7q22 0 113 9.5t165 9.5t105 -19q26 1 38 -63q6 -32 6 -65q1 -31 -5 -63q-12 -64 -43 -63h-410q-3 0 -4.5 -30.5t-2 -79t-0.5 -92t0.5 -87.5t0.5 -47q0 -4 32 -6t83 -2.5t97.5 -0.5h93t51.5 1 q32 1 44 -63q6 -32 6 -64t-6 -64q-12 -64 -38 -63q-20 -13 -59 -13q-11 0 -21 1q-54 4 -106 17q-52 12 -104 14h-8q-45 0 -65 -19q-11 -11 -11 -172t11 -170q23 -20 103 -20t180 10t117 10q37 1 55 -55q16 -47 15 -98q-1 -10 -1 -20q-4 -62 -24 -83q-24 -25 -96 -27 q-16 -1 -32 0q-60 0 -133 7q-93 9 -104 9h-340q-17 0 -26 19t-11 50t-1.5 59.5t3 57.5t2.5 34v989q0 9 -6 69q-4 45 -4 84v24z" />
<glyph unicode="F" horiz-adv-x="870" d="M2 467v159v230q2 188 5 365t3 198q0 35 49.5 54t129.5 22q40 2 78.5 1.5t76.5 -1.5q74 -3 151.5 -8.5t94.5 -5.5q14 0 39.5 1.5t41 2.5t35 -2t31 -10t19.5 -23t8 -41q0 -17 1 -42t1 -38t-1 -31t-5 -27t-11.5 -19.5t-19.5 -15t-30.5 -8t-43.5 -3.5q-4 0 -48 0.5t-90 0.5 h-47h-49q-50 0 -82 -2t-32 -5v-349q0 -3 31 -5q32 -3 80 -3h48h46q46 0 89 1t48 1q26 0 44.5 -27.5t24.5 -64.5q4 -24 3 -48q0 -13 -1 -26q-3 -37 -15 -55q0 -19 -31 -29t-80 -12q-29 -1 -58 -1h-36q-46 1 -91.5 4t-52.5 3q-26 0 -40 -12.5t-16.5 -35.5t-1 -45.5t5 -54.5 t3.5 -50v-365q0 -20 -23 -31q-22 -10 -58 -12q-22 -1 -42 -1h-28q-34 1 -69.5 4t-43.5 3q-19 0 -29.5 129t-11.5 330z" />
<glyph unicode="G" horiz-adv-x="972" d="M2 582q0 84 7 197.5t7 160.5q0 18 -1 68q-1 32 -1 55v21q1 26 4 66.5t12.5 73.5t24.5 62q59 114 181 169q96 44 199 44q27 0 55 -3q133 -15 233 -91q32 -25 83 -126q63 -126 63 -196q0 -15 -3 -27q-9 -40 -51 -40q-20 0 -54 -3t-58.5 -5t-53 0.5t-46.5 11t-30 29.5 t-12 53q0 47 -25.5 80t-61.5 41q-19 4 -38 4l-34 -3q-36 -7 -61.5 -39t-25.5 -79v-381q0 -33 -6 -108t-6 -136.5t12 -105.5q0 -52 37 -81q35 -29 82 -29q3 0 5 1q50 1 89 29q13 9 21 23t10.5 32.5t3 31.5t-0.5 36.5t-1 30.5q0 5 1 25.5t2 41.5t0.5 43t-4 35.5t-9.5 13.5 q-10 0 -42.5 -3.5t-58.5 -3.5t-38 7q-27 0 -40 61q-6 31 -6 61t6 61q13 61 46 61h385q27 0 42 -17.5t18 -48t2.5 -58t-4 -62.5t-3.5 -48q0 -25 2 -98q3 -60 3 -99q0 -8 -1 -15q0 -41 -10 -98.5t-31 -98.5q-59 -114 -181 -169q-96 -44 -199 -44q-27 0 -55 4q-132 14 -232 90 q-62 48 -98 126.5t-46 179.5q-9 97 -9 178q0 4 1 8z" />
<glyph unicode="H" horiz-adv-x="931" d="M1 436v146q1 108 1 212q2 172 5 333t3 178q0 8 -2.5 36t-3 51t2 49t14.5 41t32 15q17 0 57 4t69.5 5t62 -3.5t50 -22.5t17.5 -50v-480q-1 -39 43 -63q43 -24 95 -24q1 1 3 1q54 0 80 25q18 17 18 103.5t-9 192.5t-9 118q0 21 -1.5 55.5t-1.5 49.5t4.5 36.5t16 30 t33.5 15.5t56 7q19 0 52 1.5t48 1.5t36.5 -4t31 -14t17 -29.5t7.5 -49.5v-387v-928q0 -33 -14 -52.5t-42 -25t-52.5 -5.5t-63.5 3.5t-57 3.5q-32 0 -50.5 16.5t-23 47t-4 58t4 66.5t3.5 56q0 5 1 54t1 100v52v54q0 56 -3 91.5t-9 35.5q-27 0 -61.5 3t-53.5 5t-40.5 -0.5 t-31.5 -12t-17 -31t-7 -56.5v-488q0 -25 -21 -39.5t-56 -17.5q-26 -2 -51 -2h-17q-33 1 -71 4.5t-50 3.5q-20 0 -30.5 119t-11.5 305z" />
<glyph unicode="I" horiz-adv-x="421" d="M2 308v86q0 86 1 168q2 122 5.5 235t3.5 123v487q0 35 31 59q31 26 73 34q29 6 59 5q14 0 29 -1q45 -4 72 -21q20 0 30 -85q11 -84 12 -216v-104v-150q-2 -122 -5.5 -235.5t-3.5 -123.5v-487q0 -30 -13.5 -49t-33.5 -26.5t-50.5 -9.5t-56 0.5t-59 5.5t-51.5 3 q-20 0 -31 85t-12 217z" />
<glyph unicode="J" horiz-adv-x="851" d="M9.5 178q16.5 28 82.5 74q44 30 71 38.5t41 2.5t48.5 -15.5t77.5 -9.5q33 0 57.5 12.5t38 36.5t21 50t9 62t1.5 62.5t-2 62t-2 50.5t-4.5 127t-6.5 229q-1 68 -1 138q0 52 1 106q1 126 15 206.5t39 80.5q26 0 65 2.5t61.5 4t50 -2.5t42 -15.5t25 -35.5t10.5 -62v-573 v-428q0 -74 -29 -140.5t-77.5 -114.5t-113.5 -81t-134 -45q-35 -5 -71 -5q-35 0 -70 5q-72 11 -134 47q-80 46 -104 74.5t-7.5 56.5z" />
<glyph unicode="K" horiz-adv-x="1060" d="M2 408q2 90 9 183.5t7 113.5q0 11 -4 111t-6 204q-1 52 -1 106q1 54 1 110q2 112 15.5 184.5t39.5 72.5q27 0 64 2t57.5 3t46 -1t39 -9.5t26.5 -22.5t18 -40.5t6 -62.5v-424q9 18 39 88t64 144t72.5 150t75.5 124.5t62 48.5q20 10 81 10q19 0 41 -1q133 -5 141 -44 q2 -8 -3 -18q-72 -126 -154 -275q-10 -19 -52.5 -79t-71 -111.5t-29.5 -85.5v-6q0 -27 16 -67q18 -44 52 -102t38 -67q28 -66 189 -426q1 -2 28.5 -53t41 -91.5t1.5 -58.5q-14 -20 -60 -24q-19 -2 -40 -2q-32 0 -72 4q-66 6 -71 6q-20 0 -33.5 4.5t-24 17.5t-14.5 20t-13 30 t-12 30q-39 92 -109 261t-95 229q-45 -71 -64.5 -134t-22 -106t-1.5 -153q0 -55 -1 -85t-11.5 -55.5t-17 -35t-36.5 -16.5t-50.5 -7h-76.5h-37q-40 0 -62 60t-25 158q-2 53 -2 105q0 42 1 83z" />
<glyph unicode="L" horiz-adv-x="886" d="M2 412q-1 90 -1 176q1 86 1 168q2 166 5 321t3 170q0 26 -1 64t-1 54.5t2 42t6 34.5t13.5 24t23 19.5t35.5 10.5t50 7.5t67 1.5q43 0 70 -18.5t37 -45.5q12 -27 14 -69q1 -18 1 -34q-1 -23 -3 -44q-4 -36 -7.5 -83.5t-3.5 -75.5v-760q0 -15 -2 -35t-2 -28t3.5 -17.5 t14.5 -12.5t31 -3h342q33 0 52 -11t25 -34.5t6.5 -43.5t-2.5 -56t-3 -54q0 -13 -1.5 -23t-3 -17.5t-6.5 -13t-7.5 -9.5t-10.5 -6.5t-11.5 -4t-15 -2t-16 -0.5h-19h-19.5h-623q-20 0 -30.5 114.5t-12.5 293.5z" />
<glyph unicode="M" horiz-adv-x="1236" d="M1 112q0 15 1.5 43.5t1.5 47.5v598v563q0 27 1.5 46t4.5 34.5t9 25t14.5 17t20 10t27 5t35.5 1.5t44 0h10h9.5h10.5q36 0 65 -14.5t47 -35.5t33.5 -55t24 -63t21 -69t22.5 -64q26 -68 80 -202t80 -201q40 103 116.5 296t88.5 222q13 33 23 55.5t21 43t21 33t23 23.5 t26.5 15.5t31 9.5t37.5 4.5t46.5 1.5t56.5 0h38q20 0 30.5 -126.5t11.5 -322.5v-130q0 -128 -1 -251q-2 -184 -5.5 -356t-3.5 -192q0 -8 0.5 -23.5t0.5 -22.5t-1 -19t-3.5 -17.5t-7.5 -13t-12.5 -11t-19 -6t-26.5 -2.5q-11 0 -44.5 -3.5t-62 -4.5t-59 2t-48.5 16t-18 37v680 q-10 -26 -25 -79.5t-28.5 -101.5t-35 -103.5t-44 -95.5t-56 -66.5t-71.5 -26.5q-46 0 -84 35t-64.5 95.5t-44.5 117.5t-36.5 126.5t-28.5 96.5v-499q0 -128 -3 -147q-7 -50 -45 -65q-36 -14 -146 -14q-29 0 -49.5 4t-32.5 14t-18.5 20t-8 29.5t-1.5 34.5z" />
<glyph unicode="N" horiz-adv-x="1001" d="M1 102q0 15 1.5 43.5t1.5 47.5v600v563q0 31 2 52t6 37t12 24.5t19.5 15t27 8t37 3t48.5 -0.5h34q43 0 75 -17.5t53.5 -52.5t34 -66.5t28.5 -82t27 -76.5q76 -190 180 -440v557q0 5 -2 29t-2.5 46.5t1.5 47.5t11 40t25 15q19 12 64 12t100 -6t69 -6q20 0 31 -128 q11 -129 13 -329q1 -100 0.5 -196.5t-0.5 -189.5q-2 -186 -5.5 -362t-3.5 -196q0 -58 -42 -87q-37 -26 -85 -26q-6 1 -11 1q-54 4 -106 32.5t-70 73.5l-270 645v-518v-37v-54.5t-2.5 -41t-6.5 -32.5t-14.5 -21t-23 -16t-35 -7.5t-47.5 -5t-65 -0.5q-29 0 -49.5 4t-32.5 14 t-18.5 20t-8 29.5t-1.5 34.5z" />
<glyph unicode="O" horiz-adv-x="974" d="M2 590q0 84 7 196.5t7 159.5q0 18 -1 67q-1 33 -1 55v20q0 26 3.5 66.5t13 73.5t24.5 62q58 114 179 169q96 44 199 44q27 1 55 -3q132 -14 231 -91q52 -40 86 -105.5t47 -133.5q14 -68 18 -158q2 -45 2 -84q0 -40 -2 -75q-4 -69 -9 -156.5t-5 -133.5q0 -11 2 -82 q1 -36 0.5 -60.5t-0.5 -38.5q-2 -28 -12 -78.5t-29 -86.5q-59 -113 -179 -167q-96 -43 -200 -43q-28 0 -54 3q-132 14 -230 90q-62 48 -98 126t-46 179q-9 96 -9 176q1 5 1 9zM295 543q0 -91 18 -158q0 -42 25.5 -70.5t61.5 -34.5q17 -3 35 -3l37 3q36 6 61.5 35.5 t25.5 71.5v217v522q0 30 -13.5 53.5t-35.5 35.5t-48 17.5t-52 -1t-48 -19t-35.5 -36.5t-13.5 -54v-215q0 -50 -9 -161.5t-9 -202.5z" />
<glyph unicode="P" horiz-adv-x="948" d="M1.5 1370q-0.5 23 0 31.5t1 25t3 22t6.5 16.5t10.5 14.5t16 9.5t22.5 7.5t29.5 3t38.5 1.5q32 0 99 2q68 3 108 3h8q38 0 93 -4q61 -4 104 -15.5t91 -35t85 -58.5q79 -75 109 -199q19 -77 19 -154q-1 -46 -7 -92q-18 -122 -88.5 -225t-178.5 -137q-14 -5 -83 -10 t-126 -12.5t-57 -20.5v-246v-258q0 -17 -11.5 -26.5t-32 -12t-38.5 -2.5t-40.5 2t-28.5 2q-40 0 -64.5 1t-42.5 9.5t-26 15t-13 29t-5.5 39t-0.5 57.5v5v5v5v1167q0 12 -0.5 35zM303 1192q0 -11 0.5 -20t1 -24.5t0.5 -29.5v-291q9 -9 59 -9h2q50 0 110 32q61 32 65 84 q2 31 3 45t2 45.5t-0.5 47.5t-5 42.5t-10.5 41.5t-19 33.5t-28 28t-39 16.5t-51 7q-17 3 -30 0.5t-22.5 -1.5t-16 -3.5t-11 -6.5t-7 -9.5t-3 -12.5t-0.5 -16z" />
<glyph unicode="Q" horiz-adv-x="1083" d="M2 516q-1 30 -1 62q0 124 11 276q13 190 13 266q0 79 29.5 147t79 114.5t115 77.5t136.5 41q32 4 65 4q40 0 80 -6q75 -12 140 -46q65 -33 107 -80t62 -107.5t26.5 -116.5t6.5 -132v-535q0 -12 0.5 -42.5t0.5 -48t-1.5 -42.5t-5.5 -45t-4.5 -35t3 -26.5t8.5 -19t16 -16 t20.5 -14.5t27.5 -17t32 -21q11 -8 12 -19.5t-6.5 -25.5t-18 -28.5t-26 -29.5t-28 -26.5t-25 -22.5t-15.5 -14q-13 -14 -30 -15.5t-35 8.5t-33 20.5t-33 26t-26 21.5t-47 -5.5t-84.5 -28.5t-57.5 -19q-33 -4 -65 -4q-81 0 -154 24q-90 29 -159.5 91.5t-96.5 148.5 q-36 113 -39 260zM306 1028v-30q0 -75 8 -167q10 -110 10 -149q0 -15 -5 -93q-6 -86 -6 -134q0 -53 17 -108q18 -57 57 -73q-17 9 -24 25.5t6 34.5q10 11 33.5 39t39.5 44t38.5 31t45 11.5t45.5 -25.5v498q0 17 3.5 58.5t3.5 75.5t-7 58q0 42 -31 72t-72 38q-14 4 -29 4 q-25 0 -51 -10q-40 -15 -56 -54q-24 -59 -26 -146z" />
<glyph unicode="R" horiz-adv-x="1019" d="M2 454q-1 84 0 166q0 108 1 212q2 182 6.5 355t4.5 195q0 7 -0.5 26.5t-0.5 27.5t3 22.5t9 21t18 12t29 5.5l175 1q70 1 112 1q63 0 63 -2q100 0 183.5 -28t148.5 -92.5t92 -159.5q20 -75 22 -153v-12q0 -70 -16 -138q-18 -74 -63.5 -137t-114.5 -101q56 -145 239 -617 q8 -22 -12 -35t-60 -16t-76 -3t-76 2.5t-44 2.5q-24 0 -46.5 34.5t-35 73t-25.5 88t-16 56.5q-21 58 -63 175t-62 175q-3 11 -43.5 10t-41.5 -22v-145v-394q0 -25 -19.5 -39.5t-53.5 -17.5q-26 -2 -50 -2h-15q-32 1 -69 4.5t-48 3.5q-25 0 -39 124t-16 320zM310.5 916 q-0.5 -9 1.5 -21.5t6 -16t14.5 -8t25.5 -5.5t39 -1q56 0 92.5 17t53.5 51q17 32 21 72q2 21 3 47q0 23 -2 49q-3 42 -18.5 71t-40 42t-56.5 20q-29 7 -61 7h-5q-35 0 -72 -1v-252q0 -18 -0.5 -40t-1 -31z" />
<glyph unicode="S" horiz-adv-x="985" d="M18 1083q0 91 35 170.5t93 133t134.5 85.5t156.5 35h15q73 1 148 -25q83 -28 150 -89q32 -28 70 -97q40 -70 58 -146q6 -24 5 -46q0 -45 -27 -76q-16 -17 -64 -19h-24q-40 1 -86 5q-62 6 -72 6q-25 0 -36.5 22t-16.5 54t-13 63.5t-34 53.5t-72 22q-51 0 -83.5 -26.5 t-38.5 -66.5q-3 -18 -3 -36q1 -24 5 -48q8 -42 37 -78t69 -50q28 -13 142 -50.5t167 -76.5q51 -36 83 -92.5t42 -122.5q10 -60 10 -117v-11q-1 -63 -12 -128q-17 -102 -82 -179.5t-155.5 -113t-188.5 -39.5h-15q-91 0 -179 40q-94 42 -156 122q-23 30 -54 121 q-28 82 -28 130q0 46 26 62q10 6 25 6q9 0 71 6q44 4 81 4q15 -1 29 -1q47 -2 65 -19q17 -18 25.5 -44.5t9 -49t5.5 -47t17 -37.5t44 -21q13 -3 28 -3q24 0 55 7q49 7 75 67q24 55 24 117v12q-2 70 -29 108q-23 34 -82 58t-133.5 44t-102.5 33q-213 101 -213 368z" />
<glyph unicode="T" horiz-adv-x="962" d="M1 1344q0 23 3.5 59t3.5 53q0 20 13 31.5t35.5 14t43 2.5t46.5 -2.5t34 -2.5h635q25 0 37 -56q8 -39 8 -80q0 -18 -2 -37q-5 -61 -20 -75q-12 -13 -80 -13h-14q-58 0 -104 4q-52 4 -62 -3v-598v-412q0 -10 5 -54.5t5 -81t-10 -50.5q0 -23 -61 -35q-54 -10 -111 -11 q-6 1 -14 1q-64 2 -81 10q-14 0 -22.5 10.5t-10.5 28.5t-2 33.5t1.5 35t1.5 23.5v805v277q0 13 -16.5 19.5t-43.5 7t-53 -0.5t-53 -3.5t-35 -2.5q-31 0 -49 13.5t-23 40t-5 49.5z" />
<glyph unicode="U" horiz-adv-x="940" d="M2 616q2 61 6 145t4 130v467v22v38.5t3 28t9.5 22.5t18.5 13t30.5 9t45.5 2q18 0 51 1t45 0.5t33 -3t28.5 -9.5t17 -19.5t12.5 -33t3 -49.5v-456v-459q0 -32 6.5 -67.5t21.5 -68t36.5 -52t54.5 -14.5t72 38q20 17 28 59q8 37 8 70v8q-1 37 -4.5 87t-3.5 63v512v350 q0 23 22 35.5t58 14.5q24 1 46 1h22q34 -1 70.5 -4.5t46.5 -3.5q20 0 31 -71.5t12 -183.5v-87v-127q-2 -104 -5.5 -200.5t-3.5 -106.5v-342q0 -69 -25 -130t-67 -105.5t-98.5 -76.5t-118.5 -46q-50 -11 -102 -11h-26q-66 4 -128 27q-70 26 -120.5 71t-78 106t-42.5 122.5 t-17 141.5q-2 50 -2 94q-1 25 0 48z" />
<glyph unicode="V" horiz-adv-x="1024" d="M2 1382q-3 17 -2 32q0 27 9 46q14 29 50 29q8 0 41 3q32 2 63 4q19 1 38 1h26q33 -1 55 -10.5t25 -26.5q7 -40 22.5 -119.5t22.5 -119.5q18 -98 54 -293.5t55 -292.5q43 221 125 663q1 5 4 31t6.5 50.5t10 50.5t18 42.5t26.5 16.5q18 13 65.5 13t107 -6.5t73.5 -6.5 q21 -1 23 -41q0 -7 1 -14q-1 -36 -11 -88q-12 -62 -26.5 -120.5t-29.5 -112t-16 -58.5q-176 -751 -183 -781q-7 -28 -14.5 -64.5t-11.5 -55.5t-11 -44t-14 -37t-19 -27t-27.5 -21t-38.5 -12.5t-52 -8.5t-68 -2q-29 0 -52 19.5t-36.5 48.5t-24 70t-15 75.5t-10 74t-9.5 56.5 q-166 714 -182 784q-3 12 -20.5 63.5t-28.5 95.5t-19 93z" />
<glyph unicode="W" horiz-adv-x="1435" d="M10 1348q-8 44 -8 72q0 38 14 50q26 20 142 21h4h3.5h4.5q44 0 72.5 -8.5t44 -20t24.5 -39t11.5 -48.5t6 -65.5t7.5 -74.5q10 -82 30.5 -245t30.5 -245q16 78 48 233.5t49 233.5q6 29 11.5 72t9 68t13.5 55t25 46t43.5 27t69.5 11q42 0 71.5 -11.5t45 -28t25.5 -47 t13.5 -56.5t9 -70t11.5 -74q17 -80 49 -238.5t49 -238.5q13 100 36.5 297t35.5 297q1 6 1.5 29t3 44.5t7 45t14.5 37.5t25 14q18 13 66 13t108 -6.5t74 -6.5q20 1 22 -53q0 -7 1 -16q0 -50 -12 -121q-12 -83 -26 -160.5t-29 -148.5t-16 -77q-23 -137 -141 -827 q-7 -39 -38 -66q-30 -27 -72 -35q-26 -5 -52 -5l-32 2q-42 5 -73 29.5t-38 62.5q-24 119 -69.5 357.5t-69.5 357.5q-37 -203 -97 -512q-5 -25 -9.5 -64.5t-7 -66t-11.5 -57t-22 -48.5t-38.5 -30.5t-62.5 -12.5h-57.5t-43 3t-33.5 5t-22.5 12t-18 18.5t-11 28.5t-10.5 38.5 t-9 52.5q-14 77 -100 581q-18 102 -52 305t-51 304z" />
<glyph unicode="X" horiz-adv-x="1052" d="M6 35q-6 9 -6 25q0 25 16 68q26 69 71 150t48 89q30 69 90.5 204.5t91.5 204.5q3 7 3 17q0 23 -15 61q-22 54 -62 125t-42 76q-25 57 -54 121.5t-63.5 141t-54.5 120.5q-2 5 -2 10q0 21 47 35q52 16 117 16q28 0 58 -3q74 -7 83 -30q31 -25 57.5 -88t51 -146.5 t34.5 -107.5q11 26 36 108t52 145.5t58 88.5q13 30 122 31h8q105 0 155 -26q25 -14 18 -31q2 -5 2 -13q0 -28 -26 -84q-32 -70 -80 -153t-54 -96q-23 -51 -70.5 -154t-70.5 -154q11 -25 74.5 -164.5t95.5 -213.5q6 -12 53 -94q48 -82 78 -151q24 -55 24 -84q0 -8 -2 -13 q9 -19 -35 -35q-53 -19 -121 -19q-22 0 -45 2q-94 7 -110 45q-27 64 -81.5 191t-80.5 190q-27 -63 -80.5 -190t-79.5 -191q-11 -27 -81 -43q-53 -12 -106 -11q-17 0 -35 1q-71 5 -87 29z" />
<glyph unicode="Y" horiz-adv-x="1021" d="M1.5 1462.5q-2.5 17.5 7.5 27t32 9.5q8 0 41.5 3t67.5 4q25 2 51 2h18q36 -1 60.5 -8.5t29.5 -22.5q38 -33 68 -122t55 -205.5t35 -148.5q24 73 72 218.5t73 218.5q10 30 33.5 47t58.5 21q27 2 52 2h14q31 -1 72 -5t61 -4q15 0 17 -25v-6q0 -23 -10 -60q-11 -41 -27 -89 t-37 -101t-37.5 -94t-31.5 -76t-17 -40q-12 -32 -56 -127t-66 -165.5t-22 -135.5q0 -10 3.5 -81.5t5.5 -146.5q1 -50 1 -102v-54q-1 -80 -11.5 -131t-30.5 -51q-16 -11 -95 -11q-15 0 -33 1q-109 2 -128 21q-17 17 -20 61v29q0 34 4 75q5 59 5 66q0 37 3 117t3 126t-9 110 t-29 116l-252 645q-2 5 -11.5 25.5t-13.5 35t-6.5 32z" />
<glyph unicode="Z" horiz-adv-x="890" d="M0 70q0 31 5.5 68t19.5 83.5t28 87.5t32.5 86t30.5 73l24 56l12 27q47 114 141 340t141 340h-356q-34 1 -46 65q-6 32 -6 64t6 64q12 64 40 65q28 18 97 18t153 -9t104 -9h311q47 0 47 -69q0 -90 -81 -298q-24 -62 -60 -145q-9 -21 -10 -23q-167 -394 -291 -692h375 q35 0 54 -52q16 -44 16 -95q-1 -9 -1 -19q-4 -60 -24 -82q-23 -22 -91 -24q-15 -1 -32 -1q-56 1 -124 7q-88 8 -99 8h-365q-25 0 -38 17.5t-13 48.5z" />
<glyph unicode="a" horiz-adv-x="1091" d="M12 160q24 104 68 229t47 137q34 131 101.5 393.5t101.5 393.5q1 6 5 32.5t7.5 47t10.5 42.5t16 31q5 21 67 30q31 4 61 4l61 -4q62 -9 67 -30q139 -539 329 -1288q2 -6 8.5 -23.5t12 -34.5t10 -36t4 -34.5t-7.5 -24.5q-13 -15 -83 -21q-27 -2 -53 -3q-43 0 -83 6 q-66 9 -72 30q-22 21 -25.5 82.5t-7.5 120t-28 75.5q-17 11 -132 11t-130 -11q-25 -17 -30 -75.5t-8.5 -120t-25.5 -82.5q-5 -21 -71 -30q-41 -6 -84 -6q-26 1 -53 3q-70 6 -83 21q-12 16 -12 50t12 85zM422 571h147l-73 336q-12 -56 -36.5 -167.5t-37.5 -168.5z" />
<glyph unicode="b" horiz-adv-x="927" d="M0 125v965v350q0 25 19 39t51.5 16.5t62.5 1.5t65 -4.5t46 -3.5q56 0 86 -0.5t84.5 -4t88 -11t79 -22t76.5 -35t62 -53t52 -73.5q41 -77 49 -174q2 -19 2 -38q-1 -77 -27 -151q-32 -92 -104 -141q90 -60 120 -193q14 -64 14 -128q0 -69 -17 -139q-32 -134 -107 -207 q-35 -34 -82 -57t-88.5 -34t-103 -16t-99.5 -5t-106 1.5t-96 1.5q-87 0 -107 17.5t-20 97.5zM294 337q-1 -9 1 -20t4.5 -15t12 -9t21 -7.5t32.5 -6.5q61 0 100 26.5t53 68.5t16 94v18q0 43 -10 85q-3 17 -9.5 31t-17.5 23.5t-21 17t-28 12l-28 7t-32 3.5t-30.5 1.5t-32 0 t-28.5 -0.5v-260q0 -18 -1 -39t-2 -30zM297 918q0 -8 19 -10t46.5 1t56 9t51 14t28.5 16q44 56 44 111q0 40 -24 80q-38 62 -109 88q-28 10 -50 10q-30 0 -48 -19q-14 -16 -14 -44v-256z" />
<glyph unicode="c" horiz-adv-x="950" d="M0 1049q0 69 18 156q18 90 60 145q62 82 164 122q85 34 175 33q17 0 35 -1q108 -8 197 -60q46 -27 101.5 -98.5t83.5 -151.5q12 -34 13 -65q0 -40 -22 -74q0 -18 -22 -28q-21 -9 -57 -11q-27 -1 -52 -2h-16q-32 0 -66.5 3t-40.5 3q-24 0 -35.5 23t-12.5 51.5t-6.5 61 t-18.5 46.5q-49 56 -86 56q-60 0 -86 -149q-17 -101 -17 -300v-43q0 -19 -4 -73.5t-7 -104.5q-2 -25 -2 -52q0 -28 2 -58q3 -60 13.5 -103t37 -73t67.5 -30q42 0 65.5 21.5t30 52.5t9.5 62.5t11.5 53t28.5 21.5q15 11 115 11t117 -11q44 0 44 -54q0 -39 -23 -107 q-37 -108 -90 -191l-15 -20q-109 -97 -273 -107q-16 -1 -33 -1q-144 0 -253 77q-46 32 -76 81t-44 97q-14 46 -20 114q-5 58 -5 101v14q1 47 4 119t3 107q0 38 -6 150q-6 123 -6 186z" />
<glyph unicode="d" horiz-adv-x="942" d="M2 154q0 32 3 67.5t3 42.5v1139q0 34 11 56t27 31.5t44 13t50.5 2t59 -4t58.5 -2.5q71 0 126 -4t121 -14.5t115.5 -33.5t94.5 -58t73.5 -91t38.5 -129q10 -75 11 -159v-34q0 -72 -3 -159q-4 -109 -4 -160q0 -26 1.5 -92.5t1.5 -102.5t-5.5 -95.5t-18 -98t-38.5 -82.5 t-63 -75q-48 -41 -109.5 -66t-139.5 -33q-76 -8 -132 -10h-37q-47 0 -111 2q-92 4 -129 4q-21 0 -33 22q-13 20 -15 56q-2 28 -2 55q1 7 1 13zM309 270q8 -3 57 -1.5t106.5 42t57.5 101.5v602q0 8 0.5 32.5t0.5 35.5t-2 33.5t-5 34.5t-10 29t-17 26.5t-25.5 18t-35.5 11.5 q-65 10 -85 10h-6q-33 -5 -36 -53v-12v-699v-211z" />
<glyph unicode="e" horiz-adv-x="876" d="M2 1406q2 47 18 64q21 22 84 24q16 1 33 0q51 0 113 -6q83 -8 92 -7q22 0 113 9.5t165 9.5t105 -19q26 1 38 -63q6 -32 6 -65q1 -31 -5 -63q-12 -64 -43 -63h-410q-3 0 -4.5 -30.5t-2 -79t-0.5 -92t0.5 -87.5t0.5 -47q0 -4 32 -6t83 -2.5t97.5 -0.5h93t51.5 1 q32 1 44 -63q6 -32 6 -64t-6 -64q-12 -64 -38 -63q-20 -13 -59 -13q-11 0 -21 1q-54 4 -106 17q-52 12 -104 14h-8q-45 0 -65 -19q-11 -11 -11 -172t11 -170q23 -20 103 -20t180 10t117 10q37 1 55 -55q16 -47 15 -98q-1 -10 -1 -20q-4 -62 -24 -83q-24 -25 -96 -27 q-16 -1 -32 0q-60 0 -133 7q-93 9 -104 9h-340q-17 0 -26 19t-11 50t-1.5 59.5t3 57.5t2.5 34v989q0 9 -6 69q-4 45 -4 84v24z" />
<glyph unicode="f" horiz-adv-x="870" d="M2 467v159v230q2 187 5 364.5t3 198.5q0 35 49.5 54t129.5 22q40 1 78.5 1t76.5 -1q74 -3 151.5 -8.5t94.5 -5.5q14 0 39.5 1.5t41 2.5t35 -2t31 -10t19.5 -23t8 -41q0 -17 1 -42t1 -38t-1 -31t-5 -27t-11.5 -19.5t-19.5 -15t-30.5 -8t-43.5 -3.5q-4 0 -48 0.5t-90 0.5 q-23 1 -47 1t-49 -1q-50 0 -82 -2t-32 -5v-349q0 -3 31 -5t80 -3h47.5h46.5q45 1 88.5 1.5t48.5 0.5q26 0 44.5 -27.5t24.5 -64.5q3 -24 3 -48q0 -13 -1 -26q-3 -37 -15 -55q0 -19 -31 -29.5t-80 -11.5q-29 -1 -58 -1h-36q-46 1 -91.5 4t-52.5 3q-26 0 -40 -12.5 t-16.5 -35.5t-1 -45.5t5 -54.5t3.5 -50v-365q0 -20 -22.5 -31t-58.5 -12q-22 -1 -42 -1h-28q-33 1 -69 4t-44 3q-19 0 -29.5 129t-11.5 330z" />
<glyph unicode="g" horiz-adv-x="972" d="M2 582q0 84 7 197.5t7 160.5q0 18 -1 68q-1 32 -1 55v21q1 26 4 66.5t12.5 73.5t24.5 62q59 114 181 169q96 44 199 44q27 0 55 -3q133 -15 233 -91q32 -25 83 -126q63 -126 63 -196q0 -15 -3 -27q-9 -40 -51 -40q-20 0 -54 -3t-58.5 -5t-53 0.5t-46.5 11t-30 29.5 t-12 53q0 47 -25.5 80t-61.5 41q-19 4 -38 4l-34 -3q-36 -7 -61.5 -39t-25.5 -79v-381q0 -33 -6 -108t-6 -136.5t12 -105.5q0 -52 37 -81q35 -29 82 -29q3 0 5 1q50 1 89 29q13 9 21 23t10.5 32.5t3 31.5t-0.5 36.5t-1 30.5q0 5 1 25.5t2 41.5t0.5 43t-4 35.5t-9.5 13.5 q-10 0 -42.5 -3.5t-58.5 -3.5t-38 7q-27 0 -40 61q-6 31 -6 61t6 61q13 61 46 61h385q27 0 42 -17.5t18 -48t2.5 -58t-4 -62.5t-3.5 -48q0 -25 2 -98q3 -60 3 -99q0 -8 -1 -15q0 -41 -10 -98.5t-31 -98.5q-59 -114 -181 -169q-96 -44 -199 -44q-27 0 -55 4q-132 14 -232 90 q-62 48 -98 126.5t-46 179.5q-9 97 -9 178q0 4 1 8z" />
<glyph unicode="h" horiz-adv-x="931" d="M1 436v146q1 108 1 212q2 172 5 333t3 178q0 8 -2.5 36t-3 51t2 49t14.5 41t32 15q17 0 57 4t69.5 5t62 -3.5t50 -22.5t17.5 -50v-480q-1 -39 43 -63q43 -24 95 -24q1 1 3 1q54 0 80 25q18 17 18 103.5t-9 192.5t-9 118q0 21 -1.5 55.5t-1.5 49.5t4.5 36.5t16 30 t33.5 15.5t56 7q19 0 52 1.5t48 1.5t36.5 -4t31 -14t17 -29.5t7.5 -49.5v-387v-928q0 -33 -14 -52.5t-42 -25t-52.5 -5.5t-63.5 3.5t-57 3.5q-32 0 -50.5 16.5t-23 47t-4 58t4 66.5t3.5 56q0 5 1 54t1 100v52v54q0 56 -3 91.5t-9 35.5q-27 0 -61.5 3t-53.5 5t-40.5 -0.5 t-31.5 -12t-17 -31t-7 -56.5v-488q0 -25 -21 -39.5t-56 -17.5q-26 -2 -51 -2h-17q-33 1 -71 4.5t-50 3.5q-20 0 -30.5 119t-11.5 305z" />
<glyph unicode="i" horiz-adv-x="421" d="M2 308v86q0 86 1 168q2 122 5.5 235t3.5 123v487q0 35 31 59q31 26 73 34q29 6 59 5q14 0 29 -1q45 -4 72 -21q20 0 30 -85q11 -84 12 -216v-104v-150q-2 -122 -5.5 -235.5t-3.5 -123.5v-487q0 -30 -13.5 -49t-33.5 -26.5t-50.5 -9.5t-56 0.5t-59 5.5t-51.5 3 q-20 0 -31 85t-12 217z" />
<glyph unicode="j" horiz-adv-x="851" d="M9.5 178q16.5 28 82.5 74q44 30 71 38.5t41 2.5t48.5 -15.5t77.5 -9.5q33 0 57.5 12.5t38 36.5t21 50t9 62t1.5 62.5t-2 62t-2 50.5t-4.5 127t-6.5 229q-1 68 -1 138q0 52 1 106q1 126 15 206.5t39 80.5q26 0 65 2.5t61.5 4t50 -2.5t42 -15.5t25 -35.5t10.5 -62v-573 v-428q0 -74 -29 -140.5t-77.5 -114.5t-113.5 -81t-134 -45q-35 -5 -71 -5q-35 0 -70 5q-72 11 -134 47q-80 46 -104 74.5t-7.5 56.5z" />
<glyph unicode="k" horiz-adv-x="1060" d="M2 408q2 90 9 183.5t7 113.5q0 11 -4 111t-6 204q-1 52 -1 106q1 54 1 110q2 112 15.5 184.5t39.5 72.5q27 0 64 2t57.5 3t46 -1t39 -9.5t26.5 -22.5t18 -40.5t6 -62.5v-424q9 18 39 88t64 144t72.5 150t75.5 124.5t62 48.5q20 10 81 10q19 0 41 -1q133 -5 141 -44 q2 -8 -3 -18q-72 -126 -154 -275q-10 -19 -52.5 -79t-71 -111.5t-29.5 -85.5v-6q0 -27 16 -67q18 -44 52 -102t38 -67q28 -66 189 -426q1 -2 28.5 -53t41 -91.5t1.5 -58.5q-14 -20 -60 -24q-19 -2 -40 -2q-32 0 -72 4q-66 6 -71 6q-20 0 -33.5 4.5t-24 17.5t-14.5 20t-13 30 t-12 30q-39 92 -109 261t-95 229q-45 -71 -64.5 -134t-22 -106t-1.5 -153q0 -55 -1 -85t-11.5 -55.5t-17 -35t-36.5 -16.5t-50.5 -7h-76.5h-37q-40 0 -62 60t-25 158q-2 53 -2 105q0 42 1 83z" />
<glyph unicode="l" horiz-adv-x="886" d="M2 412q-1 90 -1 176q1 86 1 168q2 166 5 321t3 170q0 26 -1 64t-1 54.5t2 42t6 34.5t13.5 24t23 19.5t35.5 10.5t50 7.5t67 1.5q43 0 70 -18.5t37 -45.5q12 -27 14 -69q1 -18 1 -34q-1 -23 -3 -44q-4 -36 -7.5 -83.5t-3.5 -75.5v-760q0 -15 -2 -35t-2 -28t3.5 -17.5 t14.5 -12.5t31 -3h342q33 0 52 -11t25 -34.5t6.5 -43.5t-2.5 -56t-3 -54q0 -13 -1.5 -23t-3 -17.5t-6.5 -13t-7.5 -9.5t-10.5 -6.5t-11.5 -4t-15 -2t-16 -0.5h-19h-19.5h-623q-20 0 -30.5 114.5t-12.5 293.5z" />
<glyph unicode="m" horiz-adv-x="1236" d="M1 112q0 15 1.5 43.5t1.5 47.5v598v563q0 27 1.5 46t4.5 34.5t9 25t14.5 17t20 10t27 5t35.5 1.5t44 0h10h9.5h10.5q36 0 65 -14.5t47 -35.5t33.5 -55t24 -63t21 -69t22.5 -64q26 -68 80 -202t80 -201q40 103 116.5 296t88.5 222q13 33 23 55.5t21 43t21 33t23 23.5 t26.5 15.5t31 9.5t37.5 4.5t46.5 1.5t56.5 0h38q20 0 30.5 -126.5t11.5 -322.5v-130q0 -128 -1 -251q-2 -184 -5.5 -356t-3.5 -192q0 -8 0.5 -23.5t0.5 -22.5t-1 -19t-3.5 -17.5t-7.5 -13t-12.5 -11t-19 -6t-26.5 -2.5q-11 0 -44.5 -3.5t-62 -4.5t-59 2t-48.5 16t-18 37v680 q-10 -26 -25 -79.5t-28.5 -101.5t-35 -103.5t-44 -95.5t-56 -66.5t-71.5 -26.5q-46 0 -84 35t-64.5 95.5t-44.5 117.5t-36.5 126.5t-28.5 96.5v-499q0 -128 -3 -147q-7 -50 -45 -65q-36 -14 -146 -14q-29 0 -49.5 4t-32.5 14t-18.5 20t-8 29.5t-1.5 34.5z" />
<glyph unicode="n" horiz-adv-x="1001" d="M1 102q0 15 1.5 43.5t1.5 47.5v600v563q0 31 2 52t6 37t12 24.5t19.5 15t27 8t37 3t48.5 -0.5h34q43 0 75 -17.5t53.5 -52.5t34 -66.5t28.5 -82t27 -76.5q76 -190 180 -440v557q0 5 -2 29t-2.5 46.5t1.5 47.5t11 40t25 15q19 12 64 12t100 -6t69 -6q20 0 31 -128 q11 -129 13 -329q1 -100 0.5 -196.5t-0.5 -189.5q-2 -186 -5.5 -362t-3.5 -196q0 -58 -42 -87q-37 -26 -85 -26q-6 1 -11 1q-54 4 -106 32.5t-70 73.5l-270 645v-518v-37v-54.5t-2.5 -41t-6.5 -32.5t-14.5 -21t-23 -16t-35 -7.5t-47.5 -5t-65 -0.5q-29 0 -49.5 4t-32.5 14 t-18.5 20t-8 29.5t-1.5 34.5z" />
<glyph unicode="o" horiz-adv-x="974" d="M2 590q0 84 7 196.5t7 159.5q0 18 -1 67q-1 33 -1 55v20q0 26 3.5 66.5t13 73.5t24.5 62q58 114 179 169q96 44 199 44q27 1 55 -3q132 -14 231 -91q52 -40 86 -105.5t47 -133.5q14 -68 18 -158q2 -45 2 -84q0 -40 -2 -75q-4 -69 -9 -156.5t-5 -133.5q0 -11 2 -82 q1 -36 0.5 -60.5t-0.5 -38.5q-2 -28 -12 -78.5t-29 -86.5q-59 -113 -179 -167q-96 -43 -200 -43q-28 0 -54 3q-132 14 -230 90q-62 48 -98 126t-46 179q-9 96 -9 176q1 5 1 9zM295 543q0 -91 18 -158q0 -42 25.5 -70.5t61.5 -34.5q17 -3 35 -3l37 3q36 6 61.5 35.5 t25.5 71.5v217v522q0 30 -13.5 53.5t-35.5 35.5t-48 17.5t-52 -1t-48 -19t-35.5 -36.5t-13.5 -54v-215q0 -50 -9 -161.5t-9 -202.5z" />
<glyph unicode="p" horiz-adv-x="948" d="M1.5 1370q-0.5 23 0 31.5t1 25t3 22t6.5 16.5t10.5 14.5t16 9.5t22.5 7.5t29.5 3t38.5 1.5q32 0 99 2t108 3h8q38 0 93 -4q61 -5 104 -16t91 -34.5t85 -58.5q79 -75 109 -199q19 -78 19 -154q0 -47 -7 -92q-18 -122 -88.5 -225t-178.5 -137q-14 -5 -83 -10t-126 -12.5 t-57 -20.5v-246v-258q0 -17 -11.5 -26.5t-32 -12t-38.5 -2.5t-40.5 2t-28.5 2q-40 0 -64.5 1t-42.5 9.5t-26 15t-13 29t-5.5 39t-0.5 57.5v5v5v5v1167q0 12 -0.5 35zM303 1192q0 -11 0.5 -20t1 -24.5t0.5 -29.5v-291q9 -8 59 -9h2q50 0 110 32q61 33 65 84q2 31 3 45t2 45.5 t-0.5 47.5t-5 42.5t-10.5 41.5t-19 33.5t-28 28t-39 16.5t-51 7q-17 3 -30 0.5t-22.5 -1.5t-16 -3.5t-11 -6.5t-7 -9.5t-3 -12.5t-0.5 -16z" />
<glyph unicode="q" horiz-adv-x="1083" d="M2 516q-1 30 -1 62q0 124 11 276q13 190 13 266q0 79 29.5 147t79 114.5t115 77.5t136.5 41q32 4 65 4q40 0 80 -6q75 -12 140 -46q65 -33 107 -80t62 -107.5t26.5 -116.5t6.5 -132v-535q0 -12 0.5 -42.5t0.5 -48t-1.5 -42.5t-5.5 -45t-4.5 -35t3 -26.5t8.5 -19t16 -16 t20.5 -14.5t27.5 -17t32 -21q11 -8 12 -19.5t-6.5 -25.5t-18 -28.5t-26 -29.5t-28 -26.5t-25 -22.5t-15.5 -14q-13 -14 -30 -15.5t-35 8.5t-33 20.5t-33 26t-26 21.5t-47 -5.5t-84.5 -28.5t-57.5 -19q-33 -4 -65 -4q-81 0 -154 24q-90 29 -159.5 91.5t-96.5 148.5 q-36 113 -39 260zM306 1028v-30q0 -75 8 -167q10 -110 10 -149q0 -15 -5 -93q-6 -86 -6 -134q0 -53 17 -108q18 -57 57 -73q-17 9 -24 25.5t6 34.5q10 11 33.5 39t39.5 44t38.5 31t45 11.5t45.5 -25.5v498q0 17 3.5 58.5t3.5 75.5t-7 58q0 42 -31 72t-72 38q-14 4 -29 4 q-25 0 -51 -10q-40 -15 -56 -54q-24 -59 -26 -146z" />
<glyph unicode="r" horiz-adv-x="1019" d="M2 454q-1 84 0 166q0 108 1 212q2 182 6.5 355t4.5 195q0 7 -0.5 26.5t-0.5 27.5t3 22.5t9 21t18 12t29 5.5l175 1q70 1 112 1q63 0 63 -2q100 0 183.5 -28t148.5 -92.5t92 -159.5q20 -75 22 -153v-12q0 -70 -16 -138q-18 -74 -63.5 -137t-114.5 -101q56 -145 239 -617 q8 -22 -12 -35t-60 -16t-76 -3t-76 2.5t-44 2.5q-24 0 -46.5 34.5t-35 73t-25.5 88t-16 56.5q-21 58 -63 175t-62 175q-3 11 -43.5 10t-41.5 -22v-145v-394q0 -25 -19.5 -39.5t-53.5 -17.5q-26 -2 -50 -2h-15q-32 1 -69 4.5t-48 3.5q-25 0 -39 124t-16 320zM310.5 916 q-0.5 -9 1.5 -21.5t6 -16t14.5 -8t25.5 -5.5t39 -1q56 0 92.5 17t53.5 51q17 32 21 72q2 21 3 47q0 23 -2 49q-3 42 -18.5 71t-40 42t-56.5 20q-29 7 -61 7h-5q-35 0 -72 -1v-252q0 -18 -0.5 -40t-1 -31z" />
<glyph unicode="s" horiz-adv-x="985" d="M18 1083q0 91 35 170.5t93 133t134.5 85.5t156.5 35h15q73 1 148 -25q83 -28 150 -89q32 -28 70 -97q40 -70 58 -146q6 -24 5 -46q0 -45 -27 -76q-16 -17 -64 -19h-24q-40 1 -86 5q-62 6 -72 6q-25 0 -36.5 22t-16.5 54t-13 63.5t-34 53.5t-72 22q-51 0 -83.5 -26.5 t-38.5 -66.5q-3 -18 -3 -36q1 -24 5 -48q8 -42 37 -78t69 -50q28 -13 142 -50.5t167 -76.5q51 -36 83 -92.5t42 -122.5q10 -60 10 -117v-11q-1 -63 -12 -128q-17 -102 -82 -179.5t-155.5 -113t-188.5 -39.5h-15q-91 0 -179 40q-94 42 -156 122q-23 30 -54 121 q-28 82 -28 130q0 46 26 62q10 6 25 6q9 0 71 6q44 4 81 4q15 -1 29 -1q47 -2 65 -19q17 -18 25.5 -44.5t9 -49t5.5 -47t17 -37.5t44 -21q13 -3 28 -3q24 0 55 7q49 7 75 67q24 55 24 117v12q-2 70 -29 108q-23 34 -82 58t-133.5 44t-102.5 33q-213 101 -213 368z" />
<glyph unicode="t" horiz-adv-x="962" d="M1 1344q0 23 3.5 59t3.5 53q0 20 13 31.5t35.5 14t43 2.5t46.5 -2.5t34 -2.5h635q25 0 37 -56q8 -39 8 -80q0 -18 -2 -37q-5 -61 -20 -75q-12 -13 -80 -13h-14q-58 0 -104 4q-52 4 -62 -3v-598v-412q0 -10 5 -54.5t5 -81t-10 -50.5q0 -23 -61 -35q-54 -10 -111 -11 q-6 1 -14 1q-64 2 -81 10q-14 0 -22.5 10.5t-10.5 28.5t-2 33.5t1.5 35t1.5 23.5v805v277q0 13 -16.5 19.5t-43.5 7t-53 -0.5t-53 -3.5t-35 -2.5q-31 0 -49 13.5t-23 40t-5 49.5z" />
<glyph unicode="u" horiz-adv-x="940" d="M2 616q2 61 6 145t4 130v467v22v38.5t3 28t9.5 22.5t18.5 13t30.5 9t45.5 2q18 0 51 1t45 0.5t33 -3t28.5 -9.5t17 -19.5t12.5 -33t3 -49.5v-456v-459q0 -32 6.5 -67.5t21.5 -68t36.5 -52t54.5 -14.5t72 38q20 17 28 59q8 37 8 70v8q-1 37 -4.5 87t-3.5 63v512v350 q0 23 22 35.5t58 14.5q24 1 46 1h22q34 -1 70.5 -4.5t46.5 -3.5q20 0 31 -71.5t12 -183.5v-87v-127q-2 -104 -5.5 -200.5t-3.5 -106.5v-342q0 -69 -25 -130t-67 -105.5t-98.5 -76.5t-118.5 -46q-50 -11 -102 -11h-26q-66 4 -128 27q-70 26 -120.5 71t-78 106t-42.5 122.5 t-17 141.5q-2 50 -2 94q-1 25 0 48z" />
<glyph unicode="v" horiz-adv-x="1024" d="M2 1382q-3 17 -2 32q0 27 9 46q14 29 50 29q8 0 41 3q32 2 63 4q19 1 38 1h26q33 -1 55 -10.5t25 -26.5q7 -40 22.5 -119.5t22.5 -119.5q18 -98 54 -293.5t55 -292.5q43 221 125 663q1 5 4 31t6.5 50.5t10 50.5t18 42.5t26.5 16.5q18 13 65.5 13t107 -6.5t73.5 -6.5 q21 -1 23 -41q0 -7 1 -14q-1 -36 -11 -88q-12 -62 -26.5 -120.5t-29.5 -112t-16 -58.5q-176 -751 -183 -781q-7 -28 -14.5 -64.5t-11.5 -55.5t-11 -44t-14 -37t-19 -27t-27.5 -21t-38.5 -12.5t-52 -8.5t-68 -2q-29 0 -52 19.5t-36.5 48.5t-24 70t-15 75.5t-10 74t-9.5 56.5 q-166 714 -182 784q-3 12 -20.5 63.5t-28.5 95.5t-19 93z" />
<glyph unicode="w" horiz-adv-x="1435" d="M10 1348q-8 44 -8 72q0 38 14 50q26 20 142 21h4h3.5h4.5q44 0 72.5 -8.5t44 -20t24.5 -39t11.5 -48.5t6 -65.5t7.5 -74.5q10 -82 30.5 -245t30.5 -245q16 78 48 233.5t49 233.5q6 29 11.5 72t9 68t13.5 55t25 46t43.5 27t69.5 11q42 0 71.5 -11.5t45 -28t25.5 -47 t13.5 -56.5t9 -70t11.5 -74q17 -80 49 -238.5t49 -238.5q13 100 36.5 297t35.5 297q1 6 1.5 29t3 44.5t7 45t14.5 37.5t25 14q18 13 66 13t108 -6.5t74 -6.5q20 1 22 -53q0 -7 1 -16q0 -50 -12 -121q-12 -83 -26 -160.5t-29 -148.5t-16 -77q-23 -137 -141 -827 q-7 -39 -38 -66q-30 -27 -72 -35q-26 -5 -52 -5l-32 2q-42 5 -73 29.5t-38 62.5q-24 119 -69.5 357.5t-69.5 357.5q-37 -203 -97 -512q-5 -25 -9.5 -64.5t-7 -66t-11.5 -57t-22 -48.5t-38.5 -30.5t-62.5 -12.5h-57.5t-43 3t-33.5 5t-22.5 12t-18 18.5t-11 28.5t-10.5 38.5 t-9 52.5q-14 77 -100 581q-18 102 -52 305t-51 304z" />
<glyph unicode="x" horiz-adv-x="1052" d="M6 35q-6 9 -6 25q0 25 16 68q26 69 71 150t48 89q30 69 90.5 204.5t91.5 204.5q3 7 3 17q0 23 -15 61q-22 54 -62 125t-42 76q-25 57 -54 121.5t-63.5 141t-54.5 120.5q-2 5 -2 10q0 21 47 35q52 16 117 16q28 0 58 -3q74 -7 83 -30q31 -25 57.5 -88t51 -146.5 t34.5 -107.5q11 26 36 108t52 145.5t58 88.5q13 30 122 31h8q105 0 155 -26q25 -14 18 -31q2 -5 2 -13q0 -28 -26 -84q-32 -70 -80 -153t-54 -96q-23 -51 -70.5 -154t-70.5 -154q11 -25 74.5 -164.5t95.5 -213.5q6 -12 53 -94q48 -82 78 -151q24 -55 24 -84q0 -8 -2 -13 q9 -19 -35 -35q-53 -19 -121 -19q-22 0 -45 2q-94 7 -110 45q-27 64 -81.5 191t-80.5 190q-27 -63 -80.5 -190t-79.5 -191q-11 -27 -81 -43q-53 -12 -106 -11q-17 0 -35 1q-71 5 -87 29z" />
<glyph unicode="y" horiz-adv-x="1021" d="M1.5 1462.5q-2.5 17.5 7.5 27t32 9.5q8 0 41.5 3t67.5 4q25 2 51 2h18q36 -1 60.5 -8.5t29.5 -22.5q38 -33 68 -122t55 -205.5t35 -148.5q24 73 72 218.5t73 218.5q10 30 33.5 47t58.5 21q27 2 52 2h14q31 -1 72 -5t61 -4q15 0 17 -25v-6q0 -23 -10 -60q-11 -41 -27 -89 t-37 -101t-37.5 -94t-31.5 -76t-17 -40q-12 -32 -56 -127t-66 -165.5t-22 -135.5q0 -10 3.5 -81.5t5.5 -146.5q1 -50 1 -102v-54q-1 -80 -11.5 -131t-30.5 -51q-16 -11 -95 -11q-15 0 -33 1q-109 2 -128 21q-17 17 -20 61v29q0 34 4 75q5 59 5 66q0 37 3 117t3 126t-9 110 t-29 116l-252 645q-2 5 -11.5 25.5t-13.5 35t-6.5 32z" />
<glyph unicode="z" horiz-adv-x="798" d="M0 70q0 31 5.5 68t19.5 83.5t28 87.5t32.5 86t30.5 73l24 56l12 27q47 114 141 340t141 340h-356q-34 1 -46 65q-6 32 -6 64t6 64q12 64 40 65q28 18 97 18t153 -9t104 -9h311q47 0 47 -69q0 -90 -81 -298q-24 -62 -60 -145q-9 -21 -10 -23q-167 -394 -291 -692h375 q35 0 54 -52q16 -44 16 -95q-1 -9 -1 -19q-4 -60 -24 -82q-23 -22 -91 -24q-15 -1 -32 -1q-56 1 -124 7q-88 8 -99 8h-365q-25 0 -38 17.5t-13 48.5z" />
<glyph unicode="{" horiz-adv-x="559" d="M0 686v88q0 14 10 27q13 10 25 10q69 0 92 29q16 22 16 65q0 55 -14 144v4q-14 86 -14 145q0 131 84 203q75 63 204 63h37q15 0 26 -10t11 -24v-99q0 -14 -11 -24.5t-26 -10.5h-30q-59 0 -82 -26q-23 -30 -23 -88q0 -48 12 -121q13 -89 13 -137q3 -132 -80 -193 q83 -61 80 -194q0 -55 -13 -138q-12 -90 -12 -120q0 -63 24.5 -91t80.5 -28h32q14 0 24.5 -10t10.5 -25v-96q0 -13 -10.5 -24t-24.5 -11h-39q-139 0 -213.5 71t-74.5 203q0 57 14 150q14 86 14 137q0 44 -21.5 70t-86.5 26q-14 0 -24.5 10t-10.5 25zM403 29z" />
<glyph unicode="}" horiz-adv-x="557" d="M0 29v96q0 15 10 25t25 10h28q57 1 82 29t25 90q0 26 -8 92q-1 5 -2 15t-2 15q-15 93 -15 138q0 132 84 192q-84 59 -84 193q0 56 15 133l4 30q8 66 8 95q0 63 -23.5 88.5t-80.5 27.5h-31q-15 0 -25 10t-10 25v97q0 14 10 24t25 10h35q138 0 214 -69t76 -195 q0 -51 -12 -145l-2 -6q-12 -98 -12 -144q0 -22 3 -36t13 -29t32.5 -22t57.5 -7q14 0 24.5 -10.5t10.5 -24.5v-90q0 -14 -10 -24q-11 -11 -25 -11q-66 0 -90 -30q-16 -19 -16 -64q0 -47 12 -137q14 -105 14 -150q0 -134 -74.5 -205t-213.5 -71h-37q-15 0 -25 10.5t-10 24.5z " />
<glyph unicode="&#xad;" d="M2 784q-4 63 8 90q3 58 103 58q8 0 24 -1t23 -1q4 0 11.5 -1t10.5 -1q15 0 97 8q118 12 198 12q125 0 162 -37q20 -18 25 -94q4 -58 -7 -90q-3 -57 -102 -57q-35 0 -47 2q-6 0 -14 1t-11 1q-14 0 -96 -8q-128 -13 -199 -13q-124 0 -161 37q-21 21 -25 94z" />
<glyph unicode="&#x2000;" horiz-adv-x="804" />
<glyph unicode="&#x2001;" horiz-adv-x="1609" />
<glyph unicode="&#x2002;" horiz-adv-x="804" />
<glyph unicode="&#x2003;" horiz-adv-x="1609" />
<glyph unicode="&#x2004;" horiz-adv-x="536" />
<glyph unicode="&#x2005;" horiz-adv-x="402" />
<glyph unicode="&#x2006;" horiz-adv-x="268" />
<glyph unicode="&#x2007;" horiz-adv-x="268" />
<glyph unicode="&#x2008;" horiz-adv-x="201" />
<glyph unicode="&#x2009;" horiz-adv-x="321" />
<glyph unicode="&#x200a;" horiz-adv-x="89" />
<glyph unicode="&#x2010;" d="M2 784q-4 63 8 90q3 58 103 58q8 0 24 -1t23 -1q4 0 11.5 -1t10.5 -1q15 0 97 8q118 12 198 12q125 0 162 -37q20 -18 25 -94q4 -58 -7 -90q-3 -57 -102 -57q-35 0 -47 2q-6 0 -14 1t-11 1q-14 0 -96 -8q-128 -13 -199 -13q-124 0 -161 37q-21 21 -25 94z" />
<glyph unicode="&#x2011;" d="M2 784q-4 63 8 90q3 58 103 58q8 0 24 -1t23 -1q4 0 11.5 -1t10.5 -1q15 0 97 8q118 12 198 12q125 0 162 -37q20 -18 25 -94q4 -58 -7 -90q-3 -57 -102 -57q-35 0 -47 2q-6 0 -14 1t-11 1q-14 0 -96 -8q-128 -13 -199 -13q-124 0 -161 37q-21 21 -25 94z" />
<glyph unicode="&#x2012;" d="M2 784q-4 63 8 90q3 58 103 58q8 0 24 -1t23 -1q4 0 11.5 -1t10.5 -1q15 0 97 8q118 12 198 12q125 0 162 -37q20 -18 25 -94q4 -58 -7 -90q-3 -57 -102 -57q-35 0 -47 2q-6 0 -14 1t-11 1q-14 0 -96 -8q-128 -13 -199 -13q-124 0 -161 37q-21 21 -25 94z" />
<glyph unicode="&#x2013;" horiz-adv-x="1127" d="M3 784q-7 63 12 90q5 58 159 58q12 0 36.5 -1t35.5 -1q6 0 17.5 -1t16.5 -1q23 0 150 8q182 12 305 12q193 0 250 -37q31 -18 38 -94q7 -58 -10 -90q-5 -57 -158 -57q-54 0 -72 2q-9 0 -21.5 1t-17.5 1q-21 0 -148 -8q-197 -13 -307 -13q-191 0 -248 37q-32 21 -38 94z " />
<glyph unicode="&#x2014;" horiz-adv-x="2151" d="M4 784q-12 63 25 90q9 58 317 58q25 0 74.5 -1t70.5 -1q13 0 36 -1t32 -1q46 0 299 8q364 12 611 12q386 0 500 -37q61 -18 77 -94q12 -58 -22 -90q-9 -57 -314 -57q-108 0 -145 2q-19 0 -43.5 1t-33.5 1q-44 0 -297 -8q-394 -13 -613 -13q-383 0 -497 37q-65 21 -77 94z " />
<glyph unicode="&#x202f;" horiz-adv-x="321" />
<glyph unicode="&#x205f;" horiz-adv-x="402" />
<glyph unicode="&#x20ac;" horiz-adv-x="1228" d="M2 626q-5 53 4 74q3 52 55 52h19h18q23 0 27 14h-23q-49 0 -73 27q-23 26 -23 81q0 69 28.5 89t94.5 20h14q3 5 11.5 20t21 38.5t21.5 39.5q103 202 133 232q162 169 391 188q18 2 57 2q170 0 301 -73q21 -10 25 -37q7 -37 -7 -92.5t-32 -75.5q-12 -23 -59 -23 q-37 0 -156 25q-105 20 -125 18q-95 -15 -166.5 -84.5t-103.5 -177.5h321q44 0 64 2h49q67 0 98 -29t31 -116q0 -77 -125 -82q125 -18 125 -76q0 -85 -30.5 -114t-96.5 -29q-29 0 -45 2h-60h-344q35 -129 126.5 -204t215.5 -75q62 0 117 17l17 4q84 24 106 24q17 0 30 -7 t21 -16t17.5 -32t14.5 -39t15 -53q9 -30 -10 -56q-27 -37 -112 -62.5t-148 -33.5t-90 -8q-162 0 -301.5 77t-222.5 212q-70 111 -95 258q-2 0 -6.5 1t-7.5 1q-4 0 -13 -1t-14 -1q-10 -2 -32 -2q-30 0 -45 12h-2q-16 16 -21 69zM420 754q13 0 67 4q122 8 218 8q-6 2 -19 2 q-118 12 -162 12q-89 0 -104 -26z" />
<glyph unicode="&#x25fc;" horiz-adv-x="1495" d="M0 0v1495h1495v-1495h-1495z" />
</font>
</defs>
</svg>
