<?xml version="1.0" standalone="no"?>
<!DOCTYPE svg PUBLIC "-//W3C//DTD SVG 1.1//EN" "http://www.w3.org/Graphics/SVG/1.1/DTD/svg11.dtd" >
<svg xmlns="http://www.w3.org/2000/svg">
<metadata></metadata>
<defs>
<font id="butlerregular" horiz-adv-x="1419" >
<font-face units-per-em="2048" ascent="1505" descent="-543" />
<missing-glyph horiz-adv-x="512" />
<glyph horiz-adv-x="0" />
<glyph horiz-adv-x="682" />
<glyph unicode=" "  horiz-adv-x="512" />
<glyph unicode="&#x09;" horiz-adv-x="512" />
<glyph unicode="&#xa0;" horiz-adv-x="512" />
<glyph unicode="!" horiz-adv-x="602" d="M180 102q0 -49 35.5 -84.5t85.5 -35.5q51 0 86 35t35 85q0 51 -35 86t-86 35q-50 0 -85.5 -35t-35.5 -86zM209 1526h190l-47 -1139h-98z" />
<glyph unicode="&#x22;" horiz-adv-x="970" d="M207 1442h196l-49 -672h-94zM590 1442h196l-49 -672h-96z" />
<glyph unicode="#" horiz-adv-x="1437" d="M82 494v120h295l82 365h-248v121h274l101 428h129l-99 -428h326l100 428h129l-100 -428h266v-121h-293l-83 -365h247v-120h-274l-113 -494h-129l113 494h-328l-112 -494h-129l112 494h-266zM506 614h325l84 365h-327z" />
<glyph unicode="$" horiz-adv-x="1101" d="M67.5 1161q9.5 69 55.5 139q4 6 12.5 17t41.5 38t73 48t109.5 38.5t148.5 18.5v252h57v-252q116 -5 219 -29t148 -45l45 -22v-346h-19q-42 392 -393 414v-576l201 -131q100 -66 163.5 -142.5t86 -151.5t13 -147t-49.5 -137q-22 -25 -33 -36.5t-49 -39.5t-77 -43.5 t-107 -29.5t-148 -16v-248h-57v248q-80 4 -153 17t-120 29t-82.5 31.5t-50.5 26.5l-16 10v393h16q8 -95 31 -171t67.5 -144t122.5 -110.5t185 -53.5v629l-162 104q-65 43 -114 84.5t-93 97t-62.5 111.5t-9 125zM262.5 1161.5q7.5 -52.5 49.5 -110t116 -105.5l80 -53v541 q-54 -1 -103.5 -24t-84 -59.5t-50 -86.5t-8 -102.5zM565 8q83 3 143.5 31.5t90 72.5t37.5 99.5t-7.5 111t-52.5 108.5t-90 91l-121 78v-592z" />
<glyph unicode="%" horiz-adv-x="1996" d="M289 1014q0 57 6.5 107t25.5 100.5t48.5 86.5t79 58.5t114.5 22.5t115 -22.5t79.5 -58.5t48.5 -86.5t25.5 -100.5t6.5 -107q0 -361 -275 -361q-274 0 -274 361zM420 1014q0 -104 9.5 -172t29.5 -102.5t44 -47t60 -12.5q51 0 80.5 23t47.5 98t18 213q0 105 -10 175 t-30.5 107t-45.5 51.5t-60 14.5q-49 0 -78 -26t-47 -104.5t-18 -217.5zM485 0l934 1442h109l-934 -1442h-109zM1178 410q0 57 6.5 107t25.5 100.5t48.5 86t79 58t114.5 22.5q64 0 113.5 -22.5t79.5 -58t48.5 -86t25.5 -100.5t7 -107q0 -56 -7 -104.5t-25.5 -97t-48.5 -82.5 t-79 -55.5t-114 -21.5q-274 0 -274 361zM1307 410q0 -104 9.5 -172t30 -102.5t44.5 -47t61 -12.5q50 0 79 23t46.5 98t17.5 213q0 139 -18.5 217.5t-47.5 104.5t-77 26q-37 0 -62 -14.5t-44.5 -51.5t-29 -106.5t-9.5 -175.5z" />
<glyph unicode="&#x26;" horiz-adv-x="1613" d="M145.5 278q-14.5 81 8 147t70 128t99 104.5t105.5 73.5l115 70l-103 151q-73 99 -96 197.5t1 173.5t84 127.5t146 67.5q193 33 295 -84q29 -33 49.5 -77t26.5 -104.5t-10.5 -122t-70.5 -131.5t-144 -131l274 -405q83 206 244 242q80 16 127 -23q31 -25 35.5 -66.5 t-25.5 -78.5q-28 -32 -70.5 -36.5t-76.5 23.5q-32 26 -35 70q0 22 -30 18q-49 -7 -97 -67q-35 -44 -55 -105l162 -233q29 -42 70 -66t67 -27l26 -3q54 0 93.5 23t46.5 73h26q-1 -71 -34.5 -122.5t-78.5 -75t-96 -27.5q-7 -1 -19.5 -1.5t-47 3t-65.5 12.5t-66.5 32t-57.5 56 l-118 178q-18 -57 -62 -110t-103 -92t-131 -59.5t-142 -18.5t-139.5 36.5t-121.5 100.5q-61 78 -75.5 159zM303.5 350.5q19.5 -81.5 81.5 -155.5q47 -56 119.5 -82.5t146 -19t142.5 57.5t106 136l-340 491l-115 -71q-47 -33 -84 -86.5t-56.5 -121t0 -149zM500.5 1253 q10.5 -78 58.5 -149l146 -211q97 61 150.5 135.5t60 144.5t-11.5 131t-58 111q-46 47 -109.5 64.5t-126.5 -4.5q-61 -23 -90.5 -83.5t-19 -138.5z" />
<glyph unicode="'" horiz-adv-x="495" d="M154 1442h196l-49 -672h-96z" />
<glyph unicode="(" horiz-adv-x="655" d="M162 522q0 194 66.5 398t173.5 363.5t229 244.5l24 -23q-311 -368 -311 -989q0 -633 307 -911l-24 -25q-121 69 -227 213t-172 339t-66 390z" />
<glyph unicode=")" horiz-adv-x="657" d="M-6 1505l24 23q122 -85 229 -244.5t173.5 -363.5t66.5 -398q0 -294 -138.5 -565t-325.5 -377l-25 25q307 278 307 911q0 621 -311 989z" />
<glyph unicode="*" horiz-adv-x="1114" d="M131 1075l51 154l342 -166l-51 379h164l-51 -379l344 166l49 -154l-375 -69l264 -275l-131 -96l-182 336l-182 -336l-129 96l264 275z" />
<glyph unicode="+" horiz-adv-x="1464" d="M115 565v140h547v563h137v-563h547v-140h-547v-565h-137v565h-547z" />
<glyph unicode="," horiz-adv-x="464" d="M124 105q-1 50 34 85t85 35t85 -35q34 -34 39 -91.5t-12 -112.5t-46 -103q-16 -24 -23.5 -34t-26.5 -32.5t-43 -40t-56 -34.5l-13 16q39 28 65.5 61t36.5 61t12 52t-4.5 38.5t-16.5 15.5q-51 7 -80 34q-35 35 -36 85z" />
<glyph unicode="-" horiz-adv-x="909" d="M131 451v139h645v-139h-645z" />
<glyph unicode="." horiz-adv-x="454" d="M113 111q0 51 34.5 86.5t85.5 35.5q50 0 85.5 -35.5t35.5 -86.5t-35.5 -86t-85.5 -35q-51 0 -85.5 35t-34.5 86z" />
<glyph unicode="/" horiz-adv-x="843" d="M29 -43l630 1528h146l-631 -1528h-145z" />
<glyph unicode="0" horiz-adv-x="1247" d="M70 709q0 80 6.5 153t24 149.5t44.5 141t70.5 122.5t99.5 98t135 63.5t173 23.5t172.5 -23.5t134.5 -63.5t99 -98t70 -122.5t44.5 -141t24 -149.5t6.5 -153q0 -114 -13.5 -211t-51 -195t-97 -166.5t-159.5 -111.5t-230 -43q-131 0 -231 43t-160 111.5t-97.5 166.5 t-51 195t-13.5 211zM291 709q0 -140 12 -251t34.5 -186.5t51.5 -128t68 -81.5t78.5 -41.5t87.5 -12.5q60 0 106.5 17.5t89.5 64t71 123.5t45 202.5t17 293.5t-17.5 296.5t-47 208.5t-73 130.5t-89.5 70t-102 19.5q-58 0 -105.5 -19.5t-90.5 -69.5t-72.5 -130.5t-46.5 -208.5 t-17 -297z" />
<glyph unicode="1" horiz-adv-x="788" d="M123 1202l315 258h68v-1276q0 -45 10.5 -77t23.5 -47.5t38 -24t41 -9.5t45 -1v-25h-504v25q31 0 50.5 2t44.5 10.5t39 24.5t24 47t10 75v977q0 166 -189 19z" />
<glyph unicode="2" horiz-adv-x="974" d="M78 0l452 680q163 246 111 424q-32 112 -139 162q-102 49 -210 14q-113 -37 -160 -148q-12 -30 -19 -63l-31 6q4 63 19 117t38 91t52 67t59.5 48t61 31t58 19t48 9t32.5 3h13q151 0 251.5 -100t100.5 -242q0 -40 -12 -82.5t-27 -76t-54 -92.5t-66 -95.5t-89 -120.5 q-44 -59 -124.5 -177.5t-139.5 -207.5l-59 -88h440q56 0 107 29t83 88h27l-82 -295h-741z" />
<glyph unicode="3" horiz-adv-x="1026" d="M82 151.5q-6 32.5 6 63.5q17 44 59.5 63.5t85.5 2.5q44 -17 63.5 -60.5t2.5 -87.5q-19 -46 -57 -57q-10 -3 8.5 -19t72.5 -32.5t128 -16.5q155 0 228.5 95t59.5 272q-3 41 -15.5 81t-41 86t-71 81.5t-111.5 62t-156 33.5v29q112 19 186.5 82.5t97 141t1 159.5t-87.5 137 q-47 41 -114.5 51t-129.5 -9.5t-111.5 -68.5t-62.5 -117l-31 4q5 68 27 122.5t51.5 88.5t70 59t73 36.5t71 18t54 7t30.5 0.5q80 0 150 -34.5t115.5 -90t65 -128t8 -145t-66 -145t-147.5 -124.5q152 -42 239.5 -144.5t90.5 -218.5q3 -102 -26.5 -182.5t-78 -129.5 t-114.5 -80.5t-127.5 -43.5t-124.5 -12q-119 0 -206 32.5t-138 83.5q-21 21 -27 53.5z" />
<glyph unicode="4" horiz-adv-x="1075" d="M55 416v30l672 1004l78 -8v-918h199v-108h-199v-168q0 -63 8.5 -106t20 -65.5t34.5 -34t40.5 -13.5t49.5 -2v-27h-509v27q31 0 49.5 2.5t41 13.5t34 33t20 62.5t8.5 99.5v178h-547zM170.5 559.5q-7.5 -17.5 1 -25t19 -9t36.5 -1.5h375v682l-403 -598q-21 -31 -28.5 -48.5 z" />
<glyph unicode="5" horiz-adv-x="1095" d="M102 156q-8 34 2 65q15 45 59.5 66t90.5 6q44 -15 64.5 -59.5t5.5 -90.5q-14 -44 -60 -59q-15 -6 6 -26q45 -41 156 -49q19 -1 39 -1q95 0 174.5 34.5t128 93.5t66.5 138.5t-11 169.5q-15 52 -49.5 98t-92.5 87t-139 62.5t-189.5 24t-243.5 -27.5l122 754h709l-55 -191 h-652l-63 -381q195 42 343.5 28t251 -74t157.5 -144t65 -182q10 -106 -16 -194t-77 -146.5t-122 -99t-148.5 -58.5t-158.5 -18q-72 0 -133 13.5t-101.5 35t-62.5 37.5t-37 32q-21 22 -29 56z" />
<glyph unicode="6" horiz-adv-x="1118" d="M86 651q0 223 69.5 407.5t196 293t285.5 108.5q214 0 274 -133q14 -24 10 -59.5t-24 -59.5q-29 -37 -76 -42t-84 24t-42 77t24 83q35 44 74 39q4 -1 3 2q0 11 -33 24q-37 15 -95 17q-80 5 -145 -36t-115 -131t-77.5 -245t-27.5 -365q40 115 130 173.5t214 58.5 q84 0 151 -26t109.5 -68.5t71 -101t40 -119t11.5 -126.5q0 -232 -121.5 -348t-341.5 -116q-481 0 -481 669zM303 571q0 -293 63.5 -428t200.5 -135q61 0 106 18.5t80.5 63t53.5 124.5t18 196q0 110 -20 192t-54 126.5t-74 65.5t-87 21q-121 0 -204 -71.5t-83 -172.5z" />
<glyph unicode="7" horiz-adv-x="1128" d="M92 1145l39 297h924l-105 -178q-97 -172 -166.5 -355.5t-104.5 -349t-50 -300.5t-15 -259h-215q10 153 38 288.5t86.5 289t157 322.5t241.5 364h-619q-73 0 -114.5 -27.5t-69.5 -91.5h-27z" />
<glyph unicode="8" horiz-adv-x="1105" d="M74 326q0 126 103 235t243 154q-151 90 -213 178.5t-62 208.5q0 115 56.5 197.5t145.5 121.5t198 39q183 0 288 -86t105 -233q0 -95 -78.5 -193.5t-191.5 -126.5q368 -181 368 -434q0 -105 -35.5 -184.5t-99.5 -127t-147 -70.5t-185 -23q-495 0 -495 344zM233 334 q0 -162 95 -244t241 -82q48 0 95.5 14.5t93 46t73.5 91t27 139.5q-1 57 -22 104t-67 90t-102 79.5t-143 82.5q-21 11 -73 41q-26 -12 -50 -28t-56.5 -47t-55.5 -68.5t-39.5 -95t-16.5 -123.5zM307 1200q0 -130 78 -210.5t250 -149.5q63 22 118 101.5t54 186.5 q-1 88 -24.5 151t-62.5 95t-82 46t-93 14q-97 0 -167.5 -63.5t-70.5 -170.5z" />
<glyph unicode="9" horiz-adv-x="1103" d="M76 1001q0 225 122.5 342t340.5 117q128 0 220 -43.5t147.5 -128.5t81.5 -202.5t26 -274.5q0 -398 -133 -613.5t-404 -215.5q-226 0 -291 143q-14 26 -10 60.5t25 58.5q29 38 75.5 43.5t83.5 -25.5q37 -28 42.5 -75.5t-23.5 -84.5q-34 -39 -74 -39q-10 0 5 -13 q40 -35 130 -42h6q135 -5 209 63t108 237t34 480q-83 -229 -338 -229q-84 0 -151 26t-109.5 68.5t-71 101t-40 119.5t-11.5 127zM281 1036q0 -110 20 -192t54 -126.5t74 -65.5t87 -21q120 0 200.5 71t80.5 172q0 300 -60.5 430t-197.5 130q-60 0 -105.5 -20.5t-80.5 -66 t-53.5 -123.5t-18.5 -188z" />
<glyph unicode=":" horiz-adv-x="462" d="M111 195q0 53 35 88.5t87 35.5q50 0 86.5 -36t36.5 -88q0 -50 -36.5 -85.5t-86.5 -35.5q-52 0 -87 35t-35 86zM111 756q0 51 35 87t87 36q50 0 86.5 -36t36.5 -87t-36.5 -87t-86.5 -36q-52 0 -87 36t-35 87z" />
<glyph unicode=";" horiz-adv-x="464" d="M111 756q0 51 35 87t87 36q51 0 87 -36t36 -87t-36 -87t-87 -36q-52 0 -87 36t-35 87zM116 198q1 -50 36 -85q31 -28 79 -35q10 -1 16.5 -15.5t4.5 -38.5t-12 -52t-36 -61t-65 -61l13 -16q32 17 56 34.5t43 40t26.5 32.5t23.5 34q29 48 45.5 103.5t11.5 113t-39 91.5 q-35 35 -84.5 35t-84.5 -35t-34 -85z" />
<glyph unicode="&#x3c;" horiz-adv-x="1228" d="M94 500v88l1039 532v-143l-838 -432l838 -436v-142z" />
<glyph unicode="=" horiz-adv-x="1255" d="M115 254v125h1046v-125h-1046zM115 715v125h1046v-125h-1046z" />
<glyph unicode="&#x3e;" horiz-adv-x="1228" d="M96 -33v142l838 436l-838 432v143l1039 -532v-88z" />
<glyph unicode="?" horiz-adv-x="1179" d="M162 1278q10 40 50.5 91.5t106.5 80.5q120 53 241 56.5t215 -37t155.5 -124t66.5 -194.5q4 -85 -16.5 -158t-53 -121.5t-79 -89t-84.5 -61.5t-78 -37q-77 -32 -113 -101t-28 -163l-41 -6q-6 40 -6.5 70.5t6 76.5t33.5 90.5t73 83.5q44 38 69.5 65t55 75.5t40 115 t3.5 152.5q-8 90 -40 155t-77.5 99t-102 48.5t-112.5 8.5t-110 -27q-62 -24 -70 -63q-5 -24 12 -30q3 -1 5 -1q40 -6 67 -43q25 -37 17 -81t-43 -70q-36 -26 -80.5 -17t-71.5 45q-30 42 -10 111zM414 119q0 54 37.5 91.5t91.5 37.5t92.5 -37.5t38.5 -91.5t-38.5 -91.5 t-92.5 -37.5t-91.5 37.5t-37.5 91.5z" />
<glyph unicode="@" horiz-adv-x="1792" d="M82 365q8 167 67.5 311.5t155 248.5t219.5 177t264.5 106.5t286.5 28.5q106 -4 202.5 -37.5t176.5 -97t134.5 -150t78 -205.5t6.5 -255q-12 -105 -44 -190t-76 -138.5t-92.5 -91t-102.5 -56.5t-96 -26.5t-82 -7.5q-68 0 -100.5 32.5t-24.5 87.5q-25 -38 -90.5 -79 t-161.5 -41q-80 0 -137.5 50t-80.5 125.5t-16 161.5q5 62 24 125.5t55.5 126t85.5 110.5t119.5 78t152.5 29q28 0 53.5 -4t43 -11t32 -15t23.5 -16.5t15.5 -15.5t9.5 -11l3 -4l12 53l143 -2q-113 -538 -129 -612q-20 -105 62 -105q29 0 64.5 12.5t79 45.5t80.5 82 t66.5 130.5t39.5 182.5q7 45 4 95.5t-8.5 102t-24.5 103t-44 99t-66.5 89.5t-92.5 74.5t-122.5 54t-155.5 27.5q-139 11 -263 -22.5t-218 -102t-166.5 -164.5t-116 -210.5t-58.5 -240.5q-2 -9 -4 -25t-3.5 -65.5t2.5 -98t18.5 -115t39.5 -125t72 -119.5t110 -106.5t158 -79 t212 -42.5q82 -6 162.5 6.5t137 36t90 42t48.5 30.5l16 -21q-6 -6 -17.5 -16t-55 -35t-94.5 -44.5t-136 -35.5t-180 -16q-67 0 -137.5 10.5t-149.5 37t-149.5 66.5t-135 103.5t-109.5 143t-68.5 190.5t-16.5 240zM754 410q-29 -167 19.5 -248t135.5 -90q29 -2 55 5.5 t43.5 19.5t30.5 24.5t19 21.5l6 9q3 16 39 175t43 199q4 18 4.5 51t-6 75.5t-34.5 73t-75 30.5q-97 0 -175.5 -96.5t-104.5 -249.5z" />
<glyph unicode="A" d="M35 0v27q29 1 45.5 5.5t44.5 29t55 74.5t68.5 142.5t93.5 231.5l342 932h23q111 -268 237 -580t196 -490l70 -179q20 -48 39 -80t32 -48t33.5 -25t30 -10t33.5 -3v-27h-467v27q81 0 81 81q0 56 -38 150l-71 178h-531q-52 -154 -57 -224q-1 -13 -1 -25q0 -159 183 -160h15 v-27h-457zM358 463h516l-268 680z" />
<glyph unicode="B" horiz-adv-x="1218" d="M76 0v18q119 0 119 228v954q0 223 -119 223v19h409q55 0 93.5 -1t87.5 -5t82.5 -10.5t73 -19.5t65 -30.5t51.5 -44t41 -60.5t24 -79t9 -100q0 -90 -32.5 -158.5t-75.5 -104t-96.5 -57.5t-85.5 -27.5t-52 -5.5q35 0 66.5 -2.5t78 -11t84.5 -23.5t78 -43.5t68 -66.5 t45.5 -96t17.5 -129q0 -75 -17.5 -132.5t-43 -96t-74.5 -65t-93 -41t-118 -22t-129.5 -9t-147.5 -1.5h-409zM406 27h90q143 0 200 15q121 32 161 157q22 70 22 176q0 54 -7.5 99t-19 78t-31 59t-38.5 43t-46.5 29.5t-49.5 19t-53.5 10t-53 4t-52.5 0.5h-122v-690zM406 743 h122q35 0 63.5 4.5t60.5 17t55.5 37.5t43 62.5t30 96t10.5 133.5q0 86 -19.5 148.5t-47.5 95t-71.5 51t-77 22.5t-79.5 4h-90v-672z" />
<glyph unicode="C" horiz-adv-x="1374" d="M82 721q0 227 89.5 395t249.5 256t372 88q173 0 287.5 -26t205.5 -99l-24 -317h-27q-16 97 -52 172.5t-80 120.5t-99.5 73.5t-106 39t-104.5 10.5q-50 0 -92.5 -7t-89.5 -26.5t-84.5 -52t-72.5 -87.5t-58.5 -128t-37.5 -178t-14 -234q0 -181 28 -315t69.5 -208.5 t104.5 -119t119.5 -57.5t127.5 -13q53 0 107.5 13t112 44.5t103.5 77.5t78.5 119t40.5 162h27l24 -315q-112 -74 -218.5 -100.5t-274.5 -26.5q-158 0 -290 51.5t-225 146t-144.5 233.5t-51.5 308z" />
<glyph unicode="D" horiz-adv-x="1466" d="M90 0v27q66 0 102.5 56.5t36.5 160.5v956q0 98 -36.5 156.5t-102.5 58.5v27h440q93 0 174 -8.5t165 -30.5t152.5 -57t129.5 -92t102.5 -131t65.5 -177.5t24 -228.5q0 -129 -24 -234t-65 -178.5t-103 -129t-129 -88.5t-153 -53t-165 -27t-174 -7h-440zM440 27h90 q63 0 102.5 2t105.5 16t109.5 39t95.5 76t82.5 122.5t51.5 182.5t21 252q0 137 -20.5 246.5t-52 181.5t-81 124.5t-95.5 79.5t-108.5 43t-107.5 19.5t-103 3.5h-90v-1388z" />
<glyph unicode="E" horiz-adv-x="1220" d="M63 0v27q62 0 86.5 51.5t24.5 161.5v983q0 101 -23.5 146.5t-87.5 45.5v27h1004v-369h-27q-5 70 -30.5 125.5t-58.5 90.5t-84.5 60.5t-93.5 37.5t-102 19t-93 8t-82 1h-111v-674h133q19 0 33 0.5t45 4.5t54 11t52 22.5t48.5 36.5t34 55t16.5 77h26v-440h-26 q-2 42 -16.5 76t-34.5 55t-49 36.5t-53 23t-54 11.5t-44.5 4.5t-31.5 0.5h-133v-688h94q165 0 249 17q305 62 339 382h27v-426h-1031z" />
<glyph unicode="F" horiz-adv-x="1103" d="M59 0v27q63 0 87 51.5t24 161.5v983q0 101 -23.5 146.5t-87.5 45.5v27h1014v-369h-26q-6 56 -23.5 102t-40 79.5t-57.5 59.5t-65 42.5t-75 28.5t-75.5 17.5t-77 8.5t-69 3.5t-62.5 0.5h-13h-108v-674h131q275 0 293 207h26v-440h-26q-18 205 -293 205h-131v-465 q0 -73 10.5 -119t33.5 -67.5t47.5 -28t64.5 -6.5v-27h-478z" />
<glyph unicode="G" horiz-adv-x="1476" d="M80 721q0 154 44 287.5t127.5 234.5t213.5 159t291 58q185 0 303.5 -27t214.5 -90l-19 -331h-43q-9 100 -36.5 175t-67 121.5t-96 75t-117.5 39.5t-139 11q-73 0 -132.5 -19.5t-113 -69.5t-89 -129.5t-56.5 -204.5t-21 -290t21 -290t57.5 -204.5t90 -129.5t112.5 -69.5 t131 -19.5q184 0 261 49t77 174q0 60 -1 102.5t-6 77t-9 56.5t-15.5 38t-21 23.5t-29.5 12t-36 5.5t-46 1v26h481v-26q-34 0 -51.5 -3t-36 -20t-25.5 -43.5t-13 -85t-7.5 -132t-1.5 -195.5q-223 -86 -520 -86q-161 0 -291 58t-213.5 159t-127.5 234.5t-44 287.5z" />
<glyph unicode="H" horiz-adv-x="1230" d="M43 0v27q74 20 88 53.5t14 164.5v34v878q0 149 -16 197t-86 61v27h365v-27q-41 -13 -50.5 -57.5t-9.5 -200.5v-448h561v448q0 157 -9 201t-50 57v27h362v-27q-69 -13 -84.5 -57t-15.5 -201v-878q0 -134 7 -167q12 -53 61 -74q14 -6 32 -11v-27h-362v27q40 14 49.5 61 t9.5 191v395h-561v-395q0 -51 0.5 -79.5t1.5 -58t4 -44t6.5 -28.5t10.5 -20.5t15.5 -11.5t21.5 -10v-27h-365z" />
<glyph unicode="I" horiz-adv-x="704" d="M106 0v27q144 0 144 192v1034q0 91 -36 126.5t-108 35.5v27h498v-27q-71 0 -107 -36t-36 -126v-1034q0 -192 143 -192v-27h-498z" />
<glyph unicode="J" horiz-adv-x="808" d="M0 -317q57 20 104 50t93 83t77 123t50.5 174t19.5 233v631q0 305 -21 372.5t-130 67.5v25h526v-25q-73 0 -118.5 -47.5t-45.5 -142.5v-854q0 -174 -38 -304t-111 -213.5t-171 -131t-227 -66.5z" />
<glyph unicode="K" horiz-adv-x="1488" d="M84 0v27q67 0 99 43.5t32 144.5v1038q0 92 -31 127t-100 35v27h500v-27q-40 0 -64 -4.5t-48.5 -20t-36 -49.5t-11.5 -88v-1038q0 -101 34 -144.5t103 -43.5v-27h-477zM532 684l259 313q133 156 173 237q25 52 25 89q0 90 -149 92v27h563v-27q-51 0 -89.5 -9.5t-95.5 -44 t-124.5 -101t-166 -180t-229.5 -281.5l492 -658q89 -114 270 -114v-27h-219q-42 0 -73.5 2.5t-63 13t-53 19.5t-51.5 35.5t-49.5 46.5t-55 66.5t-61 82t-74.5 105.5q-52 75 -109 153t-88 119z" />
<glyph unicode="L" horiz-adv-x="1249" d="M90 1415v27h488v-27q-73 0 -112.5 -39.5t-39.5 -142.5v-1206h74q16 -1 34 -1t36 1q36 2 73.5 2.5t76.5 7.5t76.5 15.5t73.5 25.5t68 38t60 53t49 71t35.5 91t19.5 113h26v-444h-1022v27q63 0 88 53.5t25 163.5v999q0 92 -31 132t-98 40z" />
<glyph unicode="M" horiz-adv-x="1847" d="M20 0v27q73 0 127.5 29t85 73.5t49 111.5t24 129t5.5 140v770q-11 19 -24 36t-24.5 29t-26.5 22t-25 16.5t-26 12t-23.5 8.5t-24 5.5t-20 3t-19.5 1.5l-16 1v27h407l533 -1159l408 1159h362v-27q-158 0 -158 -180v-995q0 -115 48.5 -164t123.5 -49v-27h-524v27 q71 0 109.5 48t38.5 165v1124l-496 -1382h-25l-571 1253v-725q0 -80 5 -142.5t22 -129t44.5 -110.5t76 -72.5t114.5 -28.5v-27h-580z" />
<glyph unicode="N" horiz-adv-x="1652" d="M20 1417v25h379l885 -1143v633v67.5t-2.5 69.5t-7 74t-13.5 68.5t-22 66.5t-33.5 54.5t-46.5 46t-62.5 27.5t-80.5 11v25h586v-25q-70 0 -122.5 -20t-83 -62.5t-49 -81.5t-26 -104.5t-9 -102.5t-1.5 -103v-11v-932h-66l-870 1122v-610q0 -54 0.5 -85t5.5 -89t14.5 -94 t29.5 -81.5t47.5 -72t71.5 -45t99 -18.5v-27h-592v27q48 0 88 11.5t69 28t52 46t37.5 55.5t24.5 67t15 69t7.5 73.5t3 69t0.5 65.5v641l-84 109q-24 30 -46.5 53.5t-39 39t-36 27.5t-29.5 17.5t-27.5 9.5t-23 5t-22.5 2t-20 1z" />
<glyph unicode="O" horiz-adv-x="1511" d="M84 711q0 123 25.5 233.5t79.5 205.5t131.5 163.5t187.5 107.5t242 39t242 -39t187.5 -107.5t131 -163.5t79 -205.5t25.5 -233.5q0 -155 -41 -286t-121.5 -231t-209 -156t-293.5 -56t-293.5 56t-209 156t-122 231t-41.5 286zM319 711q0 -165 22 -289t59 -202t93 -126.5 t118 -67t139 -18.5t138 18.5t116.5 67t93 126.5t59 202t21.5 289q0 164 -21.5 290t-59 207t-92.5 132.5t-117 72.5t-138 21t-138.5 -21t-118 -72.5t-93.5 -132.5t-59.5 -207t-21.5 -290z" />
<glyph unicode="P" horiz-adv-x="1187" d="M63 0v27q77 0 106.5 51.5t29.5 195.5v949q0 107 -28 149.5t-103 42.5v27h370q112 0 193 -5.5t163 -20.5t137 -44t99 -74t65 -112.5t21 -157.5q0 -89 -21 -156t-65 -112t-99 -74t-137 -44t-163.5 -20.5t-192.5 -5.5h-37v-335q0 -61 5.5 -104.5t19 -71t28 -43.5t41.5 -23.5 t48.5 -9.5t60.5 -2v-27h-541zM401 643h37q67 0 105 1.5t93.5 9t86.5 22t68.5 42t56.5 68t32 102t13 140.5q0 81 -14 143t-32.5 103t-57.5 69t-68.5 42t-86.5 21t-91 8t-101 1h-4h-37v-772z" />
<glyph unicode="Q" horiz-adv-x="1503" d="M84 711q0 123 25.5 233.5t79.5 205.5t131.5 163.5t187.5 107.5t242 39t242 -39t187.5 -107.5t131 -163.5t79 -205.5t25.5 -233.5q0 -155 -41 -286t-121.5 -231t-209 -156t-293.5 -56t-293.5 56t-209 156t-122 231t-41.5 286zM195 -256q61 51 129.5 84t129 45t118.5 15 q18 1 35 1q38 0 71 -5q47 -7 83 -15t55 -15l20 -8l309 -108q54 -18 101 -20h9q43 0 77 14q39 14 58.5 25t47.5 32l18 -20l-153 -127q-48 -37 -95.5 -54.5t-95.5 -19.5q-6 -1 -12 -1q-45 0 -106 17q-69 18 -138 44t-178 73l-158 70q-46 19 -95 19q-2 1 -3 1q-47 0 -88 -13 q-41 -14 -69 -27.5t-50 -29.5zM319 711q0 -165 22 -289t59 -202t93 -126.5t118 -67t139 -18.5t138 18.5t116.5 67t93 126.5t59 202t21.5 289q0 164 -21.5 290t-59 207t-92.5 132.5t-117 72.5t-138 21t-138.5 -21t-118 -72.5t-93.5 -132.5t-59.5 -207t-21.5 -290z" />
<glyph unicode="R" horiz-adv-x="1316" d="M59 0v27q69 0 98 44.5t29 168.5v1020q0 92 -28.5 123.5t-98.5 31.5v27h392q94 0 164 -3.5t139 -14t117.5 -28.5t91 -47.5t67.5 -70.5t39 -97.5t14 -129.5q0 -102 -27.5 -174t-81 -113.5t-119 -61.5t-153.5 -26q25 -1 41 -2.5t40.5 -5.5t41 -11.5t39.5 -19t40.5 -30 t38.5 -43t38.5 -59t36 -77.5t35 -99t32.5 -122q39 -166 220 -180v-27h-156h-78t-58 6t-45.5 10t-33 25t-27.5 36.5t-22 58t-24.5 77t-26.5 105.5q-20 80 -33 128q-14 51 -39 90.5t-58 61.5t-62.5 36.5t-66 19.5t-53.5 6.5t-39 1.5h-96v-449q0 -102 32 -144t99 -42v-27h-459z M387 688h64q157 0 218 15q116 29 158 138q31 79 31 210q0 76 -12 134.5t-27.5 97t-49 64.5t-58.5 39.5t-75.5 20t-80 7.5t-89.5 1h-15h-64v-727z" />
<glyph unicode="S" horiz-adv-x="1155" d="M70 1162q10 68 55 138q4 7 12.5 17.5t41 38t72.5 48.5t109.5 38.5t149.5 17.5q83 0 162 -10t132 -24t94.5 -28t61.5 -24l19 -10v-344h-29q-6 66 -19.5 120.5t-45 111t-78 95t-122.5 63t-175 24.5q-54 0 -103.5 -22t-84.5 -59q-34 -37 -50 -87q-10 -33 -11 -67 q0 -17 3 -35q8 -52 50 -110t116 -106l338 -223q100 -66 164 -142q64 -77 86 -151q16 -52 16 -103q0 -22 -4 -43q-10 -72 -49 -136q-4 -7 -11.5 -18t-40 -40t-74 -51.5t-116.5 -40.5t-164 -18q-94 0 -178.5 11.5t-138 28.5t-94 34t-58.5 28l-18 12v393h25q7 -81 23 -146.5 t49.5 -130t83 -108t127.5 -70t179 -26.5q90 0 154 37q63 37 89 96q23 54 24 115v12q-2 68 -43 137.5t-111 118.5l-340 219q-64 43 -114 84.5t-94 97.5t-62 112q-12 37 -12 79q1 23 4 46z" />
<glyph unicode="T" horiz-adv-x="1335" d="M39 1081v361h1253v-361h-26q-2 67 -22.5 122t-50.5 89t-71 59t-75.5 36.5t-73.5 18.5t-55.5 8t-30.5 1h-121v-1216q0 -95 39 -133.5t110 -38.5v-27h-499v27q71 0 109 38.5t38 133.5v1216h-121q-22 0 -41 -1t-59 -7.5t-72.5 -18.5t-71.5 -37t-65.5 -59t-45.5 -88.5 t-21 -122.5h-27z" />
<glyph unicode="U" horiz-adv-x="1466" d="M39 1415v27h510v-27q-38 0 -63.5 -5.5t-50 -23t-36.5 -55.5t-12 -96v-762q0 -187 102 -293t271 -106q162 0 266 108.5t104 300.5v557q0 41 -0.5 64.5t-2.5 60.5t-6.5 58.5t-13 51.5t-20.5 47.5t-30.5 37.5t-42 30.5t-56 17.5t-71.5 7v27h532v-27q-76 0 -128 -22 t-78 -49.5t-39 -84.5t-15 -94.5t-2 -112.5v-12v-557q0 -107 -28 -193t-74.5 -142.5t-111.5 -94.5t-135.5 -54.5t-148.5 -16.5q-101 0 -187 33t-150.5 96t-101 161t-36.5 220v745q0 99 -36.5 138.5t-108.5 39.5z" />
<glyph unicode="V" horiz-adv-x="1521" d="M29 1415v27h551v-27q-48 0 -78 -18t-40.5 -41.5t-11.5 -53t1.5 -44.5t5.5 -25l364 -977l254 674q53 159 63 201q16 65 16 115q0 106 -71 145q-45 24 -118 24v27h508v-27q-51 0 -74.5 -4t-60.5 -27t-66.5 -75t-72.5 -144t-99 -239l-352 -926h-29q-112 268 -236 584.5 t-192 499.5l-68 182q-21 52 -44 84t-50 45t-47 16.5t-53 3.5z" />
<glyph unicode="W" horiz-adv-x="2162" d="M25 1415v27h553v-27q-37 0 -63.5 -9.5t-41 -22.5t-21.5 -33.5t-8.5 -35t1 -35t4 -26t4.5 -14.5l352 -958l225 669l-106 305q-20 53 -44 86.5t-51 49t-49 20t-53 4.5v27h551v-27q-37 0 -64 -10t-41 -22t-20.5 -33.5t-8.5 -34.5t2 -36t4.5 -25t4.5 -15l336 -965l231 658 q5 16 15 49q17 56 26 86t20.5 83t11.5 83.5t-7 70t-28 60.5t-59 36t-93 15v27h520v-27q-49 0 -81.5 -9t-67.5 -36t-68 -82.5t-72 -141t-90 -220.5l-336 -926h-29l-340 911l-309 -911h-30l-484 1255q-20 53 -43.5 86.5t-50.5 49t-49 20t-53 4.5z" />
<glyph unicode="X" horiz-adv-x="1497" d="M45 1415v27h563v-27q-25 0 -44.5 -7t-31.5 -24.5t-12 -43.5t16 -67.5t50 -94.5l215 -338l104 155q87 158 109 213q23 59 23 101q0 62 -51 87q-39 19 -109 19v27h569v-27q-28 0 -41.5 -0.5t-40 -4t-43 -11t-45 -22.5t-52.5 -36.5t-58 -55t-68.5 -77t-78 -102t-91.5 -131.5 l-109 -162q44 -63 142.5 -214.5t175.5 -271.5l77 -120q33 -50 61 -84t49 -52.5t46.5 -28.5t42.5 -13t47 -4v-25h-526v25q71 9 71 68q0 58 -67 163l-236 375l-112 -168q-14 -27 -42 -79q-36 -66 -52 -98t-38 -83q-20 -47 -20 -71q0 -23 12 -57q10 -28 47 -39t95 -11v-25h-529 v25h3q30 0 45 1t45 9.5t53.5 25.5t62 50t79 81.5t96 122t120.5 170.5l117 172l-387 574q-57 84 -104 126t-75 50t-73 8z" />
<glyph unicode="Y" horiz-adv-x="1417" d="M18 1417v25h527v-25h-3q-18 0 -28.5 -0.5t-29.5 -5t-28 -12.5t-16 -25t-3.5 -41t18.5 -61.5t43 -85.5l301 -510l155 319q18 36 32 68t28.5 76.5t19.5 80.5q4 20 4 40q0 17 -2 34q-5 37 -22.5 62.5t-56 42t-95.5 16.5v27h527v-27q-26 0 -40 -1t-42 -9.5t-50 -24.5 t-56 -48.5t-67 -79.5t-76.5 -120t-90.5 -167l-156 -322v-414q0 -115 40.5 -158.5t113.5 -43.5v-27h-500v27q73 0 113 43.5t40 158.5v361q-134 236 -230 403t-126 215l-29 49q-27 45 -52 76t-42.5 46.5t-42.5 24t-37.5 10t-40.5 3.5z" />
<glyph unicode="Z" horiz-adv-x="1126" d="M49 0l778 1415h-100q-290 0 -428 -85t-180 -302h-37l37 414h936l-729 -1415h47q159 0 273.5 29t188 89t115 140t62.5 192h35l-52 -477h-946z" />
<glyph unicode="[" horiz-adv-x="630" d="M231 -299v1804h369v-26q-31 0 -48 -0.5t-43.5 -4t-41.5 -10t-33 -19.5t-28 -31t-16.5 -46.5t-6.5 -64.5v-1420q0 -43 13.5 -73.5t31.5 -46t50.5 -24t57 -10t64.5 -1.5v-27h-369z" />
<glyph unicode="\" horiz-adv-x="849" d="M31 1501h141l633 -1536h-141z" />
<glyph unicode="]" horiz-adv-x="632" d="M23 -272q40 0 64.5 1.5t57 10t50.5 24t31.5 46t13.5 73.5v1420q0 36 -6.5 64.5t-16.5 46.5t-28 31t-33 19.5t-41.5 10t-43.5 4t-48 0.5v26h368v-1804h-368v27z" />
<glyph unicode="^" horiz-adv-x="1155" d="M182 770l365 672h47l369 -672h-62l-332 422l-325 -422h-62z" />
<glyph unicode="_" horiz-adv-x="1146" d="M0 -156h1147v-94h-1147v94z" />
<glyph unicode="`" horiz-adv-x="667" d="M8 1423l166 52l363 -334h-48z" />
<glyph unicode="a" horiz-adv-x="993" d="M84 193q0 122 93 189q76 55 283 111q44 12 148 39v119q0 162 -74 236q-42 42 -100 42q-43 0 -96 -24q-36 -18 -58.5 -37.5t-23.5 -29.5t2 -13q43 -7 64 -37q18 -25 18 -55q0 -7 -1 -15q-6 -40 -38 -63q-25 -20 -55 -20q-6 0 -14 1q-38 6 -62 38q-21 29 -21 58q0 21 11 42 q40 89 159 152q39 20 86.5 30t74.5 10l28 -1q82 0 138.5 -29t88 -85.5t45 -128t13.5 -167.5v-348q0 -5 0.5 -14t5 -31t13 -39t28 -31t45.5 -14q5 0 13.5 1.5t25 14.5t22.5 37l25 -10q-10 -51 -62.5 -95t-126.5 -44h-9t-23 3t-33 9t-35.5 18.5t-34 30t-26 46.5t-13.5 65 q-22 -74 -103.5 -123t-187.5 -49q-5 0 -13.5 0.5t-32.5 4.5t-46 11.5t-49 23t-46 37t-32.5 56.5t-13.5 78zM266 236q0 -25 8 -51t25.5 -52t51 -42.5t77.5 -16.5q50 0 90 23t59 48.5t31 55.5v305q-342 -82 -342 -270z" />
<glyph unicode="b" horiz-adv-x="1126" d="M29 1430v26l282 55v-710q43 78 131 121t174 43q100 0 182 -38.5t136 -106t83.5 -159t29.5 -196.5q0 -153 -64 -264t-171 -165t-245 -54q-176 0 -286 102q-51 -53 -109 -77q-39 -17 -39 3v1305q0 54 -20.5 78.5t-83.5 36.5zM311 322q0 -153 70.5 -233.5t179.5 -80.5 q54 0 100.5 22t85.5 69t61.5 133.5t22.5 203.5q0 461 -284 461q-111 0 -173.5 -72.5t-62.5 -193.5v-309z" />
<glyph unicode="c" horiz-adv-x="985" d="M92 471q0 128 58 239.5t173.5 183t266.5 71.5q212 0 280 -125q15 -27 15 -53q0 -24 -13 -48q-22 -33 -60 -43q-13 -4 -25 -4q-24 0 -46 13q-35 21 -45 59q-3 12 -3 24q0 25 14 46q22 40 57 43q11 3 -7 18q-46 39 -148 43h-19q-30 0 -64 -9t-79 -38t-80 -74.5 t-59.5 -129.5t-24.5 -193q0 -98 26 -174.5t69.5 -123t95 -71.5t108.5 -31q14 -1 27 -1q89 0 167 46q88 53 119 123l23 -10q-10 -43 -34.5 -86t-68 -86.5t-115.5 -70.5t-161 -27q-86 0 -166.5 34.5t-143 96.5t-100 155.5t-37.5 202.5z" />
<glyph unicode="d" horiz-adv-x="1116" d="M76 485q0 230 133.5 355t347.5 125q142 0 252 -76v426q0 55 -21 79t-83 36v26l280 55v-1351q0 -73 20.5 -93t84.5 -20v-27l-224 -36q-25 -4 -39.5 5t-16.5 20l-1 11v113q-44 -73 -131 -112t-170 -39q-134 0 -233 66t-149 179.5t-50 257.5zM289 514q0 -239 72.5 -356 t209.5 -117q102 0 170 68t68 174v358q0 141 -73.5 219t-174.5 78q-54 0 -100 -21t-86 -67t-63 -132t-23 -204z" />
<glyph unicode="e" horiz-adv-x="1005" d="M74 465q0 224 126.5 362t319.5 138q185 0 293.5 -119.5t108.5 -353.5h-656q6 -196 84.5 -293.5t208.5 -110.5q14 -1 29 -1q78 0 156 41q92 49 120 124l25 -10q-10 -40 -36 -82t-69.5 -83.5t-114.5 -68t-157 -26.5q-190 0 -314 139t-124 344zM266 518h479q0 107 -22 191 t-57 132t-74 72.5t-78 24.5q-94 0 -171 -118t-77 -302z" />
<glyph unicode="f" horiz-adv-x="616" d="M25 946h133q0 222 34.5 348.5t104.5 178t190 51.5q63 0 116.5 -26t72.5 -52q15 -22 20 -54q1 -10 1 -19q0 -21 -7 -40q-15 -38 -54 -53q-18 -8 -37 -8t-38 8q-38 15 -54 53q-8 18 -8 37t9 39q16 43 53 49q15 4 -2 19q-25 20 -70 20q-52 0 -83.5 -42.5t-49.5 -165.5 t-18 -343h229l-6 -26h-223v-746q0 -78 20.5 -108t77.5 -41v-25h-358v25q55 11 67.5 39.5t12.5 109.5v746h-131z" />
<glyph unicode="g" horiz-adv-x="1110" d="M30 -229q13 70 59.5 129t115.5 98q-92 45 -92 158q0 7 0.5 19t9.5 44.5t25.5 60.5t55 58t91.5 45q-78 34 -120 108t-42 160q0 129 106 221.5t277 92.5q179 0 291 -97q36 54 87 81.5t97 33.5h11q53 0 83 -35q20 -26 20 -58q0 -5 -1 -10q-4 -38 -33 -63q-27 -22 -60 -22 q-5 0 -9 1q-39 3 -62 33q-20 25 -20 51q0 8 2 17q1 5 -7 7q-4 1 -8 1q-23 0 -52 -22q-18 -13 -30 -31q76 -76 76 -201q0 -130 -105.5 -222.5t-279.5 -92.5q-113 0 -194 35q-28 -5 -55.5 -30t-40.5 -57q-9 -26 -9 -51q0 -7 1 -14q3 -32 41 -54t106 -22h245q140 0 202 -16 q155 -40 155 -194q0 -24 -4 -50q0 -6 -2 -17.5t-14.5 -45.5t-34 -66.5t-66.5 -74.5t-105 -76q-136 -76 -281 -97q-56 -8 -105 -8q-82 0 -149 22q-109 34 -151 111q-28 52 -28 105q0 17 3 35zM136 -152q-2 -10 -2 -20q0 -13 2 -24q4 -21 10.5 -40.5t14.5 -34t16 -26.5t12 -17 l4 -5q49 -58 139 -91q74 -27 161 -27q19 0 38 1q109 7 196 61q45 27 76.5 61t44 62t19 52.5t5.5 38.5v14q0 4 -2 11t-12.5 25t-28 32t-55 25t-86.5 11h-282q-108 0 -175 27q-31 -21 -52.5 -44.5t-31 -46t-11.5 -45.5zM311 651q0 -82 19 -141t50.5 -90t65 -44.5t70.5 -13.5 q38 0 72.5 13.5t66 44.5t50 90t18.5 141q0 81 -19.5 140.5t-51.5 89.5t-66 43.5t-70 13.5q-41 0 -75.5 -13t-65 -44t-47.5 -89.5t-17 -140.5z" />
<glyph unicode="h" horiz-adv-x="1038" d="M33 1423v27l282 61v-778q23 88 121 160t197 72q134 0 208 -77t74 -253v-445q0 -87 15.5 -119.5t68.5 -45.5v-25h-342v25q55 16 68.5 48t13.5 117v437q0 112 -53.5 172.5t-159.5 60.5q-69 0 -125 -50t-86 -114v-506q0 -88 15 -119t69 -44v-27h-346v27q55 16 68.5 47 t13.5 116v1123q0 55 -20 77.5t-82 32.5z" />
<glyph unicode="i" horiz-adv-x="501" d="M59 881v24l281 60v-775q0 -89 15 -119.5t69 -43.5v-27h-344v27q55 16 68.5 47t13.5 116v568q0 56 -20 81t-83 42zM127 1239q0 44 30 74t74 30q43 0 74 -30t31 -74q0 -43 -31 -73.5t-74 -30.5q-44 0 -74 30.5t-30 73.5z" />
<glyph unicode="j" horiz-adv-x="493" d="M-4 -442q39 12 69.5 48t47.5 89t28 102t15 110t5 88.5t1 59.5v695q0 57 -20.5 86t-82.5 45v24l281 60v-863q0 -114 -16.5 -203t-45.5 -150t-73.5 -105t-94.5 -69.5t-114 -41.5v25zM127 1239q0 44 30.5 75.5t73.5 31.5t74 -31.5t31 -75.5q0 -43 -31 -73.5t-74 -30.5 t-73.5 30.5t-30.5 73.5z" />
<glyph unicode="k" horiz-adv-x="1046" d="M18 1430v26l283 55v-1323q0 -87 15 -117.5t69 -43.5v-27h-346v27q55 16 68.5 46.5t13.5 114.5v1125q0 56 -21 80.5t-82 36.5zM356 440l193 199q9 8 22 22t46 51t50 69.5t25 66.5t-20 54q-27 19 -86 18h-6v26h460v-26q-44 -1 -80 -11t-99 -45t-153.5 -117.5t-209.5 -211.5 q68 -96 156 -202.5t142 -164.5l54 -59q41 -51 83 -66.5t89 -15.5v-27h-182q-55 0 -89.5 8t-73 38.5t-71.5 71t-94 124.5z" />
<glyph unicode="l" horiz-adv-x="471" d="M47 1430v26l283 55v-1323q0 -87 14.5 -117.5t67.5 -43.5v-27h-344v27q55 16 68.5 46.5t13.5 114.5v1125q0 56 -21 80.5t-82 36.5z" />
<glyph unicode="m" horiz-adv-x="1529" d="M18 881v24l283 60v-211q35 90 115 150.5t174 60.5q223 0 262 -220q28 92 111 156t180 64q133 0 200.5 -75t67.5 -253v-447q0 -87 15.5 -119.5t68.5 -45.5v-25h-344v25q55 16 68.5 48t13.5 117v441q0 231 -186 231q-73 0 -131 -59.5t-58 -120.5v-49v-443q0 -88 15 -120 t69 -45v-25h-344v25q55 16 68.5 48t13.5 117v441q0 231 -186 231q-70 0 -125.5 -57.5t-67.5 -118.5v-498q0 -87 15 -117.5t69 -43.5v-27h-344v27q55 16 67.5 46t12.5 115v564q0 57 -20.5 84.5t-82.5 44.5z" />
<glyph unicode="n" horiz-adv-x="1036" d="M20 881v24l283 60v-215q32 89 124 152t189 63q134 0 208.5 -76t74.5 -252v-447q0 -87 15.5 -119.5t68.5 -45.5v-25h-344v25q55 16 68.5 48t13.5 117v441q0 106 -54.5 168.5t-154.5 62.5q-74 0 -135 -57t-74 -119v-498q0 -87 15 -117.5t69 -43.5v-27h-344v27 q55 16 67.5 46t12.5 115v572q0 55 -20 79.5t-83 41.5z" />
<glyph unicode="o" horiz-adv-x="1110" d="M82 473q0 81 19 154.5t58 135.5t95 107t133 70t168 25q114 0 205 -38.5t148.5 -106.5t87.5 -156t30 -191q0 -102 -30 -190t-87.5 -155.5t-148.5 -106.5t-205 -39q-113 0 -204.5 39t-149.5 106.5t-88.5 155.5t-30.5 190zM291 473q0 -136 18.5 -229t55 -143.5t82 -71.5 t108.5 -21q62 0 107 21t81 71.5t54 143.5t18 229t-18 229t-54 143.5t-81 71.5t-107 21q-63 0 -108.5 -21t-82 -71.5t-55 -143.5t-18.5 -229z" />
<glyph unicode="p" horiz-adv-x="1148" d="M35 881v24l280 60v-160q44 77 132 118.5t174 41.5q199 0 314.5 -141t115.5 -359q0 -231 -134 -357t-346 -126q-152 0 -256 77v-419q0 -86 15 -114.5t69 -41.5v-27h-344v27q56 16 69 44.5t13 111.5v1132q0 53 -20 75t-82 34zM315 279q9 -131 78.5 -201t171.5 -70 q54 0 100 21.5t85.5 68t62.5 133t23 205.5q0 237 -74.5 352t-210.5 115q-101 0 -164 -65.5t-72 -173.5v-385z" />
<glyph unicode="q" horiz-adv-x="1126" d="M94 485q0 155 63.5 265t170 162.5t245.5 52.5q157 0 265 -84q43 48 102 67q43 15 43 -6v-1304q0 -86 14.5 -113.5t69.5 -40.5v-27h-344v27q55 16 67.5 43.5t12.5 110.5v464q-48 -58 -126 -89t-153 -31q-199 0 -314.5 141.5t-115.5 361.5zM297 514q0 -240 71.5 -361.5 t206.5 -121.5q98 0 160.5 63t67.5 166v395q-4 138 -71.5 210.5t-164.5 72.5q-55 0 -100.5 -20.5t-85 -67t-62 -132t-22.5 -204.5z" />
<glyph unicode="r" horiz-adv-x="745" d="M29 881v24l282 60v-215q52 96 128 147.5t147 60.5q11 1 21 1q60 0 95 -39q27 -33 27 -73v-10q-4 -46 -41 -77q-31 -26 -71 -26h-11q-46 4 -78 40q-24 30 -24 60q0 9 2 18q2 10 -11 11h-3q-32 0 -85 -41q-62 -49 -96 -122v-510q0 -89 15 -119.5t69 -43.5v-27h-346v27 q55 16 68.5 46.5t13.5 116.5v568q0 55 -20 80.5t-82 42.5z" />
<glyph unicode="s" horiz-adv-x="854" d="M98 63v279h27q35 -334 332 -334q77 0 118 36t41 85q0 51 -34 106q-33 55 -90 93l-207 125q-147 97 -185 193q-14 36 -14 74q0 62 39 128q2 5 7.5 13t27.5 28t49.5 35.5t77 28t108.5 12.5q105 0 188.5 -16.5t114.5 -32.5l31 -17v-250h-24q-5 41 -14.5 77t-32 76.5t-55 69 t-86.5 47.5t-122 19q-70 0 -111 -32q-40 -32 -44 -78q0 -5 -1 -9q0 -42 29 -91q32 -54 97 -95l206 -129q139 -88 179 -202q14 -41 15 -79q0 -72 -48 -141q-3 -4 -9 -11t-28 -24t-49 -30t-74 -24t-100 -11q-69 0 -131.5 8.5t-102.5 20t-69.5 23.5t-42.5 20z" />
<glyph unicode="t" horiz-adv-x="647" d="M35 946h108v291l179 29v-320h243l-6 -26h-237v-619q0 -118 39.5 -168.5t115.5 -50.5q42 0 77 26t48 60l21 -10q-23 -72 -89 -124t-151 -52q-59 0 -101 14.5t-74.5 49t-48.5 96.5t-16 153v625h-104z" />
<glyph unicode="u" horiz-adv-x="1069" d="M35 901v25l291 39v-668q0 -111 57.5 -163t153.5 -52q73 0 128 44.5t85 113.5v516q0 92 -8 111q-11 26 -57 31q-12 2 -32 3v25l275 39v-795q0 -72 19 -92.5t85 -28.5v-26l-233 -39q-22 -4 -34 3.5t-13 16.5l-2 10v174q-28 -83 -117.5 -144.5t-190.5 -61.5q-48 0 -87.5 7.5 t-78.5 28t-66 54t-43.5 89.5t-16.5 130v461v36.5t-1 28t-2 24t-4 17.5t-6.5 15t-10.5 9.5t-14.5 8t-20 4t-25 4.5t-31.5 2z" />
<glyph unicode="v" horiz-adv-x="1052" d="M-2 920v26h426v-26q-38 0 -59 -14.5t-23 -35.5t1.5 -42t10.5 -36l6 -14l254 -555l158 424q2 6 5.5 15.5t10.5 38t9.5 54.5t-2 57.5t-18 54t-44 38t-76.5 15.5v26h396v-26q-25 0 -38.5 -1.5t-35.5 -8.5t-39 -24t-39 -45t-45.5 -74.5t-50.5 -109.5l-254 -675h-21l-389 835 q-18 36 -37.5 58.5t-41.5 31t-32.5 10.5t-31.5 3z" />
<glyph unicode="w" horiz-adv-x="1533" d="M33 920v26h393v-26q-32 0 -50 -12.5t-20 -31t0 -36.5t8 -30l5 -13l239 -564l146 416l-70 164q-48 102 -125 107v26h393v-26q-37 0 -57 -13t-22.5 -32t0 -37.5t8.5 -31.5l6 -13l237 -560l150 445q2 5 4.5 13.5t7.5 34t6 48t-4.5 50.5t-19 48t-42.5 34t-71 14v26h363v-26 q-20 0 -34.5 -2.5t-39 -16.5t-45.5 -39t-47.5 -74.5t-51.5 -119.5l-237 -686h-21l-272 632l-223 -632h-23l-358 831q-45 101 -133 107z" />
<glyph unicode="x" horiz-adv-x="1060" d="M25 922v24h415v-24q-20 0 -34 -7t-21.5 -22.5t2 -45t37.5 -69.5l143 -211l66 92q68 106 81 152q5 19 5 34q0 73 -115 77h-14v24h436v-24q-63 -2 -95 -13q-117 -42 -280 -270l-69 -96l276 -412q20 -30 45 -50.5t41 -30.5t43.5 -15.5t32 -6t27.5 -1.5v-27h-414v27 q30 0 41 14.5t5 35.5t-15.5 42.5t-19.5 36.5l-11 14l-152 223l-73 -106q-17 -25 -27 -40.5t-23.5 -38t-20 -37t-14.5 -34t-8 -31.5t1.5 -26t11.5 -22.5t24 -16t37 -11t53 -3.5v-27h-415v27h6q21 0 34 1.5t39.5 8.5t52.5 25t61 47t77 80t90 118l78 109l-277 405 q-53 66 -84.5 82.5t-78.5 18.5z" />
<glyph unicode="y" horiz-adv-x="1089" d="M12 922v24h424v-24q-37 0 -57 -15.5t-22 -37.5t1.5 -44t9.5 -37l7 -16l254 -545l135 373q3 7 7 18.5t12.5 45t12.5 64.5q2 17 2 37q0 14 -1 31q-3 37 -16 63.5t-45 44.5t-81 18v24h396v-24q-26 0 -44 -4t-44.5 -22.5t-51 -52.5t-56.5 -96.5t-67 -152.5l-317 -866 q-19 -54 -45.5 -97.5t-42 -59t-37.5 -34.5q-22 -18 -58 -23q-9 -1 -17 -1q-26 0 -48 10q-41 19 -57 61q-8 19 -8 38q0 22 10 44q20 41 62 58q19 7 38 7q22 0 43 -10q42 -17 56 -65q6 -23 31 -2q27 23 48 78l93 260q-108 240 -204 446t-137 292l-42 87q-43 98 -144 105z" />
<glyph unicode="z" horiz-adv-x="884" d="M59 0l531 920q-219 0 -334 -53t-139 -191h-27l10 270h697l-508 -921q223 0 329.5 71t129.5 215h26l-18 -311h-697z" />
<glyph unicode="{" horiz-adv-x="641" d="M100 561v23q7 2 24 6.5t24 7t22 9.5t22 14t18.5 20.5t17.5 30t14 41t11.5 54t6 69.5t2.5 88v239q0 166 75.5 244.5t209.5 97.5l2 -20q-69 -25 -106 -98.5t-37 -223.5v-295q0 -65 -15 -117t-38.5 -84.5t-55 -54t-61.5 -30.5t-60 -9q31 0 60.5 -6.5t61 -25t55 -48t38.5 -79 t15 -113.5v-295q0 -150 37 -223.5t106 -97.5l-2 -21q-134 19 -209.5 97.5t-75.5 244.5v240q0 45 -2.5 82t-6.5 65t-11.5 50.5t-13.5 37.5t-17.5 27.5t-19 19t-21.5 12.5t-22 8.5t-24.5 6.5t-23.5 6z" />
<glyph unicode="|" horiz-adv-x="413" d="M150 -336v1841h118v-1841h-118z" />
<glyph unicode="}" horiz-adv-x="653" d="M98 -315q69 24 106.5 97.5t37.5 223.5v295q0 79 22 136t58 84.5t72.5 39.5t76.5 12q-30 0 -60 9t-61 30.5t-54.5 54t-38.5 84.5t-15 117v295q0 102 -19.5 170.5t-49.5 101.5t-75 50l2 20q134 -19 209.5 -97.5t75.5 -244.5v-239q0 -48 2.5 -88t6 -69.5t11.5 -54t14 -41 t17.5 -30t18.5 -20.5t22 -14t22 -9.5t24 -7t24 -6.5v-23q-7 -2 -23.5 -6t-24.5 -6.5t-22 -8.5t-21.5 -12.5t-19 -19t-17.5 -27.5t-13.5 -37.5t-11.5 -50.5t-6.5 -65t-2.5 -82v-240q0 -166 -75.5 -244.5t-209.5 -97.5z" />
<glyph unicode="~" horiz-adv-x="1183" d="M127 438q26 63 60.5 109.5t70 70.5t72 37.5t68 14.5t56.5 -0.5t40 -5.5l14 -5l235 -88q26 -11 69 -12.5t89 7t87.5 34.5t58.5 66l20 -9q-26 -64 -60.5 -111t-69 -70.5t-71 -37.5t-67.5 -15t-56 0.5t-39 6.5l-14 4l-235 88q-28 10 -70 12.5t-88.5 -4t-88.5 -32.5t-61 -68z " />
<glyph horiz-adv-x="0" />
<glyph unicode="&#xa1;" horiz-adv-x="585" d="M180 1047q0 49 34.5 83.5t84.5 34.5q51 0 86 -34t35 -84q0 -51 -35 -85t-86 -34q-50 0 -84.5 34t-34.5 85zM203 -358l47 1122h96l45 -1122h-188z" />
<glyph unicode="&#xa2;" horiz-adv-x="1032" d="M154 473q0 122 52.5 229.5t159 180.5t246.5 82v249h39v-249q57 0 104.5 -10t76 -23.5t51.5 -32.5t32.5 -31.5t16.5 -25.5q13 -23 14 -50t-12 -51q-21 -33 -59.5 -44.5t-71.5 8.5q-35 22 -45 59.5t10 71.5q19 32 57 43q11 0 -4 14q-40 35 -130 43q-19 2 -40 2v-844 q103 -6 189.5 47t115.5 121l23 -10q-10 -40 -32 -81t-59.5 -82.5t-99 -71t-137.5 -35.5v-224h-39v224q-202 3 -330 137t-128 354zM344 496q0 -92 22.5 -165.5t61.5 -119.5t85 -74t99 -39v838q-33 -5 -66 -19.5t-70.5 -47t-65.5 -79t-47 -123t-19 -171.5z" />
<glyph unicode="&#xa3;" horiz-adv-x="1320" d="M66.5 175q2.5 23 8 50.5t23.5 53t40.5 48.5t59.5 38t80 20.5t103 -3.5t127 -34q79 -31 106 -51q6 64 -15.5 126.5t-76.5 145.5q-15 23 -52.5 82.5t-57.5 89.5h-197v29h184q-55 110 -78.5 209.5t-17.5 176t33 141t71.5 108t99.5 72.5t115 39.5t120.5 4t113.5 -29.5 q135 -59 170 -178q9 -28 -0.5 -61t-34.5 -56q-35 -31 -82.5 -28.5t-79.5 36.5q-33 37 -30 84t39 80q29 29 80 25q18 -1 5 19q-19 32 -67 50l-10 4q-66 21 -126.5 23t-109 -18t-84 -58t-48.5 -100t-5 -139.5t48 -181.5t110 -222h364v-29h-346l64 -92q43 -67 56 -142.5 t2 -137.5t-38 -119q30 -20 78 -42.5t81 -35.5l32 -12q64 -20 123.5 -16.5t102.5 36.5t48 86l29 -4q1 -62 -18.5 -112.5t-46.5 -79.5t-60.5 -49t-56.5 -27.5t-39 -9.5q-71 -5 -152.5 33.5t-200.5 119.5q-65 -90 -154.5 -122.5t-211.5 -32.5q-15 0 -37 4t-59.5 17t-70 47 t-48.5 83q-8 19 -5.5 42zM98 137q12 -44 38.5 -73t59.5 -39.5t51.5 -13.5t37.5 -3q102 0 182 44t123 124q-118 80 -195 113q-103 40 -172.5 19t-103.5 -71.5t-21 -99.5z" />
<glyph unicode="&#xa4;" horiz-adv-x="1173" d="M37 264l156 156q-99 126 -99 287q0 162 99 288l-156 156l86 84l153 -154q129 99 289 99q163 0 289 -99l156 154l84 -84l-156 -156q98 -124 98 -288q0 -163 -98 -287l156 -156l-84 -86l-156 156q-124 -98 -289 -98q-161 0 -289 98l-153 -156zM217 707q0 -144 102 -246 q108 -103 246 -103q143 0 246 103q102 102 102 246q0 138 -102 245q-98 103 -246 103q-143 0 -246 -103q-102 -102 -102 -245z" />
<glyph unicode="&#xa5;" horiz-adv-x="1269" d="M-51 1417v25h526v-25q-19 0 -28.5 -0.5t-29.5 -4.5t-29 -12t-17.5 -25t-4.5 -41.5t18.5 -62.5t43.5 -87l299 -506l156 315q18 36 32 68.5t28.5 76.5t20.5 80.5t2 74.5t-22 63.5t-56 42t-95 16.5v27h526v-27q-26 0 -40 -1t-42 -9.5t-50 -24.5t-56 -48.5t-67 -79 t-76.5 -119.5t-90.5 -166l-152 -314h349v-30h-353v-140h353v-30h-353v-224q0 -115 40.5 -158.5t113.5 -43.5v-27h-500v27q73 0 113.5 43.5t40.5 158.5v224h-393v30h393v105l-21 35h-372v30h356q-121 213 -208 363.5t-114 194.5l-26 44q-27 46 -52 77t-42.5 47t-42.5 24.5 t-37.5 10t-40.5 3.5z" />
<glyph unicode="&#xa6;" horiz-adv-x="409" d="M145 379h121v-772h-121v772zM145 735v770h121v-770h-121z" />
<glyph unicode="&#xa7;" horiz-adv-x="1089" d="M118 549.5q12 72.5 73 150.5t169 148q-85 75 -121 154t-24 186q8 68 33.5 120.5t60.5 82t77.5 50t85 25.5t83 8.5t70.5 -1.5q76 -6 140.5 -48.5t86.5 -89.5q11 -22 10.5 -53t-14.5 -53q-25 -35 -67 -42.5t-79 17.5q-34 25 -41.5 66.5t17.5 75.5q25 36 59 36q13 1 -4 20 q-35 35 -96 42q-124 11 -206.5 -37t-94.5 -152q-11 -84 27 -148.5t149 -145.5l260 -175q73 -49 124.5 -110t74.5 -133.5t12 -146t-71 -152t-167 -146.5q81 -73 120 -153t26 -183q-7 -59 -27.5 -106t-49.5 -76.5t-65 -51.5t-73.5 -31t-75 -15.5t-70.5 -4t-59 2.5 q-76 6 -140 47.5t-87 87.5q-11 22 -9.5 53t17.5 53q23 35 64.5 42.5t76.5 -15.5q35 -25 43.5 -67t-16.5 -76q-25 -32 -70 -39q-16 -4 14 -24q44 -28 103 -36q109 -13 192.5 37.5t94.5 151.5q11 88 -24 152t-144 141l-260 176q-73 50 -123.5 110t-73.5 131.5t-11 144z M216 583.5q3 -39.5 19 -73t45 -67t59.5 -59.5t68.5 -52q44 -31 136.5 -91.5t106.5 -70.5q46 -30 72 -51q86 59 126 120t39 112t-31.5 103t-71 89t-95.5 75q-44 31 -140 95t-112 75q-42 28 -53 39q-63 -41 -102.5 -84t-54.5 -81.5t-12 -78z" />
<glyph unicode="&#xa8;" horiz-adv-x="479" d="M-18 1323q0 40 28 68t66 28q40 0 68 -28t28 -68t-28 -67t-68 -27q-39 0 -66.5 27.5t-27.5 66.5zM309 1323q0 40 27 68t67 28q39 0 68 -28.5t29 -67.5t-29 -66.5t-68 -27.5q-40 0 -67 27t-27 67z" />
<glyph unicode="&#xa9;" horiz-adv-x="1632" d="M61 754q0 153 59.5 292t160.5 239.5t240.5 160t293.5 59.5q153 0 292.5 -59.5t240.5 -159.5t161 -239.5t60 -292.5t-60 -292.5t-161 -240t-240.5 -160t-292.5 -59.5q-154 0 -293.5 59.5t-240.5 160t-160.5 240t-59.5 292.5zM166 754q0 -132 51.5 -252.5t139 -207.5 t207.5 -138.5t251 -51.5q174 0 323 87t236.5 237t87.5 326q0 131 -51.5 251.5t-138.5 208t-207 139.5t-250 52q-175 0 -324.5 -88t-237 -238t-87.5 -325zM420 733q0 193 109.5 304.5t291.5 111.5q98 0 161 -14t114 -56l-11 -176h-22q-17 219 -242 219q-37 0 -67.5 -6.5 t-66.5 -30.5t-60.5 -64.5t-41 -114t-16.5 -173.5q0 -101 17.5 -176t43 -114.5t62 -63t65.5 -29.5t64 -6q225 0 242 219h22l11 -174q-63 -42 -122 -57t-153 -15q-181 0 -291 112.5t-110 303.5z" />
<glyph unicode="&#xaa;" horiz-adv-x="608" d="M41 1036q0 32 12 56.5t30 41t57.5 32.5t74 26t100.5 27v59q0 84 -40 119t-103 6q-39 -18 -43 -32q0 -3 2 -3q21 0 35 -18q10 -17 6.5 -37.5t-18.5 -32.5t-35.5 -9.5t-32.5 19.5q-17 20 -6 51q22 49 82 80q18 9 43.5 14t42.5 6l16 1q83 0 115.5 -55.5t32.5 -159.5v-183 q0 -3 0.5 -7.5t3 -16t6.5 -20t14 -15.5t23 -6q22 -2 28 27l23 -9q-5 -27 -32.5 -48t-69.5 -21q-4 0 -10 0.5t-22 5t-28.5 12t-22.5 24t-10 38.5q-9 -36 -51.5 -58t-99.5 -22q-5 0 -13.5 0.5t-29.5 6t-37 15.5t-29.5 32.5t-13.5 53.5zM135 1059q0 -30 21 -56t65 -26 q39 0 66.5 32.5t27.5 61.5v121q-95 -22 -137.5 -53t-42.5 -80z" />
<glyph unicode="&#xab;" horiz-adv-x="1249" d="M178 545l473 489v-53l-305 -436l305 -424v-53zM596 545l473 489v-53l-303 -436l303 -424v-53z" />
<glyph unicode="&#xac;" horiz-adv-x="1318" d="M84 680v125h1137v-633h-127v508h-1010z" />
<glyph unicode="&#xad;" horiz-adv-x="909" d="M131 451v139h645v-139h-645z" />
<glyph unicode="&#xae;" horiz-adv-x="1638" d="M63 754q0 153 59.5 292t160.5 239.5t240.5 160t293.5 59.5q153 0 292.5 -59.5t240.5 -159.5t161 -239.5t60 -292.5t-60 -292.5t-161 -240t-240.5 -160t-292.5 -59.5q-154 0 -293.5 59.5t-240.5 160t-160.5 240t-59.5 292.5zM168 754q0 -131 51.5 -251t138.5 -207 t207 -138.5t252 -51.5q174 0 323 87t236.5 236.5t87.5 324.5q0 176 -87.5 325.5t-236.5 236.5t-323 87q-176 0 -325.5 -87t-236.5 -236.5t-87 -325.5zM526 358v27q38 0 54 24.5t16 92.5v542q0 51 -15 64.5t-55 13.5v27h213q73 0 122.5 -4.5t95 -17t71.5 -36t41.5 -62 t15.5 -93.5q0 -107 -53 -154.5t-145 -54.5q27 1 51 -7t53.5 -32t54.5 -79.5t39 -137.5q16 -86 121 -86v-27h-90h-42.5t-31 4t-23.5 6t-16.5 13.5t-14 19.5t-11 31.5t-12 41.5t-14 58t-19.5 72q-8 31 -29 54t-45 33.5t-47 16.5t-38 6l-15 1h-53v-228q0 -57 17 -79.5t54 -22.5 v-27h-250zM705 741h34h41.5t37.5 2t36 5t30 9.5t28 16t21 24.5t17 34t9 45.5t4 58.5q0 39 -6.5 69t-16 49.5t-28.5 33t-33.5 20t-43 10t-45.5 4t-51 0.5h-34v-381z" />
<glyph unicode="&#xaf;" horiz-adv-x="737" d="M-33 1223v104h805v-104h-805z" />
<glyph unicode="&#xb0;" horiz-adv-x="780" d="M117 1243q0 110 78.5 188t187.5 78t187.5 -78t78.5 -188q0 -109 -78.5 -186.5t-187.5 -77.5t-187.5 77.5t-78.5 186.5zM182 1243q0 -83 59 -141t144 -58q82 0 140.5 58t58.5 141q0 82 -58.5 140.5t-140.5 58.5q-84 0 -143.5 -58.5t-59.5 -140.5z" />
<glyph unicode="&#xb1;" horiz-adv-x="1245" d="M84 0v125h1063v-125h-1063zM84 627v127h467v342h127v-342h469v-127h-469v-340h-127v340h-467z" />
<glyph unicode="&#xb2;" horiz-adv-x="530" d="M61 776l207 311q88 134 43 219q-29 53 -92 60q-65 6 -105 -42q-19 -24 -26 -58l-27 2q2 50 21 86.5t45 52.5t51 25t42 10h18q69 0 115 -45t46 -109q0 -44 -24 -91t-82 -122q-20 -27 -56.5 -81t-62.5 -94l-27 -40h183q53 0 82 51h26l-37 -135h-340z" />
<glyph unicode="&#xb3;" horiz-adv-x="538" d="M71 844q-3 16 3 28q8 20 26.5 29t38.5 2q20 -8 29 -27.5t2 -39.5q-10 -20 -25 -25q-7 -2 9 -9q29 -14 86 -14q67 0 101.5 42t27.5 118q-3 24 -11.5 46t-27 45t-53.5 38.5t-84 18.5v26q67 11 103 54t31 93t-46 85q-46 39 -107.5 17.5t-73.5 -83.5l-28 2q3 43 22 74 t40.5 45.5t50.5 22.5t41 9t22 1q44 0 81.5 -22.5t56.5 -58.5t21.5 -76.5t-23 -82t-75.5 -69.5q70 -16 108 -61.5t40 -100.5q1 -58 -20.5 -101t-56.5 -64.5t-70 -31.5t-70 -10q-101 0 -156 55q-10 9 -13 25z" />
<glyph unicode="&#xb4;" horiz-adv-x="714" d="M178 1141l363 334l166 -52l-482 -282h-47z" />
<glyph unicode="&#xb5;" horiz-adv-x="1060" d="M23 901v25l290 39v-682q4 -102 61.5 -151.5t149.5 -49.5q73 0 128 44.5t85 113.5v516q0 92 -7 110q-10 26 -54 32q-13 2 -35 3v25l274 39v-795q0 -72 19.5 -92.5t85.5 -28.5v-26l-234 -39q-22 -4 -34 3.5t-14 16.5l-1 10v174q-20 -72 -87.5 -129t-155.5 -73.5t-181 26.5 v-358q0 -74 21 -98.5t86 -30.5v-27l-232 -39q-24 -4 -36.5 3.5t-13.5 17.5l-1 10v1262q0 92 -8 111q-11 26 -56 33q-17 3 -50 5z" />
<glyph unicode="&#xb6;" horiz-adv-x="1277" d="M74 1024q0 98 30 173t78.5 120t117.5 74t137.5 39.5t148.5 11.5h2h119v-1985h-355v27q42 0 79 9t74 31t59 68t22 111v911q-90 0 -161 9.5t-139 37t-113 72t-72 118.5t-27 173zM831 -543v1985h289v-27q-76 0 -122 -65.5t-46 -173.5v-1434q0 -121 40.5 -189.5t113.5 -68.5 v-27h-275z" />
<glyph unicode="&#xb7;" horiz-adv-x="516" d="M160 612q0 40 28 68.5t68 28.5t68 -28.5t28 -68.5q0 -38 -28 -66t-68 -28t-68 28t-28 66z" />
<glyph unicode="&#xb8;" horiz-adv-x="544" d="M115 -373q7 20 25.5 27.5t37.5 -0.5q20 -6 29 -24t2 -38q-5 -14 -21 -22q-3 -1 3 -5.5t24 -9.5t45 -6q54 0 88 33t33 90q0 18 -6 38.5t-20.5 45t-38.5 40t-61.5 23t-88.5 -4.5l61 178h27l-45 -129q133 30 202.5 -25.5t57.5 -142.5q-6 -50 -29 -84.5t-57 -50.5 t-63.5 -22.5t-59.5 -6.5q-90 0 -135 45q-19 23 -10 51z" />
<glyph unicode="&#xb9;" horiz-adv-x="428" d="M86 1327l150 117h32v-563q0 -26 6 -42t18.5 -23t23 -9t26.5 -2v-27h-240v27q18 0 29.5 2t24.5 9.5t19.5 23.5t6.5 41v407q0 22 -8 32t-21 7.5t-25 -8.5t-26 -16z" />
<glyph unicode="&#xba;" horiz-adv-x="667" d="M70 1100q0 348 262 348q61 0 108 -20.5t75 -53.5t46 -79.5t24.5 -93.5t6.5 -101q0 -67 -11.5 -122.5t-39 -106t-80.5 -79t-129 -28.5q-262 0 -262 336zM174 1100q0 -77 9 -133.5t23.5 -89.5t36 -53t42.5 -26.5t47 -6.5q34 0 59.5 12t48.5 43t35 95t12 159 q0 96 -12.5 162.5t-36 99.5t-49 46t-57.5 13q-34 0 -60 -13t-49.5 -46t-36 -99.5t-12.5 -162.5z" />
<glyph unicode="&#xbb;" horiz-adv-x="1247" d="M170 68v53l303 424l-303 436v53l473 -489zM588 68v53l305 424l-305 436v53l473 -489z" />
<glyph unicode="&#xbc;" horiz-adv-x="1277" d="M29 74l1138 1378h103l-1141 -1378h-100zM178 1395l160 133h35v-651q0 -29 6.5 -47t20.5 -25t24 -8.5t29 -1.5v-27h-256v27q20 0 32.5 2t26 9.5t20.5 25t7 45.5v483q0 78 -88 10zM641 217v16l348 517l43 -2v-476h103v-55h-103v-78q0 -40 5.5 -64t18.5 -34t23.5 -12 t32.5 -2v-27h-264v27q20 0 31 2.5t23.5 12t18 33t5.5 60.5v82h-285zM720 277.5q4 -5.5 30 -5.5h176v332l-193 -287q-17 -34 -13 -39.5z" />
<glyph unicode="&#xbd;" horiz-adv-x="1314" d="M29 74l1138 1378h103l-1141 -1378h-100zM178 1395l160 133h35v-651q0 -29 6.5 -47t20.5 -25t24 -8.5t29 -1.5v-27h-256v27q20 0 32.5 2t26 9.5t20.5 25t7 45.5v483q0 80 -88 12zM799 0l235 356q97 147 51 244q-28 60 -97 72q-71 13 -121 -34q-33 -31 -42 -81l-24 6 q3 58 24.5 100t50 60.5t56.5 29t48 11.5h19q80 0 132.5 -52t52.5 -126q0 -49 -28 -101t-97 -143q-23 -31 -64.5 -92.5t-71.5 -107.5l-30 -46h211q28 0 57 15.5t45 44.5h23l-43 -156h-387z" />
<glyph unicode="&#xbe;" horiz-adv-x="1312" d="M29 74l1138 1378h103l-1141 -1378h-100zM104.5 852.5q-3.5 19.5 1.5 32.5q9 23 30.5 33t45.5 2q23 -10 33 -32.5t2 -45.5q-13 -23 -22 -25q-5 -2 2.5 -8t33.5 -12t64 -6q163 0 145 182q-3 27 -12.5 52t-30 52.5t-61 45.5t-96.5 22v22q77 13 118 61.5t35.5 104.5t-51.5 94 q-52 42 -121 18t-84 -93l-28 6q2 40 16.5 71.5t36.5 48.5t43.5 28.5t45.5 15.5t34 5t18 1q63 0 110.5 -39t64.5 -93t-8.5 -115.5t-96.5 -100.5q78 -16 121.5 -68.5t46.5 -114.5q0 -54 -17 -96.5t-42.5 -67.5t-59.5 -41.5t-65 -22t-62 -5.5q-117 0 -176 59q-11 10 -14.5 29.5 zM641 217v16l348 517l43 -2v-476h103v-55h-103v-78q0 -40 5.5 -64t18.5 -34t23.5 -12t32.5 -2v-27h-264v27q20 0 31 2.5t23.5 12t18 33t5.5 60.5v82h-285zM720 277.5q4 -5.5 30 -5.5h176v332l-193 -287q-17 -34 -13 -39.5z" />
<glyph unicode="&#xbf;" horiz-adv-x="1204" d="M207 -188q-4 85 17 158t53.5 121t79 88.5t83.5 61.5t78 38q77 30 113 100t28 164l41 6q6 -40 6.5 -71t-6 -77t-33.5 -91t-73 -83q-35 -30 -55 -49.5t-48 -57.5t-41.5 -76t-21.5 -96.5t-2 -127.5q8 -90 41 -155.5t79 -99.5t103 -47.5t113.5 -7.5t109.5 27q62 24 68 62 q3 23 -14 29q-2 1 -4 1q-40 3 -66 43q-26 37 -18.5 81t43.5 71q37 26 80.5 16t70.5 -47q29 -38 12 -110q-9 -38 -52 -88.5t-109 -79.5q-120 -54 -241.5 -56.5t-214.5 38.5t-154 124t-66 191zM532 838q0 55 38 93t94 38q54 0 91.5 -38t37.5 -93q0 -54 -37.5 -91.5 t-91.5 -37.5q-55 0 -93.5 37.5t-38.5 91.5z" />
<glyph unicode="&#xc0;" d="M35 0h457v27q-58 -2 -98.5 12t-62.5 34t-29.5 57.5t-8 66.5t11 79t20 76t24.5 75l3 9h531l71 -178q94 -231 -43 -231v-27h467v27q-24 2 -33.5 3t-30 10t-33.5 25t-32 48t-39 80q-253 648 -503 1249h-23l-342 -932q-52 -139 -93.5 -231.5t-68.5 -142.5t-55 -74.5 t-44.5 -29t-45.5 -5.5v-27zM358 463l248 680l268 -680h-516zM418 1786l166 51l362 -334h-47z" />
<glyph unicode="&#xc1;" d="M35 0v27q29 1 45.5 5.5t44.5 29t55 74.5t68.5 142.5t93.5 231.5l342 932h23q111 -268 237 -580t196 -490l70 -179q20 -48 39 -80t32 -48t33.5 -25t30 -10t33.5 -3v-27h-467v27q137 0 43 231l-71 178h-531q-52 -154 -57 -224q-15 -184 182 -185h15v-27h-457zM358 463h516 l-268 680zM450 1503l363 334l166 -52l-482 -282h-47z" />
<glyph unicode="&#xc2;" d="M35 0h457v27q-58 -2 -98.5 12t-62.5 34t-29.5 57.5t-8 66.5t11 79t20 76t24.5 75l3 9h531l71 -178q94 -231 -43 -231v-27h467v27q-24 2 -33.5 3t-30 10t-33.5 25t-32 48t-39 80q-253 648 -503 1249h-23l-342 -932q-52 -139 -93.5 -231.5t-68.5 -142.5t-55 -74.5 t-44.5 -29t-45.5 -5.5v-27zM358 463l248 680l268 -680h-516zM408 1505l290 385l293 -385h-49l-244 209l-243 -209h-47z" />
<glyph unicode="&#xc3;" d="M35 0v27q29 1 45.5 5.5t44.5 29t55 74.5t68.5 142.5t93.5 231.5l342 932h23q111 -268 237 -580t196 -490l70 -179q20 -48 39 -80t32 -48t33.5 -25t30 -10t33.5 -3v-27h-467v27q137 0 43 231l-71 178h-531q-52 -154 -57 -224q-15 -184 182 -185h15v-27h-457zM231 1573 q34 87 85.5 142t100 72t92.5 21t71 -3l26 -7l236 -90q27 -10 69.5 -11t89 7.5t87.5 34.5t59 65l18 -8q-26 -64 -60.5 -111.5t-69 -71.5t-71 -38t-67.5 -15t-56 0.5t-39 5.5l-14 5l-233 88q-28 10 -69.5 12.5t-87.5 -4.5t-87.5 -33t-60.5 -69zM358 463h516l-268 680z" />
<glyph unicode="&#xc4;" d="M35 0v27q29 1 45.5 5.5t44.5 29t55 74.5t68.5 142.5t93.5 231.5l342 932h23q111 -268 237 -580t196 -490l70 -179q20 -48 39 -80t32 -48t33.5 -25t30 -10t33.5 -3v-27h-467v27q137 0 43 231l-71 178h-531q-52 -154 -57 -224q-15 -184 182 -185h15v-27h-457zM358 463h516 l-268 680zM440 1694q0 40 27.5 68t67.5 28q38 0 66 -28t28 -68q0 -38 -28 -66.5t-66 -28.5q-39 0 -67 28t-28 67zM766 1694q0 40 28 68t66 28q40 0 68 -28t28 -68q0 -38 -28 -66.5t-68 -28.5q-38 0 -66 28.5t-28 66.5z" />
<glyph unicode="&#xc5;" d="M35 0v27q29 1 45.5 5.5t44.5 29t55 74.5t68.5 142.5t93.5 231.5l342 932h23q111 -268 237 -580t196 -490l70 -179q20 -48 39 -80t32 -48t33.5 -25t30 -10t33.5 -3v-27h-467v27q137 0 43 231l-71 178h-531q-52 -154 -57 -224q-15 -184 182 -185h15v-27h-457zM358 463h516 l-268 680zM496 1800q0 85 59 145t143 60q83 0 143 -60t60 -145q0 -83 -60 -142t-143 -59q-84 0 -143 58.5t-59 142.5zM565 1800q0 -54 39 -92.5t94 -38.5t93 38.5t38 92.5q0 56 -38 94.5t-93 38.5q-56 0 -94.5 -38.5t-38.5 -94.5z" />
<glyph unicode="&#xc6;" horiz-adv-x="1923" d="M18 0v27q35 1 66 16t81.5 63.5t122.5 156.5t167 276l452 811q-16 42 -46 53.5t-83 11.5v27h996v-369h-27q-4 55 -19 101t-36 79t-54 59.5t-63 43t-72.5 28.5t-73 18t-75 9t-68 3.5t-61.5 0.5h-90v-676h112h32t41.5 3.5t50.5 10.5t47 22t45 36.5t30.5 56t15.5 78.5h27 v-438h-27q-10 206 -257 205h-5h-112v-686h73q164 0 248 18q288 64 320 379h26v-424h-1007v27q69 0 98 43.5t29 169.5v243h-461q-64 -118 -96.5 -201.5t-37 -132.5t17 -77t55 -36.5t87.5 -8.5v-27h-469zM473 510h449v715q0 68 -4 82z" />
<glyph unicode="&#xc7;" horiz-adv-x="1374" d="M82 721q0 227 89.5 395t249.5 256t372 88q173 0 287.5 -26t205.5 -99l-24 -317h-27q-16 97 -52 172.5t-80 120.5t-99.5 73.5t-106 39t-104.5 10.5q-50 0 -92.5 -7t-89.5 -26.5t-84.5 -52t-72.5 -87.5t-58.5 -128t-37.5 -178t-14 -234q0 -181 28 -315t69.5 -208.5 t104.5 -119t119.5 -57.5t127.5 -13q53 0 107.5 13t112 44.5t103.5 77.5t78.5 119t40.5 162h27l24 -315q-112 -74 -218.5 -100.5t-274.5 -26.5h-33l-39 -111q133 30 202.5 -25.5t57.5 -142.5q-6 -50 -29 -84.5t-57 -50.5t-63.5 -22.5t-59.5 -6.5q-90 0 -135 45q-19 23 -10 51 q7 20 25.5 27.5t37.5 -0.5q20 -6 29 -23.5t2 -37.5q-5 -15 -21 -23q-3 -1 3 -5.5t24 -9t45 -5.5q54 0 88 33t33 90q0 18 -6 38.5t-20.5 44.5t-38.5 39.5t-61.5 23t-88.5 -4.5l55 162q-296 19 -473.5 216t-177.5 521z" />
<glyph unicode="&#xc8;" horiz-adv-x="1220" d="M63 0h1031v426h-27q-9 -83 -36.5 -148t-61.5 -106t-88.5 -70.5t-95.5 -43.5t-105.5 -21.5t-97 -8.5t-89.5 -1h-14h-94v688h133q17 0 31.5 -0.5t44.5 -4.5t54 -11.5t53 -23t49 -36.5t34.5 -55t16.5 -76h26v440h-26q-2 -43 -16.5 -77t-34 -55t-48.5 -36.5t-52 -22.5 t-54 -11t-45 -4.5t-33 -0.5h-133v674h111q49 0 82 -1t93 -8t102 -19t93.5 -37.5t84.5 -60.5t58.5 -90.5t30.5 -125.5h27v369h-1004v-27q64 0 87.5 -45.5t23.5 -146.5v-983q0 -110 -24.5 -161.5t-86.5 -51.5v-27zM324 1786l165 51l363 -334h-47z" />
<glyph unicode="&#xc9;" horiz-adv-x="1220" d="M63 0v27q62 0 86.5 51.5t24.5 161.5v983q0 101 -23.5 146.5t-87.5 45.5v27h1004v-369h-27q-5 70 -30.5 125.5t-58.5 90.5t-84.5 60.5t-93.5 37.5t-102 19t-93 8t-82 1h-111v-674h133q19 0 33 0.5t45 4.5t54 11t52 22.5t48.5 36.5t34 55t16.5 77h26v-440h-26 q-2 42 -16.5 76t-34.5 55t-49 36.5t-53 23t-54 11.5t-44.5 4.5t-31.5 0.5h-133v-688h94q165 0 249 17q305 62 339 382h27v-426h-1031zM313 1503l363 334l166 -51l-482 -283h-47z" />
<glyph unicode="&#xca;" horiz-adv-x="1220" d="M63 0h1031v426h-27q-9 -83 -36.5 -148t-61.5 -106t-88.5 -70.5t-95.5 -43.5t-105.5 -21.5t-97 -8.5t-89.5 -1h-14h-94v688h133q17 0 31.5 -0.5t44.5 -4.5t54 -11.5t53 -23t49 -36.5t34.5 -55t16.5 -76h26v440h-26q-2 -43 -16.5 -77t-34 -55t-48.5 -36.5t-52 -22.5 t-54 -11t-45 -4.5t-33 -0.5h-133v674h111q49 0 82 -1t93 -8t102 -19t93.5 -37.5t84.5 -60.5t58.5 -90.5t30.5 -125.5h27v369h-1004v-27q64 0 87.5 -45.5t23.5 -146.5v-983q0 -110 -24.5 -161.5t-86.5 -51.5v-27zM291 1505l291 385l292 -385h-49l-243 209l-244 -209h-47z" />
<glyph unicode="&#xcb;" horiz-adv-x="1220" d="M63 0v27q62 0 86.5 51.5t24.5 161.5v983q0 101 -23.5 146.5t-87.5 45.5v27h1004v-369h-27q-5 70 -30.5 125.5t-58.5 90.5t-84.5 60.5t-93.5 37.5t-102 19t-93 8t-82 1h-111v-674h133q19 0 33 0.5t45 4.5t54 11t52 22.5t48.5 36.5t34 55t16.5 77h26v-440h-26 q-2 42 -16.5 76t-34.5 55t-49 36.5t-53 23t-54 11.5t-44.5 4.5t-31.5 0.5h-133v-688h94q165 0 249 17q305 62 339 382h27v-426h-1031zM324 1694q0 40 27 68t67 28q38 0 66 -28t28 -68q0 -38 -28 -66.5t-66 -28.5q-39 0 -66.5 28t-27.5 67zM649 1694q0 40 28 68t66 28 q40 0 68.5 -28t28.5 -68q0 -38 -28.5 -66.5t-68.5 -28.5q-38 0 -66 28.5t-28 66.5z" />
<glyph unicode="&#xcc;" horiz-adv-x="704" d="M78 1786l166 51l362 -334h-47zM106 0h498v27q-143 0 -143 192v1034q0 90 36 126t107 36v27h-498v-27q72 0 108 -35.5t36 -126.5v-1034q0 -192 -144 -192v-27z" />
<glyph unicode="&#xcd;" horiz-adv-x="704" d="M86 1503l363 334l165 -51l-481 -283h-47zM106 0v27q144 0 144 192v1034q0 91 -36 126.5t-108 35.5v27h498v-27q-71 0 -107 -36t-36 -126v-1034q0 -192 143 -192v-27h-498z" />
<glyph unicode="&#xce;" horiz-adv-x="704" d="M66 1505l290 385l293 -385h-49l-244 209l-243 -209h-47zM106 0h498v27q-143 0 -143 192v1034q0 90 36 126t107 36v27h-498v-27q72 0 108 -35.5t36 -126.5v-1034q0 -192 -144 -192v-27z" />
<glyph unicode="&#xcf;" horiz-adv-x="704" d="M98 1694q0 40 28 68t67 28q40 0 68 -28t28 -68q0 -38 -28.5 -66.5t-67.5 -28.5q-38 0 -66.5 28.5t-28.5 66.5zM109 0v27q143 0 143 192v1034q0 91 -35.5 126.5t-107.5 35.5v27h495v-27q-71 0 -107 -36t-36 -126v-1034q0 -192 143 -192v-27h-495zM426 1694q0 40 27 68 t67 28q39 0 67.5 -28.5t28.5 -67.5q0 -38 -29 -66.5t-67 -28.5q-39 0 -66.5 28t-27.5 67z" />
<glyph unicode="&#xd0;" horiz-adv-x="1456" d="M41 700v39h188v461q0 98 -36.5 156.5t-102.5 58.5v27h440q93 0 174 -8.5t165 -30.5t152.5 -57t129.5 -92t102.5 -131t65.5 -177.5t24 -228.5q0 -129 -24 -234t-65 -178.5t-103 -129t-129 -88.5t-153 -53t-165 -27t-174 -7h-440v27q66 0 102.5 56.5t36.5 160.5v456h-188z M440 27h90q63 0 102.5 2t105.5 16t109.5 39t95.5 76t82.5 122.5t51.5 182.5t21 252q0 137 -20.5 246.5t-52 181.5t-81 124.5t-95.5 79.5t-108.5 43t-107.5 19.5t-103 3.5h-90v-676h293v-39h-293v-673z" />
<glyph unicode="&#xd1;" horiz-adv-x="1652" d="M20 1417v25h379l885 -1143v633v67.5t-2.5 69.5t-7 74t-13.5 68.5t-22 66.5t-33.5 54.5t-46.5 46t-62.5 27.5t-80.5 11v25h586v-25q-70 0 -122.5 -20t-83 -62.5t-49 -81.5t-26 -104.5t-9 -102.5t-1.5 -103v-11v-932h-66l-870 1122v-610q0 -54 0.5 -85t5.5 -89t14.5 -94 t29.5 -81.5t47.5 -72t71.5 -45t99 -18.5v-27h-592v27q48 0 88 11.5t69 28t52 46t37.5 55.5t24.5 67t15 69t7.5 73.5t3 69t0.5 65.5v641l-84 109q-24 30 -46.5 53.5t-39 39t-36 27.5t-29.5 17.5t-27.5 9.5t-23 5t-22.5 2t-20 1zM348 1573q25 63 59.5 110t69.5 71t71 38 t67.5 15.5t56 0t38.5 -5.5l15 -4l233 -90q27 -10 70 -11t89.5 7.5t88 34.5t58.5 65l20 -8q-26 -64 -60.5 -111.5t-69 -71.5t-71 -38t-67.5 -15t-56 0.5t-39 5.5l-14 5l-235 88q-28 10 -69.5 12.5t-87.5 -4.5t-87.5 -33t-60.5 -69z" />
<glyph unicode="&#xd2;" horiz-adv-x="1511" d="M84 711q0 -155 41.5 -286t122 -231t209 -156t293.5 -56t293.5 56t209 156t121.5 231t41 286q0 123 -25.5 233.5t-79 205.5t-131 163.5t-187.5 107.5t-242 39t-242 -39t-187.5 -107.5t-131.5 -163.5t-79.5 -205.5t-25.5 -233.5zM319 711q0 164 21.5 290t59.5 207 t93.5 132.5t118 72.5t138.5 21t138 -21t117 -72.5t92.5 -132.5t59 -207t21.5 -290q0 -165 -21.5 -289t-59 -202t-93 -126.5t-116.5 -67t-138 -18.5t-139 18.5t-118 67t-93 126.5t-59 202t-22 289zM500 1786l166 51l362 -334h-47z" />
<glyph unicode="&#xd3;" horiz-adv-x="1511" d="M84 711q0 123 25.5 233.5t79.5 205.5t131.5 163.5t187.5 107.5t242 39t242 -39t187.5 -107.5t131 -163.5t79 -205.5t25.5 -233.5q0 -155 -41 -286t-121.5 -231t-209 -156t-293.5 -56t-293.5 56t-209 156t-122 231t-41.5 286zM319 711q0 -165 22 -289t59 -202t93 -126.5 t118 -67t139 -18.5t138 18.5t116.5 67t93 126.5t59 202t21.5 289q0 164 -21.5 290t-59 207t-92.5 132.5t-117 72.5t-138 21t-138.5 -21t-118 -72.5t-93.5 -132.5t-59.5 -207t-21.5 -290zM504 1503l363 334l166 -52l-482 -282h-47z" />
<glyph unicode="&#xd4;" horiz-adv-x="1511" d="M84 711q0 -155 41.5 -286t122 -231t209 -156t293.5 -56t293.5 56t209 156t121.5 231t41 286q0 123 -25.5 233.5t-79 205.5t-131 163.5t-187.5 107.5t-242 39t-242 -39t-187.5 -107.5t-131.5 -163.5t-79.5 -205.5t-25.5 -233.5zM319 711q0 164 21.5 290t59.5 207 t93.5 132.5t118 72.5t138.5 21t138 -21t117 -72.5t92.5 -132.5t59 -207t21.5 -290q0 -165 -21.5 -289t-59 -202t-93 -126.5t-116.5 -67t-138 -18.5t-139 18.5t-118 67t-93 126.5t-59 202t-22 289zM465 1505l291 385l293 -385h-50l-243 209l-244 -209h-47z" />
<glyph unicode="&#xd5;" horiz-adv-x="1511" d="M84 711q0 -155 41.5 -286t122 -231t209 -156t293.5 -56t293.5 56t209 156t121.5 231t41 286q0 123 -25.5 233.5t-79 205.5t-131 163.5t-187.5 107.5t-242 39t-242 -39t-187.5 -107.5t-131.5 -163.5t-79.5 -205.5t-25.5 -233.5zM291 1573q25 63 59.5 110t69.5 71t71 38 t67.5 15.5t56 0t39.5 -5.5l14 -4l233 -90q27 -10 70 -11t89.5 7.5t87.5 34.5t58 65l21 -8q-26 -64 -60.5 -111.5t-69 -71.5t-71 -38t-67.5 -15t-56 0.5t-39 5.5l-14 5l-236 88q-28 10 -69.5 12t-87.5 -5t-87.5 -33t-60.5 -68zM319 711q0 164 21.5 290t59.5 207t93.5 132.5 t118 72.5t138.5 21t138 -21t117 -72.5t92.5 -132.5t59 -207t21.5 -290q0 -165 -21.5 -289t-59 -202t-93 -126.5t-116.5 -67t-138 -18.5t-139 18.5t-118 67t-93 126.5t-59 202t-22 289z" />
<glyph unicode="&#xd6;" horiz-adv-x="1511" d="M84 711q0 123 25.5 233.5t79.5 205.5t131.5 163.5t187.5 107.5t242 39t242 -39t187.5 -107.5t131 -163.5t79 -205.5t25.5 -233.5q0 -155 -41 -286t-121.5 -231t-209 -156t-293.5 -56t-293.5 56t-209 156t-122 231t-41.5 286zM319 711q0 -165 22 -289t59 -202t93 -126.5 t118 -67t139 -18.5t138 18.5t116.5 67t93 126.5t59 202t21.5 289q0 164 -21.5 290t-59 207t-92.5 132.5t-117 72.5t-138 21t-138.5 -21t-118 -72.5t-93.5 -132.5t-59.5 -207t-21.5 -290zM494 1694q0 40 28 68t66 28q40 0 68 -28t28 -68t-28 -67.5t-68 -27.5q-38 0 -66 27.5 t-28 67.5zM821 1694q0 40 27 68t67 28q39 0 68 -28.5t29 -67.5t-29 -67t-68 -28q-40 0 -67 27.5t-27 67.5z" />
<glyph unicode="&#xd7;" horiz-adv-x="1228" d="M121 129l393 393l-391 387l102 105l389 -389l392 389l100 -103l-391 -389l393 -393l-100 -102l-394 393l-391 -393z" />
<glyph unicode="&#xd8;" horiz-adv-x="1513" d="M86 713q0 123 25.5 233.5t79.5 205t131.5 162.5t187.5 107t242 39q224 0 372 -100l101 166h43l-113 -189q129 -100 195.5 -263.5t66.5 -360.5q0 -124 -25.5 -233.5t-79 -201t-131 -157.5t-187.5 -102.5t-242 -36.5q-201 0 -355 88l-84 -142h-43l97 162 q-138 93 -209.5 256t-71.5 367zM322 713q0 -342 106 -520l639 1071q-102 170 -315 170q-77 0 -139 -20.5t-117.5 -72t-93 -132t-59 -206.5t-21.5 -290zM451 158q98 -150 301 -150q77 0 138 18.5t116.5 67t93 127t59 203t21.5 289.5q0 325 -95 510z" />
<glyph unicode="&#xd9;" horiz-adv-x="1466" d="M39 1415q72 0 108.5 -39.5t36.5 -138.5v-745q0 -122 36.5 -220t101 -161t150.5 -96t187 -33q78 0 148.5 16.5t135.5 54.5t111.5 94.5t74.5 142.5t28 193v557v12q0 42 0.5 63t2.5 58.5t6.5 57.5t13.5 49.5t22 46t32.5 36t45.5 29t61 16.5t78 7v27h-532v-27q39 0 71.5 -7 t56 -17.5t42 -30.5t30.5 -37.5t20.5 -47.5t13 -51.5t6.5 -58.5t2.5 -60.5t0.5 -64.5v-557q0 -192 -104 -300.5t-266 -108.5q-169 0 -271 106t-102 293v762q0 58 12 96t36.5 55.5t50 23t63.5 5.5v27h-510v-27zM465 1786l166 51l362 -334h-47z" />
<glyph unicode="&#xda;" horiz-adv-x="1466" d="M39 1415v27h510v-27q-38 0 -63.5 -5.5t-50 -23t-36.5 -55.5t-12 -96v-762q0 -187 102 -293t271 -106q162 0 266 108.5t104 300.5v557q0 41 -0.5 64.5t-2.5 60.5t-6.5 58.5t-13 51.5t-20.5 47.5t-30.5 37.5t-42 30.5t-56 17.5t-71.5 7v27h532v-27q-76 0 -128 -22 t-78 -49.5t-39 -84.5t-15 -94.5t-2 -112.5v-12v-557q0 -107 -28 -193t-74.5 -142.5t-111.5 -94.5t-135.5 -54.5t-148.5 -16.5q-101 0 -187 33t-150.5 96t-101 161t-36.5 220v745q0 99 -36.5 138.5t-108.5 39.5zM477 1503l363 334l166 -51l-482 -283h-47z" />
<glyph unicode="&#xdb;" horiz-adv-x="1466" d="M39 1415q72 0 108.5 -39.5t36.5 -138.5v-745q0 -122 36.5 -220t101 -161t150.5 -96t187 -33q78 0 148.5 16.5t135.5 54.5t111.5 94.5t74.5 142.5t28 193v557v12q0 42 0.5 63t2.5 58.5t6.5 57.5t13.5 49.5t22 46t32.5 36t45.5 29t61 16.5t78 7v27h-532v-27q39 0 71.5 -7 t56 -17.5t42 -30.5t30.5 -37.5t20.5 -47.5t13 -51.5t6.5 -58.5t2.5 -60.5t0.5 -64.5v-557q0 -192 -104 -300.5t-266 -108.5q-169 0 -271 106t-102 293v762q0 58 12 96t36.5 55.5t50 23t63.5 5.5v27h-510v-27zM432 1505l291 385l293 -385h-49l-244 209l-244 -209h-47z" />
<glyph unicode="&#xdc;" horiz-adv-x="1466" d="M39 1415v27h510v-27q-38 0 -63.5 -5.5t-50 -23t-36.5 -55.5t-12 -96v-762q0 -187 102 -293t271 -106q162 0 266 108.5t104 300.5v557q0 41 -0.5 64.5t-2.5 60.5t-6.5 58.5t-13 51.5t-20.5 47.5t-30.5 37.5t-42 30.5t-56 17.5t-71.5 7v27h532v-27q-76 0 -128 -22 t-78 -49.5t-39 -84.5t-15 -94.5t-2 -112.5v-12v-557q0 -107 -28 -193t-74.5 -142.5t-111.5 -94.5t-135.5 -54.5t-148.5 -16.5q-101 0 -187 33t-150.5 96t-101 161t-36.5 220v745q0 99 -36.5 138.5t-108.5 39.5zM469 1694q0 40 28 68t66 28q40 0 68 -28t28 -68t-28 -67.5 t-68 -27.5q-39 0 -66.5 27.5t-27.5 67.5zM797 1694q0 40 27 68t67 28q39 0 67.5 -28.5t28.5 -67.5t-28.5 -67t-67.5 -28q-40 0 -67 27.5t-27 67.5z" />
<glyph unicode="&#xdd;" horiz-adv-x="1417" d="M18 1419v23h527v-23q-19 0 -28.5 -0.5t-29.5 -4.5t-29 -12t-17.5 -25t-4.5 -41.5t18.5 -62.5t43.5 -87l299 -506l153 317q18 39 31.5 69t29 76t21 81t2 73.5t-21 63t-55.5 41t-95 16.5v25h527v-25q-25 0 -39.5 -1.5t-42 -10t-49 -25t-55 -49.5t-66.5 -80.5t-76.5 -120.5 t-91.5 -167l-158 -320v-414q0 -115 40.5 -158.5t113.5 -43.5v-27h-500v27q73 0 113 43.5t40 158.5v361q-134 236 -230 403t-126 215l-29 49q-27 45 -52 76t-43 47t-42 25t-37.5 10.5t-40.5 3.5zM483 1503l363 334l166 -51l-482 -283h-47z" />
<glyph unicode="&#xde;" horiz-adv-x="1187" d="M92 0v27q65 0 101 55t36 158v993q0 182 -137 182v27h475v-27q-139 0 -139 -182v-49h37q95 0 167 -3.5t146 -14.5t126.5 -30t100.5 -50t77 -74t46 -104t17 -138q0 -76 -17 -136.5t-46 -103t-77 -73t-100.5 -49t-127 -29t-146 -14t-166.5 -3.5h-37v-122q0 -103 37 -158 t102 -55v-27h-475zM428 389h37q70 0 106 1t93.5 8t87.5 21.5t68 41.5t56.5 67.5t32 101t13.5 140.5q0 81 -14 143t-33 103t-58 69t-68.5 42t-87 21t-91.5 8t-101 1h-4h-37v-768z" />
<glyph unicode="&#xdf;" horiz-adv-x="1196" d="M57 0v25q53 17 67.5 68t14.5 147v790q0 241 95 370.5t290 129.5q437 0 437 -354q0 -72 -26 -130.5t-62.5 -92t-79 -56.5t-72 -31t-45.5 -8q48 0 105 -12t123.5 -44t119 -80t88 -128t35.5 -180q0 -95 -26 -172t-79.5 -136t-143.5 -91.5t-210 -32.5q-78 0 -128.5 30 t-67.5 66q-27 56 -3 102q19 32 56 42t69 -7q31 -17 41 -56t-6 -69q-17 -33 -53 -41q-14 -4 1 -18q26 -23 91 -23q245 0 238 420q-1 93 -28.5 167.5t-68.5 119t-95 74t-103.5 40.5t-98.5 11v24q37 0 68 6t66 26t58.5 53.5t39.5 93.5t16 141q0 66 -12 119t-29 85.5t-44 56 t-48 34.5t-49.5 17t-40.5 6.5t-29 0.5h-4q-42 0 -75.5 -21t-54 -55t-35 -75.5t-21 -82.5t-10.5 -75t-4 -55v-21v-1118h-267z" />
<glyph unicode="&#xe0;" horiz-adv-x="993" d="M84 193q0 122 93 189q76 55 283 111q44 12 148 39v119q0 162 -74.5 236t-195.5 18q-36 -18 -58.5 -37.5t-23.5 -29.5t2 -13q43 -7 64 -37q23 -31 17 -70.5t-38 -62.5q-31 -25 -69.5 -19t-61.5 38q-37 50 -10 100q40 89 159 152q39 20 86.5 30t74.5 10l28 -1 q82 0 138.5 -29t88 -85.5t45 -128t13.5 -167.5v-348q0 -5 0.5 -14t5 -31t13 -39t28 -31t45.5 -14q5 0 13.5 1.5t25 14.5t22.5 37l25 -10q-10 -51 -62.5 -95t-126.5 -44h-9t-23 3t-33 9t-35.5 18.5t-34 30t-26 46.5t-13.5 65q-22 -74 -103.5 -123t-187.5 -49q-5 0 -13.5 0.5 t-32.5 4.5t-46 11.5t-49 23t-46 37t-32.5 56.5t-13.5 78zM227 1389l166 51l363 -334h-47zM266 236q0 -25 8 -51t25.5 -52t51 -42.5t77.5 -16.5q50 0 90 23t59 48.5t31 55.5v305q-342 -82 -342 -270z" />
<glyph unicode="&#xe1;" horiz-adv-x="993" d="M84 193q0 122 93 189q76 55 283 111q44 12 148 39v119q0 162 -74.5 236t-195.5 18q-36 -18 -58.5 -37.5t-23.5 -29.5t2 -13q43 -7 64 -37q23 -31 17 -70.5t-38 -62.5q-31 -25 -69.5 -19t-61.5 38q-37 50 -10 100q40 89 159 152q39 20 86.5 30t74.5 10l28 -1 q82 0 138.5 -29t88 -85.5t45 -128t13.5 -167.5v-348q0 -5 0.5 -14t5 -31t13 -39t28 -31t45.5 -14q5 0 13.5 1.5t25 14.5t22.5 37l25 -10q-10 -51 -62.5 -95t-126.5 -44h-9t-23 3t-33 9t-35.5 18.5t-34 30t-26 46.5t-13.5 65q-22 -74 -103.5 -123t-187.5 -49q-5 0 -13.5 0.5 t-32.5 4.5t-46 11.5t-49 23t-46 37t-32.5 56.5t-13.5 78zM252 1106l363 334l166 -52l-482 -282h-47zM266 236q0 -25 8 -51t25.5 -52t51 -42.5t77.5 -16.5q50 0 90 23t59 48.5t31 55.5v305q-342 -82 -342 -270z" />
<glyph unicode="&#xe2;" horiz-adv-x="993" d="M84 193q0 122 93 189q76 55 283 111q44 12 148 39v119q0 162 -74.5 236t-195.5 18q-36 -18 -58.5 -37.5t-23.5 -29.5t2 -13q43 -7 64 -37q23 -31 17 -70.5t-38 -62.5q-31 -25 -69.5 -19t-61.5 38q-37 50 -10 100q40 89 159 152q39 20 86.5 30t74.5 10l28 -1 q82 0 138.5 -29t88 -85.5t45 -128t13.5 -167.5v-348q0 -5 0.5 -14t5 -31t13 -39t28 -31t45.5 -14q5 0 13.5 1.5t25 14.5t22.5 37l25 -10q-10 -51 -62.5 -95t-126.5 -44h-9t-23 3t-33 9t-35.5 18.5t-34 30t-26 46.5t-13.5 65q-22 -74 -103.5 -123t-187.5 -49q-5 0 -13.5 0.5 t-32.5 4.5t-46 11.5t-49 23t-46 37t-32.5 56.5t-13.5 78zM221 1059l291 385l293 -385h-49l-244 209l-244 -209h-47zM266 236q0 -25 8 -51t25.5 -52t51 -42.5t77.5 -16.5q50 0 90 23t59 48.5t31 55.5v305q-342 -82 -342 -270z" />
<glyph unicode="&#xe3;" horiz-adv-x="993" d="M55 1153q25 63 59.5 110t69.5 70.5t71 37.5t67.5 15.5t56 -0.5t39.5 -6l14 -4l234 -88q27 -11 70 -12t89.5 7.5t87.5 34.5t58 66l20 -10q-26 -64 -60.5 -111t-69 -70.5t-71 -37.5t-67.5 -15t-56 0.5t-39 5.5l-14 5l-235 88q-28 10 -69.5 12t-87.5 -5t-87.5 -33t-60.5 -68 zM84 193q0 122 93 189q76 55 283 111q44 12 148 39v119q0 162 -74.5 236t-195.5 18q-36 -18 -58.5 -37.5t-23.5 -29.5t2 -13q43 -7 64 -37q23 -31 17 -70.5t-38 -62.5q-31 -25 -69.5 -19t-61.5 38q-37 50 -10 100q40 89 159 152q39 20 86.5 30t74.5 10l28 -1q82 0 138.5 -29 t88 -85.5t45 -128t13.5 -167.5v-348q0 -5 0.5 -14t5 -31t13 -39t28 -31t45.5 -14q5 0 13.5 1.5t25 14.5t22.5 37l25 -10q-10 -51 -62.5 -95t-126.5 -44h-9t-23 3t-33 9t-35.5 18.5t-34 30t-26 46.5t-13.5 65q-22 -74 -103.5 -123t-187.5 -49q-5 0 -13.5 0.5t-32.5 4.5 t-46 11.5t-49 23t-46 37t-32.5 56.5t-13.5 78zM266 236q0 -25 8 -51t25.5 -52t51 -42.5t77.5 -16.5q50 0 90 23t59 48.5t31 55.5v305q-342 -82 -342 -270z" />
<glyph unicode="&#xe4;" horiz-adv-x="993" d="M84 193q0 122 93 189q76 55 283 111q44 12 148 39v119q0 162 -74.5 236t-195.5 18q-36 -18 -58.5 -37.5t-23.5 -29.5t2 -13q43 -7 64 -37q23 -31 17 -70.5t-38 -62.5q-31 -25 -69.5 -19t-61.5 38q-37 50 -10 100q40 89 159 152q39 20 86.5 30t74.5 10l28 -1 q82 0 138.5 -29t88 -85.5t45 -128t13.5 -167.5v-348q0 -5 0.5 -14t5 -31t13 -39t28 -31t45.5 -14q5 0 13.5 1.5t25 14.5t22.5 37l25 -10q-10 -51 -62.5 -95t-126.5 -44h-9t-23 3t-33 9t-35.5 18.5t-34 30t-26 46.5t-13.5 65q-22 -74 -103.5 -123t-187.5 -49q-5 0 -13.5 0.5 t-32.5 4.5t-46 11.5t-49 23t-46 37t-32.5 56.5t-13.5 78zM242 1262q0 40 27 68t67 28q38 0 66 -28t28 -68t-28 -68.5t-66 -28.5q-39 0 -66.5 28.5t-27.5 68.5zM266 236q0 -25 8 -51t25.5 -52t51 -42.5t77.5 -16.5q50 0 90 23t59 48.5t31 55.5v305q-342 -82 -342 -270z M567 1262q0 40 27.5 68t67.5 28t68 -28t28 -68t-28 -68.5t-68 -28.5t-67.5 28.5t-27.5 68.5z" />
<glyph unicode="&#xe5;" horiz-adv-x="993" d="M84 193q0 122 93 189q76 55 283 111q44 12 148 39v119q0 162 -74.5 236t-195.5 18q-36 -18 -58.5 -37.5t-23.5 -29.5t2 -13q43 -7 64 -37q23 -31 17 -70.5t-38 -62.5q-31 -25 -69.5 -19t-61.5 38q-37 50 -10 100q40 89 159 152q39 20 86.5 30t74.5 10l28 -1 q82 0 138.5 -29t88 -85.5t45 -128t13.5 -167.5v-348q0 -5 0.5 -14t5 -31t13 -39t28 -31t45.5 -14q5 0 13.5 1.5t25 14.5t22.5 37l25 -10q-10 -51 -62.5 -95t-126.5 -44h-9t-23 3t-33 9t-35.5 18.5t-34 30t-26 46.5t-13.5 65q-22 -74 -103.5 -123t-187.5 -49q-5 0 -13.5 0.5 t-32.5 4.5t-46 11.5t-49 23t-46 37t-32.5 56.5t-13.5 78zM266 236q0 -25 8 -51t25.5 -52t51 -42.5t77.5 -16.5q50 0 90 23t59 48.5t31 55.5v305q-342 -82 -342 -270zM293 1307q0 83 59 142.5t142 59.5q84 0 143 -59t59 -143t-59 -143.5t-143 -59.5q-83 0 -142 60t-59 143z M362 1307q0 -56 38.5 -94.5t93.5 -38.5q56 0 94.5 39t38.5 94t-38.5 94t-94.5 39q-55 0 -93.5 -38.5t-38.5 -94.5z" />
<glyph unicode="&#xe6;" horiz-adv-x="1445" d="M84 193q0 41 11 74t28 58.5t52.5 49.5t68.5 41t93.5 37.5t110 35t134.5 37.5v125q0 164 -66 235.5t-186 16.5q-36 -18 -57.5 -37t-21.5 -28.5t3 -12.5q32 -3 59 -37q24 -33 18.5 -71.5t-36.5 -63.5q-32 -23 -71 -17t-62 38q-34 46 -10 100q8 15 12 21.5t18 25.5 t28.5 32.5t40.5 32.5t58 36q39 20 82 31t67 11l23 1q155 0 221 -150q64 75 131 112.5t156 37.5q187 0 280 -115t93 -363h-596q4 -195 66.5 -290t193.5 -107q89 -8 166 43t108 121l25 -12q-9 -32 -22 -62.5t-41 -68t-64 -65t-93.5 -46t-127.5 -18.5q-121 0 -212 59t-132 154 q-22 -96 -108 -154.5t-208 -58.5q-5 0 -13.5 0.5t-32.5 4.5t-46 11.5t-49 23t-46 37t-32.5 56.5t-13.5 78zM266 236q0 -26 7.5 -51.5t24 -51.5t49.5 -42.5t77 -16.5q74 0 122.5 45t69.5 104q-27 75 -32 205l-2 72q-147 -45 -220 -99q-96 -71 -96 -165zM766 514h428 q0 217 -59.5 320.5t-145.5 103.5q-96 0 -159.5 -114t-63.5 -310z" />
<glyph unicode="&#xe7;" horiz-adv-x="985" d="M92 471q0 128 58 239.5t173.5 183t266.5 71.5q212 0 280 -125q29 -52 2 -101q-21 -33 -59.5 -43.5t-71.5 9.5q-35 20 -45 58.5t11 70.5q22 40 57 43q11 3 -7 18q-46 39 -148 43h-19q-30 0 -64 -9t-79 -38t-80 -74.5t-59.5 -129.5t-24.5 -193q0 -98 26 -174.5t69.5 -123 t95 -71.5t108.5 -31q105 -8 193.5 45t119.5 123l23 -10q-10 -43 -34.5 -86t-68 -86.5t-115.5 -70.5t-161 -27h-15l-39 -111q133 30 202.5 -25.5t57.5 -142.5q-6 -50 -29 -84.5t-56.5 -50.5t-63 -22.5t-59.5 -6.5q-91 0 -136 45q-19 23 -10 51q7 20 26 27.5t38 -0.5 q20 -6 28.5 -23.5t1.5 -37.5q-5 -16 -20 -23q-3 -1 3 -5.5t24 -9t45 -5.5q54 0 87.5 33t32.5 90q0 18 -6 38.5t-20.5 44.5t-38.5 39.5t-61.5 23t-88.5 -4.5l56 162q-80 8 -153 45.5t-129.5 99t-90 150.5t-33.5 192z" />
<glyph unicode="&#xe8;" horiz-adv-x="1005" d="M74 465q0 -205 124 -344t314 -139q86 0 157 26.5t114.5 68t69.5 83.5t36 82l-25 10q-28 -75 -120 -124t-185 -40q-130 13 -208.5 110.5t-84.5 293.5h656q0 234 -108.5 353.5t-293.5 119.5q-193 0 -319.5 -138t-126.5 -362zM260 1389l166 51l362 -334h-47zM266 518 q0 184 77 302t171 118q39 0 78 -24.5t74 -72.5t57 -132t22 -191h-479z" />
<glyph unicode="&#xe9;" horiz-adv-x="1005" d="M74 465q0 224 126.5 362t319.5 138q185 0 293.5 -119.5t108.5 -353.5h-656q6 -196 84.5 -293.5t208.5 -110.5q93 -9 185 40t120 124l25 -10q-10 -40 -36 -82t-69.5 -83.5t-114.5 -68t-157 -26.5q-190 0 -314 139t-124 344zM225 1106l363 334l166 -51l-482 -283h-47z M266 518h479q0 107 -22 191t-57 132t-74 72.5t-78 24.5q-94 0 -171 -118t-77 -302z" />
<glyph unicode="&#xea;" horiz-adv-x="1005" d="M74 465q0 -205 124 -344t314 -139q86 0 157 26.5t114.5 68t69.5 83.5t36 82l-25 10q-28 -75 -120 -124t-185 -40q-130 13 -208.5 110.5t-84.5 293.5h656q0 234 -108.5 353.5t-293.5 119.5q-193 0 -319.5 -138t-126.5 -362zM209 1059l291 385l293 -385h-50l-243 209 l-244 -209h-47zM266 518q0 184 77 302t171 118q39 0 78 -24.5t74 -72.5t57 -132t22 -191h-479z" />
<glyph unicode="&#xeb;" horiz-adv-x="1005" d="M74 465q0 224 126.5 362t319.5 138q185 0 293.5 -119.5t108.5 -353.5h-656q6 -196 84.5 -293.5t208.5 -110.5q93 -9 185 40t120 124l25 -10q-10 -40 -36 -82t-69.5 -83.5t-114.5 -68t-157 -26.5q-190 0 -314 139t-124 344zM260 1262q0 40 27 68t67 28t68.5 -28t28.5 -68 t-28.5 -68.5t-68.5 -28.5q-39 0 -66.5 28.5t-27.5 68.5zM266 518h479q0 107 -22 191t-57 132t-74 72.5t-78 24.5q-94 0 -171 -118t-77 -302zM588 1262q0 40 27 68t67 28q38 0 66 -28t28 -68t-28 -68.5t-66 -28.5q-39 0 -66.5 28.5t-27.5 68.5z" />
<glyph unicode="&#xec;" horiz-adv-x="501" d="M-18 1389l165 51l363 -334h-47zM57 881q63 -17 84 -42.5t21 -80.5v-568q0 -85 -13.5 -116t-68.5 -47v-27h344v27q-54 13 -69 43.5t-15 119.5v775l-283 -60v-24z" />
<glyph unicode="&#xed;" horiz-adv-x="501" d="M4 1106l363 334l165 -51l-481 -283h-47zM57 881v24l283 60v-775q0 -89 15 -119.5t69 -43.5v-27h-344v27q55 16 68.5 47t13.5 116v568q0 55 -21 80.5t-84 42.5z" />
<glyph unicode="&#xee;" horiz-adv-x="501" d="M-39 1059l291 385l293 -385h-49l-244 209l-244 -209h-47zM57 881q63 -17 84 -42.5t21 -80.5v-568q0 -85 -13.5 -116t-68.5 -47v-27h344v27q-54 13 -69 43.5t-15 119.5v775l-283 -60v-24z" />
<glyph unicode="&#xef;" horiz-adv-x="501" d="M-18 1262q0 40 27 68t67 28t68 -28t28 -68t-28 -68.5t-68 -28.5q-39 0 -66.5 28.5t-27.5 68.5zM57 881v24l283 60v-775q0 -89 15 -119.5t69 -43.5v-27h-344v27q55 16 68.5 47t13.5 116v568q0 55 -21 80.5t-84 42.5zM309 1262q0 40 27 68t67 28q39 0 67 -28t28 -68 t-28.5 -68.5t-66.5 -28.5q-39 0 -66.5 28.5t-27.5 68.5z" />
<glyph unicode="&#xf0;" horiz-adv-x="1110" d="M78 438q3 91 29.5 171.5t75.5 145t128.5 102.5t180.5 38q91 0 176 -37.5t133 -126.5q-1 146 -37 288t-92 232l-324 -166l-29 23l336 174q-116 152 -311 152v26q225 0 401 -133l207 111l31 -25l-209 -110q105 -105 174.5 -271t69.5 -360q0 -209 -52.5 -361t-167 -240.5 t-284.5 -88.5q-87 0 -165 27.5t-141.5 81.5t-98.5 143.5t-31 203.5zM295 416q-4 -115 11 -196.5t46 -126.5t70.5 -65t91.5 -20q155 0 221 155.5t66 514.5v4q-46 81 -114.5 120.5t-133.5 39.5q-118 0 -185.5 -113t-72.5 -313z" />
<glyph unicode="&#xf1;" horiz-adv-x="1036" d="M20 881v24l283 60v-215q32 89 124 152t189 63q134 0 208.5 -76t74.5 -252v-447q0 -87 15.5 -119.5t68.5 -45.5v-25h-344v25q55 16 68.5 48t13.5 117v441q0 106 -54.5 168.5t-154.5 62.5q-74 0 -135 -57t-74 -119v-498q0 -87 15 -117.5t69 -43.5v-27h-344v27 q55 16 67.5 46t12.5 115v572q0 55 -20 79.5t-83 41.5zM59 1153q25 63 59.5 110t69.5 70.5t71 37.5t67.5 15.5t56 -0.5t39.5 -6l14 -4l234 -88q27 -11 70 -12t89.5 7.5t87.5 34.5t58 66l20 -10q-26 -64 -60.5 -111t-69 -70.5t-71 -37.5t-67.5 -15t-56 0.5t-39 5.5l-14 5 l-235 88q-28 10 -69.5 12t-87.5 -5t-87.5 -33t-60.5 -68z" />
<glyph unicode="&#xf2;" horiz-adv-x="1130" d="M82 473q0 -102 30.5 -190t88.5 -155.5t149.5 -106.5t204.5 -39q114 0 205 39t148.5 106.5t87.5 155.5t30 190q0 103 -30 191t-87.5 156t-148.5 106.5t-205 38.5q-91 0 -168 -25t-133 -70t-95 -107t-58 -135.5t-19 -154.5zM289 1389l166 51l362 -334h-47zM291 473 q0 136 18.5 229t55 143.5t82 71.5t108.5 21q62 0 107 -21t81 -71.5t54 -143.5t18 -229t-18 -229t-54 -143.5t-81 -71.5t-107 -21q-63 0 -108.5 21t-82 71.5t-55 143.5t-18.5 229z" />
<glyph unicode="&#xf3;" horiz-adv-x="1110" d="M82 473q0 81 19 154.5t58 135.5t95 107t133 70t168 25q114 0 205 -38.5t148.5 -106.5t87.5 -156t30 -191q0 -102 -30 -190t-87.5 -155.5t-148.5 -106.5t-205 -39q-113 0 -204.5 39t-149.5 106.5t-88.5 155.5t-30.5 190zM285 1106l362 334l166 -51l-481 -283h-47zM291 473 q0 -136 18.5 -229t55 -143.5t82 -71.5t108.5 -21q62 0 107 21t81 71.5t54 143.5t18 229t-18 229t-54 143.5t-81 71.5t-107 21q-63 0 -108.5 -21t-82 -71.5t-55 -143.5t-18.5 -229z" />
<glyph unicode="&#xf4;" horiz-adv-x="1110" d="M82 473q0 -102 30.5 -190t88.5 -155.5t149.5 -106.5t204.5 -39q114 0 205 39t148.5 106.5t87.5 155.5t30 190q0 103 -30 191t-87.5 156t-148.5 106.5t-205 38.5q-91 0 -168 -25t-133 -70t-95 -107t-58 -135.5t-19 -154.5zM264 1059l291 385l293 -385h-49l-244 209 l-244 -209h-47zM291 473q0 136 18.5 229t55 143.5t82 71.5t108.5 21q62 0 107 -21t81 -71.5t54 -143.5t18 -229t-18 -229t-54 -143.5t-81 -71.5t-107 -21q-63 0 -108.5 21t-82 71.5t-55 143.5t-18.5 229z" />
<glyph unicode="&#xf5;" horiz-adv-x="1110" d="M82 473q0 -102 30.5 -190t88.5 -155.5t149.5 -106.5t204.5 -39q114 0 205 39t148.5 106.5t87.5 155.5t30 190q0 103 -30 191t-87.5 156t-148.5 106.5t-205 38.5q-91 0 -168 -25t-133 -70t-95 -107t-58 -135.5t-19 -154.5zM98 1153q25 63 59.5 110t69.5 70.5t71 37.5 t67.5 15.5t56 -0.5t38.5 -6l15 -4l234 -88q27 -11 70 -12t89.5 7.5t87.5 34.5t58 66l20 -10q-26 -64 -60.5 -111t-69 -70.5t-71 -37.5t-67.5 -15t-56 0.5t-39 5.5l-14 5l-235 88q-28 10 -69.5 12t-87.5 -5t-87.5 -33t-60.5 -68zM291 473q0 136 18.5 229t55 143.5t82 71.5 t108.5 21q62 0 107 -21t81 -71.5t54 -143.5t18 -229t-18 -229t-54 -143.5t-81 -71.5t-107 -21q-63 0 -108.5 21t-82 71.5t-55 143.5t-18.5 229z" />
<glyph unicode="&#xf6;" horiz-adv-x="1110" d="M82 473q0 -102 30.5 -190t88.5 -155.5t149.5 -106.5t204.5 -39q114 0 205 39t148.5 106.5t87.5 155.5t30 190q0 103 -30 191t-87.5 156t-148.5 106.5t-205 38.5q-91 0 -168 -25t-133 -70t-95 -107t-58 -135.5t-19 -154.5zM291 473q0 136 18.5 229t55 143.5t82 71.5 t108.5 21q62 0 107 -21t81 -71.5t54 -143.5t18 -229t-18 -229t-54 -143.5t-81 -71.5t-107 -21q-63 0 -108.5 21t-82 71.5t-55 143.5t-18.5 229zM299 1262q0 40 27 68t67 28t68 -28t28 -68t-28 -68.5t-68 -28.5q-39 0 -66.5 28.5t-27.5 68.5zM627 1262q0 40 27 68t67 28 q38 0 66 -28t28 -68t-28 -68.5t-66 -28.5q-39 0 -66.5 28.5t-27.5 68.5z" />
<glyph unicode="&#xf7;" horiz-adv-x="1280" d="M92 500v135h1098v-135h-1098zM526 123q0 47 33.5 80t79.5 33q47 0 80 -33t33 -80q0 -46 -33 -79.5t-80 -33.5q-46 0 -79.5 33.5t-33.5 79.5zM526 1012q0 46 33.5 79t79.5 33q47 0 80 -33t33 -79t-33 -79.5t-80 -33.5q-46 0 -79.5 33.5t-33.5 79.5z" />
<glyph unicode="&#xf8;" horiz-adv-x="1112" d="M84 471q0 102 30.5 191t88.5 157t149.5 107t204.5 39q132 0 238 -56l98 166h33l-107 -180q103 -61 156 -173t53 -251q0 -102 -30 -190t-87.5 -155t-148.5 -105.5t-205 -38.5q-134 0 -240 53l-100 -172h-35l111 188q-102 62 -155.5 172.5t-53.5 247.5zM293 471 q0 -205 61 -317l387 667q-30 63 -74.5 90t-109.5 27q-50 0 -88.5 -13t-72.5 -45t-56 -84t-34.5 -134t-12.5 -191zM369 121q31 -62 76.5 -87.5t111.5 -25.5q49 0 87 12.5t71.5 44t55 83t34 133t12.5 190.5q0 208 -61 317z" />
<glyph unicode="&#xf9;" horiz-adv-x="1069" d="M35 901q19 -1 31.5 -2t25 -4.5t20 -4t14.5 -8t10.5 -9.5t6.5 -15t4 -17.5t2 -24t1 -28v-36.5v-461q0 -74 16.5 -130t43.5 -89.5t66 -54t78.5 -28t87.5 -7.5q101 0 190.5 61.5t117.5 144.5v-174q0 -2 0.5 -4.5t2.5 -9t7.5 -10t14.5 -7t24 0.5l233 39v26q-66 8 -85 28.5 t-19 92.5v795l-275 -39v-25q26 -2 41 -3.5t27 -9t17 -13t8.5 -25t3.5 -34v-49.5v-11v-516q-30 -69 -85 -113.5t-128 -44.5q-96 0 -153.5 52t-57.5 163v668l-291 -39v-25zM252 1389l166 51l362 -334h-47z" />
<glyph unicode="&#xfa;" horiz-adv-x="1069" d="M35 901v25l291 39v-668q0 -111 57.5 -163t153.5 -52q73 0 128 44.5t85 113.5v516q0 92 -8 111q-11 26 -57 31q-12 2 -32 3v25l275 39v-795q0 -72 19 -92.5t85 -28.5v-26l-233 -39q-22 -4 -34 3.5t-13 16.5l-2 10v174q-28 -83 -117.5 -144.5t-190.5 -61.5q-48 0 -87.5 7.5 t-78.5 28t-66 54t-43.5 89.5t-16.5 130v461v36.5t-1 28t-2 24t-4 17.5t-6.5 15t-10.5 9.5t-14.5 8t-20 4t-25 4.5t-31.5 2zM268 1106l363 334l166 -52l-482 -282h-47z" />
<glyph unicode="&#xfb;" horiz-adv-x="1069" d="M35 901q19 -1 31.5 -2t25 -4.5t20 -4t14.5 -8t10.5 -9.5t6.5 -15t4 -17.5t2 -24t1 -28v-36.5v-461q0 -74 16.5 -130t43.5 -89.5t66 -54t78.5 -28t87.5 -7.5q101 0 190.5 61.5t117.5 144.5v-174q0 -2 0.5 -4.5t2.5 -9t7.5 -10t14.5 -7t24 0.5l233 39v26q-66 8 -85 28.5 t-19 92.5v795l-275 -39v-25q26 -2 41 -3.5t27 -9t17 -13t8.5 -25t3.5 -34v-49.5v-11v-516q-30 -69 -85 -113.5t-128 -44.5q-96 0 -153.5 52t-57.5 163v668l-291 -39v-25zM223 1059l291 385l293 -385h-49l-244 209l-244 -209h-47z" />
<glyph unicode="&#xfc;" horiz-adv-x="1069" d="M35 901v25l291 39v-668q0 -111 57.5 -163t153.5 -52q73 0 128 44.5t85 113.5v516q0 92 -8 111q-11 26 -57 31q-12 2 -32 3v25l275 39v-795q0 -72 19 -92.5t85 -28.5v-26l-233 -39q-22 -4 -34 3.5t-13 16.5l-2 10v174q-28 -83 -117.5 -144.5t-190.5 -61.5q-48 0 -87.5 7.5 t-78.5 28t-66 54t-43.5 89.5t-16.5 130v461v36.5t-1 28t-2 24t-4 17.5t-6.5 15t-10.5 9.5t-14.5 8t-20 4t-25 4.5t-31.5 2zM268 1262q0 40 27 68t67 28q38 0 66.5 -28t28.5 -68t-28.5 -68.5t-66.5 -28.5q-39 0 -66.5 28.5t-27.5 68.5zM594 1262q0 40 27 68t67 28t68 -28 t28 -68t-28 -68.5t-68 -28.5q-39 0 -66.5 28.5t-27.5 68.5z" />
<glyph unicode="&#xfd;" horiz-adv-x="1089" d="M12 920v26h424v-26q-37 0 -56.5 -15t-21.5 -37t1 -44t9 -37l7 -15l252 -543l139 371q3 7 7 18.5t12.5 45t12 64t0.5 67.5t-16.5 63.5t-45.5 44.5t-81 17v26h398v-26q-26 0 -43.5 -4t-44 -22t-50.5 -52t-55.5 -97t-66.5 -153l-320 -866q-48 -130 -127 -189 q-22 -19 -57.5 -23.5t-63.5 7.5q-41 20 -57.5 61.5t2.5 81.5q19 42 60.5 58t82.5 -3q43 -18 54 -63q7 -23 31 1q24 23 44 77l95 256q-108 240 -203 447t-136 293l-40 87q-43 97 -146 103zM248 1106l362 334l166 -51l-481 -283h-47z" />
<glyph unicode="&#xfe;" horiz-adv-x="1130" d="M31 1413v25l280 59v-692q44 77 131.5 118.5t173.5 41.5q199 0 315 -141t116 -359q0 -231 -134 -357t-346 -126q-152 0 -256 77v-419q0 -86 15 -114.5t69 -41.5v-27h-344v27q56 16 69 44.5t13 111.5v1665q0 53 -20 74.5t-82 33.5zM311 279q9 -131 78.5 -201t171.5 -70 q43 0 80.5 12.5t73 43.5t60.5 78.5t40.5 122.5t15.5 171q0 237 -74 352t-210 115q-101 0 -164 -65.5t-72 -173.5v-385z" />
<glyph unicode="&#xff;" horiz-adv-x="1089" d="M12 920v26h424v-26q-37 0 -56.5 -15t-21.5 -37t1 -44t9 -37l7 -15l252 -543l139 371q3 7 7 18.5t12.5 45t12 64t0.5 67.5t-16.5 63.5t-45.5 44.5t-81 17v26h398v-26q-26 0 -43.5 -4t-44 -22t-50.5 -52t-55.5 -97t-66.5 -153l-320 -866q-48 -130 -127 -189 q-22 -19 -57.5 -23.5t-63.5 7.5q-41 20 -57.5 61.5t2.5 81.5q19 42 60.5 58t82.5 -3q43 -18 54 -63q7 -23 31 1q24 23 44 77l95 256q-108 240 -203 447t-136 293l-40 87q-43 97 -146 103zM283 1262q0 40 27 68t67 28q38 0 66 -28t28 -68t-28 -68.5t-66 -28.5 q-39 0 -66.5 28.5t-27.5 68.5zM608 1262q0 40 27 68t67 28t68.5 -28t28.5 -68t-28.5 -68.5t-68.5 -28.5q-39 0 -66.5 28.5t-27.5 68.5z" />
<glyph unicode="&#x152;" horiz-adv-x="1910" d="M88 709q0 158 35 289.5t107.5 237t195.5 165t287 59.5q42 0 137 -18h893v-369h-27q-6 56 -21.5 102.5t-35.5 79.5t-51.5 59.5t-58 43t-67.5 28t-67.5 17t-70.5 8.5t-64.5 3.5t-60.5 0.5h-93v-674h93h4q20 0 32.5 0.5t39 4.5t45 11t42.5 22.5t39.5 36.5t27 55t13.5 77h27 v-440h-27q-2 42 -13.5 76t-27 55t-39 36t-42 22.5t-45 11t-39 4t-31.5 0.5h-6h-93v-686h74h16q55 0 86.5 1t91 8.5t97 21.5t86 43t79 70.5t55 106.5t32.5 148h26v-426h-915q-80 -18 -141 -18q-132 0 -237.5 36.5t-177.5 101.5t-119.5 157t-69 199.5t-21.5 232.5zM324 709 q0 -166 17.5 -289t49 -202t81 -126.5t107 -66.5t134.5 -19q33 0 59.5 4t54.5 16.5t46 34t30 58t12 86.5v1018q0 54 -12 93t-30 61t-46 35t-54 16.5t-60 3.5q-76 0 -134.5 -21t-107.5 -72t-80.5 -133t-49 -206.5t-17.5 -290.5z" />
<glyph unicode="&#x153;" horiz-adv-x="1613" d="M84 469q0 105 24.5 192t74.5 156.5t135 108.5t198 39q119 0 199 -49.5t135 -139.5q132 189 309 189q179 0 275 -120t96 -366h-590q3 -191 66.5 -283.5t189.5 -103.5q89 -8 169 45t108 119l24 -12q-8 -33 -20.5 -63t-39 -68t-61 -65.5t-91 -46.5t-124.5 -19 q-103 0 -178 45t-135 131q-60 -88 -136.5 -132t-195.5 -44q-113 0 -198 38t-135 105.5t-74.5 153.5t-24.5 190zM293 469q0 -182 25.5 -284.5t72 -139.5t125.5 -37q58 0 96.5 20t67.5 71t42 141.5t13 228.5q0 182 -26 286.5t-72 143.5t-121 39q-79 0 -125.5 -39t-72 -143 t-25.5 -287zM940 506h422q0 216 -60.5 324t-142.5 108q-95 0 -157 -117t-62 -315z" />
<glyph unicode="&#x178;" horiz-adv-x="1417" d="M18 1419v23h527v-23q-19 0 -28.5 -0.5t-29.5 -4.5t-29 -12t-17.5 -25t-4.5 -41.5t18.5 -62.5t43.5 -87l299 -506l153 317q18 39 31.5 69t29 76t21 81t2 73.5t-21 63t-55.5 41t-95 16.5v25h527v-25q-25 0 -39.5 -1.5t-42 -10t-49 -25t-55 -49.5t-66.5 -80.5t-76.5 -120.5 t-91.5 -167l-158 -320v-414q0 -115 40.5 -158.5t113.5 -43.5v-27h-500v27q73 0 113 43.5t40 158.5v361q-134 236 -230 403t-126 215l-29 49q-27 45 -52 76t-43 47t-42 25t-37.5 10.5t-40.5 3.5zM457 1696q0 40 28 68t66 28q40 0 68 -28t28 -68t-28 -68.5t-68 -28.5 q-38 0 -66 28.5t-28 68.5zM784 1696q0 40 27.5 68t67.5 28q39 0 67.5 -28.5t28.5 -67.5q0 -40 -28.5 -68.5t-67.5 -28.5q-40 0 -67.5 28.5t-27.5 68.5z" />
<glyph unicode="&#x2c6;" horiz-adv-x="583" d="M0 1087l291 386l293 -386h-49l-244 209l-244 -209h-47z" />
<glyph unicode="&#x2dc;" horiz-adv-x="860" d="M-41 1161q25 63 59.5 110t69.5 70.5t71 37.5t67.5 15.5t56 -0.5t39.5 -6l14 -4l233 -88q27 -11 70 -12t89.5 7.5t87.5 35t58 66.5l21 -11q-26 -64 -60.5 -111t-69 -70.5t-71 -37.5t-67.5 -15t-56 0.5t-39 5.5l-14 5l-235 88q-28 10 -69.5 12t-88 -5t-88 -33t-60.5 -68z " />
<glyph unicode="&#x2000;" horiz-adv-x="1002" />
<glyph unicode="&#x2001;" horiz-adv-x="2005" />
<glyph unicode="&#x2002;" horiz-adv-x="1002" />
<glyph unicode="&#x2003;" horiz-adv-x="2005" />
<glyph unicode="&#x2004;" horiz-adv-x="668" />
<glyph unicode="&#x2005;" horiz-adv-x="501" />
<glyph unicode="&#x2006;" horiz-adv-x="334" />
<glyph unicode="&#x2007;" horiz-adv-x="334" />
<glyph unicode="&#x2008;" horiz-adv-x="250" />
<glyph unicode="&#x2009;" horiz-adv-x="401" />
<glyph unicode="&#x200a;" horiz-adv-x="111" />
<glyph unicode="&#x2010;" horiz-adv-x="909" d="M131 451v139h645v-139h-645z" />
<glyph unicode="&#x2011;" horiz-adv-x="909" d="M131 451v139h645v-139h-645z" />
<glyph unicode="&#x2012;" horiz-adv-x="909" d="M131 451v139h645v-139h-645z" />
<glyph unicode="&#x2013;" horiz-adv-x="1148" d="M0 463v106h1149v-106h-1149z" />
<glyph unicode="&#x2014;" horiz-adv-x="2160" d="M0 463v104h2161v-104h-2161z" />
<glyph unicode="&#x2018;" horiz-adv-x="464" d="M125 1078q-5 57 11.5 112.5t45.5 103.5q16 24 23.5 34.5t26.5 32.5t43.5 40t56.5 35l12 -17q-39 -28 -65 -60.5t-36 -60.5t-12 -52t4.5 -38.5t16.5 -15.5q49 -7 80 -35q35 -35 36 -85t-34 -85t-85 -35t-85 35q-34 34 -39 91z" />
<glyph unicode="&#x2019;" horiz-adv-x="464" d="M118 1316q-1 50 34 85t85 35t85 -35q34 -34 39 -91.5t-12 -112.5t-46 -103q-41 -62 -74 -91q-32 -28 -75 -51l-13 17q39 28 65 60.5t36 60.5t12 52t-4.5 38.5t-16.5 15.5q-48 7 -79 35q-35 35 -36 85z" />
<glyph unicode="&#x201a;" horiz-adv-x="483" d="M116 105q-1 50 34 85t84.5 35t84.5 -35q34 -34 39 -91t-11.5 -112.5t-45.5 -103.5q-16 -24 -23.5 -34t-26.5 -32.5t-43 -40t-56 -34.5l-13 16q39 28 65 61t36 61t12 52t-4.5 38.5t-16.5 15.5q-49 7 -79 34q-35 35 -36 85z" />
<glyph unicode="&#x201c;" horiz-adv-x="894" d="M108 1093.5q-5 57.5 12 112.5t46 103q17 27 30.5 45.5t44.5 46t72 49.5l15 -16q-39 -28 -65.5 -60.5t-37 -60.5t-12.5 -52t4 -38.5t16 -16.5q52 -7 82 -35q35 -35 36 -85t-34 -85t-85 -35t-85 35q-34 35 -39 92.5zM516 1093.5q-5 57.5 11.5 112.5t45.5 103q16 27 30 45.5 t46 46t74 49.5l12 -16q-39 -28 -65.5 -60.5t-36.5 -60.5t-12 -52t4.5 -38.5t17.5 -16.5q50 -7 80 -35q35 -35 36 -85t-34 -85t-85 -35t-85 35q-34 35 -39 92.5z" />
<glyph unicode="&#x201d;" horiz-adv-x="876" d="M116 1312q-1 50 34 85t84.5 35t84.5 -35q34 -35 39 -92t-11.5 -112t-45.5 -103q-17 -28 -30 -46t-45 -46t-74 -50l-13 17q39 28 65.5 60.5t36.5 60.5t12 51.5t-4.5 38t-17.5 16.5q-49 7 -79 35q-35 35 -36 85zM523 1312q-1 50 34 85t85 35t85 -35q34 -35 39 -92 t-11.5 -112t-45.5 -103q-17 -27 -30.5 -45.5t-45 -46.5t-72.5 -50l-14 17q39 28 65.5 60.5t36.5 60.5t12 51.5t-4 38t-16 16.5q-52 7 -82 35q-35 35 -36 85z" />
<glyph unicode="&#x201e;" horiz-adv-x="876" d="M113 108q-1 49 34 85q35 35 85 35t85 -35q34 -35 39 -92.5t-11.5 -112.5t-45.5 -103q-17 -28 -30.5 -46t-45 -45.5t-73.5 -49.5l-13 16q39 28 65.5 60.5t36.5 60.5t12 52t-4.5 38.5t-17.5 16.5q-49 7 -79 35q-36 36 -37 85zM521 108q-1 50 34 85t85 35t85 -35 q34 -35 39 -92.5t-11.5 -112.5t-45.5 -103q-16 -27 -30 -45.5t-45.5 -46t-72.5 -49.5l-14 16q39 28 65.5 60.5t36.5 60.5t12 52t-4 38.5t-16 16.5q-52 7 -82 35q-35 35 -36 85z" />
<glyph unicode="&#x2022;" horiz-adv-x="866" d="M236 698q0 86 59 144.5t143 58.5q85 0 144 -58.5t59 -144.5q0 -83 -59 -141.5t-144 -58.5q-83 0 -142.5 58.5t-59.5 141.5z" />
<glyph unicode="&#x2026;" horiz-adv-x="1452" d="M176 102q0 52 35 87.5t86 35.5q50 0 85.5 -35.5t35.5 -87.5q0 -49 -35.5 -83.5t-85.5 -34.5q-51 0 -86 34t-35 84zM596 102q0 52 35 87.5t86 35.5q50 0 85.5 -35.5t35.5 -87.5q0 -49 -35.5 -83.5t-85.5 -34.5q-51 0 -86 34t-35 84zM1018 102q0 52 35 87.5t86 35.5 t87 -35.5t36 -87.5q0 -49 -36 -83.5t-87 -34.5t-86 34t-35 84z" />
<glyph unicode="&#x202f;" horiz-adv-x="401" />
<glyph unicode="&#x2039;" horiz-adv-x="694" d="M102 545l473 489v-53l-305 -436l305 -424v-53z" />
<glyph unicode="&#x203a;" horiz-adv-x="694" d="M98 68v53l305 424l-305 436v53l473 -489z" />
<glyph unicode="&#x205f;" horiz-adv-x="501" />
<glyph unicode="&#x20ac;" horiz-adv-x="1220" d="M33 596l20 31h193q-2 31 -2 94t2 98h-213l20 31h197q26 294 153 452t365 158q122 0 188 -20.5t144 -83.5v-271h-27q0 82 -21 146t-53 101t-74.5 61t-80.5 32.5t-76 8.5q-47 0 -85.5 -12.5t-79.5 -50.5t-70.5 -100.5t-50.5 -170t-27 -250.5h448l-20 -31h-428 q0 -7 -1 -48.5t-1 -49.5q0 -7 1 -47.5t1 -46.5h415l-20 -31h-395q6 -147 27.5 -256t51 -171t70.5 -99.5t79 -49.5t85 -12q35 0 72 8t80 31.5t76 60.5t55 101.5t22 146.5h27v-270q-90 -63 -153.5 -83.5t-178.5 -20.5q-239 0 -366.5 160t-151.5 454h-217z" />
<glyph unicode="&#x2122;" horiz-adv-x="1372" d="M27 1274v168h510v-168h-27q0 40 -14 68.5t-31 42t-40.5 21t-34 8.5t-19.5 1h-47v-465q0 -39 15 -54t44 -15v-27h-203v27q29 0 44.5 15t15.5 54v465h-50q-13 0 -24.5 -1t-34 -8.5t-38 -21t-28 -42t-12.5 -68.5h-26zM600 854v27q36 0 60 16t34 47t13.5 60t3.5 71v301 q-25 39 -88 39v27h165l211 -463l172 463h148v-27q-64 0 -64 -74v-374q0 -86 70 -86v-27h-215v27q61 0 61 86v393l-192 -514h-21l-219 491v-262q0 -36 1 -58t6 -51t14.5 -45t28 -28t45.5 -12v-27h-234z" />
<glyph unicode="&#x25fc;" horiz-adv-x="942" d="M0 0v942h942v-942h-942z" />
<glyph unicode="&#xfb01;" horiz-adv-x="1073" d="M35 946h135v23q0 159 30 268t91 172t142.5 90t195.5 27q99 0 173 -44t91 -124q16 -81 -16 -123q-28 -35 -73 -41t-79 20q-37 29 -42 73t24 81q33 42 69 39q21 -1 16 18q-9 28 -54 51q-47 23 -109 23q-18 0 -32.5 -1t-37.5 -6.5t-41.5 -15t-41 -28t-40 -43.5t-34.5 -64 t-28.5 -87t-18.5 -114.5t-7 -144.5v-49h283h280v-766q0 -88 15 -119.5t69 -44.5v-16h-344v16q55 16 67.5 47t12.5 117v606q0 134 -102 134h-281v-746q0 -83 21.5 -116t76.5 -42v-16h-358v16q55 11 68.5 42t13.5 116v746h-131z" />
<glyph unicode="&#xfb02;" horiz-adv-x="1062" d="M16 946h136v82q0 254 91.5 376t254.5 122q122 0 204 -51l230 53v-1348q0 -86 14.5 -113t69.5 -40v-27h-344v27q56 16 68 43t12 110v1143q0 121 -142 143q-25 4 -46 4.5t-51 -7t-54 -25t-49 -53t-41.5 -86.5t-27.5 -131t-11 -181v-41h219l-4 -26h-215v-746 q0 -81 21 -109.5t79 -39.5v-25h-360v25q56 13 69 39.5t13 109.5v746h-134z" />
</font>
</defs>
</svg>
