<?xml version="1.0" standalone="no"?>
<!DOCTYPE svg PUBLIC "-//W3C//DTD SVG 1.1//EN" "http://www.w3.org/Graphics/SVG/1.1/DTD/svg11.dtd" >
<svg xmlns="http://www.w3.org/2000/svg" xmlns:xlink="http://www.w3.org/1999/xlink" version="1.1">
<metadata></metadata>
<defs>
<font id="hans_kendrick_3regular" horiz-adv-x="1167" >
<font-face units-per-em="2048" ascent="1638" descent="-410" />
<missing-glyph horiz-adv-x="573" />
<glyph horiz-adv-x="0" />
<glyph horiz-adv-x="682" />
<glyph unicode=" "  horiz-adv-x="573" />
<glyph unicode="&#x09;" horiz-adv-x="573" />
<glyph unicode="&#xa0;" horiz-adv-x="573" />
<glyph unicode="!" horiz-adv-x="602" d="M205 76q0 40 28 68t68 28t68 -28t28 -68t-28 -68t-68 -28t-68 28t-28 68zM229 352v1184h144v-1184h-144z" />
<glyph unicode="&#x22;" horiz-adv-x="751" d="M123 946v590h158v-590h-158zM471 946v590h158v-590h-158z" />
<glyph unicode="#" horiz-adv-x="1443" d="M123 336l18 129h221l68 475h-221l18 129h219l48 336h153l-47 -336h346l47 336h154l-47 -336h221l-18 -129h-222l-65 -475h219l-16 -129h-222l-47 -336h-153l47 336h-346l-47 -336h-154l47 336h-221zM516 465h346l66 475h-346z" />
<glyph unicode="$" horiz-adv-x="1132" d="M82 262l133 57q34 -83 118 -135.5t179 -58.5v596q-67 28 -108.5 48.5t-96 57t-85.5 75t-53 96.5t-22 128q0 158 105 278.5t260 145.5v170h123v-168q97 -12 181.5 -67.5t133.5 -141.5l-135 -59q-31 47 -78 79t-102 42v-580q48 -20 79.5 -34t74.5 -37.5t71.5 -45 t59.5 -53.5t48.5 -66.5t29.5 -80.5t12 -98q0 -157 -108.5 -271.5t-266.5 -148.5v-174h-123v164q-137 5 -258 81.5t-172 200.5zM293 1126q0 -46 16 -84t48 -67.5t68 -51.5t87 -46v526q-95 -24 -157 -101t-62 -176zM635 141q98 28 163.5 100t65.5 169q0 93 -59 151.5 t-170 108.5v-529z" />
<glyph unicode="%" horiz-adv-x="1390" d="M123 0h170l973 1536h-170zM123 1255q0 125 88.5 213t212.5 88t212.5 -88t88.5 -213t-88.5 -213t-212.5 -88t-212.5 88t-88.5 213zM250 1255q0 -72 51 -123t123 -51t123 51t51 123t-51 123.5t-123 51.5t-123 -51.5t-51 -123.5zM664 281q0 124 89 212.5t214 88.5 q123 0 212 -88.5t89 -212.5t-89 -212.5t-212 -88.5q-125 0 -214 88.5t-89 212.5zM791 281q0 -72 52 -123.5t124 -51.5q71 0 122.5 51.5t51.5 123.5t-51.5 123t-122.5 51q-72 0 -124 -51t-52 -123z" />
<glyph unicode="&#x26;" horiz-adv-x="1396" d="M123 358q0 78 22 142t67 115.5t99.5 91t132.5 81.5q-57 61 -90 104.5t-58.5 104t-25.5 121.5q0 97 49.5 167.5t129 104t178.5 33.5q66 0 128.5 -18t114 -52t82.5 -88.5t31 -121.5q0 -55 -20.5 -105t-50.5 -87t-79 -74.5t-91 -62.5t-101 -56l365 -398q24 41 48.5 91.5 t39 85.5t39 94.5t34.5 83.5h148q-84 -202 -94 -223q-61 -136 -121 -234l235 -258h-170l-147 160q-168 -180 -397 -180h-62q-118 0 -215.5 42.5t-159 130t-61.5 205.5zM279 367q0 -123 88 -192t213 -69q115 0 194.5 31.5t155.5 116.5l-404 442q-62 -35 -100.5 -62t-75.5 -66 t-54 -88.5t-17 -112.5zM420 1118q0 -75 35.5 -135.5t103.5 -134.5q29 14 40.5 20t40 21.5t43 24.5t39 26.5t37.5 31t30 33.5t25.5 38.5t15 42t6.5 47.5q0 81 -62 130.5t-145 49.5q-89 0 -149 -52.5t-60 -142.5z" />
<glyph unicode="'" horiz-adv-x="380" d="M102 1153l127 410l152 -52l-178 -397z" />
<glyph unicode="(" horiz-adv-x="890" d="M184 532q0 72 5.5 152t20.5 183t39 197t65 187t94 160.5t130 109.5t169 42v-144q-77 0 -140 -51t-102.5 -135.5t-68 -181t-42.5 -202t-20 -182t-6 -135.5q0 -49 4 -112t15 -150t28 -170t47 -166.5t68 -145.5t94 -101t123 -39v-144q-92 0 -169 42t-130 109t-94 159.5 t-65 186.5t-39 197t-20.5 182.5t-5.5 151.5z" />
<glyph unicode=")" horiz-adv-x="890" d="M184 -352q67 0 123 39t94 101t68 145.5t47 166.5t28 170t15 150t4 112q0 59 -6 135.5t-20 182t-42.5 202t-68 181t-102.5 135.5t-140 51v144q92 0 169 -42t130 -109.5t94 -160.5t65 -187t39 -197t20.5 -183t5.5 -152t-5.5 -151.5t-20.5 -182.5t-39 -197t-65 -186.5 t-94 -159.5t-130 -109t-169 -42v144z" />
<glyph unicode="*" horiz-adv-x="655" d="M102 1292v92h146l-74 125l82 47l72 -124l71 124l82 -47l-73 -125h145v-92h-145l73 -125l-82 -47l-71 125l-72 -125l-82 47l74 125h-146z" />
<glyph unicode="+" horiz-adv-x="1347" d="M102 426v123h510v510h123v-510h510v-123h-510v-510h-123v510h-510z" />
<glyph unicode="," horiz-adv-x="626" d="M143 -170l127 410l152 -52l-178 -397z" />
<glyph unicode="-" horiz-adv-x="1347" d="M102 426v123h1143v-123h-1143z" />
<glyph unicode="." horiz-adv-x="315" d="M61 76q0 40 28.5 68t68.5 28t68 -28t28 -68t-28 -68t-68 -28t-68.5 28t-28.5 68z" />
<glyph unicode="/" horiz-adv-x="1251" d="M20 -502l1047 2058h143l-1046 -2058h-144z" />
<glyph unicode="0" horiz-adv-x="1335" d="M123 772q0 100 19 205.5t61.5 212.5t104 190.5t155 136t205.5 52.5t205.5 -52.5t154.5 -136t104 -190.5t61.5 -212.5t18.5 -205.5q0 -111 -21 -222t-66 -215t-107.5 -184t-153 -128t-196.5 -48t-196.5 48t-153.5 128t-108 184t-66 215t-21 222zM272 774q0 -87 12 -174 t41.5 -176t73.5 -156.5t113.5 -110t155.5 -42.5q85 0 154.5 43.5t113 111.5t73.5 156.5t42 173.5t12 168t-11.5 168t-40.5 175.5t-72 160t-113.5 114t-157.5 44.5q-86 0 -156 -44.5t-113.5 -114t-73 -159t-41.5 -174t-12 -164.5z" />
<glyph unicode="1" horiz-adv-x="755" d="M256 1397v139h254v-1536h-152v1397h-102z" />
<glyph unicode="2" horiz-adv-x="1212" d="M123 0l596 700q104 121 139 173q82 124 82 239q0 136 -90.5 227t-224.5 91q-141 0 -225.5 -94t-90.5 -238h-151q8 204 136.5 337.5t326.5 133.5q196 0 332.5 -130t136.5 -327q0 -42 -8 -84t-20 -77t-34 -74.5t-40.5 -68.5t-48.5 -68t-50.5 -62.5t-54.5 -63.5t-52 -61 l-350 -414h655v-139h-964z" />
<glyph unicode="3" horiz-adv-x="1282" d="M164 395h143q22 -124 115 -202t217 -78q137 0 236.5 96.5t99.5 237.5q0 143 -99.5 235t-236.5 92h-41v139h41q120 0 190 77t70 179q0 105 -74 182t-186 77q-104 0 -181 -75t-89 -184h-146q7 110 66.5 202t152.5 144t197 52q165 0 285 -118t120 -280q0 -101 -47.5 -184 t-119.5 -135q114 -65 177.5 -173t63.5 -230q0 -125 -64.5 -234.5t-175.5 -174.5t-239 -65q-182 0 -319 123.5t-156 296.5z" />
<glyph unicode="4" horiz-adv-x="1296" d="M20 303l912 1233h43v-1094h199v-139h-199v-303h-150v303h-805zM297 442h528v711h-8l-520 -707v-4z" />
<glyph unicode="5" horiz-adv-x="1214" d="M123 227l117 84q50 -88 141 -142t194 -54q147 0 257 103t110 263q0 156 -108.5 261.5t-258.5 105.5q-76 0 -174 -31l-88 72l160 647h586v-139h-469l-105 -420l2 -4q50 10 115 10q208 0 349 -148.5t141 -357.5q0 -220 -149.5 -361t-373.5 -141q-137 0 -256.5 67 t-189.5 185z" />
<glyph unicode="6" horiz-adv-x="1351" d="M164 479q0 163 129 348l489 709h168l-399 -571l4 -4q65 22 145 22q134 0 247 -69t177 -185t64 -250q0 -139 -69 -255t-186.5 -182.5t-256.5 -66.5q-140 0 -257.5 66t-186 182t-68.5 256zM313 479q0 -151 106 -257.5t257 -106.5t256.5 106.5t105.5 257.5t-106 258 t-256 107q-151 0 -257 -107t-106 -258z" />
<glyph unicode="7" horiz-adv-x="1275" d="M113 0l856 1397h-826v139h1071l-940 -1536h-161z" />
<glyph unicode="8" horiz-adv-x="1286" d="M164 449q0 126 65.5 233t173.5 170q-76 55 -120.5 138.5t-44.5 180.5q0 162 120 280t285 118t285.5 -118t120.5 -280q0 -96 -45.5 -180t-122.5 -139q110 -63 175.5 -170t65.5 -233q0 -127 -65.5 -236.5t-176 -173.5t-237.5 -64t-237.5 64t-176 173.5t-65.5 236.5z M307 449q0 -139 98 -236.5t238 -97.5t238 97.5t98 236.5t-98 233t-238 94t-238 -94t-98 -233zM383 1171q0 -107 76 -181.5t184 -74.5t184 74.5t76 181.5t-76.5 183t-183.5 76t-183.5 -76t-76.5 -183z" />
<glyph unicode="9" horiz-adv-x="1351" d="M164 1065q0 139 69 255t186.5 182.5t256.5 66.5q140 0 257.5 -66t186 -182t68.5 -256q0 -158 -129 -348l-486 -717h-167l395 580l-4 4q-68 -23 -146 -23q-134 0 -246.5 69t-176.5 184.5t-64 250.5zM313 1065q0 -151 106 -258t257 -107q150 0 256 107t106 258t-106 258 t-256 107q-151 0 -257 -107t-106 -258z" />
<glyph unicode=":" horiz-adv-x="602" d="M205 182q0 40 28 68.5t68 28.5t68 -28.5t28 -68.5t-28 -68t-68 -28t-68 28t-28 68zM205 887q0 40 28 68t68 28t68 -28t28 -68t-28 -68t-68 -28t-68 28t-28 68z" />
<glyph unicode=";" horiz-adv-x="626" d="M143 -170l127 410l152 -52l-178 -397zM205 887q0 40 28 68t68 28t68 -28t28 -68t-28 -68t-68 -28t-68 28t-28 68z" />
<glyph unicode="&#x3c;" horiz-adv-x="1095" d="M102 434v129l826 402l63 -127l-698 -342l700 -371l-67 -127z" />
<glyph unicode="=" horiz-adv-x="1095" d="M102 244v123h891v-123h-891zM102 594v123h891v-123h-891z" />
<glyph unicode="&#x3e;" horiz-adv-x="1095" d="M102 125l699 371l-697 342l64 127l823 -402v-129l-821 -436z" />
<glyph unicode="?" horiz-adv-x="944" d="M61 1145q0 170 121 290.5t291 120.5q169 0 289.5 -120.5t120.5 -290.5q0 -81 -35 -152.5t-84.5 -123t-99 -98t-84.5 -97.5t-35 -101v-219h-144v221q0 67 35 128t84.5 109l99 96t84.5 109t35 128q0 110 -78.5 189t-187.5 79t-188.5 -79t-79.5 -189h-144zM377 76 q0 40 28 68t68 28t68 -28t28 -68t-28 -68t-68 -28t-68 28t-28 68z" />
<glyph unicode="@" horiz-adv-x="1026" d="M123 492q0 202 144.5 346.5t346.5 144.5q53 0 103 -13.5t92.5 -39.5t68 -70.5t25.5 -101.5v-506h-100v35q-69 -54 -158 -54q-107 0 -183.5 76t-76.5 183t76.5 182.5t183.5 75.5q84 0 158 -54v62q0 45 -33 74t-72.5 39t-83.5 10q-161 0 -276 -114t-115 -275t115 -276.5 t276 -115.5h279v-100h-279q-134 0 -247 66t-178.5 179t-65.5 247zM487 492q0 -66 46 -112t112 -46q65 0 111.5 47t46.5 111t-46.5 110.5t-111.5 46.5t-111.5 -46.5t-46.5 -110.5z" />
<glyph unicode="A" horiz-adv-x="1554" d="M20 0l738 1536h41l735 -1536h-158l-231 481h-735l-230 -481h-160zM479 625h596l-297 622z" />
<glyph unicode="B" horiz-adv-x="1146" d="M164 0v1536h475q175 0 300.5 -125.5t125.5 -300.5q0 -100 -44.5 -194t-125.5 -134q93 -40 152 -145t59 -211q0 -175 -125.5 -300.5t-300.5 -125.5h-516zM307 143h373q117 0 200 83t83 200q0 115 -82 200t-197 85h-377v-568zM307 854h377q111 0 174.5 72t63.5 184 q0 117 -83 200t-200 83h-332v-539z" />
<glyph unicode="C" horiz-adv-x="1538" d="M102 768q0 128 40 248t113 217t170 170t217.5 113t248.5 40q158 0 307.5 -61.5t255.5 -173.5l-102 -96q-199 188 -461 188q-174 0 -322.5 -86.5t-235.5 -235t-87 -323.5q0 -174 87 -322.5t235.5 -235.5t322.5 -87q255 0 461 188l104 -94q-107 -114 -256.5 -175.5 t-308.5 -61.5q-128 0 -248.5 40t-217.5 113t-170 170t-113 217t-40 248z" />
<glyph unicode="D" horiz-adv-x="1402" d="M164 0v1536h344q237 0 415.5 -90t277.5 -263.5t99 -410.5t-99 -412.5t-277.5 -267.5t-415.5 -92h-344zM307 143h201q300 0 474.5 165t174.5 464q0 298 -174 459.5t-475 161.5h-201v-1250z" />
<glyph unicode="E" horiz-adv-x="1048" d="M164 0v1536h782v-143h-633v-430h553v-144h-553v-676h633v-143h-782z" />
<glyph unicode="F" horiz-adv-x="1048" d="M164 0v1536h782v-143h-633v-430h574v-144h-574v-819h-149z" />
<glyph unicode="G" horiz-adv-x="1638" d="M123 768q0 160 62.5 306t168 251.5t251.5 168t306 62.5q142 0 278.5 -50t240.5 -144l-97 -105q-88 75 -197.5 115.5t-224.5 40.5q-174 0 -322.5 -87t-235.5 -235.5t-87 -322.5t87 -322.5t235.5 -235.5t322.5 -87q115 0 224.5 40.5t197.5 115.5v417h-440v144h582v-840 h-142v102q-194 -122 -422 -122q-160 0 -306 62.5t-251.5 168t-168 251.5t-62.5 306z" />
<glyph unicode="H" horiz-adv-x="1419" d="M164 0v1536h143v-696h805v696h143v-1536h-143v696h-805v-696h-143z" />
<glyph unicode="I" horiz-adv-x="430" d="M143 0v1536h144v-1536h-144z" />
<glyph unicode="J" horiz-adv-x="700" d="M82 0v158q51 -35 168 -35q58 0 100.5 42.5t42.5 100.5v1270h144v-1270q0 -118 -84 -202t-203 -84q-109 0 -168 20z" />
<glyph unicode="K" horiz-adv-x="1218" d="M164 0v1536h143v-692l688 692h203l-768 -768l768 -768h-203l-688 692v-692h-143z" />
<glyph unicode="L" horiz-adv-x="851" d="M164 0v1536h151v-1393h496v-143h-647z" />
<glyph unicode="M" horiz-adv-x="1742" d="M164 0v1536h33l673 -936l676 936h33v-1536h-143v1139l-566 -785l-563 785v-1139h-143z" />
<glyph unicode="N" horiz-adv-x="1474" d="M164 0v1536h33l970 -1182v1182h144v-1536h-37l-967 1176v-1176h-143z" />
<glyph unicode="O" horiz-adv-x="1789" d="M102 768q0 160 63.5 306t170 251.5t253 168t306.5 62.5t306.5 -62.5t253 -168t170 -251.5t63.5 -306t-63.5 -306.5t-170 -251.5t-253 -167.5t-306.5 -62.5t-306.5 62.5t-253 167.5t-170 251.5t-63.5 306.5zM246 768q0 -175 88 -323.5t237.5 -235t323.5 -86.5t323.5 86.5 t237.5 235t88 323.5t-88 323.5t-237.5 235t-323.5 86.5q-175 0 -324.5 -86.5t-237 -235t-87.5 -323.5z" />
<glyph unicode="P" horiz-adv-x="1073" d="M164 0v1536h461q177 0 302.5 -125.5t125.5 -302.5t-125.5 -301.5t-302.5 -124.5h-318v-682h-143zM307 825h318q118 0 201 83t83 200q0 119 -83 202t-201 83h-318v-568z" />
<glyph unicode="Q" horiz-adv-x="1789" d="M102 768q0 160 63.5 306t170 251.5t253 168t306.5 62.5t306.5 -62.5t253 -168t170 -251.5t63.5 -306q0 -145 -52 -281t-149 -243l162 -164l-103 -100l-166 165q-103 -79 -228.5 -122t-256.5 -43q-160 0 -306.5 62.5t-253 167.5t-170 251.5t-63.5 306.5zM246 768 q0 -175 87.5 -323.5t237 -235t324.5 -86.5q214 0 383 125l-201 201l103 102l204 -207q77 88 118.5 197.5t41.5 226.5q0 175 -88 323.5t-237.5 235t-323.5 86.5q-175 0 -324.5 -86.5t-237 -235t-87.5 -323.5z" />
<glyph unicode="R" horiz-adv-x="1128" d="M164 0v1536h461q177 0 302.5 -125.5t125.5 -302.5q0 -137 -83.5 -251t-213.5 -155l352 -702h-162l-340 682h-299v-682h-143zM307 825h318q117 0 200.5 83t83.5 200t-83.5 201t-200.5 84h-318v-568z" />
<glyph unicode="S" horiz-adv-x="1132" d="M82 262l133 57q36 -88 126 -141t189 -53q127 0 230.5 81t103.5 204q0 57 -24.5 103t-66 77.5t-95.5 58t-113 50.5t-118.5 49.5t-113.5 59.5t-95.5 76t-66 104t-24.5 138q0 177 127.5 303.5t305.5 126.5q113 0 213 -57.5t157 -155.5l-135 -59q-38 59 -101.5 93t-133.5 34 q-117 0 -202 -84t-85 -201q0 -55 24.5 -100t66 -75.5t95.5 -57t113.5 -50.5t118.5 -50t113 -60.5t95.5 -77t66 -105.5t24.5 -140q0 -122 -70 -222.5t-179.5 -154t-230.5 -53.5q-142 0 -268.5 76.5t-179.5 205.5z" />
<glyph unicode="T" horiz-adv-x="989" d="M20 1393v143h949v-143h-402v-1393h-143v1393h-404z" />
<glyph unicode="U" horiz-adv-x="1249" d="M133 430v1106h143v-1106q0 -123 99 -215t250 -92q152 0 250 92t98 215v1106h143v-1106q0 -118 -65 -221.5t-178.5 -166t-247.5 -62.5q-100 0 -191.5 37t-157 98.5t-104.5 144t-39 170.5z" />
<glyph unicode="V" horiz-adv-x="1390" d="M20 1536h160l516 -1227l516 1227h158l-653 -1536h-41z" />
<glyph unicode="W" horiz-adv-x="2158" d="M20 1536h160l598 -1247l221 465l-374 782h159l295 -616l297 616h158l-375 -782l223 -465l598 1247h158l-735 -1536h-41l-283 588l-280 -588h-41z" />
<glyph unicode="X" horiz-adv-x="1232" d="M20 0l510 772l-503 764h172l417 -635l420 635h170l-504 -764l510 -772h-172l-424 643l-423 -643h-173z" />
<glyph unicode="Y" horiz-adv-x="1222" d="M20 1536h173l417 -635l420 635h172l-520 -786v-750h-143v750z" />
<glyph unicode="Z" horiz-adv-x="1265" d="M61 0l883 1393h-758v143h1018l-885 -1393h885v-143h-1143z" />
<glyph unicode="[" horiz-adv-x="548" d="M102 -502v2038h344v-143h-200v-1751h200v-144h-344z" />
<glyph unicode="\" horiz-adv-x="1251" d="M41 1556h143l1047 -2058h-144z" />
<glyph unicode="]" horiz-adv-x="548" d="M98 -358h201l4 1751h-201v143h344l-4 -2038h-344v144z" />
<glyph unicode="^" horiz-adv-x="1171" d="M102 713l437 823h127l403 -825l-127 -54l-342 689l-371 -691z" />
<glyph unicode="_" horiz-adv-x="1347" d="M102 0v123h1143v-123h-1143z" />
<glyph unicode="`" horiz-adv-x="638" d="M102 1536h191l244 -362h-191z" />
<glyph unicode="a" horiz-adv-x="1228" d="M82 481q0 136 67.5 251.5t183 183t251.5 67.5q101 0 195.5 -39.5t162.5 -112.5v132h143v-963h-143v131q-68 -73 -162.5 -112t-195.5 -39q-136 0 -251.5 67t-183 182.5t-67.5 251.5zM225 481q0 -148 105.5 -253t253.5 -105t253 105t105 253t-105 253.5t-253 105.5 t-253.5 -105.5t-105.5 -253.5z" />
<glyph unicode="b" horiz-adv-x="1228" d="M143 0v1536h144v-705q68 73 162.5 112.5t195.5 39.5q136 0 251.5 -67.5t183 -183t67.5 -251.5t-67.5 -251.5t-183 -182.5t-251.5 -67q-101 0 -195.5 39t-162.5 112v-131h-144zM287 481q0 -148 105 -253t253 -105t253.5 105t105.5 253t-105.5 253.5t-253.5 105.5 t-253 -105.5t-105 -253.5z" />
<glyph unicode="c" horiz-adv-x="1085" d="M82 481q0 136 67.5 251.5t183 183t251.5 67.5q149 0 274.5 -83t185.5 -220v2l-131 -57q-43 97 -133 156t-196 59q-148 0 -253.5 -105.5t-105.5 -253.5t105.5 -253t253.5 -105q106 0 196 59t131 156v-2l131 -57q-58 -135 -184 -217t-274 -82q-136 0 -251.5 67t-183 182.5 t-67.5 251.5z" />
<glyph unicode="d" horiz-adv-x="1228" d="M82 481q0 136 67.5 251.5t183 183t251.5 67.5q101 0 195.5 -39.5t162.5 -112.5v705h143v-1536h-143v131q-68 -73 -162.5 -112t-195.5 -39q-136 0 -251.5 67t-183 182.5t-67.5 251.5zM225 481q0 -148 105.5 -253t253.5 -105t253 105t105 253t-105 253.5t-253 105.5 t-253.5 -105.5t-105.5 -253.5z" />
<glyph unicode="e" d="M82 481q0 136 67.5 251.5t183 183t251.5 67.5t251.5 -67.5t182.5 -183t67 -251.5h-860q0 -148 105.5 -253t253.5 -105q106 0 196 59t131 156v-2l131 -57q-58 -135 -184 -217t-274 -82q-136 0 -251.5 67t-183 182.5t-67.5 251.5zM256 625h655q-41 97 -131 156t-196 59 t-196.5 -59t-131.5 -156z" />
<glyph unicode="f" horiz-adv-x="661" d="M123 819v144h145v315q0 118 84 202.5t203 84.5q45 0 86 -15v-157q-36 28 -86 28q-60 0 -101.5 -41.5t-41.5 -101.5v-315h229v-144h-229v-819h-144v819h-145z" />
<glyph unicode="g" horiz-adv-x="1228" d="M82 481q0 208 147 355t355 147q101 0 192.5 -38t161.5 -109q1 0 2 -2t2 -3v132h143v-963q0 -207 -147 -354q-148 -148 -354 -148q-100 0 -192.5 38t-162.5 110q-65 65 -104 151l131 58v2q42 -97 130.5 -156t197.5 -59q149 0 253.5 105t104.5 253v131l-4 -4 q-70 -71 -161.5 -109t-192.5 -38q-208 0 -355 147t-147 354zM225 481q0 -148 105.5 -253t253.5 -105q149 0 253.5 105t104.5 253q0 149 -104.5 254t-253.5 105q-148 0 -253.5 -105t-105.5 -254z" />
<glyph unicode="h" horiz-adv-x="1013" d="M143 0v1536h144v-674q39 53 106 87t150 34q153 0 250.5 -108t97.5 -265v-1v-1v-1v-1v-1v-1v-1v-1v-1v-1v-1v-1v-1v-1v-1v-1v-1v-1v-1v-1v-1v-1v-1v-1v-1v-1v-1v-1v-1v-1v-1v-1v-1v-1v-1v-1v-1v-1v-1v-1v-1v-1v-1v-1v-1v-1v-1v-1v-1v-1v-1v-1v-1v-1v-1v-1v-1v-1v-1v-1v-1 v-1v-1v-1v-1v-1v-1v-1v-1v-1v-1v-1v-1v-1v-1v-1v-1v-1v-1v-1v-1v-1v-1v-1v-1v-1v-1v-1v-1v-1v-1v-1v-1v-1v-1v-1v-1v-1v-1v-1v-1v-1v-1v-1v-1v-1v-1v-1v-1v-1v-1v-1v-1v-1v-1v-1v-1v-1v-1v-1v-1v-1v-1v-1v-1v-1v-1v-1v-1v-1v-1v-1v-1v-1v-1v-1v-1v-1v-1v-1v-1v-1v-1v-1v-1 v-1v-1v-1v-1v-1v-1v-1v-1v-1v-1v-1v-1v-1v-1v-1v-1v-1v-1v-1v-1v-1v-1v-1v-1v-1v-1v-1v-1v-1v-1v-1v-1v-1v-1v-1v-1v-1v-1v-1v-1v-1v-1v-1v-1v-1v-1v-1v-1v-1v-1v-1v-1v-1v-1v-1v-1v-1v-1v-1v-1v-1v-1v-1v-1v-1v-1v-1v-1v-1v-1v-1v-1v-1v-1v-1v-1v-1v-1v-1v-1v-1v-1v-1v-1 v-1v-1v-1v-1v-1v-1v-1v-1v-1v-1v-1v-1v-1v-1v-1v-1v-1v-1v-1v-1v-1v-1v-1v-1v-1v-1v-1v-1v-1v-1v-1v-1v-1v-1v-1v-1v-1v-1v-1v-1v-1v-1v-1v-1v-1v-1v-1v-1v-1v-1v-1v-1v-1v-1v-1v-1v-1v-1v-1v-1v-1v-1v-1v-1v-1v-1v-1v-1v-1v-1v-1v-1v-1v-1v-1v-1v-1v-1v-1v-1v-1v-1v-1v-1 v-1v-1v-1v-1v-1v-1v-1v-1v-1v-1v-1v-1v-1v-1v-1v-1v-1v-1v-1v-1v-1v-1v-1v-1v-1v-1v-1v-1v-1v-1v-1v-1v-1v-1v-1v-1v-1v-1v-1v-1v-1v-1v-1v-1v-1v-1v-1v-1v-1v-1v-1v-1v-1v-1v-1v-1v-1v-1v-1v-1v-1v-1v-1v-1v-1v-1v-1v-1v-1v-1v-1v-1v-1v-1v-1v-1v-1v-1v-1v-1v-1v-1v-1v-1 v-1v-1v-1v-1v-1v-1v-1v-1v-1v-1v-1v-1v-1v-1v-1v-1v-1v-1v-1v-1v-1v-1v-1v-1v-1v-1v-1v-1v-1v-1v-1v-1v-1v-1v-1v-1v-1v-1v-1v-1v-1v-1v-1v-1v-1v-1v-1v-1v-1v-1v-1v-1v-1v-1v-1v-1v-1v-1v-1v-1v-1v-1v-1v-1v-1v-1v-1v-1v-1v-1v-1v-1v-1v-1v-1v-1v-1v-1v-1v-1v-1v-1v-1v-1 v-1v-1v-1v-1v-1v-1v-1v-1v-1v-1v-1v-1v-1v-1v-1v-1v-1v-1v-1v-1v-1v-1v-1v-1v-1v-1v-1v-1v-1v-1v-1v-1v-1v-1v-1v-1v-1v-1v-1v-1v-1v-1v-1v-1v-1v-1v-1v-1v-1v-1v-1v-1v-1v-1v-1v-1v-1v-1v-1v-1v-1v-1v-1v-1v-1v-1v-1v-1v-1v-1v-1v-1v-1v-1v-1v-1v-1v-1v-1v-1v-1v-1v-1v-1 v-1v-1v-1v-1v-1v-1v-1v-1v-1v-1v-1v-1v-1v-1v-1v-1v-1v-1v-1v-1v-1v-1v-1v-1v-1v-1v-1v-1v-1v-1v-1v-1v-1v-1v-1v-10h-143v610q0 97 -62.5 163.5t-157.5 66.5t-168 -66t-73 -158v-616h-144z" />
<glyph unicode="i" horiz-adv-x="479" d="M143 1239q0 40 28.5 68t68.5 28t68 -28t28 -68t-28 -68t-68 -28t-68.5 28t-28.5 68zM168 0v963h143v-963h-143z" />
<glyph unicode="j" horiz-adv-x="479" d="M143 1239q0 40 28.5 68t68.5 28t68 -28t28 -68t-28 -68t-68 -28t-68.5 28t-28.5 68zM168 -502v1465h143v-1465h-143z" />
<glyph unicode="k" horiz-adv-x="937" d="M143 0v1536h144v-967l389 394h207l-471 -459l526 -504h-207l-444 440v-440h-144z" />
<glyph unicode="l" horiz-adv-x="430" d="M143 0v1536h144v-1536h-144z" />
<glyph unicode="m" horiz-adv-x="1617" d="M143 0v963h144v-101q43 57 112 89t144 32q91 0 164.5 -41.5t119.5 -112.5q57 71 142.5 112.5t177.5 41.5q153 0 250.5 -109t97.5 -264v-610h-143v610q0 94 -62 162t-155 68q-95 0 -169.5 -65.5t-74.5 -158.5v-6v-610h-143v610q0 94 -62.5 162t-157.5 68q-93 0 -167 -65.5 t-74 -158.5v-616h-144z" />
<glyph unicode="n" horiz-adv-x="1013" d="M143 0v963h144v-101q43 57 112 89t144 32q153 0 250.5 -109t97.5 -264v-610h-143v610q0 94 -62.5 162t-157.5 68q-93 0 -167 -65.5t-74 -158.5v-616h-144z" />
<glyph unicode="o" d="M82 481q0 136 67.5 251.5t183 183t251.5 67.5t251.5 -67.5t182.5 -183t67 -251.5q0 -102 -40 -194.5t-107 -159.5t-159.5 -107t-194.5 -40q-136 0 -251.5 67t-183 182.5t-67.5 251.5zM225 481q0 -148 105.5 -253t253.5 -105t253 105t105 253t-105 253.5t-253 105.5 t-253.5 -105.5t-105.5 -253.5z" />
<glyph unicode="p" horiz-adv-x="1228" d="M143 -502v1465h144v-132q68 73 162.5 112.5t195.5 39.5q205 0 353.5 -148.5t148.5 -353.5q0 -135 -68 -250.5t-183.5 -183t-250.5 -67.5q-101 0 -195.5 39t-162.5 112v-633h-144zM287 481q0 -148 105 -253t253 -105t253.5 105t105.5 253t-105.5 253.5t-253.5 105.5 t-253 -105.5t-105 -253.5z" />
<glyph unicode="q" horiz-adv-x="1228" d="M82 481q0 136 67.5 251.5t183 183t251.5 67.5q101 0 195.5 -39.5t162.5 -112.5v132h143v-1465h-143v633q-68 -73 -162.5 -112t-195.5 -39q-136 0 -251.5 67t-183 182.5t-67.5 251.5zM225 481q0 -148 105.5 -253t253.5 -105t253 105t105 253t-105 253.5t-253 105.5 t-253.5 -105.5t-105.5 -253.5z" />
<glyph unicode="r" horiz-adv-x="665" d="M143 0v963h144v-127q47 95 145 131q46 17 97 17q56 0 116 -21v-144q-63 22 -117 22q-81 1 -141 -49q-100 -82 -100 -262v-530h-144z" />
<glyph unicode="s" horiz-adv-x="804" d="M102 193l134 57q7 -56 60 -91.5t112 -35.5q65 0 118.5 40.5t53.5 102.5q0 37 -25 65.5t-65 47.5t-88 37t-96.5 41t-88.5 52t-65 77t-25 110q0 118 84.5 202.5t202.5 84.5q84 0 155.5 -46.5t106.5 -123.5l-131 -57q-19 38 -54.5 61t-76.5 23q-60 0 -102 -42t-42 -102 q0 -36 25 -63.5t65 -46.5t88.5 -37t96.5 -41.5t88 -53t65 -78t25 -110.5q0 -122 -95.5 -204t-219.5 -82q-66 0 -128.5 25.5t-110.5 74.5t-67 113z" />
<glyph unicode="t" horiz-adv-x="610" d="M61 819v144h166v342h144v-342h178v-144h-178v-819h-144v819h-166z" />
<glyph unicode="u" horiz-adv-x="997" d="M123 354v609h143v-609q0 -95 68.5 -163t163.5 -68q97 0 165 68t68 163v609h143v-609q0 -155 -109.5 -264.5t-266.5 -109.5q-155 0 -265 109.5t-110 264.5z" />
<glyph unicode="v" horiz-adv-x="962" d="M20 963h160l305 -689h4l295 689h158l-430 -963h-53z" />
<glyph unicode="w" horiz-adv-x="1495" d="M20 963h158l281 -678h4l270 678h25l272 -678h4l281 678h160l-418 -963h-60l-249 629h-5l-249 -629h-60z" />
<glyph unicode="x" horiz-adv-x="1017" d="M20 0l396 481l-396 482h187l301 -369l303 369h186l-395 -482l395 -481h-186l-303 369l-301 -369h-187z" />
<glyph unicode="y" horiz-adv-x="1003" d="M20 963h164l336 -746l303 746h160l-623 -1465h-157l241 559z" />
<glyph unicode="z" horiz-adv-x="1058" d="M82 0v8l623 821h-537v134h809l-625 -832h623v-131h-893z" />
<glyph unicode="{" horiz-adv-x="671" d="M102 473v119q32 13 57 31t41 35t27 44t17 46t8.5 53.5t3 55t0.5 61.5v370q0 105 57.5 188t157.5 83h98v-134q-90 0 -129 -34t-39 -123v-379q0 -112 -36 -208t-117 -149q81 -53 117 -149t36 -207v-381q0 -89 39 -123t129 -34v-134h-98q-100 0 -157.5 83t-57.5 188v372 q0 47 -1 70.5t-5 62.5t-13.5 61.5t-26 49.5t-44 47t-64.5 35z" />
<glyph unicode="|" horiz-adv-x="327" d="M102 -502v2061h123v-2061h-123z" />
<glyph unicode="}" horiz-adv-x="671" d="M102 -362q90 0 129 34t39 123v381q0 111 36.5 207t117.5 149q-81 53 -117.5 149.5t-36.5 207.5v379q0 89 -39 123t-129 34v134h99q100 0 157.5 -83t57.5 -188v-370q0 -42 0.5 -61.5t3 -55t8 -54t16.5 -45.5t27 -44t41 -35t57 -31v-119q-28 -12 -50.5 -25.5t-38.5 -32.5 t-27 -34.5t-18 -41t-11 -42.5t-5.5 -48.5t-2 -48.5t-0.5 -53v-372q0 -105 -57.5 -188t-157.5 -83h-99v134z" />
<glyph unicode="~" horiz-adv-x="1253" d="M123 387q120 275 289 275q52 0 116.5 -29t114.5 -64.5t106 -64.5t93 -29q84 0 162 184l126 -53q-113 -278 -288 -278q-52 0 -116 29.5t-114.5 64.5t-106.5 64.5t-93 29.5q-23 0 -46 -14t-38.5 -32t-32.5 -47t-25.5 -46.5t-19.5 -44.5z" />
<glyph unicode="&#xa6;" horiz-adv-x="327" d="M102 489h123v-983h-123v983zM102 737v983h123v-983h-123z" />
<glyph unicode="&#xa8;" horiz-adv-x="1310" d="M340 1305q0 40 28 68t68 28t68 -28t28 -68t-28 -68.5t-68 -28.5t-68 28.5t-28 68.5zM702 1305q0 40 28.5 68t68.5 28t68 -28t28 -68t-28 -68.5t-68 -28.5t-68.5 28.5t-28.5 68.5z" />
<glyph unicode="&#xa9;" horiz-adv-x="1488" d="M102 768q0 130 51.5 248t137.5 203.5t204.5 136.5t247.5 51q130 0 248.5 -51t205 -136.5t138 -203.5t51.5 -248t-51.5 -248t-138 -203.5t-205 -136.5t-248.5 -51q-129 0 -247.5 51t-204.5 136.5t-137.5 203.5t-51.5 248zM219 768q0 -106 42 -203t112.5 -166.5t167 -111 t202.5 -41.5q142 0 263.5 69.5t192.5 190t71 262.5t-71 262.5t-192.5 190t-263.5 69.5q-106 0 -202.5 -41.5t-167 -111t-112.5 -166.5t-42 -203zM403 772q0 138 99 237t237 99q97 0 180 -56t132 -157l-105 -45q-35 70 -89 106.5t-118 36.5q-91 0 -156 -65t-65 -156t65 -156 t156 -65q62 0 116 34.5t87 98.5q51 -15 109 -37q-49 -101 -132 -156t-180 -55q-138 0 -237 99t-99 237z" />
<glyph unicode="&#xad;" horiz-adv-x="1347" d="M102 426v123h1143v-123h-1143z" />
<glyph unicode="&#xae;" horiz-adv-x="1488" d="M102 768q0 130 51.5 248t137.5 203.5t204.5 136.5t247.5 51q130 0 248.5 -51t205 -136.5t138 -203.5t51.5 -248t-51.5 -248t-138 -203.5t-205 -136.5t-248.5 -51q-129 0 -247.5 51t-204.5 136.5t-137.5 203.5t-51.5 248zM201 768q0 -147 73 -271.5t198 -197t271 -72.5 q147 0 272.5 72.5t199 197t73.5 271.5t-73.5 271.5t-199 197t-272.5 72.5q-146 0 -271 -72.5t-198 -197t-73 -271.5zM592 463v610h170q79 0 135.5 -52t56.5 -124q0 -50 -30.5 -93t-85.5 -69l147 -272h-100l-140 260h-63v-260h-90zM682 803h80q42 0 72 27.5t30 66.5 q0 41 -30 68.5t-72 27.5h-80v-190z" />
<glyph unicode="&#xb0;" horiz-adv-x="536" d="M-254 1303q0 69 48.5 117t117.5 48q68 0 117 -48t49 -117q0 -67 -49 -115.5t-117 -48.5q-69 0 -117.5 48t-48.5 116zM-182 1303q0 -39 27.5 -67t66.5 -28q38 0 66 28.5t28 66.5q0 40 -28 68t-66 28q-40 0 -67 -28t-27 -68z" />
<glyph unicode="&#xb4;" horiz-adv-x="561" d="M162 1174l244 362h190l-244 -362h-190z" />
<glyph unicode="&#xc4;" horiz-adv-x="1554" d="M20 0l738 1536h41l735 -1536h-158l-231 481h-735l-230 -481h-160zM479 625h596l-297 622zM506 1700q0 40 28 68t68 28t68 -28t28 -68t-28 -68.5t-68 -28.5t-68 28.5t-28 68.5zM868 1700q0 40 28.5 68t68.5 28t68 -28t28 -68t-28 -68.5t-68 -28.5t-68.5 28.5t-28.5 68.5z " />
<glyph unicode="&#xc5;" horiz-adv-x="1554" d="M20 0l738 1536h41l735 -1536h-158l-231 481h-735l-230 -481h-160zM479 625h596l-297 622zM608 1634q0 69 48.5 117.5t117.5 48.5q68 0 117 -48.5t49 -117.5q0 -67 -49 -115.5t-117 -48.5q-69 0 -117.5 48t-48.5 116zM680 1634q0 -39 27.5 -66.5t66.5 -27.5q38 0 66 28 t28 66q0 40 -28 68.5t-66 28.5q-39 0 -66.5 -28.5t-27.5 -68.5z" />
<glyph unicode="&#xc7;" horiz-adv-x="1538" d="M102 768q0 128 40 248t113 217t170 170t217.5 113t248.5 40q158 0 307.5 -61.5t255.5 -173.5l-102 -96q-199 188 -461 188q-174 0 -322.5 -86.5t-235.5 -235t-87 -323.5q0 -174 87 -322.5t235.5 -235.5t322.5 -87q255 0 461 188l104 -94q-107 -114 -256.5 -175.5 t-308.5 -61.5q-128 0 -248.5 40t-217.5 113t-170 170t-113 217t-40 248zM889 12h61v-82q4 0 10.5 0.5t26 -0.5t37 -4.5t38.5 -14t36.5 -26.5t26 -43t10.5 -63q0 -50 -15 -85t-35.5 -53t-58 -27.5t-64.5 -11t-73 -1.5v96h15h17.5t17.5 0.5t19.5 2t18 4.5t17.5 7t14 10.5 t12 14.5t7 19t3 24q0 32 -14.5 52.5t-35 27.5t-41.5 9.5t-35 0.5l-15 -2v145z" />
<glyph unicode="&#xc9;" horiz-adv-x="1048" d="M164 0v1536h782v-143h-633v-430h553v-144h-553v-680h633v-139h-782zM373 1620l243 362h191l-244 -362h-190z" />
<glyph unicode="&#xd1;" horiz-adv-x="1474" d="M164 0v1536h33l970 -1182v1182h144v-1536h-37l-967 1176v-1176h-143zM313 1679q44 85 98.5 138t131.5 53q49 0 109 -28t111.5 -55.5t80.5 -27.5q49 0 102 115l127 -45q-92 -193 -229 -193q-49 0 -109 28t-111.5 55.5t-80.5 27.5q-50 0 -100 -109l-3 -6z" />
<glyph unicode="&#xd6;" horiz-adv-x="1789" d="M102 768q0 160 63.5 306t170 251.5t253 168t306.5 62.5t306.5 -62.5t253 -168t170 -251.5t63.5 -306t-63.5 -306.5t-170 -251.5t-253 -167.5t-306.5 -62.5t-306.5 62.5t-253 167.5t-170 251.5t-63.5 306.5zM246 768q0 -175 88 -323.5t237.5 -235t323.5 -86.5t323.5 86.5 t237.5 235t88 323.5t-88 323.5t-237.5 235t-323.5 86.5q-175 0 -324.5 -86.5t-237 -235t-87.5 -323.5zM631 1770q0 40 28 68t68 28t68 -28t28 -68t-28 -68.5t-68 -28.5t-68 28.5t-28 68.5zM993 1770q0 40 28.5 68t68.5 28t68 -28t28 -68t-28 -68.5t-68 -28.5t-68.5 28.5 t-28.5 68.5z" />
<glyph unicode="&#xd7;" horiz-adv-x="1222" d="M164 121l360 360l-360 361l86 88l360 -363l363 363l86 -88l-361 -361l361 -360l-86 -88l-363 362l-360 -362z" />
<glyph unicode="&#xd8;" horiz-adv-x="1789" d="M102 768q0 160 63.5 306t170 251.5t253 168t306.5 62.5q220 0 405 -112l74 112h123l-113 -170q141 -111 222.5 -272.5t81.5 -345.5q0 -160 -63.5 -306.5t-170 -251.5t-253 -167.5t-306.5 -62.5q-200 0 -381 96l-63 -96h-123l100 151q-151 109 -238.5 276.5t-87.5 360.5z M246 768q0 -155 70.5 -290.5t191.5 -225.5l713 1073q-154 88 -326 88q-175 0 -324.5 -86.5t-237 -235t-87.5 -323.5zM594 197q142 -74 301 -74q174 0 323.5 86.5t237.5 235t88 323.5q0 148 -64 278.5t-175 221.5z" />
<glyph unicode="&#xdc;" horiz-adv-x="1187" d="M164 410v1126h143v-1126q0 -118 84.5 -202.5t202.5 -84.5t202.5 84.5t84.5 202.5v1126h143v-1126q0 -178 -126 -304t-304 -126t-304 126t-126 304zM319 1769q0 40 28.5 68.5t68.5 28.5t68 -28.5t28 -68.5t-28 -68t-68 -28t-68.5 28t-28.5 68zM682 1769q0 40 28 68.5 t68 28.5t68 -28.5t28 -68.5t-28 -68t-68 -28t-68 28t-28 68z" />
<glyph unicode="&#xe0;" horiz-adv-x="1249" d="M82 481q0 136 67.5 251.5t183 183t251.5 67.5q101 0 195.5 -39.5t162.5 -112.5v132h143v-963h-143v131q-68 -73 -162.5 -112t-195.5 -39q-136 0 -251.5 67t-183 182.5t-67.5 251.5zM225 481q0 -148 105.5 -253t253.5 -105t253 105t105 253t-105 253.5t-253 105.5 t-253.5 -105.5t-105.5 -253.5zM250 1536h190l244 -362h-190z" />
<glyph unicode="&#xe1;" horiz-adv-x="1249" d="M82 481q0 136 67.5 251.5t183 183t251.5 67.5q101 0 195.5 -39.5t162.5 -112.5v132h143v-963h-143v131q-68 -73 -162.5 -112t-195.5 -39q-136 0 -251.5 67t-183 182.5t-67.5 251.5zM225 481q0 -148 105.5 -253t253.5 -105t253 105t105 253t-105 253.5t-253 105.5 t-253.5 -105.5t-105.5 -253.5zM475 1174l244 362h190l-243 -362h-191z" />
<glyph unicode="&#xe2;" horiz-adv-x="1249" d="M82 481q0 136 67.5 251.5t183 183t251.5 67.5q101 0 195.5 -39.5t162.5 -112.5v132h143v-963h-143v131q-68 -73 -162.5 -112t-195.5 -39q-136 0 -251.5 67t-183 182.5t-67.5 251.5zM225 481q0 -148 105.5 -253t253.5 -105t253 105t105 253t-105 253.5t-253 105.5 t-253.5 -105.5t-105.5 -253.5zM256 1174l244 362h190l244 -362h-150l-190 210l-188 -210h-150z" />
<glyph unicode="&#xe3;" horiz-adv-x="1249" d="M82 481q0 136 67.5 251.5t183 183t251.5 67.5q101 0 195.5 -39.5t162.5 -112.5v132h143v-963h-143v131q-68 -73 -162.5 -112t-195.5 -39q-136 0 -251.5 67t-183 182.5t-67.5 251.5zM205 1200q21 39 40.5 68.5t47.5 60t64 46.5t77 16q49 0 109 -27.5t111.5 -55.5t80.5 -28 q50 0 103 115l127 -45q-92 -193 -230 -193q-49 0 -109 27.5t-111.5 55.5t-80.5 28q-50 0 -98 -107l-1.5 -3t-1 -2.5t-1.5 -2.5zM225 481q0 -148 105.5 -253t253.5 -105t253 105t105 253t-105 253.5t-253 105.5t-253.5 -105.5t-105.5 -253.5z" />
<glyph unicode="&#xe4;" horiz-adv-x="1249" d="M82 481q0 136 67.5 251.5t183 183t251.5 67.5q101 0 195.5 -39.5t162.5 -112.5v132h143v-963h-143v131q-68 -73 -162.5 -112t-195.5 -39q-136 0 -251.5 67t-183 182.5t-67.5 251.5zM225 481q0 -148 105.5 -253t253.5 -105t253 105t105 253t-105 253.5t-253 105.5 t-253.5 -105.5t-105.5 -253.5zM340 1305q0 40 28 68t68 28t68 -28t28 -68t-28 -68.5t-68 -28.5t-68 28.5t-28 68.5zM702 1305q0 40 28.5 68t68.5 28t68 -28t28 -68t-28 -68.5t-68 -28.5t-68.5 28.5t-28.5 68.5z" />
<glyph unicode="&#xe5;" horiz-adv-x="1249" d="M82 481q0 136 67.5 251.5t183 183t251.5 67.5q101 0 195.5 -39.5t162.5 -112.5v132h143v-963h-143v131q-68 -73 -162.5 -112t-195.5 -39q-136 0 -251.5 67t-183 182.5t-67.5 251.5zM225 481q0 -148 105.5 -253t253.5 -105t253 105t105 253t-105 253.5t-253 105.5 t-253.5 -105.5t-105.5 -253.5zM436 1303q0 69 48.5 117t117.5 48q68 0 117 -48t49 -117q0 -67 -49 -115.5t-117 -48.5q-69 0 -117.5 48t-48.5 116zM526 1303q0 -31 22 -53.5t54 -22.5q31 0 53.5 22.5t22.5 53.5q0 32 -22.5 54.5t-53.5 22.5q-32 0 -54 -22.5t-22 -54.5z" />
<glyph unicode="&#xe7;" horiz-adv-x="1126" d="M82 481q0 136 67.5 251.5t183 183t251.5 67.5q149 0 274.5 -83t185.5 -220v2l-131 -57q-43 97 -133 156t-196 59q-148 0 -253.5 -105.5t-105.5 -253.5t105.5 -253t253.5 -105q106 0 196 59t131 156v-2l131 -57q-58 -135 -184 -217t-274 -82q-136 0 -251.5 67t-183 182.5 t-67.5 251.5zM551 12h61v-82q4 0 10.5 0.5t26 -0.5t37 -4.5t38.5 -14t36.5 -26.5t26 -43t10.5 -63q0 -50 -15 -85t-35.5 -53t-58 -27.5t-64.5 -11t-73 -1.5v96h15h17.5t17.5 0.5t19.5 2t18 4.5t17.5 7t14 10.5t12 14.5t7 19t3 24q0 32 -14.5 52.5t-35 27.5t-41.5 9.5 t-35 0.5l-15 -2v145z" />
<glyph unicode="&#xe8;" d="M82 481q0 136 67.5 251.5t183 183t251.5 67.5t251.5 -67.5t182.5 -183t67 -251.5h-860q0 -148 105.5 -253t253.5 -105q106 0 196 59t131 156v-2l131 -57q-58 -135 -184 -217t-274 -82q-136 0 -251.5 67t-183 182.5t-67.5 251.5zM219 1536h191l244 -362h-191zM256 625h655 q-41 97 -131 156t-196 59t-196.5 -59t-131.5 -156z" />
<glyph unicode="&#xe9;" d="M82 481q0 136 67.5 251.5t183 183t251.5 67.5t251.5 -67.5t182.5 -183t67 -251.5h-860q0 -148 105.5 -253t253.5 -105q106 0 196 59t131 156v-2l131 -57q-58 -135 -184 -217t-274 -82q-136 0 -251.5 67t-183 182.5t-67.5 251.5zM256 625h655q-41 97 -131 156t-196 59 t-196.5 -59t-131.5 -156zM496 1174l243 362h191l-244 -362h-190z" />
<glyph unicode="&#xea;" d="M82 481q0 136 67.5 251.5t183 183t251.5 67.5t251.5 -67.5t182.5 -183t67 -251.5h-860q0 -148 105.5 -253t253.5 -105q106 0 196 59t131 156v-2l131 -57q-58 -135 -184 -217t-274 -82q-136 0 -251.5 67t-183 182.5t-67.5 251.5zM256 625h655q-41 97 -131 156t-196 59 t-196.5 -59t-131.5 -156zM264 1174l244 362h190l244 -362h-149l-191 210l-188 -210h-150z" />
<glyph unicode="&#xeb;" d="M82 481q0 136 67.5 251.5t183 183t251.5 67.5t251.5 -67.5t182.5 -183t67 -251.5h-860q0 -148 105.5 -253t253.5 -105q106 0 196 59t131 156v-2l131 -57q-58 -135 -184 -217t-274 -82q-136 0 -251.5 67t-183 182.5t-67.5 251.5zM256 625h655q-41 97 -131 156t-196 59 t-196.5 -59t-131.5 -156zM322 1305q0 40 28 68t68 28t68 -28t28 -68t-28 -68.5t-68 -28.5t-68 28.5t-28 68.5zM684 1305q0 40 28 68t68 28t68.5 -28t28.5 -68t-28.5 -68.5t-68.5 -28.5t-68 28.5t-28 68.5z" />
<glyph unicode="&#xec;" horiz-adv-x="471" d="M-102 1536h190l244 -362h-191zM164 0v963h143v-963h-143z" />
<glyph unicode="&#xed;" horiz-adv-x="471" d="M154 1174l243 362h191l-244 -362h-190zM164 0h143v963h-143v-963z" />
<glyph unicode="&#xee;" horiz-adv-x="471" d="M-102 1174l243 362h191l243 -362h-149l-190 210l-189 -210h-149zM164 0v963h143v-963h-143z" />
<glyph unicode="&#xef;" horiz-adv-x="471" d="M-41 1305q0 40 28 68t68 28t68.5 -28t28.5 -68t-28.5 -68.5t-68.5 -28.5t-68 28.5t-28 68.5zM164 0v963h143v-963h-143zM322 1305q0 40 28 68t68 28t68 -28t28 -68t-28 -68.5t-68 -28.5t-68 28.5t-28 68.5z" />
<glyph unicode="&#xf1;" horiz-adv-x="1046" d="M143 0v963h144v-101q43 57 112 89t144 32q153 0 250.5 -109t97.5 -264v-610h-143v610q0 94 -62.5 162t-157.5 68q-93 0 -167 -65.5t-74 -158.5v-616h-144zM164 1200q21 39 40.5 68.5t47.5 60t64 46.5t77 16q49 0 109 -27.5t111.5 -55.5t80.5 -28q50 0 103 115l127 -45 q-92 -193 -230 -193q-49 0 -109 27.5t-111.5 55.5t-80.5 28q-50 0 -98 -107l-1.5 -3t-1 -2.5t-1.5 -2.5z" />
<glyph unicode="&#xf2;" d="M82 481q0 136 67.5 251.5t183 183t251.5 67.5t251.5 -67.5t182.5 -183t67 -251.5q0 -102 -40 -194.5t-107 -159.5t-159.5 -107t-194.5 -40q-136 0 -251.5 67t-183 182.5t-67.5 251.5zM225 481q0 -148 105.5 -253t253.5 -105t253 105t105 253t-105 253.5t-253 105.5 t-253.5 -105.5t-105.5 -253.5zM242 1536h190l244 -362h-191z" />
<glyph unicode="&#xf3;" d="M82 481q0 -136 67.5 -251.5t183 -182.5t251.5 -67q102 0 194.5 40t159.5 107t107 159.5t40 194.5q0 136 -67 251.5t-182.5 183t-251.5 67.5t-251.5 -67.5t-183 -183t-67.5 -251.5zM225 481q0 148 105.5 253.5t253.5 105.5t253 -105.5t105 -253.5t-105 -253t-253 -105 t-253.5 105t-105.5 253zM471 1174l244 362h190l-243 -362h-191z" />
<glyph unicode="&#xf4;" horiz-adv-x="1202" d="M117 481q0 136 67 251.5t182.5 183t251.5 67.5t251.5 -67.5t183 -183t67.5 -251.5t-67.5 -251.5t-183 -182.5t-251.5 -67q-102 0 -194.5 40t-159.5 107t-107 159.5t-40 194.5zM260 481q0 -148 105 -253t253 -105t253.5 105t105.5 253t-105.5 253.5t-253.5 105.5 t-253 -105.5t-105 -253.5zM276 1174l244 362h191l243 -362h-149l-191 210l-188 -210h-150z" />
<glyph unicode="&#xf5;" d="M82 481q0 136 67.5 251.5t183 183t251.5 67.5t251.5 -67.5t182.5 -183t67 -251.5q0 -102 -40 -194.5t-107 -159.5t-159.5 -107t-194.5 -40q-136 0 -251.5 67t-183 182.5t-67.5 251.5zM205 1200q21 39 40.5 68.5t47.5 60t64 46.5t77 16q49 0 109 -27.5t111.5 -55.5 t80.5 -28q50 0 103 115l127 -45q-92 -193 -230 -193q-49 0 -109 27.5t-111.5 55.5t-80.5 28q-50 0 -98 -107l-1.5 -3t-1 -2.5t-1.5 -2.5zM225 481q0 -148 105.5 -253t253.5 -105t253 105t105 253t-105 253.5t-253 105.5t-253.5 -105.5t-105.5 -253.5z" />
<glyph unicode="&#xf6;" d="M82 481q0 136 67.5 251.5t183 183t251.5 67.5t251.5 -67.5t182.5 -183t67 -251.5q0 -102 -40 -194.5t-107 -159.5t-159.5 -107t-194.5 -40q-136 0 -251.5 67t-183 182.5t-67.5 251.5zM225 481q0 -148 105.5 -253t253.5 -105t253 105t105 253t-105 253.5t-253 105.5 t-253.5 -105.5t-105.5 -253.5zM309 1305q0 40 28.5 68t68.5 28t68 -28t28 -68t-28 -68.5t-68 -28.5t-68.5 28.5t-28.5 68.5zM672 1305q0 40 28 68t68 28t68 -28t28 -68t-28 -68.5t-68 -28.5t-68 28.5t-28 68.5z" />
<glyph unicode="&#xf7;" horiz-adv-x="1347" d="M102 418v123h1143v-123h-1143zM590 162q0 40 28 68t68 28t68 -28t28 -68t-28 -68t-68 -28t-68 28t-28 68zM590 801q0 40 28 68t68 28t68 -28t28 -68t-28 -68t-68 -28t-68 28t-28 68z" />
<glyph unicode="&#xf9;" horiz-adv-x="997" d="M123 354v609h143v-609q0 -95 68.5 -163t163.5 -68q97 0 165 68t68 163v609h143v-609q0 -155 -109.5 -264.5t-266.5 -109.5q-155 0 -265 109.5t-110 264.5zM158 1536h190l244 -362h-191z" />
<glyph unicode="&#xfa;" horiz-adv-x="997" d="M123 354v609h143v-609q0 -95 68.5 -163t163.5 -68q97 0 165 68t68 163v609h143v-609q0 -155 -109.5 -264.5t-266.5 -109.5q-155 0 -265 109.5t-110 264.5zM408 1174l243 362h191l-244 -362h-190z" />
<glyph unicode="&#xfb;" horiz-adv-x="997" d="M123 354q0 -155 110 -264.5t265 -109.5q157 0 266.5 109.5t109.5 264.5v609h-143v-609q0 -95 -68 -163t-165 -68q-95 0 -163.5 68t-68.5 163v609h-143v-609zM162 1174l244 362h190l244 -362h-150l-190 210l-189 -210h-149z" />
<glyph unicode="&#xfc;" horiz-adv-x="997" d="M123 354v609h143v-609q0 -95 68.5 -163t163.5 -68q97 0 165 68t68 163v609h143v-609q0 -155 -109.5 -264.5t-266.5 -109.5q-155 0 -265 109.5t-110 264.5zM221 1317q0 40 28 68t68 28t68.5 -28t28.5 -68t-28.5 -68t-68.5 -28t-68 28t-28 68zM584 1317q0 40 28 68t68 28 t68 -28t28 -68t-28 -68t-68 -28t-68 28t-28 68z" />
<glyph unicode="&#x2c6;" horiz-adv-x="882" d="M102 1174l244 362h191l243 -362h-149l-191 210l-188 -210h-150z" />
<glyph unicode="&#x2dc;" horiz-adv-x="964" d="M102 1200q44 85 98.5 138t131.5 53q49 0 109 -27.5t111.5 -55.5t80.5 -28q49 0 102 115l127 -45q-92 -193 -229 -193q-49 0 -109 27.5t-111.5 55.5t-80.5 28q-49 0 -94 -96q-2 -4 -6 -13l-3 -6z" />
<glyph unicode="&#x2000;" horiz-adv-x="991" />
<glyph unicode="&#x2001;" horiz-adv-x="1982" />
<glyph unicode="&#x2002;" horiz-adv-x="991" />
<glyph unicode="&#x2003;" horiz-adv-x="1982" />
<glyph unicode="&#x2004;" horiz-adv-x="660" />
<glyph unicode="&#x2005;" horiz-adv-x="495" />
<glyph unicode="&#x2006;" horiz-adv-x="330" />
<glyph unicode="&#x2007;" horiz-adv-x="330" />
<glyph unicode="&#x2008;" horiz-adv-x="247" />
<glyph unicode="&#x2009;" horiz-adv-x="396" />
<glyph unicode="&#x200a;" horiz-adv-x="110" />
<glyph unicode="&#x2010;" horiz-adv-x="1347" d="M102 426v123h1143v-123h-1143z" />
<glyph unicode="&#x2011;" horiz-adv-x="1347" d="M102 426v123h1143v-123h-1143z" />
<glyph unicode="&#x2012;" horiz-adv-x="1347" d="M102 426v123h1143v-123h-1143z" />
<glyph unicode="&#x2013;" horiz-adv-x="1228" d="M102 426v123h1024v-123h-1024z" />
<glyph unicode="&#x2014;" horiz-adv-x="1777" d="M102 426v123h1573v-123h-1573z" />
<glyph unicode="&#x2018;" horiz-adv-x="319" d="M20 1511l152 52l127 -410l-100 -39z" />
<glyph unicode="&#x2019;" horiz-adv-x="319" d="M20 1153l127 410l152 -52l-178 -397z" />
<glyph unicode="&#x201c;" horiz-adv-x="751" d="M123 918v589h158v-589h-158zM471 918v589h158v-589h-158z" />
<glyph unicode="&#x201d;" horiz-adv-x="751" d="M123 918v589h158v-589h-158zM471 918v589h158v-589h-158z" />
<glyph unicode="&#x2022;" horiz-adv-x="561" d="M141 489q0 57 41.5 97.5t98.5 40.5q58 0 98.5 -40.5t40.5 -97.5q0 -59 -40 -99t-99 -40q-57 0 -98.5 40.5t-41.5 98.5z" />
<glyph unicode="&#x202f;" horiz-adv-x="396" />
<glyph unicode="&#x205f;" horiz-adv-x="495" />
<glyph unicode="&#x2122;" horiz-adv-x="1378" d="M61 1204v101h463v-101h-180v-626h-102v626h-181zM623 578v727h43l295 -408l292 408h43v-727h-100v473l-235 -328l-236 328v-473h-102z" />
<glyph unicode="&#x25fc;" horiz-adv-x="962" d="M0 0v963h963v-963h-963z" />
</font>
</defs>
</svg>
