<?xml version="1.0" standalone="no"?>
<!DOCTYPE svg PUBLIC "-//W3C//DTD SVG 1.1//EN" "http://www.w3.org/Graphics/SVG/1.1/DTD/svg11.dtd" >
<svg xmlns="http://www.w3.org/2000/svg">
<metadata></metadata>
<defs>
<font id="mohavebold_italic" horiz-adv-x="1013" >
<font-face units-per-em="2048" ascent="1845" descent="-203" />
<missing-glyph horiz-adv-x="409" />
<glyph horiz-adv-x="0" />
<glyph horiz-adv-x="682" />
<glyph unicode=" "  horiz-adv-x="409" />
<glyph unicode="&#x09;" horiz-adv-x="409" />
<glyph unicode="&#xa0;" horiz-adv-x="409" />
<glyph unicode="!" horiz-adv-x="376" d="M-57 0l34 197h195l-35 -197h-194zM0 334l229 1339h213l-245 -1339h-197z" />
<glyph unicode="&#x22;" horiz-adv-x="714" d="M96 1419l43 254h217l-43 -254l-86 -114h-116l86 114h-101zM377 1419l43 254h217l-43 -254l-86 -114h-117l86 114h-100z" />
<glyph unicode="#" horiz-adv-x="1085" d="M-59 0l147 416h-111l33 196h148q17 47 54.5 147t61.5 169h-159l35 196h196l203 549h201l-203 -549h225q32 90 103 279t100 270h203l-203 -549h96l-35 -196h-133l-117 -316h150l-35 -196h-184q-17 -46 -154 -416h-198l149 416h-225q-32 -88 -86.5 -236.5t-65.5 -179.5 h-196zM360 612h226q6 17 114 316q-36 0 -108 -1t-117 -1z" />
<glyph unicode="$" horiz-adv-x="837" d="M-25 303l27 164h197l-29 -164q-12 -67 37 -123l96 543q-105 30 -162 120.5t-37 205.5l48 268q22 119 109.5 213.5t207.5 126.5l18 108h199l-18 -108q108 -31 162 -125t32 -215l-28 -170h-197l29 170q16 81 -37 125l-99 -555q103 -34 162 -122.5t39 -199.5l-47 -262 q-21 -119 -109.5 -213.5t-205.5 -128.5l-21 -111h-198l20 111q-105 34 -160 130t-35 212zM303 1049q-12 -74 39 -113l88 504q-64 -43 -80 -123zM406 180q29 22 51 56t28 67l47 262q12 74 -38 115z" />
<glyph unicode="%" horiz-adv-x="1183" d="M29 -51l934 1724h200l-934 -1724h-200zM102 1036l66 369q15 86 89.5 146.5t160.5 60.5q85 0 138 -60.5t38 -146.5l-66 -369q-15 -88 -88 -147.5t-159 -59.5q-88 0 -141 59.5t-38 147.5zM276 1036q-3 -15 7.5 -26t27.5 -11q15 0 28.5 11t16.5 26l66 369q1 14 -9.5 25.5 t-23.5 11.5q-18 0 -31.5 -11t-15.5 -26zM569 156l66 370q15 87 87.5 147t162.5 60q86 0 137.5 -60t36.5 -147l-66 -370q-15 -87 -88.5 -147t-159.5 -60q-88 0 -139.5 59t-36.5 148zM741 156q-3 -15 6.5 -25t28.5 -10q17 0 29.5 10.5t15.5 24.5l66 370q3 13 -7.5 24t-25.5 11 q-17 0 -30.5 -10t-16.5 -25z" />
<glyph unicode="&#x26;" horiz-adv-x="1083" d="M31 324l47 266q24 137 145 252q-77 129 -57 248l47 266q18 100 85 182.5t160 128t189 45.5q153 0 238.5 -121t56.5 -313h-221q11 100 -19.5 158.5t-93.5 58.5q-64 0 -115 -39t-61 -100l-47 -266q-7 -59 31.5 -101.5t95.5 -42.5h152l18 113h221l-18 -113h129l-39 -215 h-129l-72 -407q-27 -150 -157.5 -253.5t-278.5 -103.5q-96 0 -172.5 46t-114 128.5t-20.5 182.5zM250 324q-10 -61 26.5 -100.5t100.5 -39.5t115 39.5t61 100.5l72 407h-152q-64 0 -115 -40t-61 -101z" />
<glyph unicode="'" horiz-adv-x="436" d="M98 1419l43 254h217l-43 -254l-86 -114h-116l86 114h-101z" />
<glyph unicode="(" horiz-adv-x="745" d="M2 119l248 1403q28 160 145.5 241.5t276.5 81.5h133l-37 -205q-60 0 -103.5 -4t-89 -15t-73 -36t-33.5 -63l-236 -1327q-6 -35 -6 -60.5t4.5 -46t18 -34.5t32 -24t48.5 -15t65 -8t84 -3l-37 -205h-133q-75 0 -135.5 19.5t-104.5 57.5t-62 100.5t-5 142.5z" />
<glyph unicode=")" horiz-adv-x="745" d="M-53 -201l37 205q69 1 113.5 6t80.5 16.5t57.5 33.5t35.5 54t22 81l235 1327q6 38 -12.5 63t-60 36t-83.5 15t-102 4l37 205h133q76 0 137 -19.5t105 -57.5t62 -101t4 -145l-248 -1403q-28 -157 -146.5 -238.5t-275.5 -81.5h-131z" />
<glyph unicode="*" horiz-adv-x="604" d="M59 1378l117 68l-92 72q18 19 46.5 52.5t45.5 53.5l76 -65l20 112h136l-23 -117q39 28 104 70q10 -20 29.5 -55t26.5 -49l-125 -74q75 -51 98 -70q-11 -12 -92 -108l-80 61l-18 -106h-135l22 112q-30 -20 -53 -34.5t-33.5 -20.5t-15.5 -10z" />
<glyph unicode="+" horiz-adv-x="835" d="M12 711l35 198h289l51 285h199l-51 -285h286l-35 -198h-286l-51 -289h-199l51 289h-289z" />
<glyph unicode="," horiz-adv-x="333" d="M45 -119l59 348h197l-35 -206z" />
<glyph unicode="-" horiz-adv-x="831" d="M98 711l35 198h596l-35 -198h-596z" />
<glyph unicode="." horiz-adv-x="393" d="M74 0l39 229h196l-39 -229h-196z" />
<glyph unicode="/" horiz-adv-x="856" d="M-139 -27l930 1725h202l-934 -1725h-198z" />
<glyph unicode="0" horiz-adv-x="1030" d="M23 381l157 893q20 111 93.5 203t177 144t213.5 52q167 0 269.5 -115.5t72.5 -283.5l-158 -893q-20 -111 -93 -203t-176 -144t-212 -52q-110 0 -195.5 52t-126.5 144t-22 203zM229 453l539 970q-24 26 -61 42t-76 16q-88 0 -164.5 -60.5t-91.5 -146.5zM295 203 q50 -29 104 -29q88 0 162.5 60t89.5 147l119 676z" />
<glyph unicode="1" horiz-adv-x="567" d="M145 1300l35 197h68q33 0 47.5 0.5t44.5 4t45 10.5t30 22t19 37l19 102h196l-297 -1673h-196l231 1311q-27 -6 -61.5 -9t-58 -3t-65.5 0.5t-57 0.5z" />
<glyph unicode="2" horiz-adv-x="933" d="M-63 0l26 145q17 101 39.5 172t63 139.5t103 125t155.5 110.5q54 30 85 49t72.5 46t65 50t48.5 52.5t39 62.5t21 72l50 305q9 62 -30 106t-100 44q-62 0 -117 -45t-65 -105l-47 -264h-196l47 264q16 94 79 174t152 125t182 45q144 0 230 -102.5t61 -241.5 q-24 -139 -36.5 -213t-14.5 -86q-11 -63 -31 -117.5t-51.5 -98t-60.5 -76t-74.5 -65.5t-75 -51.5t-80.5 -48.5q-62 -35 -113.5 -74.5t-96.5 -87.5t-69 -103.5t-22 -112.5h557l-35 -195h-761z" />
<glyph unicode="3" horiz-adv-x="913" d="M6 334l45 260h201l-45 -260q-12 -65 29.5 -107.5t105.5 -42.5q67 0 121.5 43t66.5 107l48 266q8 49 -10 82t-55 47.5t-75 19.5t-82 3h-98l33 194h96q31 0 49.5 0.5t53.5 3.5t58 10.5t48.5 19.5t40.5 32.5t20 48.5l48 266q12 64 -28.5 107t-107.5 43q-66 0 -121 -43 t-67 -107l-45 -262h-201l45 262q26 145 152.5 245.5t271.5 100.5q147 0 236 -99.5t63 -246.5l-47 -266q-6 -37 -16.5 -64.5t-33 -55t-38.5 -42.5t-57 -51q90 -96 65 -248l-47 -266q-26 -147 -150.5 -246.5t-271.5 -99.5q-145 0 -235 100.5t-66 245.5z" />
<glyph unicode="4" horiz-adv-x="929" d="M-51 301l28 158l758 1214h183l-209 -1175h114l-35 -197h-114l-53 -301h-197l53 301h-528zM211 498h301l119 665q-48 -76 -190.5 -301t-229.5 -364z" />
<glyph unicode="5" horiz-adv-x="1011" d="M16 395l21 113h194l-20 -113q-15 -87 38.5 -150t141.5 -63t161.5 62.5t88.5 150.5l59 330q15 88 -36.5 151.5t-139.5 63.5q-84 0 -160 -71.5t-102 -174.5h-192l172 979h821l-35 -196h-627l-69 -400q102 58 227 58q170 0 268.5 -120t69.5 -290l-59 -330 q-19 -112 -90.5 -206t-175.5 -148.5t-216 -54.5q-172 0 -270.5 118.5t-69.5 290.5z" />
<glyph unicode="6" horiz-adv-x="1024" d="M18 381l158 893q20 111 93.5 203t177 144t212.5 52q167 0 271 -116t74 -283l-17 -94h-196l16 94q15 88 -38 147.5t-142 59.5q-90 0 -163.5 -59t-88.5 -148l-41 -232q107 58 225 58q166 0 269.5 -117.5t74.5 -282.5l-57 -319q-20 -111 -94 -203t-177.5 -144t-212.5 -52 q-81 0 -151.5 31t-117.5 83.5t-68 127t-7 157.5zM217 381q-15 -90 37 -148.5t141 -58.5t164 59.5t90 147.5l58 319q15 87 -39.5 146t-143.5 59t-162 -58.5t-88 -146.5z" />
<glyph unicode="7" horiz-adv-x="841" d="M-10 0l708 1477h-540l35 196h751l-33 -176l-718 -1497h-203z" />
<glyph unicode="8" horiz-adv-x="1019" d="M10 350l35 199q33 177 201 299q-60 56 -85.5 132.5t-8.5 166.5l22 133q20 110 93.5 201t177 141.5t212.5 50.5q168 0 270 -112.5t72 -280.5l-22 -133q-17 -89 -69 -166.5t-130 -132.5q60 -55 84.5 -132.5t7.5 -166.5l-34 -199q-27 -154 -159.5 -259t-287.5 -105h-59 q-155 0 -250.5 105t-69.5 259zM207 350q-12 -73 34.5 -123.5t120.5 -50.5h60q74 0 139.5 51t77.5 123l35 199q15 86 -37.5 143.5t-140.5 57.5q-89 0 -164 -57.5t-90 -143.5zM348 1147q-15 -86 39.5 -143.5t142.5 -57.5t161.5 57.5t88.5 143.5l23 133q15 85 -38.5 144 t-139.5 59q-88 0 -163.5 -59t-90.5 -144z" />
<glyph unicode="9" horiz-adv-x="1021" d="M16 381l17 94h196l-16 -94q-15 -88 38 -147.5t142 -59.5q90 0 163.5 59t88.5 148l41 231q-105 -57 -225 -57q-166 0 -269.5 117t-74.5 282l57 320q20 111 93.5 203t177 144t212.5 52q167 0 270.5 -116t73.5 -283l-157 -893q-20 -111 -94 -203t-177.5 -144t-212.5 -52 q-81 0 -151.5 31t-117.5 83.5t-68 127t-7 157.5zM313 954q-15 -86 39.5 -145t143.5 -59t161.5 58t87.5 146l58 320q15 90 -37 148.5t-141 58.5t-164 -59.5t-90 -147.5z" />
<glyph unicode=":" horiz-adv-x="346" d="M0 0l41 229h197l-41 -229h-197zM109 614l41 230h196l-41 -230h-196z" />
<glyph unicode=";" horiz-adv-x="346" d="M-8 -119l59 348h197l-37 -206zM119 614l41 230h196l-41 -230h-196z" />
<glyph unicode="&#x3c;" horiz-adv-x="876" d="M35 729l31 166l825 291l-37 -205l-524 -170q362 -129 465 -168l-37 -205z" />
<glyph unicode="=" horiz-adv-x="800" d="M43 555l35 199h631l-35 -199h-631zM96 864l35 199h631l-35 -199h-631z" />
<glyph unicode="&#x3e;" horiz-adv-x="876" d="M-14 438l34 205q90 29 272.5 87.5t250.5 80.5l-463 170l37 205l723 -291l-31 -166z" />
<glyph unicode="?" horiz-adv-x="792" d="M20 0l35 197h197l-35 -197h-197zM82 336l18 104q14 76 67 154.5t120.5 142.5t134.5 124t117 120.5t59 110.5l39 225q11 65 -26.5 112.5t-100.5 47.5q-66 0 -122 -47t-66 -113l-31 -168h-197l31 168q26 148 149 252t271 104q146 0 231.5 -104t59.5 -252l-37 -207 q-12 -66 -43 -124.5t-72.5 -102t-89 -83.5t-95.5 -79t-88.5 -79t-71 -92t-40.5 -110l-18 -104h-199z" />
<glyph unicode="@" horiz-adv-x="1368" d="M-14 463l69 405q24 137 98.5 260.5t179 213t237 142t268.5 52.5h256q113 0 198.5 -55t123.5 -149.5t18 -207.5l-78 -442q-14 -80 -49.5 -155t-89 -138t-130 -101t-163.5 -38q-64 0 -103 10q-59 -38 -128.5 -63t-121.5 -25q-135 0 -210 91t-52 226q8 45 20 90.5 t30.5 107.5t25.5 89q39 137 160.5 235.5t257.5 98.5h180q63 0 99 -44.5t28 -107.5l-141 -518q78 14 129.5 84t66.5 158l78 442q15 90 -39 156t-143 66h-256q-127 0 -248 -65t-205 -175t-106 -238l-72 -405q-23 -128 22 -237t143.5 -172.5t225.5 -63.5h158q117 0 338 176 l-47 -266q-180 -101 -324 -101h-158q-136 0 -250 52t-187 140.5t-103 211.5t-6 260zM500 489q-9 -54 21 -90.5t83 -36.5q71 0 125.5 47.5t77.5 118.5l108 396l-147 -4q-62 0 -120 -46t-75 -108z" />
<glyph unicode="A" horiz-adv-x="952" d="M-106 0l632 1673h183l53 -1673h-203l-22 414h-277l-166 -414h-200zM332 612h203l-15 504q-33 -85 -93.5 -250.5t-94.5 -253.5z" />
<glyph unicode="B" horiz-adv-x="974" d="M-53 0l295 1673h379q155 0 246 -110q70 -84 69 -195q0 -34 -6 -70l-37 -211q-26 -145 -150 -256q68 -57 96 -143q17 -54 17 -112q0 -35 -6 -72l-19 -98q-29 -170 -169.5 -288t-309.5 -118h-405zM176 197h211q87 0 160 61.5t86 147.5l18 98q3 20 3 38q0 62 -38 110 q-50 62 -137 61h-211zM303 909h182q72 0 134.5 53t74.5 125l37 211q3 18 3 34q0 52 -32 92q-44 54 -116 53h-183z" />
<glyph unicode="C" horiz-adv-x="983" d="M18 342l170 975q26 146 169.5 251t312.5 105q157 0 248 -104q71 -81 71 -188q0 -31 -6 -64l-18 -111h-199l18 111q3 14 3 26q1 48 -35 86q-44 48 -117 48q-88 0 -162 -48t-86 -112l-170 -975q-2 -11 -2 -22q-1 -51 47 -90q58 -48 146 -48q72 0 133 47.5t73 112.5l21 119 h199l-21 -119q-26 -148 -154.5 -252t-285.5 -104q-110 0 -197 48q-88 48 -131 130q-31 60 -31 127q0 25 4 51z" />
<glyph unicode="D" horiz-adv-x="897" d="M-51 0l295 1673h356q69 0 129.5 -25.5t101.5 -69.5t59 -108q10 -37 11 -77q0 -28 -6 -58l-174 -997q-26 -143 -150.5 -240.5t-267.5 -97.5h-354zM178 193h160q63 0 117.5 41.5t66.5 103.5l174 997q3 14 3 28q0 44 -31 76q-40 42 -103 42h-159z" />
<glyph unicode="E" horiz-adv-x="796" d="M-51 0l295 1673h643l-35 -196h-446l-101 -566h391l-34 -196h-392l-92 -518h447l-35 -197h-641z" />
<glyph unicode="F" horiz-adv-x="751" d="M-49 0l295 1673h643l-35 -196h-446l-101 -566h391l-34 -196h-392l-127 -715h-194z" />
<glyph unicode="G" horiz-adv-x="1001" d="M14 324l176 997q26 145 168.5 248.5t311.5 103.5q155 0 248 -103q73 -80 73 -187q0 -30 -6 -62l-43 -242h-197l43 242q2 11 2 22q0 49 -38 87q-45 47 -117 47q-88 0 -162 -46.5t-84 -109.5l-176 -997q-1 -9 -1 -18q0 -50 49 -86q58 -42 145 -42q71 0 133.5 42.5 t72.5 103.5l70 397h-209l35 194h405l-104 -591q-26 -142 -155.5 -240t-280.5 -98q-166 0 -275 98q-88 80 -88 190q0 24 4 50z" />
<glyph unicode="H" horiz-adv-x="921" d="M-49 0l295 1673h198l-135 -762h326l135 762h199l-297 -1673h-199l127 715h-326l-127 -715h-196z" />
<glyph unicode="I" horiz-adv-x="405" d="M-47 0l295 1673h196l-297 -1673h-194z" />
<glyph unicode="J" horiz-adv-x="595" d="M-133 0l33 184h18q137 0 205 28q72 31 84 101l242 1360h196l-242 -1360q-18 -104 -79 -176t-144.5 -104.5t-183.5 -32.5h-129z" />
<glyph unicode="K" horiz-adv-x="1028" d="M-45 0l295 1673h196l-100 -565q47 52 160.5 176.5t197.5 216t160 172.5h246l-596 -649l258 -1024h-211l-219 840l-55 -62l-137 -778h-195z" />
<glyph unicode="L" horiz-adv-x="698" d="M-45 0l295 1673h196l-262 -1476h351l-35 -197h-545z" />
<glyph unicode="M" horiz-adv-x="1241" d="M-45 0l295 1673h213l90 -1267l543 1267h188l-297 -1673h-199l162 911l-381 -911h-176l-80 920l-163 -920h-195z" />
<glyph unicode="N" horiz-adv-x="980" d="M-43 0l295 1673h213l170 -1069l190 1069h197l-297 -1673h-182l-197 1102l-194 -1102h-195z" />
<glyph unicode="O" d="M4 326l178 1009q26 142 166 240t305 98q167 0 273 -98q85 -79 86 -186q0 -26 -6 -54l-179 -1009q-17 -94 -88 -172.5t-172.5 -122t-210.5 -43.5q-164 0 -270 98q-86 80 -86 189q0 25 4 51zM201 326q-2 -9 -1 -18q0 -50 48 -86q56 -42 143 -42q88 0 159 42t81 104 l178 1009q2 9 2 18q-1 50 -49 86q-56 42 -144 42q-87 0 -158 -42t-81 -104z" />
<glyph unicode="P" horiz-adv-x="841" d="M-41 0l295 1673h356q147 -1 233 -105q66 -80 66 -185q0 -32 -6 -66l-45 -250q-26 -148 -148 -251t-270 -103h-157l-127 -713h-197zM317 909h158q65 0 119.5 47t64.5 111l46 250q2 14 2 28q1 49 -29 85q-38 48 -103 47h-157z" />
<glyph unicode="Q" horiz-adv-x="995" d="M8 324l176 1009q17 95 88.5 173.5t173.5 121.5t211 43q170 0 273 -97q83 -78 83 -185q0 -27 -5 -56l-177 -1009q-35 -194 -251 -281l12 -231h-199l-12 176h-21q-167 0 -272 96q-84 78 -84 188q0 25 4 52zM205 324q-2 -10 -2 -19q0 -45 41 -80q50 -42 125 -47l-17 203h203 l10 -141q25 18 45.5 42t24.5 42l176 1009q2 10 2 20q0 47 -47 83q-58 43 -143 43q-84 0 -157 -42.5t-85 -103.5z" />
<glyph unicode="R" horiz-adv-x="929" d="M-41 0l295 1673h356q148 0 234 -104q67 -80 67 -186q0 -32 -6 -66l-45 -250q-12 -67 -52 -133t-97 -117q49 -49 67 -121q11 -43 10 -89q0 -29 -4 -60l-98 -547h-199l99 547q2 15 2 28q0 50 -31 89q-40 49 -106 49h-168l-127 -713h-197zM317 909h166q62 0 113.5 47 t62.5 111l46 250q2 15 2 29q-1 48 -29 84q-38 47 -103 47h-157z" />
<glyph unicode="S" horiz-adv-x="923" d="M0 348l29 162h196l-28 -162q-3 -14 -2 -27q0 -47 35 -85q45 -48 118 -48t133 47.5t72 112.5l41 240q2 13 2 25q0 46 -36 79q-46 41 -120 41q-99 0 -176 43q-78 44 -116 122q-26 54 -26 116q0 28 5 57l43 246q26 148 154.5 252t285.5 104q158 0 248 -104q70 -81 70 -188 q0 -31 -6 -64l-29 -168h-197l29 168q3 14 3 27q0 49 -36 86q-45 47 -117 47q-74 0 -134 -47.5t-72 -112.5l-43 -246q-2 -11 -2 -22q0 -47 37 -79q45 -39 122 -44q94 -7 170 -49q77 -42 117 -118q29 -54 28 -116q0 -26 -5 -55l-41 -240q-26 -147 -155.5 -251.5t-283.5 -104.5 q-156 0 -247 104q-71 82 -71 190q0 30 5 62z" />
<glyph unicode="T" horiz-adv-x="882" d="M190 1477l35 196h725l-35 -196h-262l-262 -1477h-196l262 1477h-267z" />
<glyph unicode="U" horiz-adv-x="956" d="M16 340l236 1333h197l-236 -1333q-2 -12 -2 -23q0 -47 35 -85q43 -46 114 -46t132 45.5t71 108.5l236 1333h198l-235 -1333q-25 -144 -153.5 -247t-282.5 -103q-152 0 -242 102q-72 82 -73 191q0 28 5 57z" />
<glyph unicode="V" horiz-adv-x="972" d="M201 1673h200l17 -1241l448 1241h201l-598 -1673h-258z" />
<glyph unicode="W" horiz-adv-x="1378" d="M174 0l49 1673h201l-27 -1011l334 1011h211l-27 -1011l334 1011h201l-545 -1673h-211l25 1014l-334 -1014h-211z" />
<glyph unicode="X" horiz-adv-x="1142" d="M-57 0l516 811q-39 149 -116 454.5t-103 407.5h215l155 -610q71 118 209 343t164 267h215q-401 -667 -524 -860l229 -813h-213l-168 567q-66 -108 -189.5 -293t-178.5 -274h-211z" />
<glyph unicode="Y" horiz-adv-x="1036" d="M186 1673h215l158 -600q102 168 371 600h215l-535 -866l-143 -807h-197l144 807q-42 160 -131.5 500t-96.5 366z" />
<glyph unicode="Z" horiz-adv-x="1019" d="M-63 0l28 158l842 1319h-610l34 196h850l-28 -157l-848 -1319h614l-35 -197h-847z" />
<glyph unicode="[" horiz-adv-x="608" d="M-94 -203l360 2048h436l-34 -198h-238l-293 -1651h238l-35 -199h-434z" />
<glyph unicode="\" horiz-adv-x="856" d="M164 1698h203l321 -1725h-201z" />
<glyph unicode="]" horiz-adv-x="608" d="M-94 -203l35 199h235l293 1651h-238l35 198h436l-362 -2048h-434z" />
<glyph unicode="^" horiz-adv-x="888" d="M12 1280l404 401h135l250 -401h-221l-131 209l-220 -209h-217z" />
<glyph unicode="_" horiz-adv-x="1181" d="M104 -143l23 123h946l-22 -123h-947z" />
<glyph unicode="`" horiz-adv-x="491" d="M61 1673h263l77 -291h-200z" />
<glyph unicode="a" horiz-adv-x="970" d="M-96 0l633 1673h182l53 -1673h-242l-10 250h-280l-97 -250h-239zM293 449h244l-7 667q-42 -115 -119.5 -335.5t-117.5 -331.5z" />
<glyph unicode="b" horiz-adv-x="1015" d="M-53 0l295 1673h379q155 0 246 -110q70 -84 69 -195q0 -34 -6 -70l-37 -211q-26 -145 -150 -256q68 -57 96 -143q17 -54 17 -112q0 -35 -6 -72l-19 -98q-29 -170 -169.5 -288t-309.5 -118h-405zM176 197h211q87 0 160 61.5t86 147.5l18 98q3 20 3 38q0 62 -38 110 q-50 62 -137 61h-211zM303 909h182q72 0 134.5 53t74.5 125l37 211q3 18 3 34q0 52 -32 92q-44 54 -116 53h-183z" />
<glyph unicode="c" horiz-adv-x="983" d="M18 342l170 975q26 146 169.5 251t312.5 105q157 0 248 -104q71 -81 71 -188q0 -31 -6 -64l-18 -111h-199l18 111q3 14 3 26q1 48 -35 86q-44 48 -117 48q-88 0 -162 -48t-86 -112l-170 -975q-2 -11 -2 -22q-1 -51 47 -90q58 -48 146 -48q72 0 133 47.5t73 112.5l21 119 h199l-21 -119q-26 -148 -154.5 -252t-285.5 -104q-110 0 -197 48q-88 48 -131 130q-31 60 -31 127q0 25 4 51z" />
<glyph unicode="d" horiz-adv-x="897" d="M-51 0l295 1673h356q69 0 129.5 -25.5t101.5 -69.5t59 -108q10 -37 11 -77q0 -28 -6 -58l-174 -997q-26 -143 -150.5 -240.5t-267.5 -97.5h-354zM178 193h160q63 0 117.5 41.5t66.5 103.5l174 997q3 14 3 28q0 44 -31 76q-40 42 -103 42h-159z" />
<glyph unicode="e" horiz-adv-x="827" d="M-31 0l295 1673h643l-35 -196h-446l-72 -402h391l-34 -196h-392l-120 -682h446l-35 -197h-641z" />
<glyph unicode="f" horiz-adv-x="772" d="M-31 0l295 1673h643l-35 -196h-446l-129 -729h391l-35 -197h-391l-98 -551h-195z" />
<glyph unicode="g" horiz-adv-x="1001" d="M14 324l176 997q26 145 168.5 248.5t311.5 103.5q155 0 248 -103q73 -80 73 -187q0 -30 -6 -62l-43 -242h-197l43 242q2 11 2 22q0 49 -38 87q-45 47 -117 47q-88 0 -162 -46.5t-84 -109.5l-176 -997q-1 -9 -1 -18q0 -50 49 -86q58 -42 145 -42q71 0 133.5 42.5 t72.5 103.5l41 233h-209l35 195h406l-76 -428q-26 -142 -155.5 -240t-280.5 -98q-166 0 -275 98q-88 80 -88 190q0 24 4 50z" />
<glyph unicode="h" horiz-adv-x="921" d="M-49 0l295 1673h198l-135 -762h326l135 762h199l-297 -1673h-199l127 715h-326l-127 -715h-196z" />
<glyph unicode="i" horiz-adv-x="405" d="M-47 0l295 1673h196l-297 -1673h-194z" />
<glyph unicode="j" horiz-adv-x="595" d="M-133 0l33 184h18q137 0 205 28q72 31 84 101l242 1360h196l-242 -1360q-18 -104 -79 -176t-144.5 -104.5t-183.5 -32.5h-129z" />
<glyph unicode="k" horiz-adv-x="1028" d="M-45 0l295 1673h196l-100 -565q47 52 160.5 176.5t197.5 216t160 172.5h246l-596 -649l258 -1024h-211l-219 840l-55 -62l-137 -778h-195z" />
<glyph unicode="l" horiz-adv-x="698" d="M-45 0l295 1673h196l-262 -1476h351l-35 -197h-545z" />
<glyph unicode="m" horiz-adv-x="1241" d="M-45 0l295 1673h213l90 -1267l543 1267h188l-297 -1673h-199l162 911l-381 -911h-176l-80 920l-163 -920h-195z" />
<glyph unicode="n" horiz-adv-x="980" d="M-43 0l295 1673h213l170 -1069l190 1069h197l-297 -1673h-182l-197 1102l-194 -1102h-195z" />
<glyph unicode="o" d="M4 326l178 1009q26 142 166 240t305 98q167 0 273 -98q85 -79 86 -186q0 -26 -6 -54l-179 -1009q-17 -94 -88 -172.5t-172.5 -122t-210.5 -43.5q-164 0 -270 98q-86 80 -86 189q0 25 4 51zM201 326q-2 -9 -1 -18q0 -50 48 -86q56 -42 143 -42q88 0 159 42t81 104 l178 1009q2 9 2 18q-1 50 -49 86q-56 42 -144 42q-87 0 -158 -42t-81 -104z" />
<glyph unicode="p" horiz-adv-x="866" d="M-31 0l295 1673h357q147 0 233 -105q65 -80 65 -185q0 -32 -6 -66l-73 -414q-26 -148 -148 -251t-270 -103h-158l-98 -549h-197zM299 745h158q65 0 119.5 47t64.5 111l74 414q2 15 2 28q0 48 -29 85q-38 47 -102 47h-158z" />
<glyph unicode="q" horiz-adv-x="995" d="M8 324l176 1009q17 95 88.5 173.5t173.5 121.5t211 43q170 0 273 -97q83 -78 83 -185q0 -27 -5 -56l-177 -1009q-35 -194 -251 -281l12 -231h-199l-12 176h-21q-167 0 -272 96q-84 78 -84 188q0 25 4 52zM205 324q-2 -10 -2 -19q0 -45 41 -80q50 -42 125 -47l-17 203h203 l10 -141q25 18 45.5 42t24.5 42l176 1009q2 10 2 20q0 47 -47 83q-58 43 -143 43q-84 0 -157 -42.5t-85 -103.5z" />
<glyph unicode="r" horiz-adv-x="950" d="M-31 0l295 1673h357q148 0 234 -104q66 -80 66 -186q0 -32 -6 -66l-73 -414q-12 -67 -52.5 -133t-97.5 -117q50 -52 68 -123q11 -40 10 -82q0 -32 -6 -65l-68 -383h-198l67 383q3 16 3 30q0 49 -30 87q-40 50 -106 49h-168l-98 -549h-197zM299 745h166q62 0 113.5 47 t62.5 111l74 414q2 15 2 29q-1 48 -29 84q-38 46 -102 47h-158z" />
<glyph unicode="s" horiz-adv-x="923" d="M0 348l29 162h196l-28 -162q-3 -14 -2 -27q0 -47 35 -85q45 -48 118 -48t133 47.5t72 112.5l41 240q2 13 2 25q0 46 -36 79q-46 41 -120 41q-99 0 -176 43q-78 44 -116 122q-26 54 -26 116q0 28 5 57l43 246q26 148 154.5 252t285.5 104q158 0 248 -104q70 -81 70 -188 q0 -31 -6 -64l-29 -168h-197l29 168q3 14 3 27q0 49 -36 86q-45 47 -117 47q-74 0 -134 -47.5t-72 -112.5l-43 -246q-2 -11 -2 -22q0 -47 37 -79q45 -39 122 -44q94 -7 170 -49q77 -42 117 -118q29 -54 28 -116q0 -26 -5 -55l-41 -240q-26 -147 -155.5 -251.5t-283.5 -104.5 q-156 0 -247 104q-71 82 -71 190q0 30 5 62z" />
<glyph unicode="t" horiz-adv-x="882" d="M190 1477l35 196h725l-35 -196h-262l-262 -1477h-196l262 1477h-267z" />
<glyph unicode="u" horiz-adv-x="956" d="M16 340l236 1333h197l-236 -1333q-2 -12 -2 -23q0 -47 35 -85q43 -46 114 -46t132 45.5t71 108.5l236 1333h198l-235 -1333q-25 -144 -153.5 -247t-282.5 -103q-152 0 -242 102q-72 82 -73 191q0 28 5 57z" />
<glyph unicode="v" horiz-adv-x="972" d="M201 1673h200l17 -1241l448 1241h201l-598 -1673h-258z" />
<glyph unicode="w" horiz-adv-x="1378" d="M174 0l49 1673h201l-27 -1011l334 1011h211l-27 -1011l334 1011h201l-545 -1673h-211l25 1014l-334 -1014h-211z" />
<glyph unicode="x" horiz-adv-x="1142" d="M-57 0l516 811q-39 149 -116 454.5t-103 407.5h215l155 -610q71 118 209 343t164 267h215q-401 -667 -524 -860l229 -813h-213l-168 567q-66 -108 -189.5 -293t-178.5 -274h-211z" />
<glyph unicode="y" horiz-adv-x="1036" d="M186 1673h215l158 -600q102 168 371 600h215l-535 -866l-143 -807h-197l144 807q-42 160 -131.5 500t-96.5 366z" />
<glyph unicode="z" horiz-adv-x="1019" d="M-63 0l28 158l842 1319h-610l34 196h850l-28 -157l-848 -1319h614l-35 -197h-847z" />
<glyph unicode="{" horiz-adv-x="634" d="M39 756l33 184q77 0 114.5 20t44.5 68l80 455q26 149 54 211q62 136 219 151q21 2 45 2h133l-33 -184h-70q-29 0 -43 -0.5t-33.5 -5t-29.5 -13t-19 -25.5t-14 -42q-21 -126 -50.5 -306t-43.5 -259q-21 -113 -80 -164q26 -29 30 -70t-7 -94l-111 -621q-3 -18 -3 -31 t1.5 -22t8.5 -14.5t12 -9t19 -5t22.5 -1.5h28.5h7h78l-31 -177q-81 -6 -135 -6q-121 0 -175 63.5t-34 182.5l111 625q9 48 -21.5 68t-107.5 20z" />
<glyph unicode="|" horiz-adv-x="346" d="M-111 -184l353 2007h196l-354 -2007h-195z" />
<glyph unicode="}" horiz-adv-x="634" d="M-127 -197l31 177h78h7q26 0 38 0.5t28 4.5t23.5 13t14.5 24.5t11 40.5l111 621q10 62 26.5 98.5t53.5 65.5q-45 50 -23 164q20 115 54.5 301.5t48.5 263.5q3 16 3.5 28.5t-3 21.5t-7 15t-13 10t-16 6.5t-21 3.5t-23 1h-27.5h-69l32 184h134q62 0 105 -13t64.5 -43 t32.5 -58t8 -78t-7.5 -81.5t-16.5 -90.5l-80 -455q-7 -49 23.5 -68.5t107.5 -19.5l-33 -184q-77 0 -114.5 -20t-46.5 -68l-111 -625q-20 -119 -97 -182.5t-198 -63.5q-48 0 -129 6z" />
<glyph unicode="~" horiz-adv-x="825" d="M12 791q93 79 158 116t139 37q48 0 123.5 -37t118.5 -37t151 93l109 -134q-92 -81 -156 -119t-139 -38q-51 2 -129.5 37.5t-112.5 35.5q-48 0 -157 -94z" />
<glyph unicode="&#xa1;" horiz-adv-x="376" d="M-66 -410l244 1340h197l-230 -1340h-211zM203 1067l35 197h196l-35 -197h-196z" />
<glyph unicode="&#xa2;" horiz-adv-x="749" d="M-41 168l115 217q-32 48 -46.5 109.5t-4.5 119.5l69 387q25 139 140 237.5t253 98.5q59 0 99 -12q2 4 5.5 10.5t14 27.5t27.5 52h168l-92 -170q24 -27 38 -57.5t19.5 -56.5t3 -67.5t-6 -69.5t-13.5 -83h-158l8 47q11 68 8 105l-334 -617q28 -12 56 -12q72 0 134.5 54 t74.5 126l18 99h158l-19 -99q-25 -139 -140 -237t-255 -98q-56 0 -106 16q-16 -26 -68 -127h-166zM176 580l324 594q-19 8 -41 8q-71 0 -134 -54.5t-75 -126.5q-74 -410 -74 -421z" />
<glyph unicode="&#xa3;" horiz-adv-x="831" d="M-88 90q59 53 84 68l100 590h-90l35 198h90l66 361q25 147 147.5 251.5t269.5 104.5q148 0 234 -104t61 -252l-20 -111h-199l21 111q11 65 -28 112t-103 47q-63 0 -118.5 -48t-66.5 -111l-65 -361h340l-35 -198h-340l-90 -519q45 9 85.5 0t65.5 -23.5t55 -28t56 -13.5 q25 0 47 12.5t68 50.5l114 -137q-89 -71 -137.5 -95t-124.5 -24q-51 0 -133.5 37t-128.5 37q-49 0 -158 -94z" />
<glyph unicode="&#xa4;" horiz-adv-x="829" d="M-72 418l187 241q-42 93 -23 199q8 50 33 103.5t61 95.5q-1 4 -6.5 16.5t-31 71.5t-64.5 153h209l55 -129q71 23 123 23q61 0 113 -27l102 133h215l-192 -243q44 -86 26 -197q-19 -110 -96 -199q76 -166 109 -241h-211l-58 127q-65 -21 -125 -21q-64 0 -114 21l-103 -127 h-209zM276 858q-11 -59 20.5 -105t88.5 -46t106 46t60 105q9 57 -23.5 103.5t-89.5 46.5t-105 -46.5t-57 -103.5z" />
<glyph unicode="&#xa5;" horiz-adv-x="1036" d="M129 428l35 199h217l20 110h-217l35 199h160l-193 737h215l158 -600q182 296 371 600h215l-457 -737h162l-35 -199h-217l-20 -110h217l-35 -199h-217l-76 -428h-197l76 428h-217z" />
<glyph unicode="&#xa6;" horiz-adv-x="395" d="M-78 -184l137 790h197l-139 -790h-195zM135 1032l139 791h197l-139 -791h-197z" />
<glyph unicode="&#xa7;" horiz-adv-x="755" d="M-53 150l22 137h185l-23 -137q-9 -45 28.5 -75t90.5 -30q50 0 97 30t56 75l35 202q8 46 -31 72.5t-92 26.5q-145 0 -218.5 82.5t-47.5 226.5q25 177 135 268q-70 77 -53 186l37 207q15 83 75 149.5t140 101t160 34.5q124 0 209 -80t63 -205l-24 -143h-187l25 143 q9 48 -28.5 78.5t-90.5 30.5q-52 0 -99.5 -31t-56.5 -78l-37 -207q-7 -44 31 -70t90 -26q75 0 142.5 -33t107.5 -98t25 -145l-19 -105q-20 -116 -129 -198q82 -75 62 -187l-35 -202q-22 -120 -137.5 -200.5t-237.5 -80.5q-123 0 -207.5 80t-62.5 201zM231 723 q-7 -39 33.5 -67.5t87.5 -28.5q53 0 99 30.5t55 79.5l18 105q8 44 -30 73t-88 29q-53 0 -100 -32t-56 -81z" />
<glyph unicode="&#xa8;" horiz-adv-x="624" d="M102 1489l31 182h156l-31 -182h-156zM334 1489l31 182h155l-31 -182h-155z" />
<glyph unicode="&#xa9;" horiz-adv-x="1773" d="M59 807q29 168 121.5 321.5t223 264t295.5 176t333 65.5t310 -65.5t233 -176t129.5 -264t9.5 -321.5q-30 -168 -123 -321.5t-223.5 -264t-295.5 -176t-333 -65.5t-309.5 65.5t-232.5 176t-129 264t-9 321.5zM180 807q-34 -191 32 -354t212.5 -258t337.5 -95t370.5 95 t303 258t157.5 354q25 143 -8 274t-111.5 225.5t-199.5 150.5t-264 56t-283.5 -56t-252 -150.5t-190.5 -225.5t-104 -274zM481 621q-23 -137 72.5 -236.5t247.5 -99.5q138 0 254 99t139 237l18 98h-157l-19 -98q-12 -74 -74 -127.5t-135 -53.5q-89 0 -144.5 53.5 t-43.5 127.5l63 360q13 73 88 126.5t164 53.5q73 0 116.5 -53t29.5 -127l-15 -90h158l14 90q25 138 -56.5 237t-219.5 99q-152 0 -281.5 -99.5t-154.5 -236.5z" />
<glyph unicode="&#xab;" horiz-adv-x="989" d="M68 672l22 133l508 467l-43 -246l-299 -289q29 -42 97.5 -140t101.5 -146l-43 -246zM471 672l23 133l507 467l-43 -246l-299 -289q29 -42 97.5 -140t101.5 -146l-43 -246z" />
<glyph unicode="&#xac;" horiz-adv-x="964" d="M90 711l35 198h774l-63 -370h-199l29 172h-576z" />
<glyph unicode="&#xad;" horiz-adv-x="831" d="M98 711l35 198h596l-35 -198h-596z" />
<glyph unicode="&#xae;" horiz-adv-x="1773" d="M59 807q29 168 121.5 321.5t223 264t295.5 176t333 65.5t310 -65.5t233 -176t129.5 -264t9.5 -321.5q-30 -168 -123 -321.5t-223.5 -264t-295.5 -176t-333 -65.5t-309.5 65.5t-232.5 176t-129 264t-9 321.5zM180 807q-34 -191 32 -354t212.5 -258t337.5 -95t370.5 95 t303 258t157.5 354q25 143 -8 274t-111.5 225.5t-199.5 150.5t-264 56t-283.5 -56t-252 -150.5t-190.5 -225.5t-104 -274zM496 260h178l63 350h97q71 0 112.5 -52t28.5 -124l-31 -174h178l31 174q14 75 -6 147t-70 124q60 52 101 117.5t53 131.5l10 52q25 142 -60.5 244 t-228.5 102h-264zM768 786l68 390h86q70 0 110.5 -49.5t28.5 -120.5l-10 -52q-12 -68 -67 -118t-122 -50h-94z" />
<glyph unicode="&#xb0;" horiz-adv-x="591" d="M80 1458q17 92 89 153.5t163 61.5q89 0 141 -63t35 -152q-15 -90 -88.5 -151.5t-163.5 -61.5q-92 0 -141.5 60.5t-34.5 152.5zM195 1458q-6 -38 18.5 -68t62.5 -30q40 0 75.5 30t41.5 68q7 40 -17.5 70.5t-64.5 30.5q-38 0 -73 -30.5t-43 -70.5z" />
<glyph unicode="&#xb1;" horiz-adv-x="907" d="M-37 0l35 197h768l-35 -197h-768zM84 711l35 198h289l51 285h198l-51 -285h287l-35 -198h-287l-51 -289h-198l51 289h-289z" />
<glyph unicode="&#xb2;" horiz-adv-x="901" d="M117 610l18 105q22 118 69 193.5t152 138.5q41 23 65 38.5t51 37.5t41.5 46t18.5 52l35 206q3 28 -13.5 48t-41.5 20q-29 0 -54 -21.5t-30 -46.5l-31 -174h-153l30 174q17 92 95.5 156t169.5 64q89 0 143 -66t39 -154l-35 -202q-10 -58 -32.5 -104t-58 -79.5t-62.5 -52.5 t-72 -45q-149 -82 -162 -182h324l-27 -152h-479z" />
<glyph unicode="&#xb3;" horiz-adv-x="878" d="M145 831l29 168h154l-29 -168q-4 -30 15 -48.5t48 -18.5q30 0 55 19t29 48l27 154q7 75 -108 66h-78l26 151h109q41 2 68.5 19.5t33.5 50.5l27 153q5 28 -12.5 48t-46.5 20q-30 0 -57.5 -20.5t-31.5 -47.5l-30 -172h-154l31 172q17 94 96.5 158t171.5 64t148 -64t39 -158 l-27 -153q-15 -87 -80 -146q45 -54 29 -141l-27 -154q-17 -94 -94.5 -157.5t-169.5 -63.5q-93 0 -150.5 64t-40.5 157z" />
<glyph unicode="&#xb4;" horiz-adv-x="491" d="M31 1382l180 291h262l-242 -291h-200z" />
<glyph unicode="&#xb6;" horiz-adv-x="1138" d="M166 -295l205 1161q-106 13 -161 98t-36 199q23 126 124.5 212.5t227.5 86.5h693l-35 -196h-146l-274 -1561h-197l275 1561h-205l-275 -1561h-196z" />
<glyph unicode="&#xb7;" horiz-adv-x="393" d="M74 694l39 230h196l-39 -230h-196z" />
<glyph unicode="&#xb8;" horiz-adv-x="299" d="M0 -244l49 84q42 -22 74 -22q54 0 59 39q3 19 -8 29t-30.5 11t-40 -1t-38.5 -5q-7 -2 -10 -2l27 146h88l-12 -66q59 5 93 -22.5t23 -93.5q-11 -62 -57 -92.5t-108 -30.5q-52 0 -109 26z" />
<glyph unicode="&#xb9;" horiz-adv-x="542" d="M123 612l137 783q-15 -2 -88 -2h-49l27 153h57h7q17 0 26.5 0.5t22.5 2.5t20 7t8 13l14 80h152l-183 -1037h-151z" />
<glyph unicode="&#xbb;" horiz-adv-x="989" d="M-12 205l41 246q33 33 297 286l-197 289l43 246l344 -467l-22 -133zM389 205l43 246q33 33 297 286l-197 289l43 246l345 -467l-23 -133z" />
<glyph unicode="&#xbc;" horiz-adv-x="1353" d="M-74 -27h142l1357 1725h-145zM195 612l139 783q-16 -2 -90 -2h-49l28 153h56q65 0 79 11q6 5 7 12l14 80h151l-184 -1037h-151zM553 205l20 114l451 717h135l-121 -680h68l-27 -151h-67l-35 -205h-152l35 205h-307zM764 356h123l49 277q-52 -80 -172 -277z" />
<glyph unicode="&#xbd;" horiz-adv-x="1392" d="M-70 -27l1354 1725h146l-1358 -1725h-142zM199 612l139 783q-16 -2 -90 -2h-49l28 153h58h7q17 0 26.5 0.5t22.5 2.5t20 7t8 13l14 80h152l-185 -1037h-151zM711 0l18 104q20 117 68 193t153 139q82 47 124 84t52 90l35 207q3 28 -13.5 48t-41.5 20q-29 0 -54 -21.5 t-30 -46.5l-31 -174h-153l30 174q15 91 94 155t171 64q89 0 143 -65.5t39 -153.5l-37 -203q-10 -58 -32.5 -104t-57.5 -79t-62.5 -52.5t-72.5 -44.5q-147 -83 -160 -182h324l-27 -152h-479z" />
<glyph unicode="&#xbe;" horiz-adv-x="1411" d="M-23 -27l1354 1725h146l-1358 -1725h-142zM63 858l31 168h154l-31 -168q-3 -30 17 -48.5t49 -18.5q30 0 54 19t28 48l28 154q2 31 -16 47t-40 18t-54 0h-78l26 152h109q90 3 102 69l29 154q4 28 -14 48t-47 20q-30 0 -56 -20.5t-30 -47.5l-31 -172h-154l31 172 q17 94 96 157.5t172 63.5q92 0 148 -63.5t39 -157.5l-29 -154q-15 -85 -78 -145q42 -50 29 -141l-29 -154q-15 -93 -93 -157t-171 -64q-92 0 -149 63.5t-42 157.5zM604 205l21 114l450 717h135l-120 -680h67l-27 -151h-67l-35 -205h-151l34 205h-307zM815 356h123l49 277 q-52 -80 -172 -277z" />
<glyph unicode="&#xbf;" horiz-adv-x="792" d="M-43 -45l37 207q13 77 52.5 143.5t89.5 111.5t108.5 94t108 91t88.5 102t51 127l18 105h199l-19 -105q-14 -76 -67 -154.5t-120.5 -142.5t-134 -123.5t-116.5 -120t-59 -110.5l-39 -225q-11 -65 26.5 -113.5t100.5 -48.5q66 0 122 48t66 114l31 168h196l-30 -168 q-26 -148 -149 -252t-271 -104q-146 0 -230.5 104t-58.5 252zM539 1075l34 197h197l-35 -197h-196z" />
<glyph unicode="&#xc0;" horiz-adv-x="952" d="M-139 0l631 1673h182l55 -1673h-203l-22 414h-277l-166 -414h-200zM299 612h203l-17 504q-19 -51 -82.5 -224.5t-103.5 -279.5zM371 2052h262l78 -291h-201z" />
<glyph unicode="&#xc1;" horiz-adv-x="952" d="M-139 0l631 1673h182l55 -1673h-203l-22 414h-277l-166 -414h-200zM299 612h203l-17 504q-19 -51 -82.5 -224.5t-103.5 -279.5zM508 1763l180 291h262l-241 -291h-201z" />
<glyph unicode="&#xc2;" horiz-adv-x="952" d="M-131 0h201l166 414h276l23 -414h202l-55 1673h-182zM307 612q41 109 109 292.5t78 211.5l16 -504h-203zM391 1761l207 203h109l127 -203h-144l-59 86l-90 -86h-150z" />
<glyph unicode="&#xc3;" horiz-adv-x="952" d="M-131 0l631 1673h182l55 -1673h-202l-25 414h-277l-163 -414h-201zM307 612h203l-16 504q-115 -310 -187 -504zM362 1855q38 37 53 50.5t48 32t61 18.5q34 0 100.5 -25.5t118.5 -25.5q46 0 97 61l57 -100q-76 -88 -176 -88q-27 0 -98.5 25.5t-94.5 25.5q-19 0 -37 -8 t-28 -16t-25.5 -23.5t-21.5 -20.5z" />
<glyph unicode="&#xc4;" horiz-adv-x="952" d="M-129 0l631 1673h182l55 -1673h-202l-25 414h-276l-164 -414h-201zM309 612h203l-16 504q-115 -310 -187 -504zM420 1761l33 183h155l-33 -183h-155zM651 1761l33 183h156l-33 -183h-156z" />
<glyph unicode="&#xc5;" horiz-adv-x="952" d="M-141 0l630 1673h183l55 -1673h-203l-22 414h-277l-166 -414h-200zM297 612h203l-17 504q-19 -51 -82.5 -224.5t-103.5 -279.5zM473 1915q12 66 65 111t119 45q65 0 102 -46t25 -110q-10 -66 -63.5 -111t-118.5 -45q-68 0 -104.5 44.5t-24.5 111.5zM571 1915 q-3 -24 10.5 -40.5t36.5 -16.5q24 0 44.5 17t23.5 40q4 23 -10 40t-37 17t-43 -17t-25 -40z" />
<glyph unicode="&#xc6;" horiz-adv-x="1466" d="M-111 0l988 1673h647l-35 -196h-465q-69 -390 -98 -566h407l-35 -196h-407q-20 -116 -50 -272t-46 -246h467l-35 -197h-668l74 414h-277l-262 -414h-205zM469 612h201l90 504z" />
<glyph unicode="&#xc7;" horiz-adv-x="983" d="M41 342l170 975q17 96 89.5 178.5t177 130t214.5 47.5q157 0 248.5 -104t65.5 -252l-19 -111h-199l19 111q12 64 -33 112t-117 48q-88 0 -161.5 -47.5t-85.5 -112.5l-170 -975q-12 -64 45 -112t145 -48q72 0 133.5 47.5t73.5 112.5l20 119h199l-20 -119 q-25 -139 -143 -241t-265 -113l-4 -19q59 5 94.5 -23t22.5 -93q-10 -62 -56 -92.5t-108 -30.5q-51 0 -111 26l49 84q42 -22 74 -22q54 0 62 39q3 19 -6.5 29.5t-36 10.5t-37 -1t-39.5 -6q-6 -1 -8 -1l16 101q-148 17 -235.5 118t-63.5 234z" />
<glyph unicode="&#xc8;" horiz-adv-x="796" d="M-84 0l293 1673h643l-35 -196h-446l-99 -566h392l-35 -196h-391l-93 -518h447l-35 -197h-641zM356 2052h262l78 -291h-200z" />
<glyph unicode="&#xc9;" horiz-adv-x="796" d="M-84 0l293 1673h643l-35 -196h-446l-99 -566h392l-35 -196h-391l-93 -518h447l-35 -197h-641zM451 1761l180 291h262l-242 -291h-200z" />
<glyph unicode="&#xca;" horiz-adv-x="796" d="M-76 0h641l35 197h-446l90 518h391l35 196h-391l100 566h446l35 196h-643zM313 1761l207 203h109l127 -203h-144l-59 86l-90 -86h-150z" />
<glyph unicode="&#xcb;" horiz-adv-x="796" d="M-74 0l293 1673h643l-35 -196h-446l-100 -566h391l-35 -196h-391l-90 -518h446l-35 -197h-641zM360 1761l33 183h156l-33 -183h-156zM592 1761l33 183h155l-32 -183h-156z" />
<glyph unicode="&#xcc;" horiz-adv-x="405" d="M-80 0l293 1673h197l-295 -1673h-195zM86 2052h262l78 -291h-201z" />
<glyph unicode="&#xcd;" horiz-adv-x="405" d="M-80 0l293 1673h197l-295 -1673h-195zM231 1761l181 291h262l-242 -291h-201z" />
<glyph unicode="&#xce;" horiz-adv-x="405" d="M-72 0h195l295 1673h-197zM119 1763l207 203h108l127 -203h-143l-60 86l-90 -86h-149z" />
<glyph unicode="&#xcf;" horiz-adv-x="405" d="M-70 0l293 1673h197l-295 -1673h-195zM150 1763l30 183h156l-31 -183h-155zM381 1763l31 183h155l-30 -183h-156z" />
<glyph unicode="&#xd0;" horiz-adv-x="985" d="M31 711l35 198h131l135 764h356q69 0 129.5 -25.5t101.5 -70t59 -108t5 -134.5l-174 -997q-26 -143 -150.5 -240.5t-267.5 -97.5h-356l127 711h-131zM266 193h160q63 0 117.5 41.5t66.5 103.5l174 997q12 62 -28 104t-103 42h-159l-101 -572h209l-35 -198h-209z" />
<glyph unicode="&#xd1;" horiz-adv-x="980" d="M-68 0l293 1673h213l172 -1069l189 1069h196l-295 -1673h-182l-196 1102l-195 -1102h-195zM377 1858q37 35 53 49.5t48.5 32.5t60.5 18q34 0 100.5 -25.5t118.5 -25.5q45 0 96 61l59 -100q-79 -88 -178 -88q-27 0 -98 25.5t-94 25.5q-19 0 -37.5 -8t-28 -16t-26 -23.5 t-21.5 -20.5z" />
<glyph unicode="&#xd2;" d="M-27 326l177 1009q16 94 88 172.5t174 122t209 43.5q167 0 271.5 -97.5t80.5 -240.5l-178 -1009q-17 -94 -88 -172.5t-172.5 -122t-210.5 -43.5q-107 0 -193.5 43.5t-130.5 122t-27 172.5zM168 326q-12 -62 44.5 -104t143.5 -42q88 0 159 42t83 104l178 1009 q10 62 -46 104t-144 42q-87 0 -158.5 -42t-81.5 -104zM385 2052h262l78 -291h-201z" />
<glyph unicode="&#xd3;" d="M-27 326l177 1009q16 94 88 172.5t174 122t209 43.5q167 0 271.5 -97.5t80.5 -240.5l-178 -1009q-17 -94 -88 -172.5t-172.5 -122t-210.5 -43.5q-107 0 -193.5 43.5t-130.5 122t-27 172.5zM168 326q-12 -62 44.5 -104t143.5 -42q88 0 159 42t83 104l178 1009 q10 62 -46 104t-144 42q-87 0 -158.5 -42t-81.5 -104zM535 1761l180 291h262l-242 -291h-200z" />
<glyph unicode="&#xd4;" d="M-18 326q-17 -94 26 -172.5t129 -122t193 -43.5q109 0 211 43.5t173.5 122t88.5 172.5l176 1009q17 94 -26 172.5t-129 122t-195 43.5q-165 0 -306 -98t-167 -240zM176 326l176 1009q12 62 83.5 104t158.5 42q88 0 144 -42t44 -104l-176 -1009q-12 -62 -82.5 -104 t-158.5 -42q-87 0 -144 42t-45 104zM422 1761l209 203h108l125 -203h-143l-57 86l-93 -86h-149z" />
<glyph unicode="&#xd5;" d="M-20 326l176 1009q26 142 166 240t305 98q167 0 272.5 -98t79.5 -240l-178 -1009q-24 -142 -164 -240t-307 -98q-164 0 -269 98t-81 240zM174 326q-10 -62 47 -104t144 -42q88 0 158.5 42t80.5 104l178 1009q12 62 -44 104t-144 42q-87 0 -158.5 -42t-83.5 -104z M393 1855q36 34 53 49.5t50 33.5t61 18q34 0 99.5 -25.5t117.5 -25.5q45 0 98 61l58 -100q-79 -88 -178 -88q-27 0 -97.5 25.5t-93.5 25.5q-19 0 -38 -8t-28.5 -15.5t-27 -24t-21.5 -20.5z" />
<glyph unicode="&#xd6;" d="M-18 326l176 1009q26 142 166 240t305 98q167 0 272.5 -98t79.5 -240l-178 -1009q-24 -142 -164 -240t-307 -98q-164 0 -269 98t-81 240zM176 326q-10 -62 47 -104t144 -42q88 0 158.5 42t80.5 104l178 1009q12 62 -44 104t-144 42q-87 0 -158.5 -42t-83.5 -104z M453 1761l32 183h156l-33 -183h-155zM684 1761l33 183h155l-32 -183h-156z" />
<glyph unicode="&#xd7;" horiz-adv-x="835" d="M35 606l241 205l-165 201l163 139l168 -201l238 203l115 -139l-238 -203l168 -205l-166 -141l-166 205l-241 -205z" />
<glyph unicode="&#xd8;" d="M-125 -27l139 217q-22 64 -10 136l178 1009q16 94 88 172.5t174 122t209 43.5q158 0 262 -90l74 115h119l-127 -197q40 -77 25 -166l-179 -1009q-17 -94 -88 -172.5t-172.5 -122t-210.5 -43.5q-87 0 -161.5 29.5t-122.5 80.5l-80 -125h-117zM199 295q6 -51 60 -83 t130 -32q88 0 159 42t83 104l153 874zM236 532l561 869q-22 37 -70 58.5t-109 21.5q-87 0 -158 -42t-81 -104z" />
<glyph unicode="&#xd9;" horiz-adv-x="956" d="M-14 340l233 1333h197l-236 -1333q-10 -63 33.5 -108.5t114.5 -45.5t131.5 45.5t70.5 108.5l236 1333h199l-236 -1333q-26 -145 -154 -247.5t-282 -102.5q-152 0 -242.5 102.5t-64.5 247.5zM367 2054h262l78 -291h-201z" />
<glyph unicode="&#xda;" horiz-adv-x="956" d="M-14 340l233 1333h197l-236 -1333q-10 -63 33.5 -108.5t114.5 -45.5t131.5 45.5t70.5 108.5l236 1333h199l-236 -1333q-26 -145 -154 -247.5t-282 -102.5q-152 0 -242.5 102.5t-64.5 247.5zM506 1761l180 291h262l-241 -291h-201z" />
<glyph unicode="&#xdb;" horiz-adv-x="956" d="M-6 340q-26 -145 64.5 -247.5t242.5 -102.5q154 0 282 102.5t154 247.5l234 1333h-199l-233 -1333q-12 -63 -73 -108.5t-132 -45.5t-114.5 45.5t-31.5 108.5l234 1333h-197zM393 1761l207 203h109l127 -203h-144l-59 86l-90 -86h-150z" />
<glyph unicode="&#xdc;" horiz-adv-x="956" d="M-4 340l231 1333h197l-234 -1333q-12 -63 31.5 -108.5t114.5 -45.5t132 45.5t73 108.5l233 1333h199l-234 -1333q-17 -95 -82.5 -175.5t-160 -127.5t-195.5 -47q-152 0 -241.5 102.5t-63.5 247.5zM424 1761l33 183h155l-32 -183h-156zM655 1761l33 183h156l-33 -183h-156 z" />
<glyph unicode="&#xdd;" horiz-adv-x="1036" d="M152 1673h215l159 -600q67 110 194.5 316.5t174.5 283.5h215l-532 -866l-144 -807h-196l143 807q-39 150 -120.5 456t-108.5 410zM549 1761l180 291h262l-241 -291h-201z" />
<glyph unicode="&#xde;" horiz-adv-x="845" d="M-31 0l295 1673h199l-70 -389h158q146 0 232.5 -105t60.5 -251l-43 -252q-26 -147 -149 -250.5t-271 -103.5h-158l-57 -322h-197zM258 520h158q65 0 119.5 46t66.5 110l43 252q12 64 -26 110.5t-103 46.5h-158z" />
<glyph unicode="&#xdf;" horiz-adv-x="1763" d="M12 348l29 162h197l-29 -162q-12 -65 33 -112.5t118 -47.5t134 47.5t73 112.5l41 240q12 63 -34.5 104t-120.5 41t-138 25.5t-107 70t-62.5 108t-6.5 134.5l43 246q26 148 155 252t286 104q156 0 246.5 -104t64.5 -252l-29 -168h-194l28 168q12 66 -33 113t-118 47 q-74 0 -134.5 -47.5t-72.5 -112.5l-43 -246q-10 -62 35.5 -101t122.5 -44q70 -5 131 -31.5t105.5 -68.5t65 -104.5t7.5 -133.5l-41 -240q-26 -147 -155 -251.5t-283 -104.5q-156 0 -247.5 104t-66.5 252zM831 348l29 162h195l-29 -162q-12 -64 34 -112t120 -48 q73 0 132.5 47.5t71.5 112.5l41 240q12 63 -33.5 104t-119.5 41t-138 25.5t-107 70t-62.5 108t-6.5 134.5l43 246q26 148 155 252t286 104q156 0 246.5 -104t64.5 -252l-29 -168h-196l28 168q12 66 -32.5 113t-116.5 47q-74 0 -135.5 -47.5t-73.5 -112.5l-43 -246 q-10 -62 36.5 -101t123.5 -44q70 -5 131 -31.5t105.5 -68.5t65 -104.5t7.5 -133.5l-41 -240q-26 -147 -155 -251.5t-283 -104.5q-157 0 -248.5 104t-65.5 252z" />
<glyph unicode="&#xe0;" horiz-adv-x="970" d="M-129 0l631 1673h182l55 -1673h-241l-11 250h-280l-96 -250h-240zM260 449h244l-8 667q-90 -253 -236 -667zM373 2052h262l78 -291h-201z" />
<glyph unicode="&#xe1;" horiz-adv-x="970" d="M-129 0l631 1673h182l55 -1673h-241l-11 250h-280l-96 -250h-240zM260 449h244l-8 667q-90 -253 -236 -667zM514 1761l180 291h262l-241 -291h-201z" />
<glyph unicode="&#xe2;" horiz-adv-x="970" d="M-121 0h240l94 250h281l12 -250h242l-56 1673h-182zM268 449q146 414 236 667l8 -667h-244zM395 1761l207 203h109l127 -203h-144l-59 86l-90 -86h-150z" />
<glyph unicode="&#xe3;" horiz-adv-x="970" d="M-121 0l631 1673h182l56 -1673h-242l-12 250h-281l-94 -250h-240zM266 449h244l-6 667q-237 -664 -238 -667zM371 1855q2 2 14.5 14t15.5 15t14.5 13.5t16 14t15 11.5t16.5 11t16 8.5t17.5 7.5t17 4t18.5 2q34 0 101 -25.5t119 -25.5q45 0 96 61l57 -100 q-76 -88 -176 -88q-27 0 -98 25.5t-94 25.5q-19 0 -37.5 -8t-28 -16t-26 -23.5t-21.5 -20.5z" />
<glyph unicode="&#xe4;" horiz-adv-x="970" d="M-119 0l631 1673h182l56 -1673h-242l-12 250h-281l-94 -250h-240zM268 449h244l-6 667q-237 -664 -238 -667zM428 1761l33 183h155l-32 -183h-156zM659 1761l33 183h156l-33 -183h-156z" />
<glyph unicode="&#xe5;" horiz-adv-x="970" d="M-131 0l631 1673h182l55 -1673h-241l-11 250h-280l-96 -250h-240zM258 449h244l-8 667q-90 -253 -236 -667zM483 1917q12 66 65.5 111t119.5 45q65 0 102 -46t25 -110q-10 -65 -64 -110.5t-119 -45.5q-67 0 -103.5 44t-25.5 112zM582 1917q-3 -24 10.5 -40.5t36.5 -16.5 t43.5 17t23.5 40q4 23 -10 40t-37 17t-42.5 -17t-24.5 -40z" />
<glyph unicode="&#xe6;" horiz-adv-x="1466" d="M-111 0l988 1673h647l-35 -196h-465q-69 -390 -98 -566h407l-35 -196h-407q-20 -116 -50 -272t-46 -246h467l-35 -197h-668l74 414h-277l-262 -414h-205zM469 612h201l90 504z" />
<glyph unicode="&#xe7;" horiz-adv-x="983" d="M41 342l170 975q17 96 89.5 178.5t177 130t214.5 47.5q157 0 248.5 -104t65.5 -252l-19 -111h-199l19 111q12 64 -33 112t-117 48q-88 0 -161.5 -47.5t-85.5 -112.5l-170 -975q-12 -64 45 -112t145 -48q72 0 133.5 47.5t73.5 112.5l20 119h199l-20 -119 q-25 -139 -143 -241t-265 -113l-4 -19q59 5 94.5 -23t22.5 -93q-10 -62 -56 -92.5t-108 -30.5q-51 0 -111 26l49 84q42 -22 74 -22q54 0 62 39q3 19 -6.5 29.5t-36 10.5t-37 -1t-39.5 -6q-6 -1 -8 -1l16 101q-148 17 -235.5 118t-63.5 234z" />
<glyph unicode="&#xe8;" horiz-adv-x="827" d="M-63 0l292 1673h643l-34 -196h-447l-69 -402h391l-35 -196h-391l-121 -682h446l-34 -197h-641zM367 2052h262l78 -291h-201z" />
<glyph unicode="&#xe9;" horiz-adv-x="827" d="M-63 0l292 1673h643l-34 -196h-447l-69 -402h391l-35 -196h-391l-121 -682h446l-34 -197h-641zM446 1763l181 291h262l-242 -291h-201z" />
<glyph unicode="&#xea;" horiz-adv-x="827" d="M-55 0h641l35 197h-447l121 682h391l35 196h-391l69 402h447l35 196h-643zM362 1761l207 203h109l127 -203h-143l-60 86l-90 -86h-150z" />
<glyph unicode="&#xeb;" horiz-adv-x="827" d="M-53 0l293 1673h643l-35 -196h-447l-71 -402h391l-35 -196h-391l-119 -682h447l-35 -197h-641zM387 1761l33 183h155l-32 -183h-156zM618 1761l33 183h156l-33 -183h-156z" />
<glyph unicode="&#xec;" horiz-adv-x="405" d="M-80 0l293 1673h197l-295 -1673h-195zM86 2052h262l78 -291h-201z" />
<glyph unicode="&#xed;" horiz-adv-x="405" d="M-80 0l293 1673h197l-295 -1673h-195zM231 1761l181 291h262l-242 -291h-201z" />
<glyph unicode="&#xee;" horiz-adv-x="405" d="M-72 0h195l295 1673h-197zM119 1763l207 203h108l127 -203h-143l-60 86l-90 -86h-149z" />
<glyph unicode="&#xef;" horiz-adv-x="405" d="M-70 0l293 1673h197l-295 -1673h-195zM150 1763l30 183h156l-31 -183h-155zM381 1763l31 183h155l-30 -183h-156z" />
<glyph unicode="&#xf0;" horiz-adv-x="985" d="M31 711l35 198h131l135 764h356q69 0 129.5 -25.5t101.5 -70t59 -108t5 -134.5l-174 -997q-26 -143 -150.5 -240.5t-267.5 -97.5h-356l127 711h-131zM266 193h160q63 0 117.5 41.5t66.5 103.5l174 997q12 62 -28 104t-103 42h-159l-101 -572h209l-35 -198h-209z" />
<glyph unicode="&#xf1;" horiz-adv-x="980" d="M-68 0l293 1673h213l172 -1069l189 1069h196l-295 -1673h-182l-196 1102l-195 -1102h-195zM377 1858q37 35 53 49.5t48.5 32.5t60.5 18q34 0 100.5 -25.5t118.5 -25.5q45 0 96 61l59 -100q-79 -88 -178 -88q-27 0 -98 25.5t-94 25.5q-19 0 -37.5 -8t-28 -16t-26 -23.5 t-21.5 -20.5z" />
<glyph unicode="&#xf2;" d="M-27 326l177 1009q16 94 88 172.5t174 122t209 43.5q167 0 271.5 -97.5t80.5 -240.5l-178 -1009q-17 -94 -88 -172.5t-172.5 -122t-210.5 -43.5q-107 0 -193.5 43.5t-130.5 122t-27 172.5zM168 326q-12 -62 44.5 -104t143.5 -42q88 0 159 42t83 104l178 1009 q10 62 -46 104t-144 42q-87 0 -158.5 -42t-81.5 -104zM385 2052h262l78 -291h-201z" />
<glyph unicode="&#xf3;" d="M-27 326l177 1009q16 94 88 172.5t174 122t209 43.5q167 0 271.5 -97.5t80.5 -240.5l-178 -1009q-17 -94 -88 -172.5t-172.5 -122t-210.5 -43.5q-107 0 -193.5 43.5t-130.5 122t-27 172.5zM168 326q-12 -62 44.5 -104t143.5 -42q88 0 159 42t83 104l178 1009 q10 62 -46 104t-144 42q-87 0 -158.5 -42t-81.5 -104zM535 1761l180 291h262l-242 -291h-200z" />
<glyph unicode="&#xf4;" d="M-18 326q-17 -94 26 -172.5t129 -122t193 -43.5q109 0 211 43.5t173.5 122t88.5 172.5l176 1009q17 94 -26 172.5t-129 122t-195 43.5q-165 0 -306 -98t-167 -240zM176 326l176 1009q12 62 83.5 104t158.5 42q88 0 144 -42t44 -104l-176 -1009q-12 -62 -82.5 -104 t-158.5 -42q-87 0 -144 42t-45 104zM422 1761l209 203h108l125 -203h-143l-57 86l-93 -86h-149z" />
<glyph unicode="&#xf5;" d="M-20 326l176 1009q26 142 166 240t305 98q167 0 272.5 -98t79.5 -240l-178 -1009q-24 -142 -164 -240t-307 -98q-164 0 -269 98t-81 240zM174 326q-10 -62 47 -104t144 -42q88 0 158.5 42t80.5 104l178 1009q12 62 -44 104t-144 42q-87 0 -158.5 -42t-83.5 -104z M393 1855q36 34 53 49.5t50 33.5t61 18q34 0 99.5 -25.5t117.5 -25.5q45 0 98 61l58 -100q-79 -88 -178 -88q-27 0 -97.5 25.5t-93.5 25.5q-19 0 -38 -8t-28.5 -15.5t-27 -24t-21.5 -20.5z" />
<glyph unicode="&#xf6;" d="M-18 326l176 1009q26 142 166 240t305 98q167 0 272.5 -98t79.5 -240l-178 -1009q-24 -142 -164 -240t-307 -98q-164 0 -269 98t-81 240zM176 326q-10 -62 47 -104t144 -42q88 0 158.5 42t80.5 104l178 1009q12 62 -44 104t-144 42q-87 0 -158.5 -42t-83.5 -104z M453 1761l32 183h156l-33 -183h-155zM684 1761l33 183h155l-32 -183h-156z" />
<glyph unicode="&#xf7;" horiz-adv-x="831" d="M98 711l35 198h596l-35 -198h-596zM233 391l41 230h197l-41 -230h-197zM342 1006l41 229h197l-41 -229h-197z" />
<glyph unicode="&#xf8;" d="M-125 -27l139 217q-22 64 -10 136l178 1009q16 94 88 172.5t174 122t209 43.5q158 0 262 -90l74 115h119l-127 -197q40 -77 25 -166l-179 -1009q-17 -94 -88 -172.5t-172.5 -122t-210.5 -43.5q-87 0 -161.5 29.5t-122.5 80.5l-80 -125h-117zM199 295q6 -51 60 -83 t130 -32q88 0 159 42t83 104l153 874zM236 532l561 869q-22 37 -70 58.5t-109 21.5q-87 0 -158 -42t-81 -104z" />
<glyph unicode="&#xf9;" horiz-adv-x="956" d="M-14 340l233 1333h197l-236 -1333q-10 -63 33.5 -108.5t114.5 -45.5t131.5 45.5t70.5 108.5l236 1333h199l-236 -1333q-26 -145 -154 -247.5t-282 -102.5q-152 0 -242.5 102.5t-64.5 247.5zM367 2054h262l78 -291h-201z" />
<glyph unicode="&#xfa;" horiz-adv-x="956" d="M-14 340l233 1333h197l-236 -1333q-10 -63 33.5 -108.5t114.5 -45.5t131.5 45.5t70.5 108.5l236 1333h199l-236 -1333q-26 -145 -154 -247.5t-282 -102.5q-152 0 -242.5 102.5t-64.5 247.5zM506 1761l180 291h262l-241 -291h-201z" />
<glyph unicode="&#xfb;" horiz-adv-x="956" d="M-6 340q-26 -145 64.5 -247.5t242.5 -102.5q154 0 282 102.5t154 247.5l234 1333h-199l-233 -1333q-12 -63 -73 -108.5t-132 -45.5t-114.5 45.5t-31.5 108.5l234 1333h-197zM393 1761l207 203h109l127 -203h-144l-59 86l-90 -86h-150z" />
<glyph unicode="&#xfc;" horiz-adv-x="956" d="M-4 340l231 1333h197l-234 -1333q-12 -63 31.5 -108.5t114.5 -45.5t132 45.5t73 108.5l233 1333h199l-234 -1333q-17 -95 -82.5 -175.5t-160 -127.5t-195.5 -47q-152 0 -241.5 102.5t-63.5 247.5zM424 1761l33 183h155l-32 -183h-156zM655 1761l33 183h156l-33 -183h-156 z" />
<glyph unicode="&#xfd;" horiz-adv-x="1036" d="M152 1673h215l159 -600q67 110 194.5 316.5t174.5 283.5h215l-532 -866l-144 -807h-196l143 807q-39 150 -120.5 456t-108.5 410zM549 1761l180 291h262l-241 -291h-201z" />
<glyph unicode="&#xfe;" horiz-adv-x="845" d="M-31 0l295 1673h199l-70 -389h158q146 0 232.5 -105t60.5 -251l-43 -252q-26 -147 -149 -250.5t-271 -103.5h-158l-57 -322h-197zM258 520h158q65 0 119.5 46t66.5 110l43 252q12 64 -26 110.5t-103 46.5h-158z" />
<glyph unicode="&#xff;" horiz-adv-x="1036" d="M162 1673h215l158 -600q66 108 193 313t177 287h215l-534 -866l-142 -807h-196l141 807q-119 456 -227 866zM463 1763l31 183h155l-31 -183h-155zM694 1763l31 183h156l-31 -183h-156z" />
<glyph unicode="&#x152;" horiz-adv-x="1468" d="M20 338l175 997q26 142 167 240t306 98q118 0 204 -51l11 51h643l-35 -196h-447l-100 -566h391l-35 -196h-391l-92 -518h447l-35 -197h-643l10 49q-104 -49 -225 -49q-164 0 -269.5 98t-81.5 240zM217 338q-12 -62 45 -103.5t144 -41.5q88 0 158.5 41.5t82.5 103.5 l176 1003q7 59 -49 99.5t-141 40.5q-87 0 -158.5 -42t-83.5 -104z" />
<glyph unicode="&#x153;" horiz-adv-x="1468" d="M20 338l175 997q26 142 167 240t306 98q118 0 204 -51l11 51h643l-35 -196h-447l-100 -566h391l-35 -196h-391l-92 -518h447l-35 -197h-643l10 49q-104 -49 -225 -49q-164 0 -269.5 98t-81.5 240zM217 338q-12 -62 45 -103.5t144 -41.5q88 0 158.5 41.5t82.5 103.5 l176 1003q7 59 -49 99.5t-141 40.5q-87 0 -158.5 -42t-83.5 -104z" />
<glyph unicode="&#x178;" horiz-adv-x="1036" d="M162 1673h215l158 -600q66 108 193 313t177 287h215l-534 -866l-142 -807h-196l141 807q-119 456 -227 866zM463 1763l31 183h155l-31 -183h-155zM694 1763l31 183h156l-31 -183h-156z" />
<glyph unicode="&#x2c6;" horiz-adv-x="561" d="M41 1470l207 203h108l127 -203h-143l-59 86l-91 -86h-149z" />
<glyph unicode="&#x2dc;" horiz-adv-x="690" d="M76 1552q38 37 53 50.5t48 32t61 18.5q34 0 100.5 -25.5t118.5 -25.5q45 0 96 61l59 -100q-79 -88 -178 -88q-27 0 -97 25.5t-93 25.5q-19 0 -38 -8t-28.5 -15.5t-27 -24t-21.5 -20.5z" />
<glyph unicode="&#x2000;" horiz-adv-x="1036" />
<glyph unicode="&#x2001;" horiz-adv-x="2073" />
<glyph unicode="&#x2002;" horiz-adv-x="1036" />
<glyph unicode="&#x2003;" horiz-adv-x="2073" />
<glyph unicode="&#x2004;" horiz-adv-x="691" />
<glyph unicode="&#x2005;" horiz-adv-x="518" />
<glyph unicode="&#x2006;" horiz-adv-x="345" />
<glyph unicode="&#x2007;" horiz-adv-x="345" />
<glyph unicode="&#x2008;" horiz-adv-x="259" />
<glyph unicode="&#x2009;" horiz-adv-x="414" />
<glyph unicode="&#x200a;" horiz-adv-x="115" />
<glyph unicode="&#x2010;" horiz-adv-x="831" d="M98 711l35 198h596l-35 -198h-596z" />
<glyph unicode="&#x2011;" horiz-adv-x="831" d="M98 711l35 198h596l-35 -198h-596z" />
<glyph unicode="&#x2012;" horiz-adv-x="831" d="M98 711l35 198h596l-35 -198h-596z" />
<glyph unicode="&#x2013;" horiz-adv-x="964" d="M76 711l35 198h774l-35 -198h-774z" />
<glyph unicode="&#x2014;" horiz-adv-x="1210" d="M98 711l35 198h975l-35 -198h-975z" />
<glyph unicode="&#x2018;" horiz-adv-x="436" d="M78 1305l43 254l86 114h117l-86 -114h100l-43 -254h-217z" />
<glyph unicode="&#x2019;" horiz-adv-x="436" d="M98 1419l43 254h217l-43 -254l-86 -114h-116l86 114h-101z" />
<glyph unicode="&#x201a;" horiz-adv-x="436" d="M98 0l43 254h217l-43 -254l-86 -115h-116l86 115h-101z" />
<glyph unicode="&#x201c;" horiz-adv-x="714" d="M76 1305l43 254l86 114h117l-86 -114h100l-43 -254h-217zM356 1305l43 254l86 114h117l-86 -114h100l-43 -254h-217z" />
<glyph unicode="&#x201d;" horiz-adv-x="714" d="M96 1419l43 254h217l-43 -254l-86 -114h-116l86 114h-101zM377 1419l43 254h217l-43 -254l-86 -114h-117l86 114h-100z" />
<glyph unicode="&#x201e;" horiz-adv-x="714" d="M96 0l43 254h217l-43 -254l-86 -115h-116l86 115h-101zM377 0l43 254h217l-43 -254l-86 -115h-117l86 115h-100z" />
<glyph unicode="&#x2022;" horiz-adv-x="532" d="M57 807q13 85 85 146t157 61q88 0 139.5 -60t36.5 -147q-15 -88 -87.5 -149.5t-160.5 -61.5q-87 0 -136 61.5t-34 149.5z" />
<glyph unicode="&#x2026;" horiz-adv-x="1179" d="M74 0l39 229h196l-39 -229h-196zM467 0l39 229h196l-38 -229h-197zM860 0l39 229h197l-39 -229h-197z" />
<glyph unicode="&#x202f;" horiz-adv-x="414" />
<glyph unicode="&#x2039;" horiz-adv-x="518" d="M33 672l22 133l508 467l-43 -246l-299 -289q29 -42 97.5 -140t101.5 -146l-43 -246z" />
<glyph unicode="&#x203a;" horiz-adv-x="518" d="M-47 205l43 246q51 52 295 286l-197 289l43 246l344 -467l-22 -133z" />
<glyph unicode="&#x205f;" horiz-adv-x="518" />
<glyph unicode="&#x20ac;" horiz-adv-x="1087" d="M31 555l35 199h131l18 110h-131l37 199h131l43 254q17 96 89.5 178.5t177 130t214.5 47.5q157 0 248.5 -104t65.5 -252l-25 -150h-199l25 150q12 64 -33 112t-117 48q-88 0 -161.5 -47.5t-85.5 -112.5l-43 -254h301l-37 -199h-301l-19 -110h301l-34 -199h-302l-36 -213 q-12 -64 45 -112t145 -48q72 0 133.5 47.5t73.5 112.5l24 141h199l-24 -141q-26 -148 -155 -252t-286 -104q-110 0 -197.5 47.5t-130.5 130t-26 178.5l37 213h-131z" />
<glyph unicode="&#x2122;" horiz-adv-x="1343" d="M168 1554l20 119h437l-21 -119h-158l-157 -886h-119l158 886h-160zM530 668l179 1005h127l53 -762l325 762h115l-178 -1005h-121l98 553l-229 -553h-104l-50 553l-98 -553h-117z" />
<glyph unicode="&#x25fc;" horiz-adv-x="1669" d="M0 0v1669h1669v-1669h-1669z" />
</font>
</defs>
</svg>
