<?xml version="1.0" standalone="no"?>
<!DOCTYPE svg PUBLIC "-//W3C//DTD SVG 1.1//EN" "http://www.w3.org/Graphics/SVG/1.1/DTD/svg11.dtd" >
<svg xmlns="http://www.w3.org/2000/svg" xmlns:xlink="http://www.w3.org/1999/xlink" version="1.1">
<metadata></metadata>
<defs>
<font id="bushcraftone_shadow" horiz-adv-x="870" >
<font-face units-per-em="2048" ascent="1536" descent="-512" />
<missing-glyph horiz-adv-x="471" />
<glyph horiz-adv-x="0" />
<glyph horiz-adv-x="682" />
<glyph unicode=" "  horiz-adv-x="471" />
<glyph unicode="&#x09;" horiz-adv-x="471" />
<glyph unicode="&#xa0;" horiz-adv-x="471" />
<glyph unicode="!" horiz-adv-x="550" d="M0 180q0 69 40.5 124.5t111.5 68.5v16q-45 5 -74 25t-29 55q-4 161 -14.5 482.5t-14.5 482.5q0 28 23 51q43 45 158 45q99 0 141 -31q26 -26 29 -78q47 -6 73 -24q31 -31 31 -99q0 -14 -10 -112q0 -2 -1 -6.5t-1 -5.5q-2 -14 -2 -31l-23 -758q-3 -65 -82 -90l19 -35 q42 -18 70.5 -52.5t39.5 -76.5l-2 2q6 -18 6 -20v-50q-6 -76 -57 -129t-137 -53q-78 0 -133 49q-30 30 -45 68q-30 10 -58 35q-59 56 -59 147zM20 180q0 -80 54 -131q51 -45 119 -45q77 0 123 48t51 116v4v43q0 2 -5 12q-14 56 -58 92.5t-111 36.5q-80 0 -126.5 -52.5 t-46.5 -123.5zM41 1434l29 -965q0 -30 34 -45.5t80 -15.5q52 0 91 20t40 59l23 758q0 7 4 43q10 62 9.5 118t-21.5 77l-2 2q-33 24 -127 24q-107 0 -144 -39q-16 -16 -16 -36z" />
<glyph unicode="&#x22;" horiz-adv-x="868" d="M10 981h2q-41 64 88 362v-6q0 1 2 7.5t2 7.5q11 26 36.5 62t66.5 69t78 33q44 0 71 -35q10 -10 13 -19v2q8 -25 6 -53q4 2 12 2q34 0 64 -27q31 50 75 90t86 40q45 0 72 -35q8 -9 12 -19v2q8 -25 6 -53q4 2 13 2q44 0 71 -35q13 -10 13 -20v4q13 -30 -2 -105.5 t-60 -218.5v2q-4 -12 -4 -18l-28 -96q-5 -38 -72 -58t-115 -20q-25 0 -37 6l2 -2q-30 3 -43 27h2q-16 22 -10 71h-16q-23 0 -31 2l-8 -26q-5 -38 -72 -58t-115 -20q-24 0 -36 6l2 -2q-30 3 -43 27h2q-17 23 -11 71h-16q-25 0 -37 6l2 -2q-30 3 -43 27zM29 991q8 -13 28 -16 q12 -4 31 -4q44 0 103 15t63 44q1 12 33 117q81 263 63 309q0 1 -1 2t-1 2q0 4 -8 8q-21 27 -55 27q-47 0 -95 -52.5t-65 -94.5l-4 -11q-129 -288 -92 -346zM356 991q7 -12 29 -16q12 -4 31 -4q44 0 103 15t63 44q2 17 32 117q82 265 64 309q0 1 -1 2t-1 2q0 4 -8 8 q-21 27 -56 27q-47 0 -94 -52t-65 -95l-4 -11q-129 -289 -93 -346z" />
<glyph unicode="#" horiz-adv-x="1019" d="M0 406v102q0 23 16 39t41 16h111l6 49q-29 18 -29 50v47h-47q-22 0 -38.5 15.5t-16.5 39.5v102q0 24 16.5 40t38.5 16h119l39 286q3 22 18 35.5t37 13.5h103q18 0 37 -16q18 -15 18 -45l-6 -41h53q7 0 19 -4q5 42 8 57q3 21 18.5 35t36.5 14h102q26 0 43 -20 q13 -16 13 -41l-6 -41h53q26 0 43 -20q15 -19 12 -43v2l-24 -185l8 -6q14 -17 14 -37v-47h47q23 0 41 -18q14 -17 14 -37v-102q0 -25 -15 -40.5t-40 -15.5h-110l-7 -49q31 -14 31 -49v-47h45q25 0 41.5 -15.5t16.5 -39.5v-103q0 -24 -16.5 -39.5t-41.5 -15.5h-117l-38 -297 q-3 -20 -19.5 -34.5t-36.5 -14.5h-106q-19 0 -41 18q-15 21 -15 45l5 39h-52q-12 0 -18 2l-6 -55q-3 -21 -19 -35t-37 -14h-104q-27 0 -41 18q-18 18 -14 47l4 37h-51q-26 0 -41 19q-19 19 -15 47l25 188l-6 6q-17 17 -17 39v47h-45q-24 0 -41 17q-16 16 -16 39zM20 406 q0 -14 11 -25q10 -10 26 -10h103l-39 -305q-3 -17 8 -29q12 -12 27 -12h104q13 0 23 9t12 21l41 316h113l-41 -305q0 -18 8 -29q16 -12 26 -12h107q12 0 23 9t12 21l41 316h135q15 0 26 10t11 25v102q0 15 -11 25t-26 10h-111l23 186h129q15 0 25 10t10 25v102q0 14 -11 25 q-7 10 -24 10h-105l39 297q3 16 -8 27q-9 12 -27 12h-102q-14 0 -24 -9t-11 -22l-43 -305h-110l39 297q0 19 -11 27q-9 12 -24 12h-103q-14 0 -24 -9t-11 -22l-40 -305h-138q-14 0 -24.5 -10t-10.5 -25v-102q0 -15 10.5 -25t24.5 -10h111l-23 -186h-129q-15 0 -26 -11 t-11 -24v-102zM360 543l25 186h113l-25 -186h-113z" />
<glyph unicode="$" horiz-adv-x="927" d="M2 369q13 81 84 96q1 0 5.5 1t6.5 1q31 0 115 -37h-2q2 -2 8 -2q69 -31 80 -33q16 -2 43 -2q88 0 125 49v-2q23 41 18 68l-82 41q-2 0 -14 6l4 -2q-169 70 -235 172q-129 88 -148 223q-19 119 46.5 222.5t185.5 144.5q24 7 24 31q-2 10 -2 40v11q-5 66 19 92q13 17 39 20 q24 17 61 17q44 0 75.5 -30.5t41.5 -74.5q40 -4 67 -34t35 -70q91 -24 115 -70l-2 4q18 -21 12 -43q71 -25 90 -59q19 -22 10 -53q6 -60 -30 -103q-41 -41 -95 -41q-34 0 -55 13h2q-62 28 -145 28q-115 0 -115 -82v-6q31 -15 80 -33h-2l20 -8q45 -16 66 -26q83 -49 143 -129 q135 -101 166 -244q4 -4 4 -14v-93q0 -10 -6 -16q-14 -80 -67 -148.5t-134 -107.5l-47 -18q-12 -5 -14 -10t-2 -31v-11q0 -2 1 -6t1 -6q5 -80 -23 -117q-31 -24 -96 -24q-41 0 -76 14q-49 20 -49 66v24q-30 3 -53 13q-49 20 -49 65v27q-73 21 -88 30q-39 19 -53 84 q-46 16 -50 19q-33 19 -48.5 67.5t-10.5 96.5zM23 365q-6 -41 7 -83.5t42 -58.5q4 -2 159 -49q34 -8 41 -12v-117q0 -33 37 -47q27 -12 68 -12q59 0 82 18l2 2q18 26 14 98q0 4 -1 13t-1 12q0 36 4.5 43.5t26.5 15.5q9 3 45 19q76 37 126 102.5t62 143.5q6 3 6 8v92 q0 4 -4 8q-28 162 -196 258q-24 13 -82 35q-34 13 -54 21.5t-50.5 24.5t-47.5 31t-30 37t-13 46q0 102 135 102q81 0 154 -31q17 -10 45 -10q45 0 78 33q30 38 24 94q7 24 -4 37q-23 47 -168 74q-39 7 -47 12q-2 4 -2 29q2 8 2 37q0 44 -28 79t-72 35q-31 0 -55 -16 q-20 0 -29 -12q-19 -19 -14 -78v-13q0 -26 2 -36q1 -29 -5 -37t-34 -17q-113 -40 -173.5 -137t-43.5 -209q7 -55 34.5 -101.5t69.5 -80t79.5 -54.5t84.5 -40q107 -49 148 -81q46 -35 57 -73q10 -38 -21 -90q-42 -57 -141 -57q-29 0 -45 2q-12 2 -82 33q-91 38 -117 38 q-3 0 -7.5 -1t-6.5 -1q-52 -13 -61 -79z" />
<glyph unicode="%" horiz-adv-x="1804" d="M0 1016q0 192 98 332q112 155 299 155q183 0 295 -149l8 -13q50 -33 95 -90q51 -76 75 -170l217 385q15 24 50.5 33.5t62.5 9.5q107 0 137 -51v-2q10 -31 2 -51q78 -11 101 -49v-2q14 -33 -4 -64q-94 -166 -189 -336q2 0 8 1t9 1q187 0 290 -155q77 -49 124 -137t61 -195 v2q4 -23 4 -45l-6 -137q0 -19 -2 -21q-30 -161 -129.5 -270t-251.5 -109q-94 0 -168.5 42.5t-124.5 115.5q-131 86 -176 270l-226 -397q-15 -24 -50 -33.5t-64 -9.5q-105 0 -135 51q-13 25 -4 54q-80 12 -99 49q-12 25 -2 55q1 31 26.5 75.5t73.5 114.5q3 3 4 5t3.5 5t4 5.5 t3.5 5.5l16 27l21 32q6 11 21.5 38.5t23.5 43.5h-10q-193 0 -299 158q-95 60 -144 174.5t-49 245.5zM20 1016q0 -85 22.5 -164t66 -145t116.5 -106t164 -40q89 0 162 40.5t119 108t71 150.5t25 172q0 183 -90 309q-105 142 -279 142t-282 -148q-95 -134 -95 -319zM271 1031 q-2 59 15 117.5t50 92.5q37 37 63 37t43 -33q28 -47 41 -136.5t9 -168t-19 -106.5q-27 -58 -67 -58q-38 0 -76 44t-47 93q-10 59 -12 118zM326 41q24 -41 116 -41q80 0 97 33l776 1370q14 21 4 45q-24 41 -119 41q-77 0 -94 -33l-631 -1110q-3 -7 -17.5 -28t-21.5 -33 q-37 -53 -56.5 -82.5t-36.5 -64.5t-17 -56q-10 -22 0 -41zM393 928q0 -53 13 -113q0 -6 4 -18q25 3 45 45v2q16 32 16 137q0 77 -12 147l-6 -4q-60 -63 -60 -196zM887 463q1 -85 25 -164.5t68.5 -144t115 -103.5t155.5 -39q146 0 240.5 103.5t120.5 259.5q2 8 2 16l6 137 q0 18 -4 41q-10 75 -35.5 139.5t-68 116t-106 81.5t-142.5 30q-90 -1 -163 -42t-119 -108.5t-70.5 -150.5t-24.5 -172zM1133.5 468q-0.5 112 42.5 191q31 58 75 58q32 0 63.5 -31t43.5 -74q37 -134 0 -272q-12 -46 -43.5 -77.5t-65.5 -31.5q-39 0 -71 52q-44 73 -44.5 185z M1255 367q0 -57 13 -111q22 8 41 32.5t28 57.5v-2q17 73 17 133q0 55 -13 115q-26 -6 -45 -45q-41 -77 -41 -180z" />
<glyph unicode="&#x26;" horiz-adv-x="1497" d="M0 434q0 124 55 225q24 44 127 115l19 14q52 39 65 54q-98 164 -98 295q0 89 39 166q51 100 144.5 156.5t211.5 56.5q101 0 198 -49t157 -136q137 -95 163 -254q18 -152 -86 -293q23 9 35 9q33 0 60 -27q4 -8 16 -14l12 -11l-2 2q78 -61 109 -108q116 -89 125 -156 q3 -31 -23 -63l-43 -45q-41 -40 -56.5 -64.5t-2.5 -44.5l194 -244q22 -36 11 -65q-15 -31 -75.5 -48.5t-104.5 -20.5t-89 -3q-74 0 -96 8q-57 4 -125 107l-8 4q-28 -14 -154 -63h2q-170 -66 -223 -66q-110 0 -207.5 49.5t-161.5 138.5q-69 50 -122 134q-66 109 -66 241z M19.5 424.5q2.5 -118.5 64.5 -221.5q60 -98 158.5 -153.5t212.5 -55.5q24 0 89 19.5t126 43.5q134 50 170 76q2 -2 5 -7t5 -7q22 -32 35.5 -49.5t37 -37t44.5 -20.5q20 -8 92 -8q42 0 84 2.5t98 17t68 39.5q8 21 -9 46l-194 243q-11 15 -12 30t10 33t24.5 33t38.5 39 q31 31 43 45q20 23 17 48q-7 58 -123 147q-29 24 -31 27q-18 18 -43 18q-23 0 -51 -21t-41.5 -37.5t-42.5 -54.5q-5 -7 -8 -10q-8 -12 -10 -16q-4 4 -13 14t-14 15q-86 91 -94 120q233 174 202 396q-14 99 -76.5 173t-145.5 109t-173 35q-112 0 -201.5 -53.5t-136.5 -147.5 q-98 -197 64 -452q-3 -6 -9 -13t-18 -17t-19 -16t-25 -20t-23 -18q-100 -69 -121 -109q-57 -106 -54.5 -224.5zM371 449q0 28 18.5 59.5t36 50t45.5 43.5q11 -11 35 -39q123 -135 129 -170q-40 -34 -86 -54t-84 -20q-94 0 -94 130zM494 342q59 10 116 57l-47 64 q-69 -65 -69 -117v-4zM514.5 1166.5q3.5 22.5 20.5 39.5q21 21 45 21q28 0 49.5 -30t21.5 -64q0 -68 -73 -119q-21 30 -34.5 53.5t-23 50t-6 49z" />
<glyph unicode="'" horiz-adv-x="540" d="M10 981h2q-41 64 88 362v-6q0 1 2 7.5t2 7.5q11 26 36.5 62t66.5 69t78 33q44 0 71 -35q10 -10 13 -19v2q8 -25 6 -53q4 2 12 2q45 0 72 -35q9 -9 12 -18v2q24 -54 -61 -324v2q-4 -12 -4 -18l-29 -96q-5 -38 -72 -58t-115 -20q-24 0 -36 6l2 -2q-30 3 -43 27h2 q-17 23 -11 71h-16q-25 0 -37 6l2 -2q-30 3 -43 27zM29 991q8 -13 28 -16q12 -4 31 -4q44 0 103 15t63 44q1 12 33 117q81 263 63 309q0 1 -1 2t-1 2q0 4 -8 8q-21 27 -55 27q-47 0 -95 -52.5t-65 -94.5l-4 -11q-129 -288 -92 -346z" />
<glyph unicode="(" horiz-adv-x="643" d="M0 745q0 394 209 701q19 29 72.5 54.5t99.5 25.5q55 0 90 -53q9 -22 0 -50h12q55 0 90 -53q12 -27 -7.5 -69.5t-67.5 -112.5q-30 -43 -31 -47q-57 -125 -78 -234q-27 -129 -27 -256q0 -176 49 -343t142 -304l14 -20v-2q21 -29 8 -60q-11 -23 -52.5 -37t-84.5 -14 q-74 0 -96 33q-3 4 -23.5 31t-29.5 42q-33 7 -49 29q-75 99 -131.5 222.5t-81.5 244.5q-27 132 -27 272zM41.5 984q-46.5 -250 5.5 -507q51 -257 209 -459q17 -24 80 -24q38 0 73.5 11t45.5 30q9 17 -6 37v2q-7 8 -15 20q-131 194 -175 434.5t7 485.5q22 114 80 237 q5 11 33 52q46 69 64.5 107t7.5 60q-21 35 -70 35q-42 0 -90 -22.5t-66 -48.5q-137 -200 -183.5 -450z" />
<glyph unicode=")" horiz-adv-x="643" d="M4 33q-5 29 12 53l15 20q188 280 188 644q0 133 -26 260q-22 115 -76 233v-2q-15 25 -33 49q-48 70 -68 113t-8 70q35 53 92 53q45 0 99 -26t73 -54l31 -49q52 -23 72 -54q207 -308 207 -698q0 -142 -27 -274q-25 -124 -79.5 -245.5t-131.5 -221.5q-28 -33 -96 -33 q-46 0 -87.5 15t-54.5 44q-3 7 -2.5 18.5t9.5 26.5q-86 11 -109 58zM25 35q10 -19 45 -30t75 -11q61 0 80 24q156 204 207 459q52 257 5.5 507t-181.5 450q-18 25 -67 48t-89 23q-50 0 -71 -35q-11 -23 7.5 -61t63.5 -106q15 -19 35 -52q55 -116 78 -237q51 -244 7.5 -485.5 t-173.5 -434.5q-11 -13 -14 -20l-2 -2q-11 -15 -6 -37z" />
<glyph unicode="*" horiz-adv-x="907" d="M0 1239q0 123 109 123q25 0 49 -6q-61 72 -52 125q9 45 70 82q41 24 76 24q39 0 63.5 -26t46.5 -76q2 0 6 -1t5 -1q22 51 47.5 78.5t64.5 27.5q37 0 74 -22q62 -38 70 -84v-4q5 -1 33 -15q60 -37 69 -84q3 -27 -6 -51l1 -1q1 0 1 3q11 -29 14 -67h9q36 0 65 -19h-4l8 -2 l4 -8q4 -8 5 -8.5t1 2.5q17 -43 17 -90q0 -49 -17 -88q-18 -40 -51 -37q-24 -6 -37 -6q-27 0 -61 6q60 -68 51 -115q-9 -44 -72 -86q-45 -25 -77 -25q-39 0 -63 26.5t-44 76.5h-14q-21 -51 -46.5 -81t-64.5 -30q-24 0 -53 19h2q-76 48 -86 90l-18 12h2q-81 53 -86 100 q-3 27 10 56q-16 26 -19 59q-45 0 -71 29q-31 31 -31 94zM20 1239q0 -55 25 -80q22 -22 64 -22q23 0 81 12q5 1 14 2t13 2q-3 -4 -10 -12.5t-10 -12.5q-26 -30 -38 -45.5t-21.5 -37t-6.5 -39.5q5 -41 76 -88q21 -15 41 -15q21 0 38 12t31 37.5t21.5 44t19.5 52.5q5 7 9 20 q8 -19 10 -31q30 -80 49 -101q22 -26 53 -26q27 0 68 23q55 33 61 72q4 19 -7 42t-23.5 38t-38.5 42q-3 4 -9.5 11.5t-9.5 11.5q2 -1 7.5 -2t7.5 -2q11 -2 34 -7t40 -7.5t30 -2.5q21 0 31 7q2 -2 4 -2q22 0 35 26q17 33 15.5 87t-17.5 77q0 1 -5 6h-2l-2 2q-20 13 -51 13 q-32 0 -115 -19q-3 0 -7.5 -1t-6.5 -1q3 3 9.5 10.5t9.5 10.5q26 29 39.5 46t24.5 41.5t7 45.5q-6 39 -59 69q-37 21 -64 21q-21 0 -37.5 -10t-29.5 -32.5t-20 -38.5t-19 -48q-2 -12 -10 -31q-10 24 -11 31q-10 28 -15 39.5t-16 32.5t-20 30t-23.5 17t-31.5 8q-25 0 -66 -23 q-53 -30 -59 -67q-4 -21 7 -45.5t23.5 -40.5t39.5 -45q3 -3 9 -10.5t9 -10.5q-4 1 -12.5 2t-12.5 2q-62 12 -81 12q-89 0 -89 -102z" />
<glyph unicode="+" horiz-adv-x="999" d="M10 756q-21 48 4 100q27 47 78 47h234q9 26 -4 125q-1 11 -4 45t-3 49q0 62 21 86q14 14 35 17q73 40 118 -8q24 -31 33 -78q39 6 70 -25q41 -49 41 -172v-41q2 0 6.5 1t7.5 1q5 0 15.5 1t15.5 1q36 4 57 4q99 0 99 -63v-12q0 -2 1 -6.5t1 -6.5v-8v-6h2q98 0 98 -64v-12 q0 -2 1 -6t1 -6v-8q0 -56 -20 -82q-22 -25 -64 -25h-231q-8 -25 4 -127q0 -7 3 -41.5t3 -50.5q0 -63 -23 -86q-17 -17 -32 -20q-28 -17 -60 -17t-59 27q-25 22 -35 76h-8q-34 0 -60 26q-41 41 -41 172v43q-2 0 -6 -1t-6 -1q-5 0 -16.5 -1t-16.5 -1q-36 -4 -57 -4 q-38 0 -61 10q-35 14 -39 45q-11 19 -11 47q-31 0 -53 11q-35 14 -39 45zM31 760q4 -22 26 -31q16 -8 54 -8q12 0 26.5 1t32.5 2.5t29 2.5q46 6 86 6q57 0 57 -20q0 -27 -2 -45q-16 -211 31 -262q21 -21 45 -21t53 16q16 3 23 13q17 17 18 64.5t-6 99.5q-13 126 4 145 q4 4 10 4h234q34 0 47 16q3 3 5.5 6.5t4 7.5t2.5 7t2 8.5t1.5 9t0.5 10v9v10v10.5q0 4 -1 12.5t-1 12.5q0 43 -78 43q-12 0 -26.5 -1t-32.5 -2.5t-29 -2.5q-7 0 -39 -3t-47 -3q-57 0 -57 22q0 25 2 41q16 211 -31 262q-35 38 -98 2q-15 0 -25 -10q-15 -18 -15.5 -65t5.5 -99 q13 -124 -4 -143q-4 -4 -10 -4h-236q-38 0 -59 -37q-22 -42 -2 -86z" />
<glyph unicode="," horiz-adv-x="577" d="M6 -178v-2q22 59 57 207q10 30 13 69q6 47 9.5 68t14.5 54t27 48q18 16 73 27.5t105 11.5q59 0 80 -18l-10 2l20 -13l2 -2l4 -6q12 -24 9 -65q55 0 77 -19l-10 2l21 -12l2 -2l4 -6q28 -50 -13.5 -165.5t-125.5 -276.5v2q-3 -6 -15 -25q-14 -28 -64.5 -49t-95.5 -21 q-53 0 -77 31q-16 27 -4 57v-2l6 19q-10 -2 -27 -2q-55 0 -78 30q-17 28 -4 58zM25 -186q-9 -20 2 -37q16 -23 61 -23q42 0 87 17.5t56 42.5q11 16 13 22q83 158 123.5 267.5t15.5 154.5v2q-7 10 -10 10q-18 15 -68 15q-46 0 -97.5 -10t-66.5 -23q-13 -13 -23 -43t-13 -50 t-9 -65q-4 -45 -8 -57q-34 -146 -63 -223z" />
<glyph unicode="-" d="M2 782q-5 71 8 99q3 71 123 71q4 0 12.5 -1t12.5 -1h22q2 0 6.5 -1t6.5 -1h10q24 0 71 6q4 0 11.5 1t11.5 1q124 13 201 13q133 0 176 -43q19 -19 26 -68q53 -12 76 -35q27 -23 31 -106q4 -65 -6 -94q-6 -76 -123 -76q-39 0 -51 2q-2 0 -7 1t-6 1h-8q-22 0 -71 -6 q-4 0 -11.5 -1t-11.5 -1q-124 -13 -201 -13q-133 0 -176 43q-19 19 -26 68q-49 8 -76 35t-31 106zM23 784q4 -74 24 -94q37 -37 162 -37q71 0 199 13q82 8 96 8q2 0 10 -1t14 -1q12 -2 47 -2q100 0 103 57q10 30 6 90q-5 76 -25 94q-37 37 -161 37q-81 0 -199 -12 q-82 -8 -96 -8q-3 0 -11 1t-12 1q-7 0 -23 1t-24 1q-99 0 -102 -58q-12 -27 -8 -90z" />
<glyph unicode="." horiz-adv-x="473" d="M0 123q0 74 46 116t108 42q51 0 93 -28t56 -81q47 -13 78 -52t31 -100q0 -70 -46.5 -111.5t-109.5 -41.5q-50 0 -92 29t-55 79q-48 14 -78.5 52.5t-30.5 95.5zM20 123q0 -61 40.5 -97t93.5 -36q55 0 95 36t40 97q0 66 -40 101.5t-95 35.5q-54 0 -94 -36.5t-40 -100.5z " />
<glyph unicode="/" horiz-adv-x="1099" d="M4 4l688 1595l-2 -4q7 26 33 33q16 3 41 -4l139 -61h2q20 -11 27 -29t-4 -39v2l-2 -2h2l78 -35h2q20 -11 26.5 -28.5t-4.5 -38.5v2l-690 -1600q-9 -15 -27 -22h2q-8 -4 -20 -4q-9 0 -21 4q-110 51 -143 65q-17 9 -24.5 28t-0.5 36l3 4l-80 35q-17 9 -24.5 27.5t-0.5 35.5 zM22.5 -25.5q4.5 -11.5 14.5 -15.5l143 -65q6 -3 13 -3q6 0 12 3q9 3 16 14l688 1597q6 11 1.5 22t-15.5 17l-145 64q-10 3 -23 0t-16 -17l-688 -1595q-5 -10 -0.5 -21.5z" />
<glyph unicode="0" horiz-adv-x="1236" d="M0 752q0 355 139.5 560.5t390.5 205.5q237 0 381 -191q91 -67 152 -176q113 -208 113 -504q0 -303 -113 -506q-72 -128 -183.5 -195t-250.5 -67q-238 0 -375 184q-94 66 -152 185q-102 210 -102 504zM20 752q0 -292 101 -494q133 -256 405 -256q134 0 240.5 64.5 t175.5 187.5q111 201 111 496q0 290 -111 493q-139 254 -412 254q-242 0 -376 -199.5t-134 -545.5zM303 743q0 119 23 220.5t77.5 172t131.5 70.5q109 0 169 -124.5t60 -348.5q0 -274 -94 -381q-51 -63 -138 -63q-47 0 -84 20t-61.5 56.5t-41.5 80t-26 97t-12.5 101 t-3.5 99.5zM426 641q0 -213 53 -324q21 -8 53 -8q74 0 121 56v2q90 100 90 366q0 224 -59 342q-28 8 -47 8q-70 0 -119.5 -67t-70.5 -164.5t-21 -210.5z" />
<glyph unicode="1" horiz-adv-x="737" d="M0 1264q2 54 76 153l28 41v-2q41 66 183 66q63 0 116 -6h13q50 -5 53 -5q43 0 66 -26h-3q27 -30 33 -76h6q42 0 66 -27h-2q37 -37 37 -139q0 -54 -2 -74q0 -5 -1 -13t-1 -9v-973l4 -45v-10q4 -40 4 -76q0 -95 -37 -129q-32 -35 -115 -35h-32q-4 0 -17 1t-22 1 q-28 4 -33 4q-94 0 -101 103h-2q-100 0 -100 121v897q0 9 1 27t1 26q-68 6 -92 37q-25 25 -25 65v2q-54 6 -77 35q-25 25 -25 66zM20 1264q0 -33 19 -52q26 -30 111 -30q37 0 55 2q5 0 14.5 1t13.5 1q14 -24 5 -180v-31v-500v-366q0 -101 79 -101q9 0 41 -4q10 0 32 -1 t32 -1q74 0 100 29q25 24 29.5 87.5t-2.5 110.5q-4 36 -4 47v474v487q0 3 1 15.5t1 21.5q3 44 3.5 71.5t-7 66.5t-25.5 58q-18 21 -49 21q-14 0 -68 4q-55 6 -114 6q-131 0 -166 -55q-4 -6 -29 -41q-70 -95 -72 -141z" />
<glyph unicode="2" horiz-adv-x="1296" d="M8 45q-21 47 31 105l508 546l47 47q41 42 62.5 66t50 64t41.5 73q12 40 12 72q0 19 -8 51q-7 0 -15 4q-24 6 -47 6q-60 0 -109.5 -45.5t-68.5 -113.5q-4 -16 -4 -29q-3 -28 -6.5 -43t-12.5 -37t-28.5 -33t-48.5 -12q-16 -4 -33 -4h-17q-3 0 -8.5 1t-7.5 1h-12q-2 0 -6 1 t-6 1q-9 0 -17 -2h-26q-60 0 -91 31q-25 22 -28 71q-51 4 -74 31q-29 29 -29 86q0 31 15 104v-4q0 1 1 3.5t1 3.5q0 13 2 16q44 188 194 307q147 111 324 111q120 -2 229 -53.5t181 -141.5l10 -14q54 -42 92 -88q106 -134 106 -287q0 -81 -28.5 -164.5t-83 -165t-107 -145 t-125.5 -141.5h158q38 0 63 -29t35 -74h4q52 0 79.5 -49.5t27.5 -116.5q0 -66 -25 -114q-37 -62 -96 -62h-801q-173 0 -202 64q-12 20 -5 47q-81 14 -98 55zM27 53q23 -51 184 -51h448h353q50 0 78 51q22 46 22 105q0 58 -22.5 101.5t-63.5 43.5h-405q7 8 27.5 29.5 t31.5 34.5q173 180 248 281q212 286 143 513q-25 80 -84 156q-68 87 -172 135.5t-221 50.5q-177 0 -311 -106q-146 -115 -187 -299q-1 -2 -2 -7.5t-2 -7.5q-9 -40 -12.5 -61.5t-0.5 -56.5t21 -54q24 -24 76 -24h23q8 2 20 2q4 0 12.5 -1t12.5 -1q5 0 16 -1t16 -1q13 0 29 4 q19 0 33 7.5t22 16.5t13.5 26t7.5 27t4 29q0 11 4 31q17 79 72 127.5t127 48.5q24 0 51 -6q81 -19 119 -88q40 -76 8 -168q-13 -36 -43 -78t-52 -66.5t-63 -66.5l-47 -47l-506 -547q-43 -48 -28 -82z" />
<glyph unicode="3" horiz-adv-x="1222" d="M6 483q8 35 41.5 52.5t71.5 17t76 -1.5q5 0 16.5 -1t15.5 -1q42 0 67.5 -27t45.5 -76q29 -3 51 -23t33 -40.5t27 -58.5q3 -14 8 -23q24 -8 59 -8q87 0 155 65t68 140q0 17 -6 32q-28 7 -88 15q-33 3 -53.5 6t-48 10.5t-43 18.5t-26.5 30.5t-11 46.5q-103 22 -103 105 q0 5 -1 16t-1 17q-4 63 2 98q-20 0 -28 2q-4 0 -13 1t-12 1q-78 0 -115.5 20t-37.5 76v8q-52 5 -77.5 26.5t-25.5 68.5q0 26 13 73q53 158 180.5 255.5t283.5 97.5q94 0 185 -39q115 -49 190 -154q85 -62 135 -155t50 -191q0 -138 -97 -244q81 -67 124.5 -162t43.5 -198 q0 -125 -57 -227q-75 -137 -213.5 -209t-298.5 -64h2q-215 10 -350 160q-1 2 -11.5 14t-15.5 19q-42 29 -76 69q-59 72 -106 174t-29 170v-2zM27 479q-17 -63 28.5 -159.5t102.5 -163.5q129 -144 334 -154q153 -8 286 61.5t205 200.5q79 146 44.5 311.5t-165.5 264.5 q59 58 85 131.5t18 146t-40 140.5t-89.5 122t-128.5 84q-135 52 -258.5 29t-221.5 -112t-141 -218q-12 -37 -12.5 -63t7.5 -41.5t27.5 -24t42 -11.5t56.5 -3q8 0 24.5 -1.5t30 -1.5t23.5 3q31 0 52 27t39 68.5t30 55.5q35 42 95.5 52t113 -18.5t63.5 -86.5q9 -45 -5.5 -75 t-47 -43.5t-67 -20.5t-75.5 -14t-61 -15q-21 -9 -31.5 -35.5t-11 -48t1.5 -59.5t2 -45q0 -39 32 -60.5t72 -26t90.5 -11t73.5 -17.5q110 -50 110 -149q0 -83 -72 -152q-77 -75 -175 -73q-61 1 -115 36q-25 16 -45.5 55t-32.5 74t-36 62.5t-58 27.5q-9 0 -38.5 2t-51 2 t-47.5 -3.5t-42 -16t-21 -33.5zM485 985l19 4q34 5 58 10.5t50 17.5t38 33t9 50q-5 0 -13.5 1t-12.5 1q-68 0 -109 -47q-12 -14 -30 -54z" />
<glyph unicode="4" horiz-adv-x="1298" d="M1.5 356q-4.5 31 14 68t34 59t42.5 56l23 28l536 762l25 37l-2 -2q18 32 32 53t36 47.5t47 40t53 13.5q63 0 100 -37q23 -25 33 -68q43 -9 69 -35q37 -39 37 -123q0 -43 -2 -61q0 -4 -1 -14t-1 -13v-555q8 -3 19 -10q28 -35 34 -84h9q37 0 59 -18q47 -53 37 -185v-30 q0 -49 -28 -79t-74 -30q-19 0 -25 2q-3 0 -8.5 1t-9.5 1h-21q-4 -48 6 -119q2 -18 2 -45q0 -65 -24 -103t-95 -38h-28q-14 -2 -53 -2q-16 0 -24 0.5t-28.5 2.5t-33.5 8t-27.5 15.5t-22.5 26.5t-8 39q-2 4 -2 12q-100 13 -100 91q-10 40 -6 108h-344q-13 0 -21 -2h-35 q-61 0 -90 27v-2q-37 32 -31 77q-44 0 -71 27v-2q-27 24 -31.5 55zM22.5 363q2.5 -27 24.5 -46q22 -20 76 -20h31q8 2 24 2h242h201q26 0 30 -2v-21v-26q0 -17 -4 -53q-4 -94 4 -123q0 -78 123 -78q35 0 51 2h31q58 0 78 32.5t20 88.5q0 25 -2 43q-4 35 -5.5 77.5t3.5 61.5 q1 0 3 0.5t6 1t8 0.5q6 0 21 -1t22 -1q8 -2 20 -2q37 0 59.5 24t22.5 64v33q10 121 -25 160q-23 20 -51 20q-4 0 -12.5 -1t-13.5 -1q-20 -4 -33 -4q-23 0 -23 8v160v483q0 8 1 26t1 27q6 44 1.5 93t-29.5 75q-31 31 -86 31q-42 0 -78 -40.5t-72 -102.5q-11 -16 -24 -37 l-537 -762q-18 -24 -22 -29q-25 -30 -39.5 -50.5t-32 -53t-15 -59.5zM530 598l66 94l55 78v-164q0 -12 -51 -12q-27 0 -59 4h-11z" />
<glyph unicode="5" horiz-adv-x="1228" d="M4 459q9 52 57 71q42 17 109 17q62 0 92 -6q71 -4 100 -103h3q24 -1 42 -11t29.5 -28t17.5 -32.5t13 -36.5v-6q28 -7 49 -7q90 0 143.5 67t53.5 153q0 38 -13 75q-37 11 -65 11q-92 0 -205 -41q-1 0 -3 -1t-3 -1l-18 -7q-1 0 -3.5 -1t-3.5 -1l9 2q-46 -22 -80 -22 q-53 0 -80 47q-15 24 -12 55h-11q-53 0 -80 47q-21 39 0 121q2 6 2 15l86 456l7 41q4 26 5.5 38t7 35.5t11.5 35.5t17 28.5t25 25t34.5 14.5t46.5 6h455q3 0 8.5 1t9.5 1q12 2 45 2q41 0 70 -13q43 -23 57 -92q24 -3 45 -10q71 -37 62 -195q-2 -12 -2 -26q0 -119 -207 -119 q-70 0 -119 6q-5 0 -17 1t-16 1h-28q-2 0 -8 1t-9 1h-22q-5 0 -15.5 1t-15.5 1h-21l-4 -20q152 -28 263 -142q22 -25 34 -45q39 -28 68 -57q67 -73 107 -189t40 -225q-9 -107 -56.5 -203.5t-121 -167t-172.5 -112t-207 -41.5q-113 0 -212.5 43.5t-168.5 122.5h2q-6 6 -20 27 q-54 40 -84 75h2q-41 46 -90.5 148t-34.5 168zM25 455q-13 -63 33.5 -158.5t84.5 -138.5q66 -76 161.5 -118t203.5 -42q143 0 263.5 65.5t193 181.5t79.5 257q6 114 -31 218.5t-110 180.5q-140 146 -342 146q-25 0 -49 -3q4 26 13.5 76t13.5 76l4 1q4 1 13 2t22 1 q10 0 28 -1t25 -1q6 0 13.5 -1t8.5 -1q6 0 25.5 -1t32.5 -1q50 -6 116 -6q187 0 187 98q0 21 2 33q1 33 2 65.5t-12 62.5t-39 42q-20 10 -62 10q-29 0 -43 -2q-8 0 -19 -1t-16 -1h-440q-30 0 -52 -10.5t-34.5 -24t-21.5 -39t-12 -43t-7 -47.5q-1 -7 -3 -21.5t-3 -21.5 q-17 -90 -49.5 -264t-36.5 -193q0 -4 -4 -20q-18 -68 0 -100q21 -37 61 -37q23 0 78 22q6 1 15 5l10 4q110 40 204 40q98 0 152 -63q49 -55 49 -145q0 -95 -58.5 -167.5t-158.5 -72.5q-45 0 -85.5 21.5t-65.5 58.5q-11 17 -21 49q-8 26 -15.5 43t-26 33.5t-44.5 17.5 q-30 6 -88 6q-66 0 -100 -14q-36 -14 -45 -57z" />
<glyph unicode="6" horiz-adv-x="1157" d="M2 508q4 60 21.5 119t49.5 120t57.5 102t68.5 105l-2 -4l12 21l166 248l82 120q3 6 24 41l-2 -2q20 34 31 50.5t32.5 42.5t45 37.5t51.5 11.5q31 0 66 -21l8 -4l16 -10q26 -14 38 -21.5t34 -23.5t34.5 -33.5t16.5 -36.5q115 -63 104 -137q-6 -36 -55 -98q-15 -18 -20 -29 l-113 -170l-20 -29q55 -29 114 -92l25 -33q39 -27 78 -69q59 -68 94 -174.5t37 -204.5q-19 -188 -165 -322.5t-339 -134.5h-12q-2 0 -8 1t-9 1q-96 4 -182.5 46.5t-151.5 115.5h-2q-16 16 -30 37q-50 40 -70 65h-2q-64 72 -96.5 169t-26.5 196zM23 506q-6 -95 24.5 -185.5 t93.5 -162.5q62 -70 145.5 -111t174.5 -45q5 0 14.5 -1t13.5 -1q126 0 235 57.5t175.5 158.5t73.5 222q6 98 -27 194.5t-98 168.5q-113 125 -273 141l74 109l113 170q4 8 20 28q3 4 10.5 13.5t11 14.5t9.5 14.5t9.5 16t7 15t4.5 16.5q4 22 -5 41t-31 36.5t-35.5 26 t-41.5 23.5q-7 3 -16 9t-13 8q-24 16 -53 16q-22 0 -42.5 -11t-39.5 -34t-30 -39.5t-29 -46.5q-14 -24 -25 -41l-82 -121l-166 -248l-10 -16q-45 -66 -68.5 -104t-55.5 -98.5t-48 -117.5t-20 -116zM324 477q0 70 43 123q49 55 131 55q83 0 129 -55q43 -49 43 -123 q0 -72 -44.5 -126t-127.5 -54t-128.5 54t-45.5 126zM446 375q0 -21 7 -53q18 -5 45 -5q73 0 112 48t39 112q0 28 -8 49q-18 6 -41 6q-71 0 -117 -49q-37 -47 -37 -108z" />
<glyph unicode="7" horiz-adv-x="1202" d="M2 1321v27q-5 103 31 143q29 29 71 29h840q57 0 82 -39q12 -21 8 -64h13q56 0 81 -39q29 -51 -26 -159q-2 -4 -2 -9l-8 -10l-408 -786l-96 -183v2l-96 -186v4l-3 -4l-14 -35q-1 -2 -8 -16.5t-9 -18.5t-9.5 -17.5t-11 -18.5t-11 -16t-13 -15.5t-14.5 -12t-16.5 -10.5 t-17.5 -5.5t-21 -2.5q-25 0 -49 15l-8 4h2q-18 4 -23 8q-30 14 -46.5 23t-40.5 25t-38 34t-18 39q-110 54 -103 127q4 23 27 67v-2l8 14l181 351l180 346l78 147h-246q-68 0 -101.5 25t-40.5 80q-55 7 -79.5 40t-24.5 99zM23 1321q0 -65 28 -93t94 -28h437l-148 -280 l-180 -347l-180 -348q0 -1 -3.5 -6t-4.5 -8q-23 -42 -25 -59q-2 -22 8 -41t36 -36t39.5 -24.5t47.5 -23.5q7 -3 18.5 -8t14.5 -7q15 -10 37 -10q14 0 26 4.5t24 17.5t18.5 20.5t18 29t14 26.5t13.5 29q3 5 15 29l96 186l96 182l408 787q4 4 6 8l8 16l9.5 19t8.5 19t8 21 t5 19t2.5 20.5t-2 18t-6.5 16.5q-19 29 -66 29h-840q-35 0 -57 -22q-29 -31 -24 -129v-27z" />
<glyph unicode="8" horiz-adv-x="1222" d="M0 463q0 102 46 196.5t126 159.5q-113 110 -113 256q0 111 65 213.5t175 166t233 63.5q114 0 215.5 -54.5t167.5 -144.5q86 -64 137.5 -155.5t51.5 -188.5q0 -145 -113 -258q82 -65 126 -157t44 -195q0 -90 -33 -172q-58 -149 -195.5 -231.5t-303.5 -82.5 q-132 0 -249.5 53.5t-189.5 151.5q-118 87 -163 225q-27 79 -27 154zM40 593q-44 -137 5 -278q51 -149 184.5 -231t296.5 -82q160 0 293.5 79t188.5 222q54 142 13.5 283.5t-163.5 230.5q70 64 100 142t21 152t-47.5 145t-98 123.5t-139 85t-162.5 32.5t-163 -32.5 t-140.5 -85.5t-99.5 -124t-48 -145t21.5 -152t102.5 -141q-121 -87 -165 -224zM308 530q13 29 38 58q77 90 198 78q98 -10 165 -78q71 -74 48 -160q-15 -50 -61 -94q-78 -73 -196 -56q-101 14 -162 81q-70 78 -30 171zM380 1029q-46 69 6 133q9 10 20 20q66 57 161 36 q78 -18 115 -73q46 -70 -15 -141q-7 -9 -16 -17q-64 -61 -158 -36q-75 20 -113 78zM418 362q0 -25 6 -43q52 -24 115 -24q87 0 143 53q59 54 59 119q0 24 -10 51q-59 27 -110 27q-91 0 -156 -74q-47 -55 -47 -109zM481 975q33 -10 62 -10q58 0 94 36q43 40 43 84v7 q-24 8 -57 8q-59 0 -101 -37q-41 -38 -41 -74v-14zM651 987z" />
<glyph unicode="9" horiz-adv-x="1153" d="M0 1034q0 121 51 217q63 123 186 197t267 74q183 0 315 -113q6 -4 35 -33q17 -17 29 -35v2l12 -16q2 -1 27 -20q3 -2 34 -33q17 -17 29 -35v2q107 -128 107 -295q0 -208 -183 -485l-159 -240l-160 -237q-4 -4 -4 -7q-18 -27 -26 -37.5t-24.5 -28.5t-32.5 -25t-36 -7 q-33 0 -72 25q-3 1 -8.5 4l-11 6t-6.5 4q-33 19 -50.5 30.5t-40 34t-28.5 46.5q-27 16 -44.5 28.5t-35.5 33.5t-23 44q-8 34 19 78l125 190l61 91q-86 46 -147 129q-82 61 -133 149q-72 123 -72 262zM21.5 1011.5q5.5 -123.5 68.5 -229.5q56 -94 143 -151t189 -66l-115 -172 l-125 -190q-20 -33 -14 -64q4 -16 13.5 -30t29.5 -28.5t29.5 -20.5t35.5 -21q15 -9 29 -16q30 -21 60 -21q21 0 40.5 14t29 27t28.5 41q1 1 4 5.5t4 8.5l160 238l160 239q312 466 75 756q-5 10 -26 31q-29 29 -33 29q-125 110 -303 110q-138 0 -256 -70.5t-178 -189.5 q-54 -106 -48.5 -229.5zM324 1026q0 71 45.5 124.5t128.5 53.5t129 -55q43 -49 43 -123q0 -72 -44.5 -125t-127.5 -53q-82 0 -131 55q-43 53 -43 123zM446 924q0 -24 7 -52q14 -4 45 -4q73 0 112 47.5t39 110.5q0 28 -8 49q-18 6 -41 6q-73 0 -113.5 -47t-40.5 -110z M883 1341l2 -2zM985 1239l2 -2z" />
<glyph unicode=":" horiz-adv-x="579" d="M0 186q0 97 62 153t145 56q52 0 104.5 -33.5t81.5 -89.5q92 -49 117 -141q4 -8 4 -16q0 -13 2 -25q0 -28 -2 -31q0 -14 -2 -18q-21 -72 -81 -117t-124 -45q-84 0 -139 49q-34 30 -49 70q-33 13 -53 33q-66 60 -66 155zM0 948q0 97 62 153t145 56q59 0 111 -31t77 -90 q51 -24 84.5 -71.5t36.5 -116.5q0 -97 -62.5 -153t-146.5 -56q-61 0 -112.5 30t-75.5 89q-54 24 -86.5 71.5t-32.5 118.5zM20 186q0 -85 60 -139q51 -45 125 -45q64 0 117 37.5t67 107.5q2 4 2 15q2 6 2 26v2q-2 10 -2 27q0 8 -4 12q-14 71 -66 108.5t-114 37.5 q-75 0 -131 -51t-56 -138zM20 948q0 -89 56 -137.5t129 -48.5q76 0 132 50.5t56 137.5q-3 89 -59 138t-127 49q-75 0 -131 -51t-56 -138z" />
<glyph unicode=";" horiz-adv-x="407" d="M6 -213v-2q27 76 57 201q0 2 2.5 10t2.5 10q4 17 8 55q6 48 9.5 70.5t14.5 54.5t27 45v-2q18 18 72.5 29.5t105.5 11.5q59 0 80 -18l14 -14l2 -5q12 -24 9 -65q56 0 77 -18l15 -15l2 -4q28 -50 -13.5 -165.5t-125.5 -276.5v2l-13 -25q-14 -28 -65 -48.5t-97 -20.5 q-57 0 -77 28q-16 32 -4 60v-2l6 18q-10 -2 -27 -2q-58 0 -78 29q-16 32 -4 59zM25 -221q-8 -19 2 -39q15 -21 61 -21q42 0 86.5 17t56.5 41q9 13 13 24q83 158 123.5 267.5t15.5 154.5v2q-6 9 -10 11q-17 14 -68 14q-47 0 -98.5 -10.5t-65.5 -24.5q-13 -12 -23 -41.5 t-13 -49.5t-9 -65q-3 -43 -8 -59q-36 -148 -63 -221zM76 688q0 81 51 126.5t121 45.5q54 0 99 -28.5t63 -83.5q48 -16 79 -57t31 -105q0 -81 -51 -126.5t-121 -45.5q-55 0 -100.5 29t-61.5 83q-49 16 -79.5 57.5t-30.5 104.5zM96 688q0 -71 45 -111t105 -40q61 0 106 40 t45 111q0 73 -44.5 112.5t-104.5 39.5q-61 0 -106.5 -40.5t-45.5 -111.5z" />
<glyph unicode="&#x3c;" horiz-adv-x="1089" d="M0 479v94q0 32 29 50l815 419q30 15 53 2q29 -23 29 -51v-63l20 10q30 15 53 2q29 -23 29 -51v-121q0 -40 -33 -49h2l-540 -272l438 -220q31 -15 31 -49v-18l71 -35q31 -15 31 -49v-121q0 -32 -27 -49l3 2q-12 -8 -31 -8q-17 0 -29 8l2 -2l-815 418q-29 18 -29 51v12 l-73 39q-29 18 -29 51zM20 479q0 -22 19 -33l815 -417q6 -4 16 -4q13 0 19 4q16 10 16 30v121q0 22 -18 31l-629 315l629 316q18 6 18 30v121q0 18 -16 31q-16 10 -35 0l-815 -420q-19 -11 -19 -31v-94z" />
<glyph unicode="=" horiz-adv-x="1107" d="M2 619.5q-4 41.5 10 70.5q28 64 82 64h51q-30 13 -30 43q0 14 -2 22v15v4q-59 8 -80 23.5t-21 37.5q0 15 -2 23v14q0 24 1 36.5t6.5 29t17.5 28.5q25 25 71 25h293q22 0 47 2h27q159 6 201 6q75 0 126.5 -5t78 -14t37.5 -19t14 -24q12 -24 12 -51q83 -15 90 -51 q28 -55 -2 -108v2q-28 -58 -92 -58h-25q4 -4 7 -4v-4q18 -23 18 -70q44 -3 84 -28v-4q19 -24 19.5 -63.5t-11.5 -65.5q-11 -28 -32.5 -45t-47.5 -17h-624q-3 0 -11 -1t-12 -1q-3 0 -8 -1t-8 -1q-32 -4 -62 -4q-70 0 -94 27h2q-29 26 -29 75q-54 3 -75 27h2q-25 23 -29 64.5z M22 622.5q3 -34.5 23 -53.5q17 -20 78 -20q9 0 78 6q8 0 21 1t16 1h610q42 0 61 49q12 23 10.5 58.5t-20.5 54.5v2h-2l-2 2q-24 16 -78 16q-29 0 -69 -4q-18 -2 -43 -2h-611q-41 0 -63 -51q-12 -25 -9 -59.5zM31 926q2 -8 2 -27q0 -8 4 -14.5t18.5 -13.5t39.5 -11t68.5 -7 t104.5 -3q67 0 226 6q25 2 49 2h293q51 0 73 45q25 46 0 92q-1 14 -17 23.5t-70 16.5t-148 7q-66 0 -225 -6q-25 -2 -50 -2h-293q-39 0 -57 -18q-3 -3 -5.5 -6.5t-4.5 -8.5t-3.5 -8.5t-2.5 -10.5t-1.5 -10t-0.5 -11v-10.5v-12.5v-12z" />
<glyph unicode="&#x3e;" horiz-adv-x="1089" d="M0 59v121q0 32 33 49l542 271l-440 221h2q-35 14 -35 49v18l-69 35h2q-35 14 -35 49v121q0 28 29 51q19 9 53 -2l815 -417h-2q31 -15 31 -50v-16l73 -37h-2q31 -16 31 -49v-98q0 -33 -31 -49h2l-815 -418q-12 -6 -26 -6q-19 0 -31 8l2 -2q-27 17 -27 49v63l-20 -10 q-12 -6 -27 -6q-18 0 -30 8l2 -2q-27 17 -27 49zM20 59q0 -20 17 -30q6 -4 18 -4q13 0 17 4l815 417q18 9 18 31v98q0 22 -18 31l-815 418q-17 10 -35 0q-17 -14 -17 -31v-121q0 -23 21 -30l633 -316l-633 -315q-21 -11 -21 -31v-121z" />
<glyph unicode="?" horiz-adv-x="919" d="M0 1354q0 57 31 88q81 90 315 90q109 0 203.5 -46t148.5 -130q136 -91 156 -252q5 -47 -3 -93t-18.5 -78t-38 -77.5t-42.5 -66.5t-52 -70q-76 -100 -110 -166v2q-21 -46 -25 -125q-3 -34 -7 -55t-15 -43t-32 -33.5t-54 -15.5q9 -13 22 -43q56 -19 86.5 -69t30.5 -110 q0 -77 -47 -134t-133 -60q-121 0 -166 113q-56 19 -86.5 69.5t-30.5 112.5q0 71 40.5 125t113.5 63q-13 26 -15 39q-106 27 -106 150q0 97 57 209q23 47 92 141q43 59 61 86t39.5 77.5t22.5 94.5v6q-5 0 -15 1t-15 1q-71 0 -136 -35q-42 -24 -75.5 -15.5t-56 35t-31.5 64.5 q-49 3 -79 48t-30 102zM19.5 1358.5q-1.5 -42.5 16.5 -76t49.5 -50.5t74.5 9q38 22 88.5 31t98 3t80.5 -39t32 -89q-1 -55 -26.5 -112.5t-57.5 -100t-72.5 -98.5t-60.5 -97q-19 -40 -33 -80t-20 -84.5t1 -79.5t35.5 -59.5t77.5 -29.5q56 -5 86.5 7.5t40 40.5t11 59.5t7 75.5 t21.5 77q27 54 82 127.5t94.5 126t67 129t18.5 155.5q-17 142 -128.5 224.5t-256.5 82.5q-226 0 -301 -84q-24 -26 -25.5 -68.5zM157 197.5q-8 -36.5 0.5 -73t26 -66.5t52 -49t77.5 -19q44 1 78.5 20.5t52.5 50t26.5 66.5t0 72t-26.5 66t-52.5 48.5t-78.5 18.5t-78 -19 t-52 -49t-26 -66.5z" />
<glyph unicode="@" horiz-adv-x="1576" d="M0 649q0 146 51 283q64 180 196.5 311t299.5 182q115 33 219 33q130 0 247 -44.5t206 -127.5q36 -33 67 -72l35 -30q94 -86 144.5 -204t50.5 -253q0 -144 -50.5 -264t-140.5 -189q-103 -77 -219 -77q-33 0 -57 6l14 -39q67 0 82 -51v2l6 -15q20 -52 20 -75q0 -57 -81 -93 q-144 -63 -328 -63q-155 0 -289.5 64t-224.5 178q-77 62 -133 145q-115 180 -115 393zM23 580q16 -173 108 -314q85 -129 224.5 -201.5t303.5 -72.5q183 0 320 61q27 11 43 24.5t22.5 24.5t4.5 28.5t-6 29.5t-13 35l-6 14q-12 37 -63 37q-47 0 -140 -33q-74 -22 -80 -23 q-156 -12 -270 43q-110 56 -172.5 168t-62.5 254q0 157 72 295t193.5 220.5t258.5 82.5q108 0 215 -55q65 -33 111 -89.5t66 -121.5t26 -137t-9 -137q-13 -70 -58 -125.5t-77 -55.5q-9 0 -16 7q-21 35 -2 133q5 30 41 221q8 37 20 111q8 38 -14 67q-40 49 -172 49 q-80 0 -170 -17t-125 -34q-90 -44 -161 -129.5t-103 -187.5q-53 -165 22 -299q34 -64 93 -99t133 -35q66 0 131 28t112 77q54 -105 181 -105q113 0 206 74q86 66 134.5 180.5t48.5 255.5q0 130 -49 245t-140 198q-87 80 -200 123t-238 43q-98 0 -213 -33 q-163 -50 -291.5 -177t-191.5 -302q-63 -173 -47 -346zM387 375q17 -53 49 -99q20 -14 43 -24q32 -18 86 -31q-81 38 -125 115q-32 18 -53 39zM547 621q0 122 78 208t188 86q17 0 25 -2l-33 -168q-11 -65 -85 -141t-126 -76q-47 0 -47 93zM678 590q38 32 69 77.5t37 82.5 q-82 -56 -106 -160zM872 250q29 10 68 14l-18 25q-12 -10 -50 -39zM1087 1065q11 -22 11 -39l18 -6q-3 5 -10.5 19.5t-11.5 21.5z" />
<glyph unicode="A" horiz-adv-x="1193" d="M2 71q0 37 8 75q8 40 25.5 101.5t30 98.5t32.5 94l29 90l203 785v1q-1 1 0 4.5t1.5 7t1.5 8t1 7.5q16 105 35 132q9 21 51 33t96 12q58 0 101 -12t49 -35l14 -60q80 -11 88 -43l57 -221v2q103 -399 273 -1071l8 -25l-2 2q26 -71 26 -111q0 -25 -10 -38q-26 -29 -151 -29 q-156 0 -174 45q-20 20 -27 64q-64 10 -76 39q-6 6 -11 14t-8 19t-5 19.5t-3 23.5t-1.5 23t-1 25.5t-0.5 24.5q0 12 -3 27h-38q-97 0 -121 -8q-21 -21 -25 -123q-1 -38 -2.5 -58.5t-8.5 -47.5t-20 -42q-19 -45 -174 -45q-125 0 -151 29q-15 21 -15 63v15q-74 7 -88 24 t-14 61zM32 160q-12 -51 -12 -85t13 -50q13 -15 83 -21q27 -2 53 -3q43 0 83 6q66 9 72 30q22 21 25.5 82.5t8 120t29.5 75.5q15 11 130 11t132 -11q24 -17 28.5 -75.5t8 -120t25.5 -82.5q5 -21 71 -30q41 -6 84 -6q26 1 52 3q70 6 83 21q7 9 7.5 24.5t-4 34.5t-9.5 36 t-11.5 34.5t-8.5 23.5q-135 534 -330 1288q-5 21 -67 30q-31 4 -61 4l-61 -4q-62 -9 -67 -30q-9 -9 -16 -31t-10.5 -42.5t-7.5 -47t-5 -32.5q-34 -131 -101.5 -393.5t-101.5 -393.5q-3 -11 -47 -136.5t-68 -229.5zM442 571q12 57 36.5 168.5t37.5 167.5l74 -336h-148z" />
<glyph unicode="B" horiz-adv-x="1030" d="M0 125v1315q0 78 133 78q21 0 88 -5q36 -4 43 -4q56 0 98.5 -2.5t98 -8t100 -19t90.5 -33.5t84 -53t66 -76q71 -51 112 -119q52 -96 52 -223q0 -88 -28.5 -165t-86.5 -126q57 -51 88 -137t31 -180q0 -107 -34.5 -207.5t-94.5 -157.5q-75 -69 -176 -94t-230 -25 q-17 0 -48 1t-46 1q-16 0 -46 1t-44 1q-92 0 -118.5 17t-29.5 86q-66 3 -84 27t-18 108zM20 125q0 -80 20 -97.5t107 -17.5q28 0 96 -1.5t106 -1.5t99.5 5t103.5 16t89 34t82 57q75 73 107 207q17 70 17 139q-1 64 -15 128q-30 133 -119 193q73 49 105 141q26 74 26 151 q0 19 -2 38q-8 97 -49 174q-21 41 -52 73.5t-62 53t-77 35t-79 22t-87.5 11t-85 4t-86.5 0.5q-11 0 -46 3.5t-65 4.5t-62.5 -1.5t-51.5 -16.5t-19 -39v-350v-965zM314 337q1 9 2 30t1 39v260h25.5h28.5t28 -0.5t29 -2t26.5 -5t26.5 -8t22 -12t19.5 -17t13.5 -22t9 -28.5 q10 -42 10 -85q-1 -9 -1 -18q-2 -52 -15.5 -94t-53 -68.5t-100.5 -26.5q-21 4 -32.5 6.5t-21 7.5t-12 9t-4.5 15t-1 20zM317 918v256q0 57 54 62h11q51 0 106 -42q73 -56 73 -133q0 -59 -43 -113q-6 -8 -28.5 -16t-51 -14t-56 -9t-46.5 -1t-19 10zM440 305q95 30 95 170 q0 26 -7 66q-15 2 -86 2h-2v-238zM440 930q52 18 62 31q39 51 39 98q0 22 -9 43q-27 10 -49 10q-43 0 -43 -41v-141z" />
<glyph unicode="C" horiz-adv-x="1048" d="M0 1024q0 234 80 338q60 79 154.5 120.5t201.5 41.5q141 0 242 -62q47 -29 106 -104q64 -40 133.5 -146t69.5 -190q0 -45 -20 -78q-13 -53 -142 -53q-48 0 -102 4q-14 2 -31 2q-37 0 -51 25.5t-20 74.5q-14 2 -31 2t-29.5 7t-19.5 16t-12 26.5t-7 30.5t-4 35q-2 4 -2 16 q-65 -37 -65 -387v-79q0 -8 -1 -20.5t-2 -31t-2 -30.5q-8 -94 -8 -162q0 -76 11 -127q25 3 40.5 23t19 34t9.5 49q1 6 2 9l3.5 28t4.5 27.5t7 19t13.5 16t22.5 5.5q30 10 123 10q88 0 121 -10q59 -3 59 -76q0 -14 -2 -20l46 -7q59 -3 59 -75q0 -68 -53 -187.5t-80 -144.5 q-62 -56 -145 -85.5t-171 -29.5q-149 0 -270 82q-52 38 -86 90l-16 12q-89 65 -121.5 167.5t-32.5 240.5q0 47 4 129q4 78 4 113q0 33 -4 131q-6 86 -6 180zM20 973q2 -62 6.5 -141t4.5 -119q0 -35 -3 -107q-3 -70 -4 -118v-16q0 -44 4 -100q6 -68 20 -115t44 -96t76 -81 q110 -77 253 -77q17 1 33 1q164 10 273 107q24 22 70 124q58 127 58 190q0 23 -8 38q-11 19 -36 20q-17 11 -116.5 11t-114.5 -11q-20 0 -28.5 -21.5t-11.5 -52.5t-9.5 -62.5t-30.5 -53t-66 -21.5q-41 0 -67.5 30t-36.5 73t-13 103q-2 30 -1.5 58t1.5 52q3 50 7 104.5 t4 73.5q0 156 1 179q13 312 102 312h4q35 -3 81 -55q13 -14 18.5 -46.5t7 -61t13 -51.5t35.5 -23q6 0 40 -2q34 -4 66 -4h17q25 0 51 2q36 2 58 11.5t22 27.5q22 33 22 74q0 31 -12 65q-28 80 -84 151.5t-102 98.5q-88 52 -197 60q-18 1 -36 1q-90 1 -175 -33 q-102 -40 -164 -122q-33 -45 -51.5 -107t-22.5 -135q-2 -51 -2 -97v-38z" />
<glyph unicode="D" horiz-adv-x="1024" d="M-20 129q0 19 6 100q2 16 2 35v1139q0 71 35.5 97t103.5 26q43 0 63 -2q46 -4 68 -4q88 0 156 -6.5t144.5 -24.5t136.5 -58t98 -100q132 -84 157 -262q13 -102 13 -197q0 -26 -5 -159q-4 -106 -4 -158q0 -13 1 -40t1 -42t1 -44t1 -44q0 -131 -27.5 -228.5t-107.5 -164.5 q-76 -65 -179 -88t-236 -23q-93 0 -136 2q-41 2 -118 2q-61 0 -72 103h-31q-71 0 -71 141zM2 154q0 -6 -1 -13q0 -27 2 -55q2 -36 14.5 -57t33.5 -21q37 0 129 -4q65 -2 111 -2h37q56 2 133 10t138.5 33t109.5 66q37 31 63 75t38.5 82.5t18 98t5.5 95.5t-1.5 102.5 t-1.5 92.5q0 51 4 160q3 87 3 159v34q-1 84 -11 159q-10 73 -38.5 129t-73.5 91t-94.5 58t-115.5 33.5t-121 14.5t-126 4q-22 0 -58.5 2.5t-59 4t-50.5 -2t-44 -13t-27 -31.5t-11 -56v-1139q0 -7 -3 -42.5t-3 -67.5zM309 270v211v699q0 52 26 62q11 4 27 5q22 0 53 -8 q4 -1 6.5 -1.5t7 -1t7.5 -1.5q20 -3 35.5 -11.5t25.5 -18t17 -26.5t10 -29t5 -34.5t2 -33.5t-0.5 -35.5t-0.5 -32.5v-602q0 -61 -57.5 -101.5t-106.5 -42t-57 1.5zM432 289q78 38 78 123v628q0 51 -4 76q-36 8 -47 8q-14 0 -20.5 -10t-6.5 -37v-788z" />
<glyph unicode="E" horiz-adv-x="976" d="M0 1382q0 78 25 103q28 28 125 28q63 0 145 -8q54 -4 65 -4q21 0 99 8q111 13 170 13q79 0 119 -21q39 -5 53 -88q27 -3 49 -14q29 -3 44 -47t15 -103q0 -61 -17 -103t-50 -42h-410q14 -4 14 -170v-33h54q29 0 79.5 1t65.5 1h35q26 0 43 -29t22 -73h3h34q33 0 51.5 -44 t18.5 -104q0 -58 -15.5 -101t-41.5 -46q-28 -14 -66 -14q-39 0 -121 16q-86 16 -119 16q-37 0 -49 -12q-4 -4 -4 -158v-67q73 0 191 12q82 8 96 8q30 0 51 -28.5t31 -73.5h20q43 0 66.5 -53t23.5 -121q0 -87 -30 -117q-33 -33 -142 -33q-41 0 -163 10q-58 7 -74 7h-340 q-56 0 -60 102h-43q-59 0 -59 129q0 40 4 86q0 4 1 13t1 12v989q0 5 -4 51q-6 93 -6 102zM21 1406q-1 -12 -1 -24q0 -38 5 -84q6 -60 6 -69v-989q0 -5 -2.5 -34t-3 -57.5t1 -59.5t10.5 -50t26 -19h340q11 0 104 -9q73 -7 133 -7q17 0 32 1q72 2 96 26q20 21 24 83q1 10 1 20 q1 52 -15 98q-18 56 -55 55q-17 0 -116.5 -10t-179.5 -10t-103 20q-10 9 -10 170t10 172q20 19 66 19h8q52 -2 104 -14q50 -13 104 -17q11 -1 21 -1q38 0 59 13q26 -1 38 63q6 32 6 64t-6 64q-12 64 -44 63q-5 0 -51.5 -0.5t-92.5 -0.5t-97 0.5t-83 2.5t-32 6q0 3 -0.5 47 t-0.5 87.5t0.5 92t2 79t4.5 30.5h409q31 -1 43 63q6 31 5 63q0 33 -6 65q-12 64 -38 63q-31 19 -105 19t-165 -9.5t-113 -9.5q-10 -1 -92 7q-62 6 -112 6h-33q-63 -2 -84 -24q-16 -17 -18 -64z" />
<glyph unicode="F" horiz-adv-x="970" d="M0 635q0 169 6 637q2 72 2 147q0 99 266 99q27 0 248 -13q78 -4 86 -4q29 0 43 2q40 2 74 2t56 -23t22 -73v-6h8q42 -1 67 -19q27 -20 27 -77q0 -9 1 -26.5t1 -25.5q1 -32 -1 -51t-8.5 -41t-20 -33.5t-39 -19.5t-62.5 -8h-33q-16 0 -69 1t-84 1q-138 0 -141 10v-231h32 q30 0 82 1t68 1h37q33 0 55.5 -29t30.5 -74h16q44 0 68 -48.5t24 -112.5q0 -57 -16 -84q-2 -60 -182 -60q-35 0 -146 6q-20 2 -41 2q-39 0 -39 -47q4 -51 6 -69q5 -50 5 -62v-364q0 -66 -140 -66q-19 0 -106 6q-18 2 -39 2q-23 0 -39 99q-8 2 -25 2q-18 2 -39 2 q-61 0 -61 647zM20 467q1 -201 11.5 -330t29.5 -129q8 0 44 -3q35 -3 69 -4h28h42q36 2 59 13t23 31v365q0 18 -3.5 50t-5 54.5t1 45.5t16.5 35.5t40 12.5q7 0 52.5 -3t90.5 -4h37q28 1 57 1q49 2 80 12t31 29q18 26 18 81q1 51 -19 95q-20 45 -54 45h-48q-44 -2 -90 -2h-46 h-48q-48 0 -79 2.5t-31 5.5v349q0 3 32 5t82 2h49h47q46 0 90 -0.5t48 -0.5q29 0 48.5 3t32 12.5t19 18t8.5 28t2 32.5t-1 42.5t-1 47.5q0 25 -8 41t-19.5 23t-31 10t-35 2t-41 -2.5t-39.5 -1.5q-17 0 -94.5 5.5t-151.5 8.5q-37 2 -76 1q-38 0 -78 -1q-80 -3 -129.5 -22 t-49.5 -54q0 -21 -3 -199q-4 -176 -6 -364q-1 -112 0 -230v-159z" />
<glyph unicode="G" horiz-adv-x="1071" d="M0 557q0 83 8 223q6 88 6 160v59q0 13 -1 36t-1 36q0 144 43 225q57 102 168 162t232 60q81 0 159.5 -25t139.5 -72q21 -18 51 -67q17 -9 51 -35q36 -29 95 -149t59 -193q0 -84 -74 -84q-18 0 -68 -4t-73 -4q-62 0 -96 21.5t-37 80.5q-50 5 -76.5 31t-26.5 84v4h-2 q-41 0 -70.5 -27t-29.5 -75v-132h364q75 0 82 -102h21q84 0 84 -129q0 -32 -4 -78q-5 -45 -5 -47q0 -53 2 -84q3 -49 3 -104q0 -148 -43 -232q-57 -102 -168 -161.5t-232 -59.5q-174 0 -299 96q-48 39 -76 82q-20 15 -26 21q-90 69 -125 193t-35 290zM22 489 q3 -90 16.5 -158.5t47.5 -134.5t86 -106q100 -76 233 -90q28 -4 55 -4q103 0 200 44q121 55 180 169q21 41 31 98.5t11 98.5v15q0 39 -2 99q-3 73 -3 98q0 12 3.5 47.5t4 63t-3 58t-18.5 48t-42 17.5h-385q-33 0 -46 -61q-6 -31 -6 -61t6 -61q13 -61 40 -61q12 -7 38 -7 t58.5 3.5t42.5 3.5q6 0 9.5 -13.5t4 -35.5t0 -42.5t-1.5 -41.5t-1 -26q0 -7 1 -30.5t0.5 -36.5t-3 -31.5t-10.5 -32.5t-21 -23q-39 -28 -89 -29q-2 -1 -5 -1q-47 0 -82 29q-37 29 -37 81q-12 44 -12 105.5t6 136.5t6 108v381q0 47 25.5 79t61.5 39q17 3 34 3l38 -4 q36 -8 61.5 -41t25.5 -80q0 -32 12 -53t30 -29.5t46.5 -11t53 -0.5t58.5 5t54 3q54 0 54 62q0 30 -13 76q-31 105 -97 206q-23 34 -37 45q-100 76 -233 91q-27 3 -54 3q-103 0 -200 -44q-121 -55 -180 -169q-15 -29 -24.5 -62t-12.5 -73.5t-3 -66.5q-1 -9 -1 -21 q0 -23 1 -55q1 -50 1 -68q0 -45 -5 -133t-8 -158q-2 -35 -2 -75t2 -85zM444 387q0 -65 9 -100h4q39 0 78 24q25 23 25 91q0 9 -1 20v51v2q-25 4 -33 10q-41 12 -55 93h-16q0 -12 -2 -34t-2 -34q-7 -72 -7 -123z" />
<glyph unicode="H" horiz-adv-x="1034" d="M0 573q0 23 8 603q2 63 2 129q0 16 -2 30q-4 36 -4 68q0 115 70 115q11 0 57 4q81 6 84 6q135 0 135 -98v-7q103 -11 103 -96v-442h16q47 0 68 18q12 10 12 98q0 87 -12 213q-7 65 -7 89q0 10 -1 29t-1 28q-4 34 -1 63t14 50t40 33t76 12q9 0 27.5 1t26.5 1q31 3 59 0 t49 -11t35 -31.5t16 -60.5q50 -3 76.5 -28.5t26.5 -88.5v-1314q0 -59 -34 -82t-93 -23q-20 0 -66 4q-40 4 -57 4q-87 0 -98 103h-4q-99 0 -99 133q0 26 4 76q4 40 4 55v39q0 18 1 76t1 92v65q-44 2 -61.5 -12t-17.5 -67v-488q0 -80 -148 -80q-38 0 -92 4q-40 4 -47 4 q-27 0 -43 99h-12q-40 4 -48 4q-63 0 -63 581zM21 435q1 -185 11.5 -304t30.5 -119q12 0 50.5 -3.5t70.5 -4.5h17q25 0 51 2q36 3 57 17.5t21 39.5v488q0 35 7 56.5t17 31t31.5 12t40.5 0.5t53.5 -5t61.5 -3q6 0 9 -35q4 -36 4 -92v-54v-52q0 -51 -1.5 -100t-1.5 -54 q0 -17 -3.5 -56t-4 -66.5t4 -58t23 -47t50.5 -16.5q18 0 57 -3.5t63.5 -3.5t52.5 5.5t42 25t14 52.5v928v387q0 30 -7.5 49.5t-17 29.5t-31.5 14t-37 4t-48 -1.5t-52 -1.5q-29 0 -49.5 -4t-32.5 -14t-18 -20t-8 -29.5t-1.5 -34.5t2 -43.5t1.5 -48.5q0 -12 9 -118t9 -192.5 t-18 -103.5q-27 -25 -81 -25q-1 0 -2 -1q-52 0 -94 24q-44 24 -44 63v480q0 32 -17.5 50t-50 22.5t-62 3.5t-69.5 -5t-57 -4q-20 0 -32 -15t-14.5 -41t-2 -49t3 -51t2.5 -36q0 -17 -3.5 -178t-5.5 -334q-1 -115 -1 -236v-122z" />
<glyph unicode="I" horiz-adv-x="522" d="M0 401q0 229 8 433q2 43 2 86v487q0 56 56.5 87.5t130.5 31.5q72 0 108 -27q20 -11 33 -78q48 -7 70 -24q53 -31 53 -420q0 -26 -8 -426q-2 -43 -2 -84v-487q0 -59 -37 -82t-101 -23q-28 0 -82 4q-50 4 -65 4q-30 0 -47 101q-20 2 -56 2q-63 0 -63 415zM20 307 q0 -131 11.5 -216t31.5 -85t62.5 -4t72.5 -5t62.5 4t50 25t17.5 56v487q0 10 4 123q2 114 4 236q1 74 1 150v104q-1 132 -11.5 216.5t-30.5 84.5q-27 17 -72 21q-14 1 -29 1q-30 1 -58 -5q-42 -8 -73.5 -33t-31.5 -60v-487q0 -11 -3.5 -123.5t-5.5 -235.5q-2 -98 -2 -202 v-52z" />
<glyph unicode="J" horiz-adv-x="952" d="M0 154q0 26 23.5 51.5t74.5 62.5q52 35 88 42q13 3 25 3q21 0 39 -8q40 -16 98 -16q107 0 107 186q0 49 -2 74q0 11 -1 29t-1 26q0 51 -2 98q-11 275 -11 408q0 401 76 401q18 0 76 5q20 2 63 2q60 0 93 -22t40 -83q50 -3 77.5 -33t27.5 -100v-1001q0 -117 -66 -212 t-168.5 -145.5t-214.5 -50.5q-122 0 -211 55q-67 40 -96.5 65.5t-32.5 51.5q-54 33 -78 58.5t-24 52.5zM21.5 149.5q2.5 -23.5 30 -45.5t87.5 -57q62 -36 134 -47q35 -5 70 -5q36 0 71 5q69 12 134 45t113.5 81t77.5 114.5t29 140.5v428v573q0 38 -10.5 62t-25 35.5 t-42 15.5t-50 2.5t-61.5 -4t-65 -2.5q-25 0 -39 -80.5t-15 -206.5q-1 -54 -1 -106q0 -70 1 -138q2 -117 6.5 -229t4.5 -127t2 -50.5t2 -62t-1.5 -62.5t-9 -62t-21 -50t-38 -36.5t-57.5 -12.5q-43 0 -77 9.5t-48.5 15.5t-41 -2.5t-70.5 -38.5q-50 -35 -71 -57t-18.5 -45.5z " />
<glyph unicode="K" horiz-adv-x="1163" d="M0 315q0 133 12 289q1 18 3.5 54.5t2.5 46.5q0 40 -2 79q-10 215 -10 359q0 370 78 370q43 0 80 3q27 2 51 2h23q33 -2 57.5 -10t40 -31.5t20.5 -63.5q55 -5 81 -37.5t26 -115.5v-3q116 248 184 256q29 11 98 11q40 0 76.5 -5t69 -16t43 -29t-1.5 -44l-8 -15 q64 -8 97 -30q21 -14 20 -33q0 -12 -7 -25l-153 -274q-5 -9 -23.5 -34.5t-26.5 -39.5q-32 -47 -48 -72q-17 -25 -35 -62q-20 -39 -19 -61q0 -47 76 -176q24 -43 29 -55q49 -116 188 -426l16 -33v2l21 -37.5t19.5 -39.5t16.5 -43.5t4.5 -36.5t-7.5 -33h2q-20 -37 -121 -37 q-12 0 -99 6q-40 4 -43 4q-25 0 -42.5 6.5t-29.5 23t-18 29t-16 39.5l-2 5q-24 1 -40.5 8t-28 23t-17.5 29t-14 38l-9 16l-120 285q-6 -16 -11 -32.5t-8.5 -28t-5.5 -33t-3.5 -30.5t-2 -36t-0.5 -35v-43.5v-44.5q0 -35 -0.5 -59.5t-3.5 -47.5t-4.5 -37t-10.5 -27.5 t-14 -20.5t-21.5 -13t-26 -8t-36 -4t-43 -2h-53.5h-37q-63 0 -90 103h-12q-111 0 -111 333zM24 408q-1 -41 -2 -83q0 -51 2 -105q3 -98 25 -158t62 -60q131 0 157 5q46 9 60 48q12 36 12 146q0 76 0.5 97.5t4 71.5t12.5 75.5t26.5 65t44.5 83.5q18 -43 91 -219t114 -271 q3 -8 11.5 -30t13 -30t14.5 -20.5t23.5 -17t33.5 -4.5q5 0 71 -6q40 -4 72 -4q22 0 41 2q47 4 60 24q12 18 -1.5 58.5t-41.5 91.5t-29 53q-139 310 -188 426q-5 10 -38 67.5t-52 101.5q-17 40 -17 68v5q1 34 30 85.5t71 111.5t53 79q128 230 153 275q4 7 4 14q0 24 -55 37 q-50 12 -109 12q-31 0 -65 -3q-26 -3 -35 -7q-40 0 -104.5 -113t-135 -274.5t-73.5 -167.5v424q0 37 -5 62.5t-18 40.5t-26.5 22.5t-39 9.5t-46 1t-57.5 -3t-64 -2q-26 0 -40 -72q-14 -73 -16 -185q-1 -56 -0.5 -110t0.5 -106q2 -104 6.5 -204t4.5 -111q0 -20 -6.5 -113.5 t-8.5 -183.5z" />
<glyph unicode="L" horiz-adv-x="989" d="M0 559q0 29 8 569q2 59 2 119q0 14 -1 38.5t-1 35.5q-2 26 -2 49q0 20 2 36q4 36 11 59t32 36.5t65 19t109 5.5q112 0 133 -105q63 -10 87 -56t24 -122q0 -57 -6 -113q-6 -53 -6 -98v-733h264q59 0 81.5 -27t21.5 -75q53 -1 78 -25.5t25 -61t-3 -79.5q-2 -18 -2 -54 q0 -29 -6 -47.5t-13 -28.5t-25.5 -14.5t-30 -5t-40.5 -0.5h-639q-27 0 -43 103h-59q-66 0 -66 575zM22 412q2 -179 13 -293.5t31 -114.5h622h19.5h19t16 0.5t15 2t12 4t11 6.5t7.5 9.5t6.5 13t3 17.5t1.5 23q0 18 3 54t2.5 56t-6.5 43.5t-25 34.5t-52 11h-342q-20 0 -31 3 t-14.5 12.5t-3.5 17.5t2 28t2 35v760q0 28 4 76q4 47 8 83q2 19 1 41q0 18 -1 37q-3 42 -13.5 69t-37.5 45.5t-70 18.5q-61 0 -97 -5t-59 -17t-29.5 -33t-9.5 -53q-2 -16 -2 -35t2 -41q1 -47 1 -74q0 -15 -3.5 -170t-5.5 -321q-1 -83 -1 -168.5t1 -175.5z" />
<glyph unicode="M" horiz-adv-x="1339" d="M1.5 87.5q-2.5 26.5 0.5 57.5q0 7 1 28.5t1 29.5v1161q0 31 1 53t6.5 39.5t9.5 28.5t17.5 19t22 11.5t32 6t39 2.5h50.5h29q109 0 162 -113q21 -7 38.5 -18.5t32 -31t24 -34.5t20 -44t15.5 -43t15 -48q12 -43 27 -84l67 -172l72 174l86 215q29 70 50.5 106t57 59 t77.5 28.5t120 5.5h37q28 0 41 -103h25h36q64 0 64 -612q0 -19 -8 -643q-2 -70 -2 -143v-23q1 -31 -0.5 -46.5t-9 -33.5t-27.5 -25.5t-53 -7.5q-7 0 -43 -4q-50 -4 -82 -4q-127 0 -127 76v27q-103 7 -103 75v179q-62 -95 -137 -95q-87 0 -149 111q-47 19 -88 80v-244 q3 -30 0.5 -54t-2 -43t-5.5 -34t-11 -26t-18 -19t-27 -12.5t-38 -7.5t-50.5 -4t-64.5 -1q-72 0 -100 26.5t-31 78.5q-37 3 -59.5 16t-30.5 33t-10.5 46.5zM21.5 112q-0.5 -15 1.5 -34.5t8 -29.5t18 -20t32.5 -14t49.5 -4q45 0 73 1.5t52 6.5t34.5 13t21 22t11 33t3.5 45.5 t0 61.5v43v499q10 -27 28 -96.5t36.5 -126.5t45 -117.5t64.5 -95.5t84 -35q38 0 71.5 26.5t56 66.5t44 95.5t35 103.5t28.5 101.5t25 79.5v-680q0 -24 18 -37t48.5 -16t58.5 -2t61.5 4.5t44.5 3.5q15 0 26.5 2.5t19 6t12.5 11t7.5 13t4 17.5t1.5 19t-0.5 22.5t-0.5 23.5 q0 20 3.5 192.5t5.5 356.5q1 110 0 224v156q-1 196 -11.5 322.5t-30.5 126.5h-38q-29 -1 -51.5 0t-42.5 -1.5t-36 -3t-30 -6.5t-25 -11.5t-22 -17t-20 -23.5t-19 -31.5t-19 -41t-21 -50.5q-136 -344 -204 -518q-27 67 -80.5 201t-79.5 202q-10 24 -22.5 64t-21 69t-24 63 t-33.5 55t-47 35.5t-65 14.5q-109 0 -130 -5q-38 -9 -49 -49q-7 -27 -7 -85v-563v-598q0 -20 -1.5 -48t-2 -43z" />
<glyph unicode="N" horiz-adv-x="1101" d="M1.5 77.5q-2.5 26.5 0.5 57.5q0 7 1 28.5t1 29.5v1163q0 31 1 53t6.5 39.5t9 28.5t16.5 19t21 11.5t30.5 6t37 2.5h47.5h5h33q103 0 162 -113q30 -11 53 -32t41 -55.5t27.5 -58t25.5 -69.5l29 -82l39 -96v307q0 1 -1 8.5t-1 13.5q-4 32 -4 66q0 106 51 111q24 12 76 12 q40 0 106 -8q46 -4 59 -4q26 0 39 -99h5q46 -4 59 -4q63 0 63 -657q0 -165 -6 -621q-2 -70 -2 -143q0 -65 -42 -98t-105 -33q-64 0 -123.5 32t-81.5 84l-4 11q-74 29 -98 92l-129 309v-311v-50t-2 -40t-4 -34t-8 -25t-13 -20t-20 -13.5t-27.5 -10t-37 -4.5t-46 -3.5 t-58.5 -0.5q-72 0 -100 26.5t-31 78.5q-37 3 -59.5 16t-30.5 33t-10.5 46.5zM21.5 102q-0.5 -15 1.5 -34.5t8 -29.5t18 -20t32.5 -14t49.5 -4q143 0 169 26t26 145v9v12v10.5v12.5v518l270 -645q18 -45 70 -74q52 -28 106 -32q6 0 11 -1q47 0 84 26q42 29 42 87 q0 20 3.5 196t5.5 362q1 93 0.5 189.5t-0.5 196.5q-2 200 -13 328.5t-31 128.5q-14 0 -69 6t-100 6t-64 -12q-16 0 -25 -15t-11 -40t-1.5 -47.5t2.5 -46.5t2 -29v-557q-104 250 -180 440q-11 26 -27 76.5t-28.5 82t-33.5 66.5t-53 52.5t-75 17.5h-34q-24 -1 -43 0t-34 -1.5 t-26.5 -5t-20 -10t-14 -16.5t-8.5 -25t-4.5 -35t-1.5 -46v-563v-600q0 -20 -1.5 -48t-2 -43z" />
<glyph unicode="O" horiz-adv-x="1073" d="M0 565q0 81 8 221q6 88 6 160v60q0 11 -1 34.5t-1 36.5q0 142 43 223q57 102 167.5 162t230.5 60q171 0 297 -97q46 -40 73 -84l29 -18q160 -122 160 -481q0 -81 -8 -221q-7 -103 -7 -160q0 -10 1 -31t1 -31v-61q0 -153 -43 -234q-57 -105 -165.5 -162t-233.5 -57 q-172 0 -295 97q-46 34 -76 81q-20 15 -26 21q-160 122 -160 481zM22 498q4 -90 17 -158.5t47 -134t86 -105.5q98 -76 230 -90q27 -3 54 -3q104 -1 200 43q121 54 180 167q19 36 29 86q10 49 11 79v30v68q-2 68 -2 83q0 46 5 133.5t9 156.5q2 34 2 74q0 41 -2 85 q-4 90 -17.5 158t-47.5 133.5t-86 105.5q-99 77 -231 91q-28 3 -55 3q-103 0 -198 -44q-121 -55 -179 -169q-15 -29 -24.5 -62t-12.5 -73q-3 -41 -3 -67q0 -9 -1 -20q0 -23 1 -55q1 -49 1 -67q0 -46 -5 -134q-4 -87 -8 -156q-2 -34 -2 -73.5t2 -84.5zM314 543q0 91 9 202.5 t9 161.5v215q0 30 13.5 54t35.5 36.5t48 19t52 1t48 -17.5t35.5 -35.5t13.5 -53.5v-522v-217q0 -42 -26 -71q-25 -30 -61 -36q-19 -3 -37 -3l-35 3q-36 6 -61.5 34.5t-25.5 70.5q-18 67 -18 158zM436 449q0 -97 17 -154q41 0 72.5 25t31.5 67v725q-41 -2 -71.5 -26.5 t-30.5 -65.5v-215q0 -33 -9 -166q-10 -105 -10 -190z" />
<glyph unicode="P" horiz-adv-x="1050" d="M2 153v4v3.5v4v3.5v1202v18q0 30 2 48q4 24 18 46t45 31t83 9q16 0 48 1t50 1q33 2 110 2q124 0 221.5 -25t172.5 -94q36 -36 53 -66q27 -17 49 -36q66 -63 100.5 -158t34.5 -201q0 -164 -76.5 -301.5t-212.5 -181.5l2 2q-15 -6 -110 -14q-9 -1 -22.5 -2t-23 -2t-21.5 -2 t-20.5 -1.5t-18 -1.5t-15.5 -1.5t-11.5 -0.5h-7.5h-3v-503q0 -61 -112 -61q-17 0 -38 1q-5 0 -13 1t-10 1q-107 0 -138 19t-34 86q-22 2 -37.5 6t-27 8t-18.5 16.5t-11 20.5t-5.5 31t-2 37.5t-0.5 49.5zM22.5 1370q0.5 -23 0.5 -35v-1167q0 -98 7 -119q11 -34 58 -42 q28 -5 86 -5q6 0 28.5 -2t40.5 -2t38.5 2.5t32.5 12t12 26.5v258v246q0 13 57 20.5t126 12.5t83 10q86 27 150.5 99.5t92.5 166.5q29 95 31 195v14q0 93 -32 179q-34 93 -97 153q-37 35 -85 58.5t-91 34.5q-43 12 -103 16q-54 4 -93 4h-9q-40 0 -107 -2.5t-99 -2.5 q-22 0 -38.5 -1.5t-29.5 -3t-22.5 -7.5t-16 -9.5t-10.5 -14.5t-6.5 -16.5t-3 -22t-1 -25t0 -31.5zM324 1192q0 11 0.5 16t3 12.5t7 9.5t11 6.5t16 3.5t22.5 1.5t30 -0.5q41 0 71 -13.5t46 -35.5t24.5 -53t10.5 -63q1 -16 0 -34v-34q-2 -36 -4 -67q-1 -2 -1 -3.5v-3.5 q-5 -52 -65 -84t-109 -32h-1q-50 0 -60 9v291q0 14 -0.5 29.5t-1 24.5t-0.5 20zM446 1063q0 -7 1.5 -22t1.5 -25v-185q87 35 92 105q6 99 6 104q0 42 -6 76q-8 2 -25 2q-51 3 -61.5 -6.5t-8.5 -48.5z" />
<glyph unicode="Q" horiz-adv-x="1187" d="M0 590q0 96 12 280q13 191 13 250q0 122 65.5 216t166 141t216.5 47q122 0 227 -54q85 -47 134 -122q54 -36 91.5 -85t56.5 -107.5t26.5 -116t7.5 -126.5v-573q0 -109 -6 -143q-4 -24 -4 -31q21 -18 14 -47q9 -9 37 -23q4 -3 21 -12t26 -16q19 -13 20.5 -33t-8.5 -39.5 t-29.5 -42.5t-36 -39t-34.5 -31v2l-17 -14q-17 -18 -37 -21.5t-42 7t-38.5 22t-37.5 29.5l-29 22h-1q-12 0 -107 -34h2q-49 -20 -68 -23q-40 -4 -63 -4q-81 0 -164 25q-152 49 -228 161q-108 75 -145 195q-41 132 -41 340zM22 516q3 -147 39 -260q27 -86 96.5 -148.5 t159.5 -91.5q73 -24 155 -24q32 0 65 4q12 2 57 19t84 28.5t47 5.5q8 -5 26.5 -21t33 -26.5t33 -20.5t35.5 -8.5t30 15.5q3 3 15.5 14t25 22.5t27.5 26.5t26 29.5t18 28.5t6 25.5t-12 19.5q-14 10 -32 21t-27.5 17t-20.5 14.5t-15.5 16t-8 19t-3 26t4.5 35.5q4 20 5.5 45 t1.5 42.5t-0.5 48t-0.5 42.5v535q0 60 -3.5 105.5t-16 97.5t-34 91.5t-59.5 77t-90 64.5q-65 34 -140 46q-40 6 -80 6q-33 0 -65 -4q-71 -10 -136.5 -41t-115 -77.5t-79 -114.5t-29.5 -147q0 -76 -13 -266q-11 -152 -11 -276q0 -32 1 -62zM326 1028q2 87 26 146q16 39 56 54 q26 10 52 10q15 0 29 -4q40 -8 71.5 -38t31.5 -72q7 -24 7 -58t-3.5 -75.5t-3.5 -58.5v-498q-23 22 -45.5 25.5t-45.5 -11.5t-39 -30.5t-39.5 -44.5t-33.5 -39q-13 -18 -5.5 -34.5t24.5 -25.5q-39 16 -56.5 73t-17.5 110t5 132t5 93q0 39 -10 149q-8 92 -8 167v30zM449 893 q0 -29 10 -172q8 -102 8 -141q0 -24 -4 -74q-4 -40 -4 -64q43 37 80 37q16 0 32 -8v461q0 21 4 61q5 50 5 64q0 23 -7 55q-6 2 -14 2q-66 0 -86 -51q-24 -63 -24 -170z" />
<glyph unicode="R" horiz-adv-x="1118" d="M0 600q0 236 10 631q2 74 2 151v23q-2 21 0 41.5t7.5 36.5t23.5 25.5t47 9.5h350q126 0 229.5 -45.5t164.5 -137.5q112 -78 153 -215q23 -87 23 -172q0 -122 -46.5 -223.5t-144.5 -161.5l234 -600q9 -24 -1.5 -41t-36.5 -25.5t-56.5 -12t-69.5 -3.5q-46 0 -96 4 q-6 0 -16 1t-11 1q-51 0 -94 103h-8q-17 0 -32.5 9.5t-29 31t-22.5 38t-20 49.5t-15 46.5t-13 46.5l-8 37l-65 182q-4 8 -4 10v-481q0 -80 -144 -80q-38 0 -88 4q-36 4 -45 4q-30 0 -49 99h-8q-36 4 -45 4q-76 0 -76 610zM22 454q2 -196 15.5 -320t38.5 -124q11 0 48 -4 q36 -3 68 -4h16q24 0 50 2q34 3 54 17.5t20 39.5v394v145q0 21 40.5 22t43.5 -10q20 -58 62 -175t63 -175q3 -7 16 -56.5t25.5 -88t35 -73t46.5 -34.5q4 0 44 -2.5t76 -2.5t76 3t60 16t12 35q-80 207 -240 617q69 38 114.5 101t63.5 137q16 68 16 138v12q-2 78 -22 153 q-27 95 -92 159.5t-148.5 92.5t-183.5 28q0 2 -63 2q-42 0 -112 -1l-175 -1q-17 0 -29 -5.5t-18 -12t-8.5 -20.5t-2.5 -23t0.5 -27.5t0.5 -26.5q0 -22 -4.5 -195t-6.5 -355q-1 -104 -1 -212q0 -82 1 -166zM329.5 916q0.5 9 1.5 31t1 40v252q36 1 71 1h5q32 0 62 -7 q32 -7 56 -20t39.5 -42t18.5 -71q2 -26 2 -49q0 -27 -2 -47q-4 -40 -21.5 -73t-54 -50t-92.5 -17q-24 0 -39 1t-25.5 5.5t-14.5 8t-6 16t-1.5 21.5zM455 887q71 11 93 64q17 40 17 105q0 20 -2 42q0 2 -1 6t-1 6q-33 6 -106 6v-229z" />
<glyph unicode="S" horiz-adv-x="1087" d="M0 414q0 88 70 88q7 0 53 4q93 6 100 6q80 0 107 -27q26 -26 37 -77q43 -6 65 -25q30 -32 37 -90l27 4q39 4 60.5 53t21.5 111q0 29 -7 57q-21 8 -114 37q-59 15 -111 39q-105 49 -158 133q-170 112 -170 356q0 130 65.5 233.5t168.5 157.5t221 54q172 0 311 -121 q28 -28 50 -61q2 -1 53 -41q41 -37 90 -133.5t49 -170.5q0 -57 -33 -90q-24 -24 -96 -24q-10 0 -109 6q-46 4 -55 4q-16 0 -28 6t-19 13.5t-12.5 23t-8 26t-6.5 31.5q-12 2 -28 2q-20 0 -33 7.5t-21 24.5t-11.5 30t-8.5 39q-2 4 -2 12q-49 -3 -74.5 -34.5t-25.5 -76.5 q0 -34 10 -59q54 -22 106 -35q125 -38 195 -88q49 -37 80 -88l22 -14q144 -103 144 -344q0 -78 -13 -148q-33 -155 -164 -251.5t-286 -96.5q-106 0 -201 42.5t-162 127.5q-6 6 -8 12q-58 41 -94 91q-20 30 -52 117.5t-32 146.5zM33 331q23 -94 60 -159q4 -6 7 -10 q52 -67 128 -107.5t156 -50.5q30 -4 60 -4q51 0 103 11q83 17 150.5 57.5t116.5 109t63 154.5q11 65 12 128v11q1 57 -9 117q-10 66 -42.5 122.5t-83.5 92.5q-53 39 -167.5 76.5t-142.5 50.5q-40 14 -69 50t-37 78q-5 23 -5 47q0 19 3 37q7 40 39.5 66.5t83.5 26.5 q46 0 72 -22t34 -53.5t13 -63.5t16.5 -54t36.5 -22q11 0 73 -6q47 -5 85 -5h23q48 2 65 19q27 31 27 75q0 21 -6 47q-19 76 -57.5 145.5t-70.5 97.5q-67 61 -150 89q-75 26 -147 25h-15q-80 -3 -156.5 -35t-134.5 -85.5t-93 -133t-35 -170.5q0 -267 213 -368 q28 -13 102.5 -33t133 -44t81.5 -58q26 -38 29 -108v-14q0 -61 -23 -115q-26 -60 -75 -67q-31 -7 -55 -7q-17 -1 -29 3q-32 8 -43.5 21t-17 37.5t-6 47t-9 49t-25.5 44.5q-19 17 -65 19q-14 1 -28 1q-36 0 -80 -4q-62 -6 -72 -6q-50 0 -50 -66q0 -34 13 -84z" />
<glyph unicode="T" horiz-adv-x="1062" d="M0 1341q0 22 4 62q4 36 4 53q0 35 26 52q25 16 57 16h4q35 -1 70 -1q6 -1 9 -1q12 -2 27 -2h635q23 0 38.5 -29.5t20.5 -73.5h43q31 0 47 -46.5t16 -110.5q0 -99 -26 -125q-19 -19 -98 -19q-15 0 -45 1t-44 1q-59 3 -65 13q-2 2 -2 4v-1008q0 -13 4 -45q6 -50 6 -85 q0 -45 -10 -63q-10 -27 -68 -43t-123 -16q-75 0 -102 10q-51 5 -51 95q-42 4 -51 8q-52 3 -52 98q0 17 2 37q0 3 1.5 8.5t1.5 7.5v983q-7 0 -21 -1t-18 -1q-14 -2 -39 -2q-96 0 -99 103h-4q-56 0 -77 31.5t-21 88.5zM22 1343.5q0 -23.5 4.5 -49.5t22.5 -39.5t49 -13.5 q8 0 35 2.5t53 3.5t53 0.5t43.5 -7t16.5 -19.5v-277v-805q0 -4 -1.5 -23.5t-1.5 -35t2 -33.5t11 -28.5t23 -10.5q16 -8 80 -10q7 0 15 -1q57 1 111 11q60 12 60 35q10 14 10 50.5t-5 81t-5 54.5v412v598q10 7 62 3q46 -4 104 -4h14q68 0 80 13q15 14 20 75q2 19 2 38 q0 41 -8 79q-11 56 -36 56h-635q-8 0 -34 2.5t-46.5 2.5t-43 -2.5t-35.5 -14t-13 -31.5q0 -17 -3.5 -53t-3.5 -59.5z" />
<glyph unicode="U" horiz-adv-x="1040" d="M0 557q0 3 6 180q4 106 4 154v489v34.5t1.5 27.5t4.5 24t9 17t15 14t22.5 8.5t32 6.5t42.5 1h51q29 1 53 0t42.5 -5t31.5 -14.5t21 -31t10 -51.5q57 -2 81 -27.5t24 -105.5v-916q0 -39 8 -75q26 13 45 30q28 24 28 121q0 36 -4 94q-2 18 -2 56v862q0 72 138 72 q13 0 106 -6q27 -3 41 -3q33 0 49 -100h12q18 -2 41 -2q66 0 66 -367q0 -22 -8 -358q-2 -37 -2 -72v-342q0 -86 -37 -161t-97.5 -124.5t-138 -77.5t-159.5 -28q-80 0 -162 31q-121 47 -185 143q-76 49 -120 133.5t-57 170t-13 198.5zM22 616q-1 -23 -1 -48q-1 -44 1 -94 q2 -80 17.5 -141.5t43 -122.5t78 -106t120.5 -71q61 -23 127 -27q13 -1 27 0q52 0 102 11q62 14 118.5 46t98.5 76.5t67 105.5t25 130v342q0 9 4 106q2 97 4 201q1 52 1 106q-1 52 -1 108q-2 112 -12.5 183.5t-30.5 71.5q-9 0 -30.5 2t-44.5 3.5t-50.5 2.5t-51 -1t-44 -6.5 t-32 -16t-11.5 -27.5v-350v-512q0 -12 3 -62.5t4 -87.5v-8q0 -34 -8 -70q-8 -42 -28 -59q-39 -34 -72 -38.5t-54 15t-36 52t-21.5 68t-6.5 67.5v459v456q0 26 -3.5 44.5t-7.5 31t-15 20.5t-19.5 12t-28 5.5t-32 1.5t-40 -1t-45.5 -1q-40 0 -62 -4.5t-32 -21.5t-11 -31 t-1 -54v-24v-467q0 -46 -3.5 -130t-5.5 -145z" />
<glyph unicode="V" horiz-adv-x="1120" d="M0 1409q0 100 78 100q21 0 39 2q102 7 104 7q117 0 125 -56q4 -34 8 -49q87 -7 95 -53q6 -41 22 -119l23 -119l26 -153l62 325q4 21 6 35q18 174 76 180q35 13 71 13q38 0 117 -9q50 -4 63 -4q40 0 40 -74q0 -11 -1 -24q50 -4 64 -4q21 0 31.5 -21.5t8.5 -62t-7.5 -81 t-19 -96.5t-22 -88t-20.5 -75q-1 -6 -5 -17.5t-5 -17.5q-153 -650 -182 -780q-4 -18 -10 -46.5t-9 -39.5q-7 -35 -11.5 -53t-12 -42.5t-15.5 -36t-21.5 -26.5t-30.5 -21.5t-41.5 -13t-55 -8.5t-70.5 -2q-73 0 -114 105q-30 3 -53.5 24.5t-37.5 47t-25.5 69t-16.5 72.5 t-11 75v-2l-12 72q-4 20 -14.5 62t-14.5 63q-108 450 -153 659l-17 52v-2q-51 161 -51 233zM21 1382q7 -49 18.5 -93t28.5 -95.5t20 -63.5q16 -70 182 -784q4 -18 11 -69.5t15 -92.5t22 -86t39.5 -70.5t60.5 -25.5q39 0 68 2t52 8.5t38.5 12.5t27.5 21t19 27t14 37t11 44 t11.5 55.5t14.5 64.5q36 160 182 781q1 5 16 58.5t30 111.5q14 59 26 121q10 52 11 88q-1 6 -1 14q-2 40 -23 41q-14 0 -73 6.5t-106.5 6.5t-65.5 -13q-15 0 -26.5 -16t-18 -42.5t-10.5 -51t-7 -50.5t-4 -31q-82 -442 -125 -663q-19 97 -54 292.5t-54 293.5 q-7 40 -22.5 119.5t-22.5 119.5q-3 17 -25 26.5t-55 10.5h-26q-19 -1 -38 -1q-31 -2 -63.5 -4.5t-40.5 -2.5q-36 0 -50 -29q-9 -19 -9 -48q0 -14 2 -30z" />
<glyph unicode="W" horiz-adv-x="1533" d="M0 1421q0 19 3.5 33t8.5 24t18.5 16t23 9.5t34 5t40.5 2t51 0.5h9q87 0 122.5 -25.5t45.5 -82.5q29 -5 49 -16.5t31 -24.5t18 -38.5t9.5 -45t5.5 -57.5l6 -80l17 76q3 16 14 88q5 43 9.5 66.5t16 54.5t29 46.5t48.5 27t75 11.5q72 0 108.5 -28t53.5 -80q28 -7 48.5 -22.5 t32.5 -32.5t21 -44.5t13 -50t8 -57.5q12 -79 14 -90l27 217q0 3 1 11t1 14q1 23 1.5 32.5t2.5 33.5t6 36.5t10.5 28.5t17.5 23.5t25 8.5q35 13 72 13q49 0 119 -8q62 -5 63 -5q41 0 41 -88v-10q46 -4 62 -4q41 0 41 -88q0 -125 -70 -463q-1 -8 -5 -24.5t-5 -24.5l-142 -827 q-10 -57 -62.5 -90t-117.5 -33q-59 0 -106.5 29.5t-59.5 80.5v2q-40 13 -67.5 38.5t-34.5 62.5q-34 158 -58 288l-34 -188q-7 -36 -11 -80q-4 -37 -7 -56t-9.5 -49t-17 -46t-27 -32.5t-42 -24t-58.5 -7.5q-117 0 -156.5 19.5t-56.5 89.5q-59 9 -80 42t-35 126 q-13 69 -27.5 154t-32 188.5t-26.5 154.5l-14 84q-27 149 -52 303l-51 305q-8 39 -8 78zM21 1431q-2 -16 0.5 -35.5t7.5 -47.5q17 -102 51 -305t51 -304q86 -504 100 -581q6 -34 9 -52.5t10.5 -38.5t11 -28.5t18 -18.5t22.5 -12t33.5 -5t43 -3h57.5q37 0 62.5 12.5t39 30.5 t22 48.5t11.5 57t7.5 66t9.5 64.5q43 224 96 512q23 -119 69.5 -357.5t69.5 -357.5q7 -38 39 -62q30 -25 72 -30q16 -2 32 -2l52 5q42 8 72.5 35t37.5 66q28 162 79.5 464t62.5 363q1 5 16 77t28 148q14 76 26 160q11 72 11 122v16q-2 54 -22 53q-14 0 -74 6.5t-108 6.5 t-66 -13q-15 0 -25 -14t-14.5 -37.5t-7 -45t-2.5 -44.5t-2 -29q-12 -100 -35.5 -297t-36.5 -297q-17 80 -49.5 238.5t-48.5 238.5q-6 30 -11.5 74t-9 70t-13.5 56.5t-25.5 47t-45 28t-71.5 11.5q-41 0 -69.5 -11t-43.5 -27t-25 -46t-13.5 -55t-9 -68t-11.5 -72 q-16 -78 -48 -233.5t-48 -233.5q-10 82 -31 245t-31 245q-4 30 -7.5 74.5t-6 65.5t-11.5 48.5t-24.5 39t-44 20t-72.5 8.5h-12h-50t-37.5 -2t-30.5 -5.5t-19.5 -10.5t-13.5 -16.5t-4 -25.5z" />
<glyph unicode="X" horiz-adv-x="1155" d="M8 23q-6 11 -6 29q0 75 102 265q6 10 13.5 23.5t12 22.5t5.5 10l90 207l92 204q2 4 2 9q0 42 -86 190l-32 64l-172 383q-3 8 -3 15q0 29 50 49q62 26 145 26q124 0 146 -39q21 -19 47 -72q43 -9 55 -31q31 -31 55 -90q52 147 103 195q26 35 139 35q52 0 97.5 -8t76 -26 t25.5 -42q3 -16 0 -35q103 -21 103 -62q0 -3 -1 -6q1 -5 1 -12q0 -24 -16 -67q-21 -55 -43 -94.5t-61 -106.5q-29 -47 -43 -76l-137 -299l166 -371l41 -73q29 -51 44 -78t38 -73.5t31.5 -78.5t3.5 -51q4 -31 -54 -50.5t-135 -19.5q-59 0 -105 15.5t-59 44.5l-22 51 q-66 17 -80 51l-72 164l-110 -266q-14 -31 -77.5 -49.5t-133.5 -18.5q-42 0 -80 11t-53 28q-7 15 -7 38q0 13 2 28q-74 10 -98 37zM25 35q16 -24 87 -29q17 -1 35 -1q53 -1 105 11q70 16 82 43q26 64 80 191t80 190q27 -63 81 -190t80 -191q19 -44 135 -47h14q90 0 142 25 q28 13 21 29q2 6 2 13q0 29 -25 84q-31 69 -78 150.5t-53 94.5q-32 74 -95.5 213.5t-74.5 164.5q23 51 70 154t71 154q6 13 54 96t80 153q26 56 26 84q0 7 -2 13q11 24 -39 40q-56 18 -129 18q-22 0 -46 -2q-78 -6 -89 -30q-31 -25 -58 -88.5t-51.5 -145.5t-35.5 -108 q-10 24 -34.5 107.5t-51.5 146.5t-58 88q-11 30 -116 32h-22q-95 0 -144 -24q-30 -15 -21 -36q20 -44 54.5 -120.5t63.5 -141t54 -121.5q3 -6 43 -76.5t62 -124.5q15 -37 16 -61q0 -10 -4 -17q-31 -69 -91 -204.5t-91 -204.5q-3 -8 -48 -89t-71 -150q-16 -43 -16 -68 q0 -16 6 -25z" />
<glyph unicode="Y" horiz-adv-x="1122" d="M26 1462q2 -18 6.5 -32t14 -35t10.5 -25l252 -645q20 -52 29 -116.5t9 -110t-2.5 -126t-2.5 -116.5q0 -7 -6 -66q-4 -43 -4 -79q0 -13 1 -25q2 -44 19 -61q19 -19 128 -21q18 -1 33 -1q79 0 95 11q20 0 30.5 51t11.5 131v64v92q-2 75 -5.5 146.5t-3.5 81.5q0 65 21.5 135 t65.5 166t56 127q2 5 17 40t32 76t38 94t37 101t26 89q10 38 10 62q0 29 -16 29q-20 0 -61 4t-72 5h-14q-25 0 -52 -2q-35 -4 -58.5 -21t-33.5 -47q-25 -73 -73 -218.5t-72 -218.5q-10 32 -35 148.5t-55 205.5t-68 122q-5 15 -29.5 22.5t-60.5 8.5h-18q-26 0 -52 -2 q-33 -1 -66.5 -4t-41.5 -3q-22 0 -32 -9.5t-8 -27.5zM31 1380q-28 56 -28 89q0 51 63 51q20 0 38 2q99 6 121 6q103 0 125 -39q28 -24 49 -72q38 -9 54 -31q46 -41 86 -174l4 13l75 219h-2q25 86 158 86q1 0 88 -6q50 -4 66 -4q29 0 29 -49q0 -21 -5 -50h13q50 -4 65 -4 q29 0 29 -47q0 -102 -135 -423q-7 -18 -9 -23q-3 -7 -6 -16.5t-4 -10.5l-47 -111q-45 -95 -69.5 -167.5t-24.5 -141.5q0 -34 2 -65q6 -189 6 -254q0 -260 -55 -267q-38 -10 -113 -10q-137 0 -164 27q-23 23 -26 80q-61 7 -76 22q-27 27 -27 103q0 9 6 96q1 8 2 18.5t2 17.5 t1 11q0 76 2 113q2 35 2 114q0 147 -35 234l-252 645l-8 20v-2z" />
<glyph unicode="Z" horiz-adv-x="991" d="M0 80q0 35 11 86t26.5 99t36 101.5t36 90.5t29.5 68.5t15 33.5l141 340l86 209h-180q-28 0 -46 28t-24 74h-33q-35 0 -53 44t-18 106q0 54 15 97t40 50q35 21 113 21q61 0 163 -12q61 -7 88 -7h312q67 0 67 -90v-12h35q68 0 68 -90q0 -119 -146 -453l-6 -16l-237 -565 h198q31 0 52.5 -29t31.5 -74h19q43 0 66.5 -51.5t23.5 -118.5q0 -81 -31 -112q-36 -31 -137 -31q-64 0 -154 8q-13 1 -37.5 3.5t-31.5 2.5h-365q-72 0 -72 96v7h-30q-72 0 -72 96zM29 32q12 -28 43 -28h364q11 0 99 -8q68 -7 124 -7q16 1 32 1q68 2 91 24q20 22 24 82 q1 9 1 19q0 51 -16 95q-19 52 -54 52h-375q124 298 291 692q1 2 10 23q137 321 137 441q0 66 -42 71h-312q-20 0 -104 9t-153 9t-97 -18q-28 -1 -40 -65q-6 -32 -6 -64t6 -64q12 -64 46 -65h357q-47 -113 -141.5 -339.5t-141.5 -340.5q-1 -2 -5 -12q-147 -328 -147 -456 q0 -32 9 -51z" />
<glyph unicode="`" horiz-adv-x="471" />
<glyph unicode="a" horiz-adv-x="1091" d="M-18 71q0 37 8 75q8 40 25.5 101.5t30 98.5t32.5 94l28 90l203 785l-1 1q0 1 1 4.5t1.5 7t1.5 8t1 7.5q16 105 35 132q9 21 51.5 33t96.5 12q58 0 100.5 -12t48.5 -35l14 -60q81 -11 89 -43l57 -221v2q57 -221 272 -1071l8 -25l-2 2q9 -25 13.5 -38.5t10.5 -38t4.5 -42.5 t-11.5 -30q-26 -29 -152 -29q-156 0 -174 45q-19 19 -26 64q-64 10 -76 39q-6 6 -11 14t-8.5 19.5t-5.5 19t-3 24t-1.5 22t-1 26t-0.5 24.5q0 17 -2 27h-39q-97 0 -121 -8q-20 -20 -24 -123q-1 -38 -2.5 -58.5t-8.5 -47.5t-20 -42q-19 -45 -174 -45q-126 0 -152 29 q-14 20 -14 62v16q-74 7 -88 24t-14 61zM12 160q-12 -51 -13 -85q0 -34 13 -50q13 -15 83 -21q27 -2 53 -3q44 0 84 6q66 9 71 30q22 21 25.5 82.5t8.5 120t30 75.5q15 11 130 11t132 -11q24 -17 28 -75.5t7.5 -120t25.5 -82.5q6 -21 72 -30q41 -6 83 -6q26 1 53 3 q70 6 83 21q7 9 7.5 24.5t-4 34.5t-10 36t-12 34.5t-8.5 23.5q-190 749 -329 1288q-5 21 -67 30q-31 4 -61 4l-61 -4q-62 -9 -67 -30q-9 -9 -16 -31t-10.5 -42.5t-7.5 -47t-5 -32.5q-34 -131 -101.5 -393.5t-101.5 -393.5q-3 -12 -47 -137t-68 -229zM422 571 q13 57 37.5 168.5t36.5 167.5l73 -336h-147z" />
<glyph unicode="b" horiz-adv-x="1030" d="M0 125v1315q0 78 133 78q21 0 88 -5q36 -4 43 -4q56 0 98.5 -2.5t98 -8t100 -19t90.5 -33.5t84 -53t66 -76q71 -51 112 -119q52 -96 52 -223q0 -88 -28.5 -165t-86.5 -126q57 -51 88 -137t31 -180q0 -107 -34.5 -207.5t-94.5 -157.5q-75 -69 -176 -94t-230 -25 q-17 0 -48 1t-46 1q-16 0 -46 1t-44 1q-92 0 -118.5 17t-29.5 86q-66 3 -84 27t-18 108zM20 125q0 -80 20 -97.5t107 -17.5q28 0 96 -1.5t106 -1.5t99.5 5t103.5 16t89 34t82 57q75 73 107 207q17 70 17 139q-1 64 -15 128q-30 133 -119 193q73 49 105 141q26 74 26 151 q0 19 -2 38q-8 97 -49 174q-21 41 -52 73.5t-62 53t-77 35t-79 22t-87.5 11t-85 4t-86.5 0.5q-11 0 -46 3.5t-65 4.5t-62.5 -1.5t-51.5 -16.5t-19 -39v-350v-965zM314 337q1 9 2 30t1 39v260h25.5h28.5t28 -0.5t29 -2t26.5 -5t26.5 -8t22 -12t19.5 -17t13.5 -22t9 -28.5 q10 -42 10 -85q-1 -9 -1 -18q-2 -52 -15.5 -94t-53 -68.5t-100.5 -26.5q-21 4 -32.5 6.5t-21 7.5t-12 9t-4.5 15t-1 20zM317 918v256q0 57 54 62h11q51 0 106 -42q73 -56 73 -133q0 -59 -43 -113q-6 -8 -28.5 -16t-51 -14t-56 -9t-46.5 -1t-19 10zM440 305q95 30 95 170 q0 26 -7 66q-15 2 -86 2h-2v-238zM440 930q52 18 62 31q39 51 39 98q0 22 -9 43q-27 10 -49 10q-43 0 -43 -41v-141z" />
<glyph unicode="c" horiz-adv-x="1048" d="M0 1024q0 234 80 338q60 79 154.5 120.5t201.5 41.5q141 0 242 -62q47 -29 106 -104q64 -40 133.5 -146t69.5 -190q0 -45 -20 -78q-13 -53 -142 -53q-48 0 -102 4q-14 2 -31 2q-37 0 -51 25.5t-20 74.5q-14 2 -31 2t-29.5 7t-19.5 16t-12 26.5t-7 30.5t-4 35q-2 4 -2 16 q-65 -37 -65 -387v-79q0 -8 -1 -20.5t-2 -31t-2 -30.5q-8 -94 -8 -162q0 -76 11 -127q25 3 40.5 23t19 34t9.5 49q1 6 2 9l3.5 28t4.5 27.5t7 19t13.5 16t22.5 5.5q30 10 123 10q88 0 121 -10q59 -3 59 -76q0 -14 -2 -20l46 -7q59 -3 59 -75q0 -68 -53 -187.5t-80 -144.5 q-62 -56 -145 -85.5t-171 -29.5q-149 0 -270 82q-52 38 -86 90l-16 12q-89 65 -121.5 167.5t-32.5 240.5q0 47 4 129q4 78 4 113q0 33 -4 131q-6 86 -6 180zM20 973q2 -62 6.5 -141t4.5 -119q0 -35 -3 -107q-3 -70 -4 -118v-16q0 -44 4 -100q6 -68 20 -115t44 -96t76 -81 q110 -77 253 -77q17 1 33 1q164 10 273 107q24 22 70 124q58 127 58 190q0 23 -8 38q-11 19 -36 20q-17 11 -116.5 11t-114.5 -11q-20 0 -28.5 -21.5t-11.5 -52.5t-9.5 -62.5t-30.5 -53t-66 -21.5q-41 0 -67.5 30t-36.5 73t-13 103q-2 30 -1.5 58t1.5 52q3 50 7 104.5 t4 73.5q0 156 1 179q13 312 102 312h4q35 -3 81 -55q13 -14 18.5 -46.5t7 -61t13 -51.5t35.5 -23q6 0 40 -2q34 -4 66 -4h17q25 0 51 2q36 2 58 11.5t22 27.5q22 33 22 74q0 31 -12 65q-28 80 -84 151.5t-102 98.5q-88 52 -197 60q-18 1 -36 1q-90 1 -175 -33 q-102 -40 -164 -122q-33 -45 -51.5 -107t-22.5 -135q-2 -51 -2 -97v-38z" />
<glyph unicode="d" horiz-adv-x="942" d="M-20 129q0 19 6 100q2 16 2 35v1139q0 71 35.5 97t103.5 26q43 0 63 -2q46 -4 68 -4q88 0 156 -6.5t144.5 -24.5t136.5 -58t98 -100q132 -84 157 -262q13 -102 13 -197q0 -26 -5 -159q-4 -106 -4 -158q0 -13 1 -40t1 -42t1 -44t1 -44q0 -131 -27.5 -228.5t-107.5 -164.5 q-76 -65 -179 -88t-236 -23q-93 0 -136 2q-41 2 -118 2q-61 0 -72 103h-31q-71 0 -71 141zM2 154q0 -6 -1 -13q0 -27 2 -55q2 -36 14.5 -57t33.5 -21q37 0 129 -4q65 -2 111 -2h37q56 2 133 10t138.5 33t109.5 66q37 31 63 75t38.5 82.5t18 98t5.5 95.5t-1.5 102.5 t-1.5 92.5q0 51 4 160q3 87 3 159v34q-1 84 -11 159q-10 73 -38.5 129t-73.5 91t-94.5 58t-115.5 33.5t-121 14.5t-126 4q-22 0 -58.5 2.5t-59 4t-50.5 -2t-44 -13t-27 -31.5t-11 -56v-1139q0 -7 -3 -42.5t-3 -67.5zM309 270v211v699q0 52 26 62q11 4 27 5q22 0 53 -8 q4 -1 6.5 -1.5t7 -1t7.5 -1.5q20 -3 35.5 -11.5t25.5 -18t17 -26.5t10 -29t5 -34.5t2 -33.5t-0.5 -35.5t-0.5 -32.5v-602q0 -61 -57.5 -101.5t-106.5 -42t-57 1.5zM432 289q78 38 78 123v628q0 51 -4 76q-36 8 -47 8q-14 0 -20.5 -10t-6.5 -37v-788z" />
<glyph unicode="e" horiz-adv-x="876" d="M-18 1382q0 79 24 103q28 28 125 28q63 0 145 -8q54 -4 66 -4q20 0 98 8q110 13 170 13q78 0 119 -21q39 -5 53 -88q27 -3 49 -14q29 -3 44.5 -47t15.5 -103q0 -61 -17.5 -103t-50.5 -42h-409q14 -4 14 -170v-33h53q29 0 80 1t66 1h35q26 0 43 -29t22 -73h2h35 q33 0 51.5 -44t18.5 -104q0 -57 -15.5 -100.5t-42.5 -46.5q-28 -14 -65 -14q-39 0 -121 16q-86 16 -119 16q-37 0 -49 -12q-4 -4 -4 -158v-67q72 0 190 12q82 8 97 8q59 0 81 -102h21q43 0 66.5 -53t23.5 -121q0 -86 -31 -117q-33 -33 -141 -33q-41 0 -164 10q-58 7 -74 7 h-340q-55 0 -59 102h-43q-59 0 -59 129q0 40 4 86q0 4 1 13t1 12v989q0 5 -4 51q-6 93 -6 102zM2 1406v-24q0 -38 4 -84q6 -60 6 -69v-989q0 -5 -2.5 -34t-3 -57.5t1.5 -59.5t11 -50t26 -19h340q11 0 104 -9q73 -7 133 -7q17 0 32 1q72 2 96 26q20 21 24 83q1 10 1 20 q1 52 -15 98q-18 56 -55 55q-17 0 -117 -10t-180 -10t-103 20q-11 9 -11 170t11 172q20 19 67 19h7q52 -2 104 -14q51 -13 105 -17q11 -1 21 -1q38 0 59 13q26 -1 38 63q6 32 6 64t-6 64q-12 64 -44 63q-5 0 -51.5 -0.5t-93 -0.5t-97.5 0.5t-83 2.5t-32 6q0 3 -0.5 47 t-0.5 87.5t0.5 92t2 79t4.5 30.5h410q31 -1 43 63q6 31 5 63q0 33 -6 65q-12 64 -38 63q-31 19 -105 19t-165 -9.5t-113 -9.5q-9 -1 -92 7q-62 6 -113 6h-33q-63 -2 -84 -24q-16 -17 -18 -64z" />
<glyph unicode="f" horiz-adv-x="970" d="M0 635q0 169 6 637q2 72 2 147q0 99 266 99q27 0 248 -13q78 -4 86 -4q29 0 43 2q40 2 74 2t56 -23t22 -73v-6h8q42 0 67 -19q27 -20 27 -77q0 -9 1 -26.5t1 -25.5q1 -32 -0.5 -51t-8.5 -41t-20.5 -33.5t-39 -19.5t-62.5 -8h-33q-16 0 -69 1t-84 1q-138 0 -141 10v-231 h32q30 0 82 1t68 1h37q33 0 55.5 -29t30.5 -74h16q44 0 68 -48.5t24 -112.5q0 -57 -16 -84q-2 -60 -182 -60q-35 0 -146 6q-20 2 -41 2q-39 0 -39 -47q4 -51 6 -69q5 -50 5 -62v-364q0 -66 -140 -66q-19 0 -106 6q-18 2 -39 2q-23 0 -39 99q-8 2 -25 2q-18 2 -39 2 q-61 0 -61 647zM20 467q1 -201 11.5 -330t29.5 -129q8 0 44 -3t69 -4h28q21 0 42 1q37 1 59.5 12t22.5 31v365q0 18 -3.5 50t-5 54.5t1 45.5t16.5 35.5t40 12.5q7 0 52.5 -3t90.5 -4h37q28 0 57 1q49 1 80 11.5t31 29.5q18 26 18 81q0 51 -19 95q-20 45 -54 45 q-5 0 -48.5 -0.5t-89.5 -1.5h-45.5h-48.5q-48 1 -79 3t-31 5v349q0 3 32 5t82 2q25 1 49 1t47 -1q46 0 90 -0.5t48 -0.5q29 0 48.5 3t32 12.5t19 18t8.5 28t2 32.5t-1 42.5t-1 47.5q0 25 -8 41t-19.5 23t-31 10t-35 2t-41 -2.5t-39.5 -1.5q-17 0 -94.5 5.5t-151.5 8.5 q-38 1 -76.5 1t-77.5 -1q-80 -3 -129.5 -22t-49.5 -54q0 -21 -3.5 -198.5t-5.5 -364.5v-230v-159z" />
<glyph unicode="g" horiz-adv-x="972" d="M-18 557q0 83 8 223q6 88 6 160v59q0 13 -1 36t-1 36q0 144 43 225q57 102 167.5 162t231.5 60q81 0 159.5 -25t139.5 -72q21 -18 51 -67q21 -11 52 -35q36 -29 94.5 -149t58.5 -193q0 -84 -73 -84q-18 0 -68 -4t-74 -4q-62 0 -96 21.5t-37 80.5q-50 5 -76 31t-26 84v4 h-2q-41 0 -71 -27t-30 -75v-132h365q75 0 82 -102h20q84 0 84 -129q0 -32 -4 -78q-4 -36 -4 -47q0 -53 2 -84q2 -33 2 -104q0 -148 -43 -232q-57 -102 -167.5 -161.5t-231.5 -59.5q-174 0 -299 96q-48 39 -76 82q-24 18 -27 21q-90 69 -124.5 192.5t-34.5 290.5zM2 582 q-1 -4 -1 -8q0 -81 9 -178q10 -101 46 -179.5t98 -126.5q100 -76 232 -90q28 -4 55 -4q103 0 199 44q122 55 181 169q21 41 31 98.5t10 98.5q1 7 1 15q0 39 -3 99q-2 73 -2 98q0 13 3.5 48t4 62.5t-2.5 58t-18 48t-42 17.5h-385q-33 0 -46 -61q-6 -31 -6 -61t6 -61 q13 -61 40 -61q12 -7 38 -7t58.5 3.5t42.5 3.5q6 0 9.5 -13.5t4 -35.5t-0.5 -43t-2 -41.5t-1 -25.5q0 -7 1 -30.5t0.5 -36.5t-3 -31.5t-10.5 -32.5t-21 -23q-39 -28 -89 -29q-2 -1 -5 -1q-47 0 -82 29q-37 29 -37 81q-12 44 -12 105.5t6 136.5t6 108v381q0 47 25.5 79 t61.5 39q17 3 34 3l38 -4q36 -8 61.5 -41t25.5 -80q0 -32 12 -53t30 -29.5t46.5 -11t53 -0.5t58.5 5t54 3q54 0 54 62q0 30 -13 76q-30 105 -97 206q-22 34 -36 45q-100 76 -233 91q-28 3 -55 3q-103 0 -199 -44q-122 -55 -181 -169q-15 -29 -24.5 -62t-12.5 -73.5t-4 -66.5 v-21q0 -23 1 -55q1 -50 1 -68q0 -47 -7 -160.5t-7 -197.5zM426 387q0 -69 8 -100h4q39 0 78 24q25 24 25 91v20v51v2q-25 4 -33 10q-41 12 -55 93h-17q0 -12 -2 -34t-2 -34q-6 -62 -6 -123z" />
<glyph unicode="h" horiz-adv-x="1034" d="M0 573q0 23 8 603q2 63 2 129q0 16 -2 30q-4 36 -4 68q0 115 70 115q11 0 57 4q81 6 84 6q135 0 135 -98v-7q103 -11 103 -96v-442h16q47 0 68 18q12 10 12 98q0 87 -12 213q-7 65 -7 89q0 10 -1 29t-1 28q-4 34 -1 63t14 50t40 33t76 12q9 0 27.5 1t26.5 1q31 3 59 0 t49 -11t35 -31.5t16 -60.5q50 -3 76.5 -28.5t26.5 -88.5v-1314q0 -59 -34 -82t-93 -23q-20 0 -66 4q-40 4 -57 4q-87 0 -98 103h-4q-99 0 -99 133q0 26 4 76q4 40 4 55v39q0 18 1 76t1 92v65q-44 2 -61.5 -12t-17.5 -67v-488q0 -80 -148 -80q-38 0 -92 4q-40 4 -47 4 q-27 0 -43 99h-12q-40 4 -48 4q-63 0 -63 581zM21 435q1 -185 11.5 -304t30.5 -119q12 0 50.5 -3.5t70.5 -4.5h17q25 0 51 2q36 3 57 17.5t21 39.5v488q0 35 7 56.5t17 31t31.5 12t40.5 0.5t53.5 -5t61.5 -3q6 0 9 -35q4 -36 4 -92v-54v-52q0 -51 -1.5 -100t-1.5 -54 q0 -17 -3.5 -56t-4 -66.5t4 -58t23 -47t50.5 -16.5q18 0 57 -3.5t63.5 -3.5t52.5 5.5t42 25t14 52.5v928v387q0 30 -7.5 49.5t-17 29.5t-31.5 14t-37 4t-48 -1.5t-52 -1.5q-29 0 -49.5 -4t-32.5 -14t-18 -20t-8 -29.5t-1.5 -34.5t2 -43.5t1.5 -48.5q0 -12 9 -118t9 -192.5 t-18 -103.5q-27 -25 -81 -25q-1 0 -2 -1q-52 0 -94 24q-44 24 -44 63v480q0 32 -17.5 50t-50 22.5t-62 3.5t-69.5 -5t-57 -4q-20 0 -32 -15t-14.5 -41t-2 -49t3 -51t2.5 -36q0 -17 -3.5 -178t-5.5 -334q-1 -115 -1 -236v-122z" />
<glyph unicode="i" horiz-adv-x="421" d="M-18 401q0 229 8 433q2 43 2 86v487q0 56 56 87.5t130 31.5q73 0 109 -27q19 -11 32 -78q48 -7 70 -24q53 -31 53 -420q0 -26 -8 -426q-2 -43 -2 -84v-487q0 -59 -36.5 -82t-100.5 -23q-28 0 -82 4q-50 4 -66 4q-30 0 -47 101q-20 2 -55 2q-63 0 -63 415zM2 308 q1 -132 12 -217t31 -85q18 0 51.5 -3t59 -5.5t56 -0.5t50.5 9.5t33.5 26.5t13.5 49v487q0 10 3 123q4 114 6 236q1 74 0 150v104q-1 132 -11.5 216.5t-30.5 84.5q-27 17 -72 21q-14 1 -29 1q-31 1 -59 -5q-42 -8 -73 -33t-31 -60v-487q0 -10 -3.5 -123t-5.5 -235 q-1 -82 -1 -168v-86z" />
<glyph unicode="j" horiz-adv-x="851" d="M-18 154q0 26 23.5 51.5t74.5 62.5q52 35 88 42q12 3 24 3q21 0 39 -8q40 -16 99 -16q106 0 106 186q0 49 -2 74q0 11 -1 29t-1 26q0 51 -2 98q-10 250 -10 408q0 401 76 401q18 0 75 5q20 2 64 2q60 0 93 -22t40 -83q50 -3 77 -33t27 -100v-1001q0 -117 -66 -212 t-168 -145.5t-214 -50.5q-122 0 -211 55q-67 40 -96.5 65.5t-32.5 51.5q-54 33 -78 58.5t-24 52.5zM9.5 178q-16.5 -28 7.5 -56.5t104 -74.5q62 -36 134 -47q35 -5 70 -5q36 0 71 5q69 12 134 45t113.5 81t77.5 114.5t29 140.5v428v573q0 38 -10.5 62t-25 35.5t-42 15.5 t-50 2.5t-61.5 -4t-65 -2.5q-25 0 -39 -80.5t-15 -206.5q-1 -54 -1 -106q0 -70 1 -138q2 -117 6.5 -229t4.5 -127t2 -50.5t2 -62t-1.5 -62.5t-9 -62t-21 -50t-38 -36.5t-57.5 -12.5q-43 0 -77.5 9.5t-48.5 15.5t-41 -2.5t-71 -38.5q-66 -46 -82.5 -74z" />
<glyph unicode="k" horiz-adv-x="1060" d="M-20 315q0 133 12 289q1 18 3.5 54.5t2.5 46.5q0 40 -2 79q-10 215 -10 359q0 370 77 370q42 0 80 3q27 2 51 2h24q34 -2 58 -10t39.5 -31.5t20.5 -63.5q55 -5 80.5 -37.5t25.5 -115.5v-3q116 248 185 256q29 11 98 11q40 0 76.5 -5t68.5 -16t42.5 -29t-1.5 -44l-8 -15 q63 -8 97 -30q21 -14 21 -33q0 -12 -7 -25l-154 -274q-5 -9 -23 -34.5t-26 -39.5q-32 -47 -48 -72q-17 -25 -35 -62q-20 -39 -19 -61q0 -49 75 -176q24 -43 29 -55q49 -116 188 -426l17 -33v2q13 -24 20.5 -37.5t19.5 -39.5t16.5 -43.5t4.5 -37t-8 -32.5h2q-20 -37 -121 -37 q-11 0 -98 6q-40 4 -43 4q-25 0 -42.5 6.5t-29.5 23t-18 29t-16 39.5l-3 5q-24 1 -40.5 8t-28 23t-17.5 29t-14 38l-8 16l-121 285q-6 -16 -11 -32.5t-8.5 -28t-5.5 -33t-3.5 -30.5t-2 -36t-0.5 -35v-43.5v-44.5q0 -35 -0.5 -59.5t-3.5 -47.5t-4.5 -37t-10.5 -27.5 t-14 -20.5t-21.5 -13t-26 -8t-36 -4t-43 -2h-53.5h-36q-64 0 -91 103h-12q-110 0 -110 333zM2 408q-1 -41 -1 -83q0 -51 2 -105q3 -98 25 -158t62 -60q131 0 157 5q46 9 60 48q12 36 12 146t2.5 153t22 106t64.5 134q25 -60 95 -229t109 -261q3 -7 12 -30t13 -30t14.5 -20 t24 -17.5t33.5 -4.5q5 0 71 -6q40 -4 72 -4q22 0 40 2q46 4 60 24q12 18 -1.5 58.5t-41 91.5t-28.5 53q-161 360 -189 426q-4 9 -38 67t-52 102q-17 40 -16 67v6q1 34 29.5 85.5t71 111.5t52.5 79q82 149 154 275q4 7 4 14q0 24 -55 37q-50 12 -109 12q-31 0 -65 -3 q-26 -3 -35 -7q-31 0 -81.5 -77.5t-92 -167t-86.5 -191.5t-54 -119v424q0 37 -5 62.5t-18 40.5t-26.5 22.5t-39 9.5t-46 1t-57.5 -3t-64 -2q-26 0 -40 -72q-13 -73 -15 -185q-1 -56 -1 -110q1 -54 1 -106q2 -104 6 -204t4 -111q0 -20 -7 -113.5t-9 -183.5z" />
<glyph unicode="l" horiz-adv-x="886" d="M-20 559q0 29 8 569q2 59 2 119q0 14 -1 38.5t-1 35.5q-2 26 -2 49q0 20 2 36q4 36 11 59t32 36.5t65 19t109 5.5q112 0 133 -105q63 -10 87 -56t24 -122q0 -48 -7 -113q-6 -53 -6 -98v-733h264q59 0 82 -27t24 -75q52 -1 76 -25t25 -60q0 -31 -4 -81q-2 -18 -2 -54 q0 -29 -6 -47.5t-13 -28.5t-25.5 -14.5t-30 -5t-40.5 -0.5h-639q-27 0 -43 103h-59q-65 0 -65 575zM2 412q2 -179 12.5 -293.5t30.5 -114.5h623h19.5h19t16 0.5t15 2t11.5 4t10.5 6.5t7.5 9.5t6.5 13t3 17.5t1.5 23q0 18 3 54t2.5 56t-6.5 43.5t-25 34.5t-52 11h-342 q-20 0 -31 3t-14.5 12.5t-3.5 17.5t2 28t2 35v760q0 28 4 75q3 48 7 84q2 21 3 44q1 16 -1 34q-2 42 -13 69t-38 45.5t-70 18.5q-39 0 -67 -1.5t-50 -7.5t-35.5 -10.5t-23 -19.5t-13.5 -24t-6 -34.5t-2 -42t1 -54.5t1 -64q0 -15 -4 -170q-2 -155 -4 -321q-1 -83 -1 -168.5 t1 -175.5z" />
<glyph unicode="m" horiz-adv-x="1236" d="M-18.5 87.5q-2.5 26.5 0.5 57.5q0 7 1 28.5t1 29.5v1161q0 31 1 53t6.5 39.5t9.5 28.5t17.5 19t22 11.5t32 6t39 2.5h50.5h28q109 0 162 -113q31 -10 54.5 -31t41.5 -56.5t26.5 -59.5t23.5 -72q14 -53 26 -84l68 -172l72 174l86 215q29 70 50.5 106t57 59t77.5 28.5 t120 5.5h37q28 0 41 -103h24h37q63 0 63 -612q0 -19 -8 -643q-2 -70 -2 -143v-23q1 -31 -0.5 -46.5t-9 -33.5t-27.5 -25.5t-53 -7.5q-7 0 -43 -4q-50 -4 -82 -4q-127 0 -127 76v27q-102 7 -102 75v179q-62 -95 -137 -95q-88 0 -150 111q-47 19 -88 80v-244q3 -30 0.5 -54 t-2 -43t-5.5 -34t-10.5 -26t-18 -19t-27 -12.5t-37.5 -7.5t-50.5 -4t-64.5 -1q-72 0 -100 26.5t-31 78.5q-37 3 -59.5 16t-30.5 33t-10.5 46.5zM1 112q0 -15 1.5 -34.5t8 -29.5t18.5 -20t32.5 -14t49.5 -4q45 0 72.5 1.5t51.5 6.5t35 13t21 21.5t10.5 32.5t3.5 45.5t0 59.5 v46v499q10 -27 28.5 -96.5t36.5 -126.5t44.5 -117.5t64.5 -95.5t84 -35q38 0 71.5 26.5t56 66.5t44 95.5t35 103.5t28.5 101.5t25 79.5v-680q0 -24 18 -37t48.5 -16t59 -2t62 4.5t44.5 3.5q15 0 26.5 2.5t19 6t12.5 11t7.5 13t3.5 17.5t1 19t-0.5 22.5t-0.5 23.5 q0 20 3.5 192t5.5 356q1 123 1 251v130q-1 196 -11.5 322.5t-30.5 126.5h-38q-29 -1 -51.5 0t-42.5 -1.5t-36 -3t-30 -6.5t-25 -11.5t-22 -17t-20 -23.5t-19 -31.5t-19 -41t-21 -50.5t-88.5 -222t-116.5 -296q-26 67 -80 201t-80 202q-10 24 -22.5 64t-21 69t-24 63 t-33.5 55t-47 35.5t-65 14.5q-109 0 -130 -5q-38 -9 -49 -49q-7 -27 -7 -85v-563v-598q0 -19 -1.5 -47.5t-1.5 -43.5z" />
<glyph unicode="n" horiz-adv-x="1001" d="M-18.5 77.5q-2.5 26.5 0.5 57.5q0 7 1 28.5t1 29.5v1163q0 31 1 53t6.5 39.5t9 28.5t16.5 19t21 11.5t30.5 6t37 2.5h47.5h5h32q103 0 162 -113q24 -9 45 -26.5t34.5 -35.5t27.5 -48.5t21.5 -50t19.5 -54.5l28 -82l39 -96v307q0 1 -1 8.5t-1 13.5q-4 32 -4 66 q0 106 51 111q24 12 76 12q41 0 107 -8q46 -4 59 -4q26 0 39 -99h4q46 -4 59 -4q64 0 64 -657q0 -165 -6 -621q-2 -70 -2 -143q0 -65 -42.5 -98t-105.5 -33q-64 0 -123.5 32t-81.5 84l-4 11q-74 29 -98 92l-129 309v-311v-61.5t-3.5 -46t-7.5 -36.5t-16 -24t-25.5 -18 t-38.5 -8.5t-53 -6t-71 -0.5q-72 0 -100 26.5t-31 78.5q-37 3 -59.5 16t-30.5 33t-10.5 46.5zM1 102q0 -15 1.5 -34.5t8 -29.5t18.5 -20t32.5 -14t49.5 -4q79 0 114 3t56 27t22.5 49.5t1.5 98.5v37v518l270 -645q18 -45 70 -74q52 -28 106 -32q6 0 11 -1q47 0 85 26 q42 29 42 87q0 20 3.5 196t5.5 362q1 93 0.5 189.5t-0.5 196.5q-2 200 -13 328.5t-31 128.5q-14 0 -69 6t-100 6t-64 -12q-16 0 -25 -15t-11 -40t-1.5 -47.5t2.5 -46.5t2 -29v-557q-104 250 -180 440q-11 26 -27 76.5t-28.5 82t-34 66.5t-53.5 52.5t-75 17.5h-34 q-24 -1 -43 0t-34 -1.5t-26.5 -5t-20 -10t-14 -16.5t-8.5 -25t-4.5 -35t-1.5 -46v-563v-600q0 -19 -1.5 -47.5t-1.5 -43.5z" />
<glyph unicode="o" horiz-adv-x="974" d="M-18 565q0 81 8 221q6 88 6 160v60q0 11 -1 34.5t-1 36.5q0 142 43 223q57 102 167 162t230 60q171 0 297 -97q48 -42 74 -84l29 -18q159 -121 159 -481q0 -81 -8 -221q-6 -88 -6 -160q0 -10 1 -31t1 -31v-61q0 -153 -43 -234q-57 -105 -165.5 -162t-233.5 -57 q-172 0 -295 97q-46 34 -76 81q-24 18 -27 21q-159 121 -159 481zM2 590q0 -4 -1 -9q-1 -80 9 -176q10 -101 46 -179t98 -126q98 -76 230 -90q27 -3 54 -3q104 -1 200 43q120 54 179 167q19 36 29 86.5t12 78.5q1 14 0.5 39t-0.5 60q-2 71 -2 82q0 46 5 133.5t9 156.5 q2 34 2 74q0 41 -2 85q-4 90 -17.5 158t-47.5 133.5t-86 105.5q-99 77 -231 91q-28 3 -55 3q-103 0 -199 -44q-121 -55 -179 -169q-15 -29 -24.5 -62t-12.5 -73q-4 -41 -4 -67v-20q0 -23 1 -55q1 -49 1 -67q0 -47 -7 -159.5t-7 -196.5zM295 543q0 91 9 202.5t9 161.5v215 q0 30 13.5 54t35.5 36.5t48 19t52 1t48 -17.5t35.5 -35.5t13.5 -53.5v-522v-217q0 -42 -25 -71q-26 -30 -62 -36q-19 -3 -37 -3l-35 3q-36 6 -61.5 34.5t-25.5 70.5q-18 67 -18 158zM418 449q0 -100 16 -154q41 0 73 25t32 67v725q-41 -2 -72 -26.5t-31 -65.5v-215 q0 -48 -8 -166q-10 -105 -10 -190z" />
<glyph unicode="p" horiz-adv-x="948" d="M-18 153v4v3.5v4v3.5v1202v18q0 30 2 48q4 23 18 45.5t44.5 31.5t82.5 9q16 0 48 1t50 1q33 2 111 2q124 0 221 -25t172 -94q36 -36 53 -66q31 -19 50 -36q66 -63 100.5 -158t34.5 -201q0 -164 -76.5 -301.5t-212.5 -181.5l2 2q-14 -6 -111 -14q-9 -1 -22.5 -2t-23 -2 t-21.5 -2t-20.5 -1.5t-18 -1.5t-15.5 -1.5t-11.5 -0.5h-8.5h-2v-503q0 -61 -112 -61q-17 0 -37 1q-5 0 -13 1t-10 1q-107 0 -138 19t-34 86q-22 2 -37.5 6t-27 8t-18.5 16.5t-11 20.5t-5.5 31t-2 37.5t-0.5 49.5zM1.5 1370q0.5 -23 0.5 -35v-1167v-15v-44.5t2 -34t5.5 -27.5 t11.5 -18.5t18 -14t27 -7t37.5 -5t50.5 -0.5q6 0 28.5 -2t40.5 -2t38.5 2.5t32 12t11.5 26.5v258v246q0 13 57 20.5t126 12.5t83 10q108 34 178.5 137t88.5 225q7 45 7 92q0 76 -19 154q-30 124 -109 199q-37 35 -85 58.5t-91 34.5t-104 16q-55 4 -93 4h-8q-41 -1 -108 -3 t-99 -2q-22 0 -38.5 -1.5t-29.5 -3t-22.5 -7.5t-16 -9.5t-10.5 -14.5t-6.5 -16.5t-3 -22t-1 -25t0 -31.5zM303 1192q0 11 0.5 16t3 12.5t7 9.5t11 6.5t16 3.5t22.5 1.5t30 -0.5q28 0 51 -7t39 -16.5t28 -28t19 -33.5t10.5 -41.5t5 -42.5t0.5 -47.5t-2 -45.5t-3 -45 q-4 -51 -65 -84q-60 -32 -110 -32h-2q-50 1 -59 9v291q0 14 -0.5 29.5t-1 24.5t-0.5 20zM426 1063q0 -7 1 -22t1 -25v-185q87 35 92 105q6 99 6 104q0 42 -6 76q-8 2 -24 2q-51 3 -61.5 -6.5t-8.5 -48.5z" />
<glyph unicode="q" horiz-adv-x="1083" d="M-20 590q0 96 12 280q12 176 12 250q0 122 65.5 216t166.5 141t217 47q122 0 227 -54q83 -47 133 -122q54 -36 91.5 -85t56.5 -107.5t26.5 -116t7.5 -126.5v-573q0 -109 -6 -143q-4 -24 -4 -31q21 -18 14 -47q9 -9 37 -23q4 -3 21 -12t26 -16q19 -13 20.5 -33t-8.5 -39.5 t-29.5 -42.5t-36 -39t-34.5 -31v2l-16 -14q-17 -18 -37 -21.5t-42.5 7t-39 22t-37.5 29.5l-28 22h-1q-13 0 -108 -34h2q-50 -21 -67 -23q-40 -4 -64 -4q-81 0 -164 25q-151 49 -227 161q-110 76 -146 195q-40 129 -40 340zM2 516q3 -147 39 -260q27 -86 96.5 -148.5 t159.5 -91.5q73 -24 154 -24q32 0 65 4q12 2 57.5 19t84.5 28.5t47 5.5t26 -21.5t33 -26t33 -20.5t35 -8.5t30 15.5q3 3 15.5 14t25 22.5t28 26.5t26 29.5t18 28.5t6.5 25.5t-12 19.5q-14 10 -32 21t-27.5 17t-20.5 14.5t-16 16t-8.5 19t-3 26.5t4.5 35t5.5 45t1.5 42.5 t-0.5 48t-0.5 42.5v535q0 76 -6.5 132t-26.5 116.5t-62 107.5t-107 80q-65 34 -140 46q-40 6 -80 6q-33 0 -65 -4q-71 -10 -136.5 -41t-115 -77.5t-79 -114.5t-29.5 -147q0 -76 -13 -266q-11 -152 -11 -276q0 -32 1 -62zM306 1028q2 87 26 146q16 39 56 54q26 10 51 10 q15 0 29 -4q41 -8 72 -38t31 -72q7 -24 7 -58t-3.5 -75.5t-3.5 -58.5v-498q-23 22 -45.5 25.5t-45 -11.5t-38.5 -31t-39.5 -44t-33.5 -39q-13 -18 -6 -34.5t24 -25.5q-39 16 -57 73q-17 55 -17 108q0 48 6 134q5 78 5 93q0 39 -10 149q-8 92 -8 167v30zM428 893 q0 -29 10 -172q8 -102 8 -141q0 -24 -4 -74q-4 -40 -4 -64q43 37 80 37q17 0 33 -8v461q0 21 4 61t4 64q0 28 -6 55q-6 2 -14 2q-66 0 -86 -51q-25 -65 -25 -170z" />
<glyph unicode="r" horiz-adv-x="1118" d="M0 600q0 236 10 631q2 74 2 151v23q-2 21 0 41.5t7.5 36.5t23.5 25.5t47 9.5h350q126 0 229.5 -45.5t164.5 -137.5q112 -78 153 -215q23 -87 23 -172q0 -122 -46.5 -223.5t-144.5 -161.5l234 -600q9 -24 -1.5 -41t-36.5 -25.5t-56.5 -12t-69.5 -3.5q-46 0 -96 4 q-6 0 -16 1t-11 1q-51 0 -94 103h-8q-17 0 -32.5 9.5t-29 31t-22.5 38t-20 49.5t-15 46.5t-13 46.5l-8 37l-65 182q-4 8 -4 10v-481q0 -80 -144 -80q-38 0 -88 4q-36 4 -45 4q-30 0 -49 99h-8q-36 4 -45 4q-76 0 -76 610zM22 454q2 -196 15.5 -320t38.5 -124q11 0 48 -4 q36 -3 68 -4h16q24 0 50 2q34 3 54 17.5t20 39.5v394v145q0 21 40.5 22t43.5 -10q20 -58 62 -175t63 -175q3 -7 16 -56.5t25.5 -88t35 -73t46.5 -34.5q4 0 44 -2.5t76 -2.5t76 3t60 16t12 35q-80 207 -240 617q69 38 114.5 101t63.5 137q16 68 16 138v12q-2 78 -22 153 q-27 95 -92 159.5t-148.5 92.5t-183.5 28q0 2 -63 2q-42 0 -112 -1l-175 -1q-17 0 -29 -5.5t-18 -12t-8.5 -20.5t-2.5 -23t0.5 -27.5t0.5 -26.5q0 -22 -4.5 -195t-6.5 -355q-1 -104 -1 -212q0 -82 1 -166zM329.5 916q0.5 9 1.5 31t1 40v252q36 1 71 1h5q32 0 62 -7 q32 -7 56 -20t39.5 -42t18.5 -71q2 -26 2 -49q0 -27 -2 -47q-4 -40 -21.5 -73t-54 -50t-92.5 -17q-24 0 -39 1t-25.5 5.5t-14.5 8t-6 16t-1.5 21.5zM455 887q71 11 93 64q17 40 17 105q0 20 -2 42q0 2 -1 6t-1 6q-33 6 -106 6v-229z" />
<glyph unicode="s" horiz-adv-x="1087" d="M0 414q0 88 70 88q7 0 53 4q93 6 100 6q80 0 107 -27q26 -26 37 -77q43 -6 65 -25q30 -32 37 -90l27 4q39 4 60.5 53t21.5 111q0 29 -7 57q-21 8 -114 37q-59 15 -111 39q-105 49 -158 133q-170 112 -170 356q0 130 65.5 233.5t168.5 157.5t221 54q172 0 311 -121 q28 -28 50 -61q2 -1 53 -41q41 -37 90 -133.5t49 -170.5q0 -57 -33 -90q-24 -24 -96 -24q-10 0 -109 6q-46 4 -55 4q-16 0 -28 6t-19 13.5t-12.5 23t-8 26t-6.5 31.5q-12 2 -28 2q-20 0 -33 7.5t-21 24.5t-11.5 30t-8.5 39q-2 4 -2 12q-49 -3 -74.5 -34.5t-25.5 -76.5 q0 -34 10 -59q54 -22 106 -35q125 -38 195 -88q49 -37 80 -88l22 -14q144 -103 144 -344q0 -78 -13 -148q-33 -155 -164 -251.5t-286 -96.5q-106 0 -201 42.5t-162 127.5q-6 6 -8 12q-58 41 -94 91q-20 30 -52 117.5t-32 146.5zM33 331q23 -94 60 -159q4 -6 7 -10 q52 -67 128 -107.5t156 -50.5q30 -4 60 -4q51 0 103 11q83 17 150.5 57.5t116.5 109t63 154.5q11 65 12 128v11q1 57 -9 117q-10 66 -42.5 122.5t-83.5 92.5q-53 39 -167.5 76.5t-142.5 50.5q-40 14 -69 50t-37 78q-5 23 -5 47q0 19 3 37q7 40 39.5 66.5t83.5 26.5 q46 0 72 -22t34 -53.5t13 -63.5t16.5 -54t36.5 -22q11 0 73 -6q47 -5 85 -5h23q48 2 65 19q27 31 27 75q0 21 -6 47q-19 76 -57.5 145.5t-70.5 97.5q-67 61 -150 89q-75 26 -147 25h-15q-80 -3 -156.5 -35t-134.5 -85.5t-93 -133t-35 -170.5q0 -267 213 -368 q28 -13 102.5 -33t133 -44t81.5 -58q26 -38 29 -108v-14q0 -61 -23 -115q-26 -60 -75 -67q-31 -7 -55 -7q-17 -1 -29 3q-32 8 -43.5 21t-17 37.5t-6 47t-9 49t-25.5 44.5q-19 17 -65 19q-14 1 -28 1q-36 0 -80 -4q-62 -6 -72 -6q-50 0 -50 -66q0 -34 13 -84z" />
<glyph unicode="t" horiz-adv-x="1062" d="M0 1341q0 22 4 62q4 36 4 53q0 35 26 52q25 16 57 16h4q35 -1 70 -1q6 -1 9 -1q12 -2 27 -2h635q23 0 38.5 -29.5t20.5 -73.5h43q31 0 47 -46.5t16 -110.5q0 -99 -26 -125q-19 -19 -98 -19q-15 0 -45 1t-44 1q-59 3 -65 13q-2 2 -2 4v-1008q0 -13 4 -45q6 -50 6 -85 q0 -45 -10 -63q-10 -27 -68 -43t-123 -16q-75 0 -102 10q-51 5 -51 95q-42 4 -51 8q-52 3 -52 98q0 17 2 37q0 3 1.5 8.5t1.5 7.5v983q-7 0 -21 -1t-18 -1q-14 -2 -39 -2q-96 0 -99 103h-4q-56 0 -77 31.5t-21 88.5zM22 1343.5q0 -23.5 4.5 -49.5t22.5 -39.5t49 -13.5 q8 0 35 2.5t53 3.5t53 0.5t43.5 -7t16.5 -19.5v-277v-805q0 -4 -1.5 -23.5t-1.5 -35t2 -33.5t11 -28.5t23 -10.5q16 -8 80 -10q7 0 15 -1q57 1 111 11q60 12 60 35q10 14 10 50.5t-5 81t-5 54.5v412v598q10 7 62 3q46 -4 104 -4h14q68 0 80 13q15 14 20 75q2 19 2 38 q0 41 -8 79q-11 56 -36 56h-635q-8 0 -34 2.5t-46.5 2.5t-43 -2.5t-35.5 -14t-13 -31.5q0 -17 -3.5 -53t-3.5 -59.5z" />
<glyph unicode="u" horiz-adv-x="1040" d="M0 557q0 3 6 180q4 106 4 154v489v34.5t1.5 27.5t4.5 24t9 17t15 14t22.5 8.5t32 6.5t42.5 1h51q29 1 53 0t42.5 -5t31.5 -14.5t21 -31t10 -51.5q57 -2 81 -27.5t24 -105.5v-916q0 -39 8 -75q26 13 45 30q28 24 28 121q0 36 -4 94q-2 18 -2 56v862q0 72 138 72 q13 0 106 -6q27 -3 41 -3q33 0 49 -100h12q18 -2 41 -2q66 0 66 -367q0 -22 -8 -358q-2 -37 -2 -72v-342q0 -86 -37 -161t-97.5 -124.5t-138 -77.5t-159.5 -28q-80 0 -162 31q-121 47 -185 143q-76 49 -120 133.5t-57 170t-13 198.5zM22 616q-1 -23 -1 -48q-1 -44 1 -94 q2 -80 17.5 -141.5t43 -122.5t78 -106t120.5 -71q61 -23 127 -27q13 -1 27 0q52 0 102 11q62 14 118.5 46t98.5 76.5t67 105.5t25 130v342q0 9 4 106q2 97 4 201q1 52 1 106q-1 52 -1 108q-2 112 -12.5 183.5t-30.5 71.5q-9 0 -30.5 2t-44.5 3.5t-50.5 2.5t-51 -1t-44 -6.5 t-32 -16t-11.5 -27.5v-350v-512q0 -12 3 -62.5t4 -87.5v-8q0 -34 -8 -70q-8 -42 -28 -59q-39 -34 -72 -38.5t-54 15t-36 52t-21.5 68t-6.5 67.5v459v456q0 26 -3.5 44.5t-7.5 31t-15 20.5t-19.5 12t-28 5.5t-32 1.5t-40 -1t-45.5 -1q-40 0 -62 -4.5t-32 -21.5t-11 -31 t-1 -54v-24v-467q0 -46 -3.5 -130t-5.5 -145z" />
<glyph unicode="v" horiz-adv-x="1024" d="M-18 1409q0 100 77 100q21 0 39 2q101 7 105 7q117 0 125 -56q4 -34 8 -49q86 -7 94 -53q4 -24 23 -119l22 -119l27 -153l61 325q4 21 6 35q18 174 76 180q35 13 72 13q38 0 117 -9q50 -4 63 -4q40 0 40 -74q0 -11 -1 -24q50 -4 63 -4q31 1 39 -45q3 -16 3 -37 q1 -37 -9 -87q-14 -78 -28 -132.5t-33 -122.5q-1 -6 -5 -17.5t-5 -17.5q-20 -87 -58 -245.5t-68.5 -288.5t-56.5 -246q-4 -18 -9.5 -46.5t-8.5 -39.5q-7 -35 -11.5 -53t-12 -42.5t-15.5 -36t-21.5 -26.5t-30.5 -21.5t-41.5 -13t-55 -8.5t-70.5 -2q-74 0 -115 105 q-30 3 -53.5 24.5t-37 47t-25 69.5t-16.5 72t-11 75v-2l-13 72q-4 20 -14 62.5t-14 62.5q-119 496 -154 659l-16 52v-2q-51 161 -51 233zM2 1382q8 -49 19 -93t28.5 -95.5t20.5 -63.5q16 -70 182 -784q4 -17 9.5 -56.5t10 -74t15 -75.5t24 -70t36.5 -48.5t52 -19.5 q39 0 68 2t52 8.5t38.5 12.5t27.5 21t19 27t14 37t11 44t11.5 55.5t14.5 64.5q7 30 183 781q1 5 16 58.5t30 111.5q14 59 26 121q10 52 11 88q-1 6 -1 14q-2 40 -23 41q-14 0 -73.5 6.5t-107 6.5t-65.5 -13q-15 0 -26.5 -16.5t-18 -42.5t-10 -50.5t-6.5 -50.5t-4 -31 q-82 -442 -125 -663q-19 97 -55 292.5t-54 293.5q-7 40 -22.5 119.5t-22.5 119.5q-3 17 -25 26.5t-55 10.5h-26q-19 -1 -38 -1q-31 -2 -63.5 -4.5t-40.5 -2.5q-36 0 -50 -29q-9 -19 -9 -46q-1 -15 2 -32z" />
<glyph unicode="w" horiz-adv-x="1435" d="M-18 1421q0 19 3.5 33t8.5 24t18.5 16t23 9.5t34 5t40.5 2t51 0.5h9q87 0 122.5 -25.5t45.5 -82.5q29 -5 49 -16.5t31 -24.5t18 -38.5t9.5 -45t5.5 -57.5l6 -80l16 76q3 16 14 88q5 43 9.5 66.5t16.5 54.5t29.5 46.5t48.5 27t75 11.5q72 0 108 -28t53 -80 q28 -7 48.5 -22.5t32.5 -32.5t21 -44.5t13 -50t8 -57.5q9 -62 15 -90l26 217q0 3 1 11t1 14q1 25 2 39t4.5 40.5t10 41.5t18.5 28t29 14q35 13 71 13q49 0 119 -8q62 -5 64 -5q41 0 41 -88v-10q46 -4 61 -4q41 0 41 -88q0 -125 -70 -463q-1 -8 -5 -24.5t-5 -24.5l-141 -827 q-10 -57 -62.5 -90t-117.5 -33q-59 0 -106.5 29.5t-59.5 80.5v2q-89 28 -103 101q-25 119 -57 288l-35 -188q-6 -28 -10 -80q-5 -43 -8.5 -66.5t-14 -56.5t-26.5 -50t-44.5 -29.5t-68.5 -12.5q-117 0 -156.5 19.5t-56.5 89.5q-59 9 -79.5 42t-34.5 126q-14 77 -87 497 l-14 84q-20 106 -51 303l-51 305q-8 39 -8 78zM10 1348q17 -101 51 -304t52 -305q86 -504 100 -581q6 -34 9 -52.5t10.5 -38.5t11 -28.5t18 -18.5t22.5 -12t33.5 -5t43 -3h57.5q37 0 62.5 12.5t38.5 30.5t22 48.5t11.5 57t7 66t9.5 64.5q60 309 97 512q24 -119 69.5 -357.5 t69.5 -357.5q7 -38 39 -62q30 -25 72 -30q16 -2 32 -2l52 5q42 8 72.5 35t37.5 66q118 690 141 827q1 6 16 77t29 148.5t26 160.5q11 72 11 121v16q-2 54 -22 53q-14 0 -74 6.5t-108 6.5t-66 -13q-15 0 -25 -14t-14.5 -37.5t-7 -45t-3 -44.5t-1.5 -29q-12 -100 -35.5 -297 t-36.5 -297q-17 80 -49 238.5t-49 238.5q-6 30 -11.5 74t-9 70t-13.5 56.5t-25.5 47t-45 28t-71.5 11.5q-41 0 -69.5 -11t-43.5 -27t-25 -46t-13.5 -55t-9 -68t-11.5 -72q-17 -78 -49 -233.5t-48 -233.5q-10 82 -30.5 245t-30.5 245q-4 30 -7.5 74.5t-6 65.5t-11.5 48.5 t-24.5 39t-44 20t-72.5 8.5h-12q-116 -1 -142 -21q-15 -12 -14 -50q0 -28 8 -72z" />
<glyph unicode="x" horiz-adv-x="1052" d="M-10 23q-6 11 -6 29q0 75 102 265q6 10 13.5 23.5t12 22.5t5.5 10l90 207l92 204q2 4 2 9q0 42 -86 190l-33 64l-172 383q-3 8 -3 15q-1 29 49 49q62 26 147 26q123 0 145 -39q21 -19 47 -72q44 -10 56 -31q31 -31 55 -90q53 148 102 195q26 35 140 35q52 0 97.5 -8 t75.5 -26t25 -42q3 -16 0 -35q104 -21 104 -62q0 -3 -1 -6q1 -5 1 -12q0 -24 -16 -67q-21 -55 -43 -94.5t-61 -106.5q-29 -47 -43 -76l-137 -299l165 -371l41 -73q29 -51 44 -78t38 -73.5t31.5 -78.5t3.5 -51q3 -21 -24.5 -37t-71 -24.5t-92.5 -8.5q-59 0 -105 15.5 t-59 44.5l-23 51q-66 17 -80 51l-71 164l-111 -266q-14 -31 -77.5 -49.5t-133.5 -18.5q-42 0 -80 11t-53 28q-7 13 -7 35q0 14 3 31q-74 10 -98 37zM6 35q16 -24 87 -29q17 -1 35 -1q54 -1 106 11q70 16 81 43q26 64 79.5 191t80.5 190q26 -63 80.5 -190t81.5 -191 q19 -44 135 -47h14q91 0 141 25q28 13 21 29q2 6 2 13q0 29 -24 84q-30 69 -77.5 151t-53.5 94q-32 74 -95.5 213.5t-74.5 164.5q23 51 70.5 154t70.5 154q6 13 54 96t80 153q26 56 26 84q0 7 -2 13q11 24 -39 40q-56 18 -129 18q-22 0 -46 -2q-78 -6 -89 -30 q-31 -25 -58 -88.5t-52 -145.5t-36 -108q-10 24 -34.5 107.5t-51 146.5t-57.5 88q-11 30 -116 32h-22q-95 0 -144 -24q-30 -15 -21 -36q20 -44 54.5 -120.5t63.5 -141t54 -121.5q2 -5 42 -76t62 -125q15 -37 16 -61q0 -10 -4 -17q-31 -69 -91.5 -204.5t-90.5 -204.5 q-3 -8 -48 -89t-71 -150q-16 -43 -16 -68q0 -16 6 -25z" />
<glyph unicode="y" horiz-adv-x="1021" d="M1.5 1462.5q2.5 -17.5 6.5 -32t13.5 -35t11.5 -25.5l252 -645q20 -52 29 -116t9 -110t-3 -126t-3 -117q0 -7 -5 -66q-4 -41 -4 -75v-29q3 -44 20 -61q19 -19 128 -21q18 -1 33 -1q79 0 95 11q20 0 30.5 51t11.5 131v54q0 52 -1 102q-2 75 -5.5 146.5t-3.5 81.5 q0 65 22 135.5t66 165.5t56 127q2 5 17 40t31.5 76t37.5 94t37 101t27 89q10 37 10 60v6q-2 25 -17 25q-20 0 -61 4t-72 5h-14q-25 0 -52 -2q-35 -4 -58.5 -21t-33.5 -47q-25 -73 -73 -218.5t-72 -218.5q-10 32 -35 148.5t-55 205.5t-68 122q-5 15 -29.5 22.5t-60.5 8.5h-18 q-26 0 -51 -2q-34 -1 -67.5 -4t-41.5 -3q-22 0 -32 -9.5t-7.5 -27zM6 1380q-28 56 -28 89q0 51 63 51q21 0 39 2q99 6 121 6q103 0 125 -39q28 -24 49 -72q37 -9 53 -31q46 -41 86 -174l4 13l76 219h-2q25 86 158 86q1 0 88 -6q50 -4 65 -4q30 0 30 -50q0 -20 -5 -49h12 q50 -4 66 -4q29 0 29 -47q0 -102 -135 -423q-7 -18 -9 -23q-3 -7 -6 -16.5t-4 -10.5l-47 -111q-30 -63 -47 -104t-32.5 -99t-15.5 -106q0 -34 2 -65q7 -221 7 -254q0 -260 -56 -267q-38 -10 -112 -10q-137 0 -164 27q-24 24 -27 80q-61 7 -76 22q-26 26 -26 103q0 9 6 96 q4 40 4 47q0 76 2 113q2 35 2 114q0 147 -35 234l-252 645l-8 20v-2z" />
<glyph unicode="z" horiz-adv-x="890" d="M-20 80q0 35 11 86t26.5 99t35.5 101.5t35.5 90t29.5 69t15 33.5l141 340l86 209h-180q-55 0 -69 102h-33q-35 0 -53.5 44t-18.5 106q0 54 15 97t40 50q35 21 113 21q62 0 164 -12q61 -7 88 -7h311q68 0 68 -90v-12h35q67 0 67 -90q0 -122 -145 -453l-6 -16l-238 -565 h199q31 0 52.5 -29t31.5 -74h18q43 0 66.5 -51.5t23.5 -118.5q0 -82 -30 -112q-36 -31 -138 -31q-63 0 -153 8q-13 1 -37.5 3.5t-32.5 2.5h-364q-72 0 -72 96v7h-31q-71 0 -71 96zM0 70q0 -31 13 -48.5t38 -17.5h365q11 0 99 -8q68 -7 124 -7q16 1 32 1q68 2 91 24 q20 22 24 82q1 9 1 19q0 51 -16 95q-19 52 -54 52h-375q124 298 291 692q1 2 10 23q135 321 135 441q0 66 -41 71h-311q-20 0 -104 9t-153 9t-97 -18q-28 -1 -40 -65q-6 -32 -6 -64t6 -64q12 -64 46 -65h356q-47 -114 -141 -340t-141 -340l-12 -27l-24 -56t-30.5 -73 t-32.5 -86t-28 -87.5t-19.5 -83.5t-5.5 -68z" />
<glyph unicode="{" horiz-adv-x="559" d="M-20 686v88q0 22 16 41q19 16 39 16q58 0 76 21q12 15 12 53q0 50 -14 146v-2q-15 92 -15 149q0 142 92 219q84 68 217 68h37q24 0 41 -16.5t17 -38.5v-48h8h37q24 0 40.5 -16.5t16.5 -38.5v-98q0 -22 -16.5 -38.5t-40.5 -16.5h-31q-43 0 -68 -21q-16 -32 -16 -74 q0 -45 12 -118q13 -89 13 -140q3 -121 -68 -192q71 -65 68 -195q0 -58 -13 -141q0 -3 -1 -9.5t-1 -9.5q-10 -88 -10 -94q3 0 8.5 -1t7.5 -1l-2 2q23 0 39.5 -15.5t16.5 -39.5v-47h14h16q3 0 9.5 -1t9.5 -1l-2 2q22 0 38.5 -15.5t16.5 -39.5v-97q0 -22 -16.5 -38.5 t-38.5 -16.5h-39q-204 0 -277 139q-135 69 -135 258q0 55 15 154q12 81 14 108q-18 5 -29.5 19.5t-11.5 34.5v41q-18 6 -47 6q-22 0 -38.5 15.5t-16.5 39.5zM0 686q0 -15 10.5 -25t24.5 -10q65 0 86.5 -26t21.5 -70q0 -51 -14 -137q-14 -93 -14 -150q0 -132 74.5 -203 t213.5 -71h39q14 0 24.5 11t10.5 24v96q0 15 -10.5 25t-24.5 10h-32q-56 0 -80.5 28t-24.5 91q0 30 12 120q13 83 13 138q3 133 -80 194q83 61 80 193q0 48 -13 137q-12 73 -12 121q0 58 23 88q23 26 82 26h30q15 0 26 10.5t11 24.5v99q0 14 -11 24t-26 10h-37 q-129 0 -204 -63q-84 -72 -84 -203q0 -59 14 -145v-4q14 -89 14 -144q0 -43 -16 -65q-23 -29 -92 -29q-12 0 -25 -10q-10 -13 -10 -27v-88z" />
<glyph unicode="}" horiz-adv-x="557" d="M-20 29v96q0 25 15 40t40 15h28q46 2 66.5 25t20.5 74q0 28 -7 79v4q-4 12 -4 23q0 2 -1 5.5t-1 6.5q-14 86 -14 142q0 116 72 192q-72 65 -72 193q0 69 14 137q0 6 2 17.5t2 17.5q6 45 9 80h-13q-25 0 -40 15t-15 40v45q-6 2 -16 2h-31q-25 0 -40 15t-15 40v97 q0 22 15.5 38.5t39.5 16.5h35q100 0 172 -37t108 -105q133 -73 133 -245q0 -58 -12 -148q0 -1 -1 -3t-1 -3q-9 -62 -12 -117q16 -6 27.5 -20.5t11.5 -30.5v-41q18 -6 47 -6q22 0 38.5 -16.5t16.5 -38.5v-90q0 -23 -16 -39q-17 -17 -39 -17q-53 0 -74 -24q-12 -12 -12 -49 q0 -46 12 -136q0 -2 1 -7t1 -7q12 -82 12 -137q0 -143 -80 -220t-229 -77h-37q-24 0 -39.5 16.5t-15.5 38.5v47h-10h-37q-24 0 -39.5 16.5t-15.5 39.5zM0 29q0 -14 10 -24.5t25 -10.5h37q139 0 213.5 71t74.5 205q0 45 -14 150q-12 90 -12 137q0 45 16 64q24 30 90 30 q14 0 25 11q10 10 10 24v90q0 14 -10.5 24.5t-24.5 10.5q-66 0 -86 24t-20 70t12 144l2 6q12 94 12 145q0 126 -76 195t-214 69h-35q-15 0 -25 -10t-10 -24v-97q0 -15 10 -25t25 -10h31q57 -2 80.5 -27.5t23.5 -88.5q0 -29 -8 -95l-4 -30q-15 -77 -15 -133q0 -134 84 -193 q-84 -60 -84 -192q0 -45 15 -138q1 -5 2 -15t2 -15q8 -66 8 -92q0 -62 -25 -90t-82 -29h-28q-15 0 -25 -10t-10 -25v-96z" />
<glyph unicode="&#xad;" d="M2 782q-5 71 8 99q3 71 123 71q4 0 12.5 -1t12.5 -1h22q2 0 6.5 -1t6.5 -1h10q24 0 71 6q4 0 11.5 1t11.5 1q124 13 201 13q133 0 176 -43q19 -19 26 -68q53 -12 76 -35q27 -23 31 -106q4 -65 -6 -94q-6 -76 -123 -76q-39 0 -51 2q-2 0 -7 1t-6 1h-8q-22 0 -71 -6 q-4 0 -11.5 -1t-11.5 -1q-124 -13 -201 -13q-133 0 -176 43q-19 19 -26 68q-49 8 -76 35t-31 106zM23 784q4 -74 24 -94q37 -37 162 -37q71 0 199 13q82 8 96 8q2 0 10 -1t14 -1q12 -2 47 -2q100 0 103 57q10 30 6 90q-5 76 -25 94q-37 37 -161 37q-81 0 -199 -12 q-82 -8 -96 -8q-3 0 -11 1t-12 1q-7 0 -23 1t-24 1q-99 0 -102 -58q-12 -27 -8 -90z" />
<glyph unicode="&#xc8;" horiz-adv-x="471" />
<glyph unicode="&#x2000;" horiz-adv-x="814" />
<glyph unicode="&#x2001;" horiz-adv-x="1628" />
<glyph unicode="&#x2002;" horiz-adv-x="814" />
<glyph unicode="&#x2003;" horiz-adv-x="1628" />
<glyph unicode="&#x2004;" horiz-adv-x="542" />
<glyph unicode="&#x2005;" horiz-adv-x="407" />
<glyph unicode="&#x2006;" horiz-adv-x="271" />
<glyph unicode="&#x2007;" horiz-adv-x="271" />
<glyph unicode="&#x2008;" horiz-adv-x="203" />
<glyph unicode="&#x2009;" horiz-adv-x="325" />
<glyph unicode="&#x200a;" horiz-adv-x="90" />
<glyph unicode="&#x2010;" d="M2 782q-5 71 8 99q3 71 123 71q4 0 12.5 -1t12.5 -1h22q2 0 6.5 -1t6.5 -1h10q24 0 71 6q4 0 11.5 1t11.5 1q124 13 201 13q133 0 176 -43q19 -19 26 -68q53 -12 76 -35q27 -23 31 -106q4 -65 -6 -94q-6 -76 -123 -76q-39 0 -51 2q-2 0 -7 1t-6 1h-8q-22 0 -71 -6 q-4 0 -11.5 -1t-11.5 -1q-124 -13 -201 -13q-133 0 -176 43q-19 19 -26 68q-49 8 -76 35t-31 106zM23 784q4 -74 24 -94q37 -37 162 -37q71 0 199 13q82 8 96 8q2 0 10 -1t14 -1q12 -2 47 -2q100 0 103 57q10 30 6 90q-5 76 -25 94q-37 37 -161 37q-81 0 -199 -12 q-82 -8 -96 -8q-3 0 -11 1t-12 1q-7 0 -23 1t-24 1q-99 0 -102 -58q-12 -27 -8 -90z" />
<glyph unicode="&#x2011;" d="M2 782q-5 71 8 99q3 71 123 71q4 0 12.5 -1t12.5 -1h22q2 0 6.5 -1t6.5 -1h10q24 0 71 6q4 0 11.5 1t11.5 1q124 13 201 13q133 0 176 -43q19 -19 26 -68q53 -12 76 -35q27 -23 31 -106q4 -65 -6 -94q-6 -76 -123 -76q-39 0 -51 2q-2 0 -7 1t-6 1h-8q-22 0 -71 -6 q-4 0 -11.5 -1t-11.5 -1q-124 -13 -201 -13q-133 0 -176 43q-19 19 -26 68q-49 8 -76 35t-31 106zM23 784q4 -74 24 -94q37 -37 162 -37q71 0 199 13q82 8 96 8q2 0 10 -1t14 -1q12 -2 47 -2q100 0 103 57q10 30 6 90q-5 76 -25 94q-37 37 -161 37q-81 0 -199 -12 q-82 -8 -96 -8q-3 0 -11 1t-12 1q-7 0 -23 1t-24 1q-99 0 -102 -58q-12 -27 -8 -90z" />
<glyph unicode="&#x2012;" d="M2 782q-5 71 8 99q3 71 123 71q4 0 12.5 -1t12.5 -1h22q2 0 6.5 -1t6.5 -1h10q24 0 71 6q4 0 11.5 1t11.5 1q124 13 201 13q133 0 176 -43q19 -19 26 -68q53 -12 76 -35q27 -23 31 -106q4 -65 -6 -94q-6 -76 -123 -76q-39 0 -51 2q-2 0 -7 1t-6 1h-8q-22 0 -71 -6 q-4 0 -11.5 -1t-11.5 -1q-124 -13 -201 -13q-133 0 -176 43q-19 19 -26 68q-49 8 -76 35t-31 106zM23 784q4 -74 24 -94q37 -37 162 -37q71 0 199 13q82 8 96 8q2 0 10 -1t14 -1q12 -2 47 -2q100 0 103 57q10 30 6 90q-5 76 -25 94q-37 37 -161 37q-81 0 -199 -12 q-82 -8 -96 -8q-3 0 -11 1t-12 1q-7 0 -23 1t-24 1q-99 0 -102 -58q-12 -27 -8 -90z" />
<glyph unicode="&#x2013;" horiz-adv-x="1085" d="M2 782q-7 71 10 99q4 71 156 71q5 0 16 -1t16 -1h27q3 0 8.5 -1t8.5 -1h13q30 0 90 6q5 0 14.5 1t14.5 1q157 13 255 13q168 0 223 -43q24 -19 33 -68q67 -12 96 -35q34 -23 40 -106q5 -65 -8 -94q-8 -76 -156 -76q-49 0 -65 2q-2 0 -8.5 1t-7.5 1h-10q-28 0 -90 -6 q-5 0 -14.5 -1t-15.5 -1q-157 -13 -254 -13q-169 0 -224 43q-24 19 -33 68q-62 8 -96 35t-39 106zM28 784q5 -74 31 -94q47 -37 205 -37q90 0 253 13q104 8 121 8q3 0 13 -1t18 -1q15 -2 59 -2q127 0 131 57q13 30 8 90q-7 76 -32 94q-47 37 -204 37q-103 0 -253 -12 q-104 -8 -121 -8q-4 0 -14 1t-16 1q-8 0 -28.5 1t-30.5 1q-126 0 -129 -58q-16 -27 -11 -90z" />
<glyph unicode="&#x2014;" horiz-adv-x="2109" d="M4 782q-13 71 20 99q7 71 312 71q10 0 31.5 -1t31.5 -1h56q5 0 16.5 -1t16.5 -1h25q61 0 180 6q10 0 29.5 1t29.5 1q314 13 509 13q338 0 447 -43q48 -19 66 -68q134 -12 192 -35q69 -23 79 -106q10 -65 -15 -94q-15 -76 -312 -76q-99 0 -129 2q-5 0 -18 1t-15 1h-21 q-55 0 -180 -6q-10 0 -29 -1t-29 -1q-315 -13 -510 -13q-337 0 -446 43q-48 19 -66 68q-124 8 -192.5 35t-78.5 106zM57 784q10 -74 61 -94q93 -37 410 -37q181 0 505 13q208 8 244 8q5 0 25 -1t36 -1q30 -2 119 -2q253 0 261 57q25 30 15 90q-13 76 -63 94q-94 37 -409 37 q-205 0 -504 -12q-208 -8 -244 -8q-7 0 -27.5 1t-30.5 1q-18 0 -58.5 1t-60.5 1q-251 0 -259 -58q-30 -27 -20 -90z" />
<glyph unicode="&#x202f;" horiz-adv-x="325" />
<glyph unicode="&#x205f;" horiz-adv-x="407" />
<glyph unicode="&#x20ac;" horiz-adv-x="1329" d="M3.5 622q-6.5 62 2.5 85l-2 -5q3 50 39 64l-12 12q-27 30 -27 96q0 82 33.5 106t109.5 24l23 36v-2q7 15 29 54h-2q102 200 137 235q78 82 184 133t219 62q16 2 60 2q177 0 311 -76h-2q27 -13 37 -51q0 -3 1 -10t1 -11q36 -12 65 -30h-2q26 -13 37 -52q6 -40 -8 -99 t-33 -83q-19 -33 -78 -33q-49 0 -147 23q-12 4 -29 4q-58 11 -100 16q-114 -18 -191 -118h136q41 0 61 2h51q64 0 99.5 -22t46.5 -83q54 -8 80 -44t26 -120q0 -59 -55 -84q55 -23 55 -73q0 -96 -35.5 -130t-111.5 -34q-33 0 -47 2h-373q10 -29 43 -86q77 -49 168 -49 q58 0 110 16l23 4l12 4h-6q75 21 100 21q39 0 63 -26t40 -77q49 0 72 -37t47 -125q12 -39 -15 -73q-23 -30 -80 -54t-119 -36t-106.5 -17.5t-60.5 -5.5q-149 0 -279 63t-221 175q-85 67 -145 164h2q-42 59 -72 143q-21 3 -37 16q-20 20 -27 86h-16q-32 0 -59 17 q-19 19 -25.5 81zM20.5 626q4.5 -53 20.5 -69h2q15 -12 45 -12q23 0 33 2q5 0 13.5 1t12.5 1q3 0 8 -1t7 -1q25 -149 94 -258q83 -135 222.5 -212t301.5 -77q27 0 90 8t148 33.5t112 62.5q20 26 11 56q-10 36 -15.5 53t-14.5 39t-17.5 31.5t-21.5 16.5t-30 7q-22 0 -106 -24 l-16 -4q-55 -17 -117 -17q-124 0 -215.5 75t-126.5 204h344h59q16 -2 45 -2q66 0 96.5 29t30.5 114q0 58 -125 76q125 5 125 82q0 87 -31 116t-98 29h-49q-20 -2 -63 -2h-322q32 108 103.5 177.5t166.5 84.5q20 2 125 -18q119 -25 156 -25q47 0 59 23q18 20 32 75.5t7 92.5 q-4 27 -24 37q-131 73 -301 73q-40 0 -58 -2q-229 -19 -391 -188q-30 -30 -133 -232q-9 -17 -21 -39.5t-20.5 -38t-11.5 -20.5h-15q-65 0 -93.5 -20t-28.5 -89q0 -56 22 -81q24 -27 74 -27h22q-4 -14 -26 -14h-19h-18q-52 0 -55 -52q-9 -21 -4.5 -74zM438 754q15 26 105 26 q44 0 162 -12q12 0 18 -2q-95 0 -217 -8q-54 -4 -68 -4z" />
<glyph unicode="&#x25fc;" horiz-adv-x="1515" d="M0 0v1516h1516v-1516h-1516z" />
</font>
</defs>
</svg>
