<?xml version="1.0" encoding="utf-8"?>
<!-- Generator: Adobe Illustrator 18.0.0, SVG Export Plug-In . SVG Version: 6.00 Build 0)  -->
<!DOCTYPE svg PUBLIC "-//W3C//DTD SVG 1.1//EN" "http://www.w3.org/Graphics/SVG/1.1/DTD/svg11.dtd">
<svg version="1.1" id="Layer_1" xmlns="http://www.w3.org/2000/svg" xmlns:xlink="http://www.w3.org/1999/xlink" x="0px" y="0px"
	 viewBox="0 0 128 128" enable-background="new 0 0 128 128" xml:space="preserve">
<g id="Layer_2">
	<circle fill="#FFFFFF" cx="64" cy="67" r="64"/>
</g>
<g>
	<path fill-rule="evenodd" clip-rule="evenodd" fill="#181616" d="M64,0C28.7,0,0,29.4,0,65.6c0,29,18.3,53.6,43.8,62.3
		c3.2,0.6,4.4-1.4,4.4-3.2c0-1.6-0.1-6.7-0.1-12.2c-17.8,4-21.6-7.7-21.6-7.7c-2.9-7.6-7.1-9.6-7.1-9.6c-5.8-4.1,0.4-4,0.4-4
		c6.4,0.5,9.8,6.8,9.8,6.8c5.7,10,15,7.1,18.6,5.5c0.6-4.2,2.2-7.1,4.1-8.8C38.1,93,23.2,87.3,23.2,62.2c0-7.2,2.5-13,6.6-17.6
		c-0.7-1.7-2.9-8.3,0.6-17.4c0,0,5.4-1.8,17.6,6.7c5.1-1.5,10.6-2.2,16-2.2c5.4,0,10.9,0.8,16,2.2c12.2-8.5,17.6-6.7,17.6-6.7
		c3.5,9,1.3,15.7,0.6,17.4c4.1,4.6,6.6,10.4,6.6,17.6c0,25.2-15,30.8-29.2,32.4c2.3,2,4.3,6,4.3,12.2c0,8.8-0.1,15.8-0.1,18
		c0,1.7,1.2,3.8,4.4,3.1c25.4-8.7,43.7-33.3,43.7-62.3C128,29.4,99.3,0,64,0z"/>
	<path fill="#181616" d="M24.2,94.2c-0.1,0.3-0.6,0.4-1.1,0.2c-0.5-0.2-0.7-0.7-0.6-1c0.1-0.3,0.6-0.4,1.1-0.2
		C24.1,93.4,24.4,93.9,24.2,94.2L24.2,94.2z M23.5,93.6"/>
	<path fill="#181616" d="M26.8,97.2c-0.3,0.3-0.9,0.2-1.3-0.3c-0.4-0.5-0.5-1.1-0.2-1.4c0.3-0.3,0.9-0.2,1.3,0.3
		C27.1,96.3,27.2,96.9,26.8,97.2L26.8,97.2z M26.2,96.5"/>
	<path fill="#181616" d="M29.4,101c-0.4,0.3-1,0-1.4-0.6c-0.4-0.6-0.4-1.3,0-1.6c0.4-0.3,1,0,1.4,0.6C29.8,100,29.8,100.7,29.4,101
		L29.4,101z M29.4,101"/>
	<path fill="#181616" d="M32.8,104.6c-0.4,0.4-1.1,0.3-1.6-0.3c-0.6-0.5-0.7-1.3-0.4-1.7c0.4-0.4,1.1-0.3,1.7,0.3
		C33,103.5,33.2,104.2,32.8,104.6L32.8,104.6z M32.8,104.6"/>
	<path fill="#181616" d="M37.6,106.7c-0.2,0.5-0.9,0.7-1.6,0.5c-0.7-0.2-1.2-0.8-1.1-1.3c0.2-0.5,0.9-0.8,1.6-0.5
		C37.3,105.6,37.7,106.2,37.6,106.7L37.6,106.7z M37.6,106.7"/>
	<path fill="#181616" d="M42.8,107.1c0,0.5-0.6,1-1.4,1c-0.8,0-1.4-0.4-1.4-1c0-0.5,0.6-1,1.4-1C42.2,106.2,42.8,106.6,42.8,107.1
		L42.8,107.1z M42.8,107.1"/>
	<path fill="#181616" d="M47.7,106.3c0.1,0.5-0.4,1.1-1.2,1.2c-0.7,0.1-1.4-0.2-1.5-0.7c-0.1-0.5,0.4-1.1,1.2-1.2
		C46.9,105.4,47.6,105.7,47.7,106.3L47.7,106.3z M47.7,106.3"/>
</g>
</svg>
