<?xml version="1.0" encoding="utf-8"?>
<!-- Generator: Adobe Illustrator 18.0.0, SVG Export Plug-In . SVG Version: 6.00 Build 0)  -->
<!DOCTYPE svg PUBLIC "-//W3C//DTD SVG 1.1//EN" "http://www.w3.org/Graphics/SVG/1.1/DTD/svg11.dtd">
<svg version="1.1" xmlns="http://www.w3.org/2000/svg" xmlns:xlink="http://www.w3.org/1999/xlink" x="0px" y="0px"
	 viewBox="-149 221 128 128" enable-background="new -149 221 128 128" xml:space="preserve">
<g id="Networks">
	<g id="LinkedIn">
	</g>
	<g id="NPM">
		<g id="Logo">
		</g>
	</g>
	<g id="Email">
	</g>
	<g id="Yeoman">
	</g>
	<g id="Python">
		<g id="pyicon">
		</g>
	</g>
	<g id="JS">
		<g id="JS_1_">
		</g>
	</g>
	<g id="HTML_1_">
	</g>
	<g id="CSS">
	</g>
	<g id="analytics">
	</g>
	<g id="Gulp">
	</g>
	<g id="Grunt">
	</g>
	<g id="ux">
	</g>
	<g id="Photoshop">
	</g>
	<g id="Illustrator">
		<circle fill="#403229" cx="-85.5" cy="285" r="64"/>
		<g>
			<path fill="#FF7519" d="M-109.3,307.3c0.7-2.4,1.4-4.5,1.9-6.6c0.5-1.9,0.9-3.8,1.4-5.6c0.4-1.5,0.9-2.9,1.4-4.3
				c1.4-5.1,2.8-10.1,4.3-15.2c0.6-2,1.3-4,1.9-6.1c0.4-1.5,0.7-3,1-4.5c0.1-0.7,0.4-1,1.1-1c2.2,0,4.4-0.1,6.6,0
				c0.5,0,1.2,0.7,1.4,1.2c1,3.2,1.9,6.4,2.8,9.7c0.5,1.9,1,3.8,1.6,5.6c1,3.1,2,6.2,2.9,9.3c1,3.5,2,7.1,3,10.6
				c0.6,2.2,1.3,4.4,2,6.7c-2.4,0-4.7,0-7.1,0c-0.7-2.6-1.4-5.2-2.1-7.8c-0.3-1.2-0.6-2.3-1-3.4c-0.2-0.4-0.9-0.8-1.4-0.9
				c-3.7-0.1-7.4,0-11.1-0.1c-0.8,0-1.1,0.4-1.3,1.1c-0.8,3.3-1.7,6.6-2.5,10c-0.2,0.8-0.7,1.3-1.6,1.2
				C-105.8,307.2-107.5,307.3-109.3,307.3z M-93.2,289.1C-93.2,289.1-93.2,289.1-93.2,289.1c1.1,0,2.3,0,3.4,0
				c1.3,0,1.7-0.4,1.4-1.7c-0.3-1.5-0.8-3.1-1.2-4.6c-1-3.7-1.9-7.5-2.9-11.2c-0.1-0.4-0.3-0.7-0.5-1.1c-0.2,0.4-0.6,0.7-0.7,1.1
				c-0.3,1.5-0.5,3-0.8,4.5c-0.4,1.7-1.1,3.4-1.6,5.2c-0.6,2.2-0.9,4.4-1.6,6.6c-0.3,1.1,0.1,1.3,0.9,1.3
				C-95.6,289.1-94.4,289.1-93.2,289.1z"/>
			<path fill="#FF7519" d="M-68.8,291.4c0-4.8,0-9.7,0-14.5c0-1.5,0.1-1.6,1.6-1.6c1.3,0,2.7,0,4,0c0.7,0,1.1,0.1,1,0.9
				c0,1.2,0.2,2.5,0.2,3.7c0,6.2,0,12.5,0,18.7c0,2.6-0.2,5.2-0.2,7.8c0,0.7-0.3,0.9-1,0.9c-1.5,0-2.9-0.1-4.4,0
				c-1,0-1.3-0.3-1.3-1.3C-68.8,301.1-68.8,296.3-68.8,291.4z"/>
			<path fill="#FF7519" d="M-68.3,269.3c-1.9-2.4-1.1-4.3,0.4-6.1c0.7-0.8,3.5-0.5,4.5,0.2c2.2,1.5,2.1,5.2,0,6.4
				c-0.9,0.5-1.9,1.3-3.1,0.5"/>
		</g>
	</g>
	<g id="React">
	</g>
</g>
<g id="GUIDE">
</g>
</svg>
