<?xml version="1.0" encoding="utf-8"?>
<!-- Generator: Adobe Illustrator 18.0.0, SVG Export Plug-In . SVG Version: 6.00 Build 0)  -->
<!DOCTYPE svg PUBLIC "-//W3C//DTD SVG 1.1//EN" "http://www.w3.org/Graphics/SVG/1.1/DTD/svg11.dtd">
<svg version="1.1" xmlns="http://www.w3.org/2000/svg" xmlns:xlink="http://www.w3.org/1999/xlink" x="0px" y="0px"
	 viewBox="-297 -223 128 128" enable-background="new -297 -223 128 128" xml:space="preserve">
<g id="Networks">
	<g id="LinkedIn">
	</g>
	<g id="NPM">
		<g id="Logo">
		</g>
	</g>
	<g id="Email">
	</g>
	<g id="Github">
		<g id="Layer_2">
			<circle fill="#FFFFFF" cx="-233" cy="-156" r="64"/>
		</g>
		<g>
			<path fill="#181616" d="M-233-223c-35.3,0-64,29.4-64,65.6c0,29,18.3,53.6,43.8,62.3c3.2,0.6,4.4-1.4,4.4-3.2
				c0-1.6-0.1-6.7-0.1-12.2c-17.8,4-21.6-7.7-21.6-7.7c-2.9-7.6-7.1-9.6-7.1-9.6c-5.8-4.1,0.4-4,0.4-4c6.4,0.5,9.8,6.8,9.8,6.8
				c5.7,10,15,7.1,18.6,5.5c0.6-4.2,2.2-7.1,4.1-8.8c-14.2-1.7-29.1-7.4-29.1-32.5c0-7.2,2.5-13,6.6-17.6c-0.7-1.7-2.9-8.3,0.6-17.4
				c0,0,5.4-1.8,17.6,6.7c5.1-1.5,10.6-2.2,16-2.2s10.9,0.8,16,2.2c12.2-8.5,17.6-6.7,17.6-6.7c3.5,9,1.3,15.7,0.6,17.4
				c4.1,4.6,6.6,10.4,6.6,17.6c0,25.2-15,30.8-29.2,32.4c2.3,2,4.3,6,4.3,12.2c0,8.8-0.1,15.8-0.1,18c0,1.7,1.2,3.8,4.4,3.1
				c25.4-8.7,43.7-33.3,43.7-62.3C-169-193.6-197.7-223-233-223z"/>
			<path fill="#181616" d="M-272.8-128.8c-0.1,0.3-0.6,0.4-1.1,0.2c-0.5-0.2-0.7-0.7-0.6-1s0.6-0.4,1.1-0.2
				S-272.6-129.1-272.8-128.8L-272.8-128.8z"/>
			<path fill="#181616" d="M-270.2-125.8c-0.3,0.3-0.9,0.2-1.3-0.3s-0.5-1.1-0.2-1.4c0.3-0.3,0.9-0.2,1.3,0.3
				C-269.9-126.7-269.8-126.1-270.2-125.8L-270.2-125.8z"/>
			<path fill="#181616" d="M-267.6-122c-0.4,0.3-1,0-1.4-0.6s-0.4-1.3,0-1.6c0.4-0.3,1,0,1.4,0.6S-267.2-122.3-267.6-122L-267.6-122
				z"/>
			<path fill="#181616" d="M-264.2-118.4c-0.4,0.4-1.1,0.3-1.6-0.3c-0.6-0.5-0.7-1.3-0.4-1.7c0.4-0.4,1.1-0.3,1.7,0.3
				C-264-119.5-263.8-118.8-264.2-118.4L-264.2-118.4z"/>
			<path fill="#181616" d="M-259.4-116.3c-0.2,0.5-0.9,0.7-1.6,0.5s-1.2-0.8-1.1-1.3c0.2-0.5,0.9-0.8,1.6-0.5
				C-259.7-117.4-259.3-116.8-259.4-116.3L-259.4-116.3z"/>
			<path fill="#181616" d="M-254.2-115.9c0,0.5-0.6,1-1.4,1c-0.8,0-1.4-0.4-1.4-1c0-0.5,0.6-1,1.4-1
				C-254.8-116.8-254.2-116.4-254.2-115.9L-254.2-115.9z"/>
			<path fill="#181616" d="M-249.3-116.7c0.1,0.5-0.4,1.1-1.2,1.2c-0.7,0.1-1.4-0.2-1.5-0.7s0.4-1.1,1.2-1.2
				C-250.1-117.6-249.4-117.3-249.3-116.7L-249.3-116.7z"/>
		</g>
	</g>
	<g id="Yeoman">
	</g>
	<g id="Python">
		<g id="pyicon">
		</g>
	</g>
	<g id="JS">
		<g id="JS_1_">
		</g>
	</g>
	<g id="HTML_1_">
	</g>
	<g id="CSS">
	</g>
	<g id="analytics">
	</g>
	<g id="Gulp">
	</g>
	<g id="Grunt">
	</g>
	<g id="ux">
	</g>
	<g id="Photoshop">
	</g>
	<g id="Illustrator">
	</g>
	<g id="React">
	</g>
</g>
<g id="GUIDE">
</g>
</svg>
