<?xml version="1.0" encoding="utf-8"?>
<!-- Generator: Adobe Illustrator 18.0.0, SVG Export Plug-In . SVG Version: 6.00 Build 0)  -->
<!DOCTYPE svg PUBLIC "-//W3C//DTD SVG 1.1//EN" "http://www.w3.org/Graphics/SVG/1.1/DTD/svg11.dtd">
<svg version="1.1" xmlns="http://www.w3.org/2000/svg" xmlns:xlink="http://www.w3.org/1999/xlink" x="0px" y="0px"
	 viewBox="-297 221 128 128" enable-background="new -297 221 128 128" xml:space="preserve">
<g id="Networks">
	<g id="LinkedIn">
	</g>
	<g id="NPM">
		<g id="Logo">
		</g>
	</g>
	<g id="Email">
	</g>
	<g id="Yeoman">
	</g>
	<g id="Python">
		<g id="pyicon">
		</g>
	</g>
	<g id="JS">
		<g id="JS_1_">
		</g>
	</g>
	<g id="HTML_1_">
	</g>
	<g id="CSS">
	</g>
	<g id="analytics">
	</g>
	<g id="Gulp">
	</g>
	<g id="Grunt">
	</g>
	<g id="ux">
	</g>
	<g id="Photoshop">
		<circle fill="#36344C" cx="-233" cy="285" r="64"/>
		<g>
			<path fill="#46C0FA" d="M-220.3,292.5c-1.6-0.5-3.1-1.4-4.2-2.7c0.3,0,0.6,0,0.9,0.2c0.8,0.7,1.1,0.4,1.5-0.5
				c0.5-1.1,1.2-2.2,1.6-3.6c0.1,0.3,0.2,0.4,0.2,0.5c0.1,0.3-0.1,0.9,0.5,0.9c0.4,0.1,0.6-0.2,0.8-0.5c0.3-0.4-0.2-0.6-0.4-0.8
				c-0.3-0.3-0.6-0.4-0.5-0.9c2.9,2.1,6.4,3.2,9.1,5.6c3.1,2.7,3.6,7.2,2.2,10.5c-1.3,2.9-3.5,4.5-6.6,5.3c-0.4,0.1-1,0-1.2,0.6
				c-2.1,0-4.2,0-6.3,0c-0.1-0.6-0.6-0.5-1-0.6c-0.4-0.1-0.8-0.1-1.2-0.2c-3.1-1.3-2.4-0.8-2.5-3.8c0-1,0-2,0-3
				c0-0.8,0.3-0.8,0.8-0.5c1.4,0.8,2.8,1.5,4.4,1.8c1.9,0.4,3.9,0.6,5.8-0.2c2-0.8,2.5-3.1,1-4.7c-0.9-0.9-2-1.5-3-2.3
				c-0.1-0.1-0.2-0.1-0.3-0.2c0,0,0,0,0,0c0-0.1-0.1-0.2-0.1-0.3c0-1.4,0-1.4-1.3-0.8C-220.1,292.4-220.2,292.5-220.3,292.5z
				 M-224.6,304.1c-0.4-0.2-0.2-0.9-0.8-1.1c-0.1,0-0.6,0.4-0.5,0.6c0.3,0.4,0.1,1.1,0.8,1.2C-224.8,304.7-224.6,304.6-224.6,304.1z
				"/>
			<path fill="#46C0FA" d="M-251.8,263.3c0.8-0.5,1.8-0.1,2.7-0.2c1-0.1,2,0.2,2.9-0.2c0.2,0,0.3,0,0.5,0c0,0.1,0,0.2,0,0.2
				c-0.2,0.3-0.6,0.2-0.9,0.2C-248.4,263.3-250.1,263.3-251.8,263.3z"/>
			<path fill="#32C8F8" d="M-251.8,263.3c1.7,0,3.5,0,5.2,0c0.3,0,0.6,0.1,0.9-0.2c1.5,0.5,3.1,0.4,4.6,0.9c2.4,0.7,4.4,1.8,6,3.7
				c1,1.2,1.7,2.4,2.2,3.9c0.8,2.3,1,4.6,0.8,6.9c-0.3,3.4-1.7,6.3-4.1,8.6c-1,1-2.4,1.7-3.7,2.2c-0.6,0-1.3-0.3-1.5,0.7
				c-0.1,0-0.2,0-0.3,0c-0.1,0-0.1,0-0.1,0c-0.3,0.1-0.5,0.2-0.8,0.2c-0.3-0.3-0.4-1.6-1-0.7c-0.6,0.9-1.3,0.7-2,0.9
				c-1.4,0.4-2.9,0.2-4.4,0.3c-0.4,0-0.9-0.2-1.2,0.3c0,4.8-0.1,9.6-0.1,14.4c-1.6,0-3.3-0.1-4.8,0.4c-0.9,0.3-1-0.2-1.1-0.7
				c-0.1-0.5,0-1,0-1.5c0-0.5-0.1-0.9-0.7-0.8c0-1.9,0-3.9,0-5.8c0.4-1.8,0.4-3.7,0-5.5c0-9,0-18,0-27c0-1,0.4-1.1,1.4-1.1
				C-255.1,263.4-253.5,263.3-251.8,263.3z M-245.5,284.6c2.8-0.2,5.3-2.1,6.1-4.8c0.8-2.8,0.6-5.4-1.1-7.9
				c-0.8-1.2-2.2-1.6-3.3-2.3c0-0.1-0.1-0.2-0.2-0.1c-0.2,0-0.5,0-0.7,0c0-0.1,0-0.2-0.1-0.2c-2.1-0.5-4.1-0.3-6.2-0.1
				c-0.1,0-0.1,0.3-0.2,0.4c0,4.2,0,8.5,0,12.7c0,0.7,0.2,1.4,0,2.1c0.1,0.3,0.3,0.5,0.6,0.5C-249,284.9-247.2,285.3-245.5,284.6z"
				/>
			<path fill="#32C8F8" d="M-220,285.2c-0.1,0.4,0.2,0.6,0.5,0.9c0.2,0.2,0.7,0.4,0.4,0.8c-0.2,0.3-0.4,0.5-0.8,0.5
				c-0.6-0.1-0.4-0.6-0.5-0.9c0-0.1-0.1-0.2-0.2-0.5c-0.4,1.4-1.1,2.4-1.6,3.6c-0.4,0.9-0.7,1.2-1.5,0.5c-0.3-0.2-0.6-0.2-0.9-0.2
				c-3-2.5-3.7-7.8-1.5-11.1c0.2,0,0.5,0,0.6-0.2c0.9-1.7,2.6-2.4,4.2-3.3c0.1-0.1,0.1-0.3,0.2-0.4c1.1-0.6,2.3-0.7,3.5-0.8
				c2.5-0.1,5,0.1,7.4,1c0.6,0.2,0.8,0.5,0.8,1.1c0,1.5-0.1,3,0,4.4c0,1-0.4,1-1.1,0.6c-2.5-1.4-5.2-1.5-7.9-1.2
				c-1.8,0.2-2.8,1.6-2.6,3.4c0.1,0.5,0.3,0.9,0.6,1.3c0.1,0.1,0.1,0.2,0.2,0.2C-220,285-220,285.1-220,285.2z M-225.3,283.6
				c0.2-0.6,0.4-1.1-0.1-1.8C-225.6,282.6-225.6,283.1-225.3,283.6z"/>
			<path fill="#46C0FA" d="M-258.1,302.8c0.6,0,0.7,0.3,0.7,0.8c0,0.5-0.1,1.1,0,1.5c0.1,0.5,0.2,1,1.1,0.7c1.5-0.5,3.2-0.5,4.8-0.4
				c0.1,0.5,0.2,1-0.6,1c-1.8,0-3.5,0-5.3,0c-0.7,0-0.9-0.3-0.9-0.9C-258.1,304.7-258.1,303.7-258.1,302.8z"/>
			<path fill="#46C0FA" d="M-251.3,291c0.3-0.5,0.8-0.3,1.2-0.3c1.5,0,3,0.1,4.4-0.3c0.7-0.2,1.4,0,2-0.9c0.6-0.9,0.7,0.4,1,0.7
				c-1.4,0.6-2.8,0.5-4.3,0.7C-248.3,291.2-249.8,291-251.3,291z"/>
			<path fill="#46C0FA" d="M-221,274.9c-0.1,0.1-0.1,0.3-0.2,0.4c-1.6,0.9-3.2,1.6-4.2,3.3c-0.1,0.2-0.4,0.2-0.6,0.2
				C-224.9,276.7-223.2,275.4-221,274.9z"/>
			<path fill="#32C8F8" d="M-220.3,292.5c0.1,0,0.2-0.1,0.3-0.1c1.3-0.6,1.3-0.6,1.3,0.8c0,0.1,0.1,0.2,0.1,0.3
				C-219.3,293.5-219.8,293-220.3,292.5z"/>
			<path fill="#46C0FA" d="M-258.1,291.5c0.4,1.8,0.4,3.7,0,5.5C-258.1,295.2-258.1,293.3-258.1,291.5z"/>
			<path fill="#46C0FA" d="M-241.4,290c0.2-0.9,0.9-0.6,1.5-0.7C-240.3,289.9-241,289.7-241.4,290z"/>
			<path fill="#46C0FA" d="M-220,285c-0.1-0.1-0.1-0.2-0.2-0.2C-220.1,284.8-220,284.9-220,285z"/>
			<path fill="#46C0FA" d="M-241.9,290.1c0,0,0.1,0,0.1,0C-241.7,290.1-241.8,290.1-241.9,290.1L-241.9,290.1z"/>
			<path fill="#32C8F8" d="M-218.6,293.4c0.1,0.1,0.2,0.1,0.3,0.2C-218.4,293.6-218.5,293.5-218.6,293.4z"/>
			<path fill="#32C8F8" d="M-224.6,304.1c0,0.4-0.2,0.6-0.5,0.6c-0.7-0.1-0.5-0.8-0.8-1.2c-0.1-0.2,0.3-0.6,0.5-0.6
				C-224.8,303.2-225.1,303.9-224.6,304.1z"/>
			<path fill="#46C0FA" d="M-244.8,269.5c-2.2,0-4.3-0.1-6.5,0.1c0.1-0.1,0.1-0.4,0.2-0.4c2.1-0.2,4.1-0.5,6.2,0.1
				C-244.9,269.3-244.8,269.5-244.8,269.5z"/>
			<path fill="#46C0FA" d="M-251.3,284.5c1.9,0.3,3.8,0,5.7,0.1c-1.7,0.7-3.4,0.3-5.2,0.4C-251,285-251.2,284.8-251.3,284.5z"/>
			<path fill="#46C0FA" d="M-243.9,269.6c-0.1,0-0.1,0-0.2-0.1C-244,269.4-243.9,269.5-243.9,269.6z"/>
			<path fill="#46C0FA" d="M-225.3,283.6c-0.4-0.5-0.3-1.1-0.1-1.8C-224.9,282.5-225.1,283.1-225.3,283.6z"/>
		</g>
	</g>
	<g id="Illustrator">
	</g>
	<g id="React">
	</g>
</g>
<g id="GUIDE">
</g>
</svg>
