<?xml version="1.0" encoding="utf-8"?>
<!-- Generator: Adobe Illustrator 18.0.0, SVG Export Plug-In . SVG Version: 6.00 Build 0)  -->
<!DOCTYPE svg PUBLIC "-//W3C//DTD SVG 1.1//EN" "http://www.w3.org/Graphics/SVG/1.1/DTD/svg11.dtd">
<svg version="1.1" xmlns="http://www.w3.org/2000/svg" xmlns:xlink="http://www.w3.org/1999/xlink" x="0px" y="0px"
	 viewBox="147 221 128 128" enable-background="new 147 221 128 128" xml:space="preserve">
<g id="Networks">
	<g id="LinkedIn">
	</g>
	<g id="NPM">
		<g id="Logo">
		</g>
	</g>
	<g id="Email">
	</g>
	<g id="Yeoman">
	</g>
	<g id="Python">
		<g id="pyicon">
		</g>
	</g>
	<g id="JS">
		<g id="JS_1_">
		</g>
	</g>
	<g id="HTML_1_">
	</g>
	<g id="CSS">
	</g>
	<g id="analytics">
	</g>
	<g id="Gulp">
	</g>
	<g id="Grunt">
	</g>
	<g id="ux">
		<circle fill="#202020" cx="211" cy="285" r="64"/>
		<g>
			<path fill="#F9F9F9" d="M175.5,265.3h7.8v20.9c0,3.3,0.1,5.5,0.3,6.5c0.3,1.6,1.1,2.9,2.4,3.8c1.3,1,3,1.4,5.2,1.4
				c2.2,0,3.9-0.5,5-1.4s1.8-2,2-3.3s0.3-3.5,0.3-6.6v-21.4h7.8v20.3c0,4.6-0.2,7.9-0.6,9.8s-1.2,3.5-2.3,4.9
				c-1.1,1.3-2.6,2.4-4.5,3.2c-1.9,0.8-4.4,1.2-7.4,1.2c-3.7,0-6.5-0.4-8.4-1.3c-1.9-0.9-3.4-2-4.5-3.3s-1.8-2.8-2.2-4.3
				c-0.5-2.2-0.8-5.5-0.8-9.8V265.3z"/>
			<path fill="#F9F9F9" d="M210.6,304l13.2-20.2l-12-18.5h9.1l7.8,12.4l7.6-12.4h9l-12,18.8l13.2,19.9h-9.4l-8.6-13.4L220,304H210.6
				z"/>
		</g>
	</g>
	<g id="Photoshop">
	</g>
	<g id="Illustrator">
	</g>
	<g id="React">
	</g>
</g>
<g id="GUIDE">
</g>
</svg>
