<?xml version="1.0" encoding="utf-8"?>
<!-- Generator: Adobe Illustrator 18.0.0, SVG Export Plug-In . SVG Version: 6.00 Build 0)  -->
<!DOCTYPE svg PUBLIC "-//W3C//DTD SVG 1.1//EN" "http://www.w3.org/Graphics/SVG/1.1/DTD/svg11.dtd">
<svg version="1.1" xmlns="http://www.w3.org/2000/svg" xmlns:xlink="http://www.w3.org/1999/xlink" x="0px" y="0px"
	 viewBox="-223 221 128 128" enable-background="new -223 221 128 128" xml:space="preserve">
<g id="Networks">
	<g id="LinkedIn">
	</g>
	<g id="NPM">
		<g id="Logo">
		</g>
	</g>
	<g id="Email">
	</g>
	<g id="Yeoman">
	</g>
	<g id="Python">
		<g id="pyicon">
		</g>
	</g>
	<g id="JS">
		<g id="JS_1_">
		</g>
	</g>
	<g id="HTML_1_">
	</g>
	<g id="CSS">
		<circle fill="#EBEBEB" cx="-159" cy="285" r="64"/>
		<g>
			<g>
				<path fill="#131313" d="M-142.1,246.1h-4.9l5.1,5.6v2.7h-10.6v-3.1h5.1l-5.1-5.6V243h10.4V246.1L-142.1,246.1z M-154.6,246.1
					h-4.9l5.1,5.6v2.7H-165v-3.1h5.1l-5.1-5.6V243h10.4L-154.6,246.1L-154.6,246.1z M-167,246.3h-5.3v4.9h5.3v3.2h-9.1V243h9.1
					V246.3z"/>
			</g>
			<polygon fill="#1572B6" points="-183.3,320.2 -188.7,259.5 -129.3,259.5 -134.7,320.2 -159,327 			"/>
			<polygon fill="#33A9DC" points="-159,321.8 -139.3,316.4 -134.7,264.5 -159,264.5 			"/>
			<g>
				<polygon fill="#FFFFFF" points="-159,286.5 -149.2,286.5 -148.5,278.9 -159,278.9 -159,271.4 -159,271.4 -140.3,271.4 
					-140.5,273.4 -142.3,293.9 -159,293.9 				"/>
				<polygon fill="#EBEBEB" points="-159,305.8 -159,305.8 -167.3,303.6 -167.8,297.6 -171.8,297.6 -175.3,297.6 -174.2,309.3 
					-159,313.6 -159,313.6 				"/>
				<polygon fill="#FFFFFF" points="-149.8,293.6 -150.7,303.6 -159,305.8 -159,313.6 -143.7,309.3 -143.6,308.1 -142.3,293.6 				
					"/>
				<polygon fill="#EBEBEB" points="-159,271.4 -159,276 -159,278.8 -159,278.9 -176.9,278.9 -176.9,278.9 -177,278.9 -177.1,277.2 
					-177.4,273.4 -177.6,271.4 				"/>
				<polygon fill="#EBEBEB" points="-159,286.5 -159,291.1 -159,293.9 -159,293.9 -167.2,293.9 -167.2,293.9 -167.2,293.9 
					-167.3,292.3 -167.7,288.5 -167.9,286.5 				"/>
			</g>
		</g>
	</g>
	<g id="analytics">
	</g>
	<g id="Gulp">
	</g>
	<g id="Grunt">
	</g>
</g>
<g id="GUIDE">
</g>
</svg>
