<?xml version="1.0" encoding="utf-8"?>
<!-- Generator: Adobe Illustrator 18.0.0, SVG Export Plug-In . SVG Version: 6.00 Build 0)  -->
<!DOCTYPE svg PUBLIC "-//W3C//DTD SVG 1.1//EN" "http://www.w3.org/Graphics/SVG/1.1/DTD/svg11.dtd">
<svg version="1.1" xmlns="http://www.w3.org/2000/svg" xmlns:xlink="http://www.w3.org/1999/xlink" x="0px" y="0px"
	 viewBox="-1 73 128 128" enable-background="new -1 73 128 128" xml:space="preserve">
<g id="Networks">
	<g id="LinkedIn">
	</g>
	<g id="NPM">
		<g id="Logo">
		</g>
	</g>
	<g id="Email">
	</g>
	<g id="Yeoman">
	</g>
	<g id="Python">
		<g id="pyicon">
		</g>
	</g>
	<g id="JS">
		<g id="JS_1_">
		</g>
	</g>
	<g id="HTML_1_">
	</g>
	<g id="CSS">
		<circle fill="#EBEBEB" cx="63" cy="137" r="64"/>
		<g>
			<g>
				<path fill="#131313" d="M79.9,98.1h-4.9l5.1,5.6v2.7H69.5v-3.1h5.1l-5.1-5.6V95h10.4V98.1L79.9,98.1z M67.4,98.1h-4.9l5.1,5.6
					v2.7H57v-3.1h5.1L57,97.7V95h10.4L67.4,98.1L67.4,98.1z M55,98.3h-5.3v4.9H55v3.2h-9.1V95H55V98.3z"/>
			</g>
			<polygon fill="#1572B6" points="38.7,172.2 33.3,111.5 92.7,111.5 87.3,172.2 63,179 			"/>
			<polygon fill="#33A9DC" points="63,173.8 82.7,168.4 87.3,116.5 63,116.5 			"/>
			<g>
				<polygon fill="#FFFFFF" points="63,138.5 72.8,138.5 73.5,130.9 63,130.9 63,123.4 63,123.4 81.7,123.4 81.5,125.4 79.7,145.9 
					63,145.9 				"/>
				<polygon fill="#EBEBEB" points="63,157.8 63,157.8 54.7,155.6 54.2,149.6 50.2,149.6 46.7,149.6 47.8,161.3 63,165.6 63,165.6 
									"/>
				<polygon fill="#FFFFFF" points="72.2,145.6 71.3,155.6 63,157.8 63,165.6 78.3,161.3 78.4,160.1 79.7,145.6 				"/>
				<polygon fill="#EBEBEB" points="63,123.4 63,128 63,130.8 63,130.9 45.1,130.9 45.1,130.9 45,130.9 44.9,129.2 44.6,125.4 
					44.4,123.4 				"/>
				<polygon fill="#EBEBEB" points="63,138.5 63,143.1 63,145.9 63,145.9 54.8,145.9 54.8,145.9 54.8,145.9 54.7,144.3 54.3,140.5 
					54.1,138.5 				"/>
			</g>
		</g>
	</g>
	<g id="analytics">
	</g>
	<g id="Gulp">
	</g>
	<g id="Grunt">
	</g>
	<g id="ux">
	</g>
	<g id="Photoshop">
	</g>
	<g id="Illustrator">
	</g>
	<g id="React">
	</g>
</g>
<g id="GUIDE">
</g>
</svg>
