<?xml version="1.0" encoding="utf-8"?>
<!-- Generator: Adobe Illustrator 18.0.0, SVG Export Plug-In . SVG Version: 6.00 Build 0)  -->
<!DOCTYPE svg PUBLIC "-//W3C//DTD SVG 1.1//EN" "http://www.w3.org/Graphics/SVG/1.1/DTD/svg11.dtd">
<svg version="1.1" xmlns="http://www.w3.org/2000/svg" xmlns:xlink="http://www.w3.org/1999/xlink" x="0px" y="0px"
	 viewBox="147 -75 128 128" enable-background="new 147 -75 128 128" xml:space="preserve">
<g id="Networks">
	<g id="LinkedIn">
	</g>
	<g id="NPM">
		<g id="Logo">
		</g>
	</g>
	<g id="Email">
	</g>
	<g id="Yeoman">
	</g>
	<g id="Python">
		<g id="pyicon">
		</g>
	</g>
	<g id="JS">
		<circle fill="#F0DB4F" cx="211" cy="-11" r="64"/>
		<g id="JS_1_">
			<g>
				<path d="M211.2,1.2c2.4-1.4,4.3-2.5,6.3-3.6c0.5,0.7,1,1.3,1.5,1.9c2.5,3.1,7.7,3.5,10.5,1.9c2.6-1.4,2.8-5.2,0.3-6.8
					c-2.1-1.3-4.5-2.3-6.7-3.4c-1.5-0.8-3.1-1.5-4.5-2.4c-4-2.6-5.8-7.7-4.5-12c1.5-4.8,5.6-7.9,10.5-8c5.1-0.2,9.3,1.5,12,6.3
					c-1.7,1.1-3.3,2.2-5,3.2c-0.3,0.2-1.1-0.3-1.4-0.6c-1.4-1.5-3-2.4-5.1-2.2c-1.8,0.2-3.4,1.4-3.7,2.9c-0.4,2,0.4,3.8,2.4,4.9
					c1.8,0.9,3.6,1.7,5.4,2.5c2.9,1.3,5.8,2.7,7.8,5.4c4.7,6.2,2.3,14.4-5.1,17c-6.1,2.1-11.9,1.3-17.1-2.7
					C213.4,4.3,212.5,2.7,211.2,1.2z"/>
				<path d="M188.4-1.7c0.5,0.7,0.9,1.3,1.3,1.8c1.6,2.3,3.8,2.6,6.4,1.8c2.2-0.7,2.4-2.7,2.4-4.6c0-8.6,0.1-17.3,0-25.9
					c0-1.8,0.5-2.3,2.2-2.2c1.4,0.1,2.9,0,4.3,0c1,0,1.4,0.4,1.4,1.4c0,8.6,0.1,17.3,0,25.9c-0.1,4.3-1.1,8.4-5.3,10.9
					c-4.9,2.9-13.9,2.4-17.9-4c-0.6-0.9-0.6-1.6,0.5-2.2C185.2,0.4,186.7-0.6,188.4-1.7z"/>
			</g>
		</g>
	</g>
	<g id="HTML_1_">
	</g>
	<g id="CSS">
	</g>
	<g id="analytics">
	</g>
	<g id="Gulp">
	</g>
	<g id="Grunt">
	</g>
	<g id="ux">
	</g>
	<g id="Photoshop">
	</g>
	<g id="Illustrator">
	</g>
	<g id="React">
	</g>
</g>
<g id="GUIDE">
</g>
</svg>
