<?xml version="1.0" encoding="utf-8"?>
<!-- Generator: Adobe Illustrator 18.0.0, SVG Export Plug-In . SVG Version: 6.00 Build 0)  -->
<!DOCTYPE svg PUBLIC "-//W3C//DTD SVG 1.1//EN" "http://www.w3.org/Graphics/SVG/1.1/DTD/svg11.dtd">
<svg version="1.1" xmlns="http://www.w3.org/2000/svg" xmlns:xlink="http://www.w3.org/1999/xlink" x="0px" y="0px"
	 viewBox="295 73 128 128" enable-background="new 295 73 128 128" xml:space="preserve">
<g id="Networks">
	<g id="LinkedIn">
	</g>
	<g id="NPM">
		<g id="Logo">
		</g>
	</g>
	<g id="Email">
	</g>
	<g id="Yeoman">
	</g>
	<g id="Python">
		<g id="pyicon">
		</g>
	</g>
	<g id="JS">
		<g id="JS_1_">
		</g>
	</g>
	<g id="HTML_1_">
	</g>
	<g id="CSS">
	</g>
	<g id="analytics">
	</g>
	<g id="Gulp">
	</g>
	<g id="Grunt">
		<circle fill="#E48632" cx="359" cy="137" r="64"/>
		<g id="Layer_1_1_">
			<g>
				<path fill="#FBA919" d="M332.5,115.9c0,0,1.4,5.4,1.6,7.2c0.2,1.8-3.6,5.8-3.6,7.8c0,2,0.8,5.6,5.2,7.4c4.4,1.8,5,6.4,5,9.2
					c0,2.8-1.6,8.2-1.6,8.2s-1,13.4,4.4,15.9c5.4,2.4,4.2,2.4,5.4,2.4c1.2,0,10,3.6,15.3,2.2c5.2-1.4,6.6-3,6.6-3s5.2,0.4,6.8-4.2
					c1.6-4.6,2.6-14.2,2-18.7c-0.6-4.4-1.4-10.2,2.2-12.2c3.6-2,7.4-4.4,6.8-6.4c-0.6-2-3.8-4.8-3.8-4.8s-0.8-5-0.2-6.2
					c0.6-1.2,4.2-4.2,2.2-6.4c-2-2.2-5.6-2.2-5.6-2.2l-4.6,0.4c0,0-7.8-7-18.1-6.6c-10.2,0.4-16.7,6.6-16.7,6.6s-3.4-1.2-6.4,0
					C332.5,113.7,331.9,112.5,332.5,115.9z"/>
				<path fill="#E78724" d="M350.8,145.8c0,0-4,6.1-6.9,10.4c-0.5,0.7,2.9,0.7,2.9,0.7L350.8,145.8z"/>
				<path fill="#E78724" d="M352.7,133.2c0,0-1.2,3-1.9,4.6c-0.7,1.7-3.4,2.6-3.4,2.6s1.4-1.5,1.4-5.2c0-1.6,2-2.2,2-2.2
					L352.7,133.2z"/>
				<path fill="#E78724" d="M351.5,134.9c0,0-2.5,2.9-7,1.3c-4.6-1.6-5-7.5-5-9.1c0-1.6,8.6,1.6,9.8,2.3S352.7,132.9,351.5,134.9z"
					/>
				<path fill="#E78724" d="M334.3,103.7c0,0,4.2-0.8,7,1.4c2.8,2.2,3.6,4,3.6,4l-4.7,3.7c0,0-2.3-1.1-3-4.1
					C336.5,105.7,337,104.3,334.3,103.7z"/>
				<path fill="#E78724" d="M350.3,126.5c-1.8-2.6-4.8-3.7-7.2-3.9c-4.1-0.3-6,1.1-6,1.1s6.7,0.3,8.6,2.8c3.6,4.7,8.8,5.1,9.6,4
					c-1,0-2-0.4-3.2-1.5C351.4,128.4,350.9,127.3,350.3,126.5z"/>
				<path fill="#E78724" d="M339.1,135.5c0,0-7.4-2.5-6-5.1c1.4-2.6,0.3-4,0.3-4s-4.1,3.1-3.1,6.4c0.6,2,1.7,3.5,7.7,6.3
					c2.9,5.3,0.6,14.8,0.7,14.9c0.2,0.1,4-1.9,3.7-10.8C342.4,140.4,342.1,136.7,339.1,135.5z"/>
				<path fill="#E78724" d="M348.7,108.2c-3.1,1.6-7.3,3.8-7.3,3.8l1.7,0.8c-0.2,0.3-0.2,0.4-0.2,0.4l1.7,0.8c0,0,4.2,3,6.7,5
					c-0.9-2.6-3.4-6.8-3.4-6.8S347.2,110.3,348.7,108.2z"/>
				<path fill="#E78724" d="M359,172.4c-9.5,0-12.7-4.8-12.7-4.8l1.5,3.6c0.6,1.6,6.6,6.4,11.2,6.4"/>
				<path fill="#E78724" d="M347.3,164.3c0,0,0.9,5.4,4.4,5.4c3,0,3.9-4.5,3.9-5.5L347.3,164.3z"/>
				<path fill="#E78724" d="M341.5,156.2c0.3-0.9,1.4-4.3,1.8-7.5c0.4-3.8,0.3-9.3,0.3-9.3s-0.9,3.6-1.8,4.2
					c-0.8,0.6-2.3,4.6-2.3,4.6s-0.8,5.9-1.2,7.9C339.3,156.3,340.2,155.7,341.5,156.2z"/>
				<path fill="#E78724" d="M333,132.8c0,0,2-0.7,2.6-5c0.6-4.3-0.7-8.1-0.7-8.1s0.1,6-0.6,7.1c-0.7,1.2-1.3,1.5-2.1,3
					C331.4,131.4,332.6,132.3,333,132.8z"/>
				<path fill="#87CCEE" d="M343.6,112.9"/>
				<path fill="#FDC168" d="M335.4,104.7l-0.4-0.3C333.8,104.5,335.4,104.7,335.4,104.7z"/>
				<path fill="#FBA919" d="M350.4,107c0,0-1.9-0.3-2.8-1.7c-0.9-1.4-3.6-4.2-7.8-4.2c-4.2,0-8.4,1.1-8.4,1.1l3.6,2.3
					c0.4,0,1.1,0,2.2,0c4.6,0.2,5.3,4.7,5.3,4.7l16.1-2.2"/>
				<path fill="#FFFFFF" d="M351.9,132c0,0-2.2,2.2-5.5,1.5c-3.4-0.7-5.4-2.2-5.5-4.8c-0.2-2.6,0.7-3.6,0.7-3.6s3.7,1.2,5.5,2.7
					C348.9,129.4,350.2,131.9,351.9,132z"/>
				<path fill="#C9C9C9" d="M349.3,131.2c0,0-1.9,0.9-4,0.2c-2.8-0.9-3-3.8-3-3.8s-1.7,5,3.1,5.9c3.8,0.8,6.1-1.4,6.1-1.4
					L349.3,131.2z"/>
				<path fill="#463014" d="M351.4,159.1"/>
				<path fill="#463014" d="M350.6,105.9c-0.2-4.3,3.3-7.7,4.5-7.8c0.1,0.7-0.1,3.6,1.1,4.4c0.4-2.3,1.5-4.9,6.3-6.5
					c-1,2.7-0.1,4.9,0.3,6c3.2-2.9,5.4-2.4,5.4-2.4s-2.2,3.9-1.4,6.4C360.4,105.4,350.7,106.6,350.6,105.9z"/>
				<path fill="#463014" d="M336.9,112.4c-1.5-1.3-0.4-2.5-0.5-3.9c-0.1-0.8-0.1-1.5-0.4-1.9c-1.4-2.2-4.8-2.9-4.8-2.9l-1.6-0.3
					l1-1.2c0.1-0.2,4.4-4.2,11-2.1c4.6,1.5,8.1,6.6,8.2,6.8l-2.3,1.1c0,0-2.7-4.8-6.7-6.1c-3.2-1-6.2-0.1-7.4,0.6
					c1.3,0.5,3.1,1.5,4.2,3.2c0.5,0.8,0.6,1.8,0.7,2.8c0.1,1.3,0.2,2.5,1.1,3.3L336.9,112.4z"/>
				<path fill="#463014" d="M332.8,131.1c0,0,1.9-2.4,2.5-7.1c0.2-1.8-0.2-5.5-0.8-6.9c0.1,3.4-0.8,6.9-0.8,6.9
					S333.1,130.4,332.8,131.1z"/>
				<path fill="#463014" d="M343,110c0,0-0.6-2.7-2.4-4.1c-2.4-1.9-5.4-0.9-5.4-0.9l-0.4-1.3c0.1,0,3.5-1.1,6.7,1.1
					c3.2,2.2,3.5,4.2,3.6,4.4L343,110z"/>
				<path fill="#463014" d="M338.9,129.4c0,0-1-1.5-0.8-3.1c0.1-0.8,0.5-1.6,1.1-1.9c1.2-0.5,1.8,0.8,1.8,0.8
					S339.2,125.7,338.9,129.4z"/>
				<path fill="#463014" d="M351.4,159.1"/>
				<path fill="#463014" d="M350.1,131.6c0,0.1,0.1,0.1,0.1,0.1s-3.2,2.4-6.4,0c-1.7-1.3-1.6-4.5-1-5.9c1.4,0.3,2.6,0.9,3.6,1.5
					c-1.2-1.1-2.3-1.9-2.3-1.9l-1.4-0.4l-2.8-0.9c0,0.2-1,4.9,1.9,8.1c1.3,1.4,7.3,4.6,10.2-0.8L350.1,131.6z"/>
				<path fill="#463014" d="M349.8,132c1.8,2.7,6.3,1.2,6.2-1.7c0,0-3,1.7-5.7-1.4c-1.6-1.8-6.6-6.7-13.3-5.1
					C341.7,124.8,347.9,129.1,349.8,132z"/>
				<g>
					<path fill="#463014" d="M351.4,159.1"/>
				</g>
				<path fill="#463014" d="M336.4,139.7c0.4,0.2,2,1.8,2,4.2c0,1.2-0.1,7.1-0.7,10.7c0.9,0.6,1.5,0.7,2.4,1.3
					c0.4-4.2,0.8-10.3,0.6-12.7c-0.2-2.8-1.7-4.7-3.1-5.5c-0.4-0.3-0.9-0.5-1.3-0.7c-2.4-1.3-4.8-2.6-4.8-4.9c0-1.8,0.7-2.3,1.4-2.9
					l0.1-0.1c0.5-0.4,1-0.8,1.4-1.6c0.9-2,1-7.1,0-8.4c-0.5-0.6-1.9-2.8-1.5-4.3c0.2-0.6,0.5-1,1.1-1.3c0.6-0.3,1.4-0.5,2.4-0.5
					c2,0,4.1,0.6,5.3,1c4,1.3,8.9,4.9,10.3,6c0,0,0.1,0,0.1,0.1l0.9,0.6l-0.6-0.9c0-0.1-3.6-5.9-9.9-8c-1.2-0.4-3.6-1.1-6-1.1
					c-1.4,0-2.6,0.2-3.6,0.7c-1.2,0.6-1.9,1.5-2.3,2.7c-0.8,2.9,1.8,6.2,1.9,6.3c0.3,0.5,0.4,4.5-0.3,6c-0.1,0.2-0.4,0.4-0.7,0.7
					c-0.1,0.1-0.2,0.2-0.3,0.3c-1,0.7-2.5,1.9-2.5,4.5c0,3.5,3.6,5.5,6.5,7C335.5,139.2,336,139.4,336.4,139.7z"/>
				<g>
					<g>
						<path fill="#463014" d="M336.9,112.4c-1.5-1.3-0.4-2.5-0.5-3.9c-0.1-0.8-0.1-1.5-0.4-1.9c-1.4-2.2-4.8-2.9-4.8-2.9l-1.6-0.3
							l1-1.2c0.1-0.2,4.4-4.2,11-2.1c4.6,1.5,8.1,6.6,8.2,6.8l-2.3,1.1c0,0-2.7-4.8-6.7-6.1c-3.2-1-6.2-0.1-7.4,0.6
							c1.3,0.5,3.1,1.5,4.2,3.2c0.5,0.8,0.6,1.8,0.7,2.8c0.1,1.3,0.2,2.5,1.1,3.3L336.9,112.4z"/>
					</g>
					<g>
						<path fill="#463014" d="M336.9,112.7L336.9,112.7c-1.2-1-1-2-0.8-2.9c0.1-0.4,0.2-0.8,0.1-1.3c-0.1-0.7-0.1-1.4-0.3-1.8
							c-1.4-2.1-4.6-2.8-4.7-2.8l-2-0.4l1.3-1.5c0,0,2.8-2.8,7.4-2.8c1.3,0,2.6,0.2,3.9,0.6c4.8,1.6,8.3,6.8,8.3,6.9l0.1,0.2
							l-2.7,1.3l-0.1-0.2c-0.3-0.5-2.9-4.8-6.6-6c-0.9-0.3-1.9-0.4-2.8-0.4c-1.8,0-3.2,0.5-4,0.8c1.3,0.6,2.8,1.5,3.8,3.1
							c0.5,0.8,0.6,1.9,0.7,2.9c0.1,1.2,0.2,2.4,1.1,3.1l0.3,0.3L336.9,112.7z"/>
					</g>
				</g>
				<g>
					<g>
						<path fill="#463014" d="M343,110c0,0-0.6-2.7-2.4-4.1c-2.4-1.9-5.4-0.9-5.4-0.9l-0.4-1.3c0.1,0,3.5-1.1,6.7,1.1
							c3.2,2.2,3.5,4.2,3.6,4.4L343,110z"/>
					</g>
					<g>
						<path fill="#463014" d="M342.9,110.3l-0.1-0.3c0,0-0.6-2.7-2.3-4c-0.9-0.7-2.1-1.1-3.4-1.1c-1,0-1.8,0.2-1.8,0.3l-0.2,0.1
							l-0.6-1.8l0.2-0.1c0.1,0,1-0.3,2.3-0.3c1.7,0,3.3,0.5,4.6,1.4c3.2,2.3,3.6,4.4,3.7,4.6l0,0.2L342.9,110.3z M337.2,104.5
							c1.4,0,2.7,0.4,3.7,1.2c1.5,1.2,2.2,3.2,2.4,4l1.6-0.6c-0.1-0.6-0.8-2.2-3.4-4.1c-1.3-0.9-2.7-1.3-4.3-1.3
							c-0.9,0-1.6,0.1-1.9,0.2l0.3,0.9C335.7,104.6,336.4,104.5,337.2,104.5z"/>
					</g>
				</g>
				<path fill="#463014" d="M351.6,168.3L351.6,168.3c-0.7,0-1.4-0.3-1.9-0.7c-0.4-0.3-1.6-1.5-2.2-2.9c-0.2-0.5-0.2-1,0.1-1.3
					c0.2-0.2,0.6-0.5,1.5-0.5l0.6,0c0.7,0,2,0,3.1,0h1c0.7,0,1.1,0.1,1.4,0.4c0.4,0.4,0.2,0.8,0.1,1.1c-0.2,0.4-0.9,1.8-2.1,3.1
					C352.9,168.1,352.3,168.3,351.6,168.3z"/>
				<path fill="#463014" d="M352.3,132.1l-2.5-0.2c0,0,0.6,1.1,1.1,2.6c0.5,1.6-0.4,4-0.4,4S353.7,134.8,352.3,132.1z"/>
				<g>
					<path fill="#463014" d="M349.2,174.9c-8.9-0.7-12-9.1-12-10.8l2.3,0l-1.2,0h1.2c0,0.8,2.4,7.9,9.9,8.5L349.2,174.9z"/>
				</g>
				<path fill="#FFFFFF" d="M346.7,159.9c-0.1-0.8-0.2-1.6,0-2.3c-0.7-0.5-1.9-0.7-2.8-1c-0.7-0.5-4.5,0.5-7.3-2.9
					c-3.5-4.2-2.7-6.7-2.7-6.7c-0.9,1-1.7,0.6-3.1,5.2c-1.4,4.6,0.6,7.8,4.3,11c1.7,1.5,4.2,2.1,6.3,2.4c-0.7-0.7,1.2-0.8,2.5-1.3
					c-0.1-1.1,0.1-2.1,0.9-3c0.5-0.5,1.1-0.8,1.7-1c0-0.1,0.1-0.2,0.1-0.2C346.7,160.1,346.7,160,346.7,159.9z"/>
				<path fill="#C9C9C9" d="M344,164.3c-0.1-0.2-0.1-0.5-0.2-0.7c-0.1-0.3-0.4-1,0-0.2c-0.1-0.2-0.2-0.4-0.2-0.6
					c-6,0-11.2-4.1-10.2-12.8c-0.8-1-1.9,2.1-1.9,2.1s-3,8.7,4.8,12.1c2.6,1.1,4.9,1.9,5.4,1.6c1.1,0.2,2.1-0.6,2.5-1.1
					C344.1,164.7,344.1,164.5,344,164.3z"/>
				<path fill="#463014" d="M346.6,158.6c0-0.7,0.2-1.4,0.5-2.1c0,0,0.1-0.1,0.1-0.1c-2.3,0-5-0.2-7.2-1.1c-2.5-1-5.6-4.4-6.1-8.4
					c0,0-4.7,3.6-3.3,11.3c1.3,7.3,7.4,9.6,14.3,10c0,0-0.8-1.7-0.5-2.7c-3.9,0.3-8.3-1.2-10.5-4.7c-1.9-3.2-1.4-8.7-0.6-9.5
					C335.2,157.5,342.2,158.8,346.6,158.6z"/>
				<path fill="#463014" d="M359,168.2"/>
				<path fill="#463014" d="M347.3,154.2c-1.2,3.7-3.8,6.6-3.8,6.6s3.5-0.2,3.7-0.8c0.1-0.5,3.2-7.5,4.3-15.8
					C350.4,146.1,347.4,153.9,347.3,154.2z"/>
				<path fill="#E78724" d="M367.2,145.8c0,0,4,6.1,6.9,10.4c0.5,0.7-2.9,0.7-2.9,0.7L367.2,145.8z"/>
				<path fill="#E78724" d="M365.3,133.2c0,0,1.2,3,1.9,4.6c0.7,1.7,3.4,2.6,3.4,2.6s-1.4-1.5-1.4-5.2c0-1.6-2-2.2-2-2.2
					L365.3,133.2z"/>
				<path fill="#E78724" d="M366.5,134.9c0,0,2.5,2.9,7,1.3c4.6-1.6,5-7.5,5-9.1c0-1.6-8.6,1.6-9.8,2.3S365.3,132.9,366.5,134.9z"/>
				<path fill="#E78724" d="M383.7,103.7c0,0-4.2-0.8-7,1.4c-2.8,2.2-3.6,4-3.6,4l4.7,3.7c0,0,2.3-1.1,3-4.1
					C381.5,105.7,381,104.3,383.7,103.7z"/>
				<path fill="#E78724" d="M367.7,126.5c1.8-2.6,4.8-3.7,7.2-3.9c4.1-0.3,6,1.1,6,1.1s-6.7,0.3-8.6,2.8c-3.6,4.7-8.8,5.1-9.6,4
					c1,0,2-0.4,3.2-1.5C366.6,128.4,367.1,127.3,367.7,126.5z"/>
				<path fill="#E78724" d="M378.9,135.5c0,0,7.4-2.5,6-5.1c-1.4-2.6-0.3-4-0.3-4s4.1,3.1,3.1,6.4c-0.6,2-1.7,3.5-7.7,6.3
					c-2.9,5.3-0.6,14.8-0.7,14.9c-0.2,0.1-4-1.9-3.7-10.8C375.6,140.4,375.9,136.7,378.9,135.5z"/>
				<path fill="#E78724" d="M369.3,108.2c3.1,1.6,7.3,3.8,7.3,3.8l-1.7,0.8c0.2,0.3,0.2,0.4,0.2,0.4l-1.7,0.8c0,0-4.2,3-6.7,5
					c0.9-2.6,3.4-6.8,3.4-6.8S370.8,110.3,369.3,108.2z"/>
				<path fill="#E78724" d="M359,172.4c9.5,0,12.7-4.8,12.7-4.8l-1.5,3.6c-0.6,1.6-6.6,6.4-11.2,6.4"/>
				<path fill="#E78724" d="M370.7,164.3c0,0-0.9,5.4-4.4,5.4c-3,0-3.9-4.5-3.9-5.5L370.7,164.3z"/>
				<path fill="#E78724" d="M376.5,156.2c-0.3-0.9-1.4-4.3-1.8-7.5c-0.4-3.8-0.3-9.3-0.3-9.3s0.9,3.6,1.8,4.2
					c0.8,0.6,2.3,4.6,2.3,4.6s0.8,5.9,1.2,7.9C378.7,156.3,377.8,155.7,376.5,156.2z"/>
				<path fill="#E78724" d="M385,132.8c0,0-2-0.7-2.6-5c-0.6-4.3,0.7-8.1,0.7-8.1s-0.1,6,0.6,7.1c0.7,1.2,1.3,1.5,2.1,3
					C386.6,131.4,385.4,132.3,385,132.8z"/>
				<path fill="#87CCEE" d="M374.4,112.9"/>
				<path fill="#FDC168" d="M382.6,104.7l0.4-0.3C384.2,104.5,382.6,104.7,382.6,104.7z"/>
				<path fill="#FBA919" d="M367.6,107c0,0,1.9-0.3,2.8-1.7c0.9-1.4,3.6-4.2,7.8-4.2c4.2,0,8.4,1.1,8.4,1.1l-3.6,2.3
					c-0.4,0-1.1,0-2.2,0c-4.6,0.2-5.3,4.7-5.3,4.7l-16.1-2.2"/>
				<path fill="#FFFFFF" d="M366.1,132c0,0,2.2,2.2,5.5,1.5c3.4-0.7,5.4-2.2,5.5-4.8c0.2-2.6-0.7-3.6-0.7-3.6s-3.7,1.2-5.5,2.7
					C369.1,129.4,367.8,131.9,366.1,132z"/>
				<path fill="#C9C9C9" d="M368.7,131.2c0,0,1.9,0.9,4,0.2c2.8-0.9,3-3.8,3-3.8s1.7,5-3.1,5.9c-3.8,0.8-6.1-1.4-6.1-1.4
					L368.7,131.2z"/>
				<path fill="#463014" d="M366.6,159.1"/>
				<path fill="#463014" d="M381.1,112.4c1.5-1.3,0.4-2.5,0.5-3.9c0.1-0.8,0.1-1.5,0.4-1.9c1.4-2.2,4.8-2.9,4.8-2.9l1.6-0.3l-1-1.2
					c-0.1-0.2-4.4-4.2-11-2.1c-4.6,1.5-8.1,6.6-8.2,6.8l2.3,1.1c0,0,2.7-4.8,6.7-6.1c3.2-1,6.2-0.1,7.4,0.6
					c-1.3,0.5-3.1,1.5-4.2,3.2c-0.5,0.8-0.6,1.8-0.7,2.8c-0.1,1.3-0.2,2.5-1.1,3.3L381.1,112.4z"/>
				<path fill="#463014" d="M385.2,131.1c0,0-1.9-2.4-2.5-7.1c-0.2-1.8,0.2-5.5,0.8-6.9c-0.1,3.4,0.8,6.9,0.8,6.9
					S384.9,130.4,385.2,131.1z"/>
				<path fill="#463014" d="M375,110c0,0,0.6-2.7,2.4-4.1c2.4-1.9,5.4-0.9,5.4-0.9l0.4-1.3c-0.1,0-3.5-1.1-6.7,1.1
					c-3.2,2.2-3.5,4.2-3.6,4.4L375,110z"/>
				<path fill="#463014" d="M379.1,129.4c0,0,1-1.5,0.8-3.1c-0.1-0.8-0.5-1.6-1.1-1.9c-1.2-0.5-1.8,0.8-1.8,0.8
					S378.8,125.7,379.1,129.4z"/>
				<path fill="#463014" d="M366.6,159.1"/>
				<path fill="#463014" d="M367.9,131.6c0,0.1-0.1,0.1-0.1,0.1s3.2,2.4,6.4,0c1.7-1.3,1.6-4.5,1-5.9c-1.4,0.3-2.6,0.9-3.6,1.5
					c1.2-1.1,2.3-1.9,2.3-1.9l1.4-0.4l2.8-0.9c0,0.2,1,4.9-1.9,8.1c-1.3,1.4-7.3,4.6-10.2-0.8L367.9,131.6z"/>
				<path fill="#463014" d="M368.2,132c-1.8,2.7-6.3,1.2-6.2-1.7c0,0,3,1.7,5.7-1.4c1.6-1.8,6.6-6.7,13.3-5.1
					C376.3,124.8,370.1,129.1,368.2,132z"/>
				<g>
					<path fill="#463014" d="M366.6,159.1"/>
				</g>
				<path fill="#463014" d="M381.6,139.7c-0.4,0.2-2,1.8-2,4.2c0,1.2,0.1,7.1,0.7,10.7c-0.9,0.6-1.5,0.7-2.4,1.3
					c-0.4-4.2-0.8-10.3-0.6-12.7c0.2-2.8,1.7-4.7,3.1-5.5c0.4-0.3,0.9-0.5,1.3-0.7c2.4-1.3,4.8-2.6,4.8-4.9c0-1.8-0.7-2.3-1.4-2.9
					l-0.1-0.1c-0.5-0.4-1-0.8-1.4-1.6c-0.9-2-1-7.1,0-8.4c0.5-0.6,1.9-2.8,1.5-4.3c-0.2-0.6-0.5-1-1.1-1.3c-0.6-0.3-1.4-0.5-2.4-0.5
					c-2,0-4.1,0.6-5.3,1c-4,1.3-8.9,4.9-10.3,6c0,0-0.1,0-0.1,0.1l-0.9,0.6l0.6-0.9c0-0.1,3.6-5.9,9.9-8c1.2-0.4,3.6-1.1,6-1.1
					c1.4,0,2.6,0.2,3.6,0.7c1.2,0.6,1.9,1.5,2.3,2.7c0.8,2.9-1.8,6.2-1.9,6.3c-0.3,0.5-0.4,4.5,0.3,6c0.1,0.2,0.4,0.4,0.7,0.7
					c0.1,0.1,0.2,0.2,0.3,0.3c1,0.7,2.5,1.9,2.5,4.5c0,3.5-3.6,5.5-6.5,7C382.5,139.2,382,139.4,381.6,139.7z"/>
				<path fill="#463014" d="M377.3,112c-0.6-1-2-2.8-5.4-4.5c-3.8-1.8-8.1-2.8-12.9-2.8v0c0,0,0,0,0,0c0,0,0,0,0,0v0
					c-4.8,0-9.2,0.9-12.9,2.8c-3.4,1.6-4.8,3.5-5.4,4.5l-0.2,0.3l2.9,0.6l0.1-0.1l0-0.1c0-0.2,0.4-1.2,3.6-2.8
					c3.4-1.7,7.4-2.5,11.9-2.5c4.5,0,8.5,0.9,11.9,2.5c3.2,1.6,3.6,2.6,3.6,2.8l0,0.1l0.1,0.1l2.9-0.6L377.3,112z"/>
				<g>
					<g>
						<path fill="#463014" d="M381.1,112.4c1.5-1.3,0.4-2.5,0.5-3.9c0.1-0.8,0.1-1.5,0.4-1.9c1.4-2.2,4.8-2.9,4.8-2.9l1.6-0.3
							l-1-1.2c-0.1-0.2-4.4-4.2-11-2.1c-4.6,1.5-8.1,6.6-8.2,6.8l2.3,1.1c0,0,2.7-4.8,6.7-6.1c3.2-1,6.2-0.1,7.4,0.6
							c-1.3,0.5-3.1,1.5-4.2,3.2c-0.5,0.8-0.6,1.8-0.7,2.8c-0.1,1.3-0.2,2.5-1.1,3.3L381.1,112.4z"/>
					</g>
					<g>
						<path fill="#463014" d="M378.1,111.7l0.3-0.3c0.9-0.7,1-1.9,1.1-3.1c0.1-1,0.2-2,0.7-2.9c1-1.5,2.5-2.5,3.8-3.1
							c-0.8-0.3-2.2-0.8-4-0.8c-1,0-1.9,0.1-2.8,0.4c-3.7,1.2-6.3,5.5-6.6,6l-0.1,0.2l-2.7-1.3l0.1-0.2c0-0.1,3.5-5.3,8.3-6.9
							c1.3-0.4,2.6-0.6,3.9-0.6c4.6,0,7.4,2.8,7.4,2.8l1.3,1.5l-2,0.4c0,0-3.3,0.7-4.7,2.8c-0.2,0.4-0.3,1.1-0.3,1.8
							c0,0.4,0.1,0.9,0.1,1.3c0.2,0.9,0.4,1.8-0.7,2.8l-0.1,0.1L378.1,111.7z"/>
					</g>
				</g>
				<g>
					<g>
						<path fill="#463014" d="M375,110c0,0,0.6-2.7,2.4-4.1c2.4-1.9,5.4-0.9,5.4-0.9l0.4-1.3c-0.1,0-3.5-1.1-6.7,1.1
							c-3.2,2.2-3.5,4.2-3.6,4.4L375,110z"/>
					</g>
					<g>
						<path fill="#463014" d="M372.7,109.3l0-0.2c0-0.2,0.4-2.3,3.7-4.6c1.3-0.9,2.9-1.4,4.6-1.4c1.3,0,2.2,0.3,2.3,0.3l0.2,0.1
							l-0.6,1.8l-0.2-0.1c-0.1,0-0.8-0.3-1.8-0.3c-1.3,0-2.4,0.4-3.4,1.1c-1.7,1.3-2.3,3.9-2.3,4l-0.1,0.3L372.7,109.3z
							 M382.6,104.7l0.3-0.9c-0.3-0.1-1-0.2-1.9-0.2c-1.6,0-3.1,0.5-4.3,1.3c-2.7,1.9-3.3,3.5-3.4,4.1l1.6,0.6
							c0.2-0.7,0.9-2.8,2.4-4c1-0.8,2.3-1.2,3.7-1.2C381.6,104.5,382.3,104.6,382.6,104.7z"/>
					</g>
				</g>
				<path fill="#463014" d="M364.7,167.6c-1.2-1.3-1.9-2.7-2.1-3.1c-0.1-0.2-0.2-0.7,0.1-1.1c0.3-0.3,0.8-0.4,1.4-0.4h1
					c1.1,0,2.3,0,3.1,0l0.6,0c0.9,0,1.3,0.3,1.5,0.5c0.3,0.3,0.3,0.7,0.1,1.3c-0.6,1.4-1.8,2.6-2.2,2.9c-0.5,0.4-1.2,0.7-1.9,0.7
					l0,0C365.7,168.3,365.1,168.1,364.7,167.6z"/>
				<path fill="#463014" d="M365.7,132.1l2.5-0.2c0,0-0.6,1.1-1,2.6c-0.5,1.6,0.4,4,0.4,4S364.3,134.8,365.7,132.1z"/>
				<path fill="#E78724" d="M359,123.2c-1.6,0-3.7,0-5.2-1.2c0,0,2,3.6,5.2,3.6l0-0.5l0,0.5c3.2,0,5.2-3.6,5.2-3.6
					C362.7,123.2,360.6,123.2,359,123.2z"/>
				<path fill="#463014" d="M363.4,123.2c-1.6,1-3,1.3-4.4,1.3c-1.4,0-2.8-0.4-4.4-1.3c0,0,2.3,2.8,4.4,2.9v0c0,0,0,0,0,0
					c0,0,0,0,0,0v0C361.1,126,363.4,123.2,363.4,123.2z"/>
				<g>
					<path fill="#463014" d="M368.8,174.9l-0.2-2.3c7.5-0.6,9.8-7.7,9.9-8.5h2.3C380.8,165.9,377.7,174.2,368.8,174.9z"/>
				</g>
				<path fill="#FFFFFF" d="M371.3,159.9c0.1-0.8,0.2-1.6,0-2.3c0.7-0.5,1.9-0.7,2.8-1c0.7-0.5,4.5,0.5,7.3-2.9
					c3.5-4.2,2.7-6.7,2.7-6.7c0.9,1,1.7,0.6,3.1,5.2c1.4,4.6-0.6,7.8-4.3,11c-1.7,1.5-4.2,2.1-6.3,2.4c0.7-0.7-1.2-0.8-2.5-1.3
					c0.1-1.1-0.1-2.1-0.9-3c-0.5-0.5-1.1-0.8-1.7-1c0-0.1-0.1-0.2-0.1-0.2C371.3,160.1,371.3,160,371.3,159.9z"/>
				<path fill="#C9C9C9" d="M374,164.3c0.1-0.2,0.1-0.5,0.2-0.7c0.1-0.3,0.4-1,0-0.2c0.1-0.2,0.2-0.4,0.2-0.6
					c6,0,11.2-4.1,10.2-12.8c0.8-1,1.9,2.1,1.9,2.1s3,8.7-4.8,12.1c-2.6,1.1-4.9,1.9-5.4,1.6c-1.1,0.2-2.1-0.6-2.5-1.1
					C373.9,164.7,373.9,164.5,374,164.3z"/>
				<path fill="#463014" d="M371.4,158.6c0-0.7-0.2-1.4-0.5-2.1c0,0-0.1-0.1-0.1-0.1c2.3,0,5-0.2,7.2-1.1c2.5-1,5.6-4.4,6.1-8.4
					c0,0,4.7,3.6,3.3,11.3c-1.3,7.3-7.4,9.6-14.3,10c0,0,0.8-1.7,0.5-2.7c3.9,0.3,8.3-1.2,10.5-4.7c1.9-3.2,1.4-8.7,0.6-9.5
					C382.8,157.5,375.8,158.8,371.4,158.6z"/>
				<g>
					<path fill="#463014" d="M359,168.2"/>
					<path fill="#463014" d="M374.2,160.5c-0.8-0.9-2.4-2-5.9-2c0,0-6.7,0-9.4,0l0,0c0,0,0,0,0,0c0,0,0,0,0,0l0,0
						c-2.7,0-9.4,0-9.4,0c-3.5,0-5,1.1-5.9,2c-1.2,1.3-1.4,3.1-0.6,5.4c2.2,6,5.3,12.2,15.8,12.2v0c0,0,0,0,0,0c0,0,0,0,0,0v0
						c10.4,0,13.6-6.1,15.8-12.2C375.6,163.6,375.4,161.8,374.2,160.5z M372.6,165.4c-1.1,3-3.9,10.4-13.6,10.4
						c-9.7,0-12.5-7.3-13.6-10.4c-0.6-1.7-0.5-2.9,0.1-3.7c0.5-0.5,1.5-1.2,3.9-1.2l2.5,0c1.9,0,4.2,0,7,0c2.8,0,5.1,0,7,0l2.5,0
						c2.4,0,3.5,0.6,3.9,1.2C373.1,162.5,373.2,163.7,372.6,165.4z"/>
				</g>
				<path fill="#463014" d="M370.7,154.2c1.2,3.7,3.8,6.6,3.8,6.6s-3.5-0.2-3.7-0.8c-0.1-0.5-3.2-7.5-4.3-15.8
					C367.6,146.1,370.6,153.9,370.7,154.2z"/>
			</g>
		</g>
	</g>
	<g id="ux">
	</g>
	<g id="Photoshop">
	</g>
	<g id="Illustrator">
	</g>
	<g id="React">
	</g>
</g>
<g id="GUIDE">
</g>
</svg>
