<?xml version="1.0" encoding="utf-8"?>
<!-- Generator: Adobe Illustrator 18.0.0, SVG Export Plug-In . SVG Version: 6.00 Build 0)  -->
<!DOCTYPE svg PUBLIC "-//W3C//DTD SVG 1.1//EN" "http://www.w3.org/Graphics/SVG/1.1/DTD/svg11.dtd">
<svg version="1.1" xmlns="http://www.w3.org/2000/svg" xmlns:xlink="http://www.w3.org/1999/xlink" x="0px" y="0px"
	 viewBox="147 73 128 128" enable-background="new 147 73 128 128" xml:space="preserve">
<g id="Networks">
	<g id="LinkedIn">
	</g>
	<g id="NPM">
		<g id="Logo">
		</g>
	</g>
	<g id="Email">
	</g>
	<g id="Yeoman">
	</g>
	<g id="Python">
		<g id="pyicon">
		</g>
	</g>
	<g id="JS">
		<g id="JS_1_">
		</g>
	</g>
	<g id="HTML_1_">
	</g>
	<g id="CSS">
	</g>
	<g id="analytics">
	</g>
	<g id="Gulp">
		<circle fill="#FFFFFF" cx="211" cy="137" r="64"/>
		<g>
			<path id="cup-end" fill="#E94B4C" d="M210.8,165.3c-5.7,0-10.2-0.9-12.3-1.4c-1.5-0.4-2.6-0.7-3.5-1.1l2.8,4.9l1.1,15.2
				c0,1.7,5.4,3.1,12.1,3.1c6.7,0,12.1-1.4,12.1-3.1l0.9-15.3l2.7-4.7c-0.9,0.4-2.1,0.7-3.5,1.1
				C220.9,164.4,216.5,165.3,210.8,165.3z"/>
			<path id="cup-main" fill="#E94B4C" d="M226.7,115.9c-4.2,0.6-9.8,0.9-15.7,0.9c-5.9,0-11.5-0.3-15.7-0.9c-2.1-0.3-3.7-0.6-4.9-1
				c-0.3-0.1-0.8-0.2-1.2-0.5l2.6,24c0.1-0.4,0.3-0.8,0.4-1.2c0.3-0.8,0.7-1.7,1.1-2.5c0.4-0.8,0.8-1.6,1.3-2.3c0.5-0.7,1-1.4,1.5-2
				c0.5-0.6,1.1-1.1,1.6-1.6c0.6-0.4,1.1-0.8,1.7-1c0.6-0.2,1.1-0.4,1.7-0.4c0.6,0,1.3,0.2,1.9,0.5c0.6,0.4,1.2,0.9,1.7,1.7
				c0.1,0.2,0.2,0.4,0.2,0.5c0,0.2,0,0.4,0,0.5c0,0.4-0.1,0.7-0.3,0.9c-0.2,0.2-0.4,0.3-0.6,0.3c-0.2,0-0.4-0.1-0.6-0.4
				c-0.2-0.2-0.4-0.6-0.7-1c-0.2-0.4-0.5-0.7-0.8-0.9c-0.3-0.2-0.6-0.3-0.9-0.3c-0.5,0-1,0.2-1.6,0.6c-0.6,0.4-1.1,1-1.7,1.6
				c-0.6,0.7-1.1,1.5-1.6,2.3c-0.5,0.9-1,1.8-1.4,2.7c-0.4,0.9-0.7,1.8-0.9,2.7c-0.2,0.9-0.3,1.7-0.3,2.4c0,0.2,0,0.5,0,0.7
				c0,0.2,0.1,0.5,0.2,0.7c0.1,0.2,0.2,0.4,0.4,0.5c0.2,0.1,0.3,0.2,0.6,0.2c0.3,0,0.6-0.1,0.9-0.3c0.3-0.2,0.7-0.4,1-0.7
				c0.4-0.3,0.7-0.6,1.1-1c0.4-0.4,0.7-0.7,1-1.1c0.3-0.4,0.6-0.7,0.8-1.1c0.2-0.3,0.4-0.6,0.5-0.9l1-3c0.1-0.3,0.3-0.5,0.5-0.7
				c0.2-0.1,0.4-0.2,0.6-0.2c0.1,0,0.2,0,0.3,0.1c0.1,0,0.2,0.1,0.3,0.2c0.1,0.1,0.1,0.2,0.2,0.3c0,0.1,0.1,0.2,0.1,0.4
				c0,0.4,0,0.8-0.1,1.1c-0.1,0.4-0.2,0.7-0.3,1c-0.1,0.3-0.2,0.7-0.4,1c-0.1,0.3-0.3,0.7-0.4,1.1c0,0-0.1,0.2-0.2,0.4
				c-0.1,0.2-0.2,0.5-0.3,0.8c-0.1,0.3-0.2,0.7-0.3,1.1c-0.1,0.4-0.3,0.8-0.4,1.3c-0.1,0.4-0.3,0.9-0.4,1.3
				c-0.1,0.4-0.2,0.8-0.3,1.1c-0.1,0.3-0.2,0.6-0.2,0.8c-0.1,0.2-0.1,0.4-0.1,0.4c0,0.1-0.1,0.3-0.2,0.4c-0.1,0.2-0.2,0.3-0.3,0.5
				c-0.1,0.1-0.2,0.3-0.4,0.4c-0.1,0.1-0.3,0.1-0.4,0.1c-0.2,0-0.4-0.1-0.5-0.2c-0.1-0.2-0.2-0.4-0.2-0.8c0-0.1,0-0.1,0-0.2
				c0-0.1,0-0.1,0-0.2c0-0.1,0.1-0.4,0.2-0.8c0.1-0.4,0.2-0.8,0.4-1.3c0.1-0.5,0.3-1,0.4-1.5c0.2-0.5,0.3-1,0.4-1.3
				c-0.4,0.4-0.8,0.8-1.2,1.3c-0.4,0.4-0.9,0.8-1.4,1.1c-0.5,0.3-0.9,0.6-1.4,0.8c-0.5,0.2-0.9,0.3-1.4,0.3c-0.5,0-0.9-0.1-1.3-0.3
				c-0.1,0-0.1-0.1-0.2-0.1l1.5,15.2c0.4,0.9,7.5,3.3,16.9,3.3c9.4,0,16.5-2.3,16.9-3.3l2.1-18.1c-0.2,0.2-0.3,0.3-0.5,0.5
				c-0.6,0.6-1.2,1-1.7,1.4c-0.5,0.4-1,0.7-1.6,0.9c-0.5,0.2-1,0.3-1.6,0.3c-0.5,0-1-0.1-1.3-0.4c-0.3-0.2-0.4-0.6-0.4-1
				c0,0,0-0.1,0-0.1c0,0,0-0.1,0-0.1c0-0.3,0.1-0.5,0.3-0.9c0.2-0.3,0.4-0.7,0.7-1c0.3-0.4,0.6-0.7,0.9-1.1c0.3-0.4,0.6-0.7,0.8-1
				c0.3-0.3,0.5-0.6,0.6-0.9c0.2-0.3,0.3-0.5,0.3-0.7c0-0.1,0-0.2-0.1-0.2c-0.1-0.1-0.2-0.1-0.4-0.1c-0.3,0-0.6,0.1-0.9,0.2
				c-0.3,0.1-0.6,0.3-0.9,0.6c-0.3,0.2-0.6,0.5-0.9,0.9c-0.3,0.3-0.5,0.7-0.8,1c-0.2,0.3-0.5,0.7-0.7,1c-0.2,0.3-0.4,0.7-0.5,1
				c0,0.1-0.1,0.2-0.2,0.4c-0.1,0.2-0.2,0.4-0.3,0.6c-0.1,0.2-0.2,0.4-0.3,0.7c-0.1,0.2-0.2,0.4-0.3,0.6c-0.1,0.2-0.2,0.4-0.2,0.5
				c-0.1,0.2-0.1,0.3-0.1,0.3c0,0.1-0.1,0.2-0.2,0.4c-0.1,0.2-0.2,0.5-0.3,0.7c-0.1,0.3-0.2,0.6-0.3,0.9c-0.1,0.3-0.2,0.6-0.3,0.9
				c-0.1,0.3-0.2,0.5-0.3,0.7c-0.1,0.2-0.1,0.4-0.1,0.4c-0.1,0.2-0.2,0.4-0.3,0.6c-0.1,0.2-0.2,0.4-0.3,0.5
				c-0.1,0.1-0.3,0.3-0.4,0.4c-0.2,0.1-0.3,0.1-0.5,0.1c-0.3,0-0.5-0.1-0.6-0.2c-0.2-0.1-0.3-0.4-0.3-0.7c0-0.2,0-0.3,0.1-0.5
				c0-0.2,0.1-0.4,0.2-0.5c0.1-0.2,0.1-0.3,0.2-0.5c0.1-0.2,0.1-0.3,0.2-0.5c0.4-0.8,0.8-1.7,1.2-2.5c0.4-0.8,0.8-1.7,1.1-2.5
				c0.1-0.2,0.1-0.3,0.2-0.5c0,0,0,0-0.1,0.1c-0.5,0.4-0.9,0.8-1.4,1.2c-0.5,0.3-0.9,0.6-1.4,0.8c-0.5,0.2-0.9,0.3-1.3,0.3
				c-0.3,0-0.5,0-0.7-0.1c-0.2-0.1-0.4-0.2-0.5-0.4c-0.1-0.2-0.2-0.3-0.3-0.6c0-0.1,0-0.2,0-0.2c-0.1,0.1-0.3,0.2-0.4,0.3
				c-0.4,0.3-0.9,0.6-1.3,0.8c-0.4,0.2-0.8,0.3-1.2,0.3c-0.3,0-0.6-0.1-0.8-0.3c-0.2-0.2-0.3-0.6-0.3-1.2c0-0.4,0.1-0.8,0.2-1.4
				c-0.2,0.3-0.4,0.7-0.7,1c-0.3,0.3-0.6,0.6-1,0.9c-0.4,0.3-0.8,0.5-1.2,0.7c-0.4,0.2-0.9,0.3-1.4,0.3c-0.2,0-0.5,0-0.7-0.1
				c-0.2-0.1-0.4-0.2-0.6-0.3c-0.2-0.1-0.3-0.3-0.4-0.6c-0.1-0.2-0.1-0.5-0.1-0.9c0,0,0-0.1,0-0.4c0-0.2,0.1-0.6,0.3-1.2
				c0.2-0.5,0.4-1.2,0.7-2.1c0.3-0.9,0.8-1.9,1.4-3.1c0.1-0.3,0.3-0.6,0.5-0.7c0.2-0.1,0.4-0.2,0.6-0.2c0.1,0,0.2,0,0.3,0
				c0.1,0,0.2,0.1,0.3,0.1c0.1,0.1,0.2,0.1,0.2,0.2c0.1,0.1,0.1,0.2,0.1,0.3c0,0.1,0,0.2,0,0.2c0,0.1-0.1,0.3-0.2,0.6
				c-0.1,0.2-0.3,0.5-0.4,0.8c-0.2,0.3-0.3,0.6-0.5,1c-0.2,0.3-0.3,0.7-0.5,1.1c-0.1,0.4-0.3,0.7-0.4,1.1c-0.1,0.4-0.2,0.8-0.2,1.1
				c0,0.2,0,0.3,0.1,0.4c0.1,0.1,0.2,0.2,0.4,0.2c0.5,0,0.9-0.2,1.3-0.5c0.4-0.3,0.8-0.7,1.2-1.1c0.4-0.5,0.7-0.9,1-1.5
				c0.3-0.5,0.5-1,0.7-1.4c0.1-0.3,0.3-0.6,0.4-0.9c0.1-0.3,0.2-0.6,0.3-0.9c0.1-0.3,0.3-0.5,0.4-0.7c0.2-0.2,0.4-0.3,0.6-0.3
				c0.3,0,0.5,0.1,0.6,0.3c0.1,0.2,0.2,0.4,0.2,0.7c0,0.2,0,0.4-0.1,0.6s-0.2,0.6-0.4,0.9c-0.1,0.3-0.3,0.7-0.5,1.1
				c-0.2,0.4-0.3,0.8-0.5,1.2c-0.1,0.4-0.3,0.8-0.4,1.2s-0.1,0.7-0.1,1.1c0,0.3,0.2,0.5,0.5,0.5c0.2,0,0.5-0.1,0.8-0.2
				c0.3-0.2,0.7-0.4,1-0.6c0.1-0.1,0.2-0.1,0.3-0.2c0.1-0.4,0.2-0.8,0.4-1.1c0.2-0.7,0.5-1.3,0.8-2c0.3-0.6,0.5-1.2,0.7-1.8l3.2-8.2
				c0.1-0.3,0.3-0.6,0.5-0.7c0.2-0.1,0.4-0.2,0.7-0.2c0.2,0,0.4,0.1,0.6,0.2c0.2,0.1,0.3,0.4,0.3,0.7c0,0.2,0,0.3-0.1,0.5
				c-0.1,0.2-0.1,0.3-0.2,0.5c-0.2,0.4-0.4,0.9-0.6,1.5c-0.2,0.6-0.5,1.2-0.8,1.9c-0.3,0.7-0.6,1.4-0.9,2.1
				c-0.3,0.7-0.6,1.4-0.9,2.1c-0.3,0.7-0.5,1.3-0.8,2c-0.2,0.6-0.5,1.2-0.6,1.6c-0.1,0.2-0.2,0.4-0.2,0.7c-0.1,0.3-0.1,0.5-0.1,0.7
				c0,0.1,0,0.2,0.1,0.3c0,0.1,0.1,0.1,0.2,0.1c0.1,0,0.3-0.1,0.6-0.2c0.2-0.1,0.5-0.2,0.7-0.4c0.3-0.2,0.5-0.4,0.8-0.6
				c0.3-0.2,0.6-0.5,0.8-0.7c0.3-0.2,0.5-0.5,0.8-0.7s0.5-0.5,0.7-0.7c0,0,0.1-0.1,0.2-0.1c0.1-0.4,0.2-0.7,0.3-1.1
				c0.1-0.2,0.1-0.4,0.2-0.6c0.1-0.3,0.2-0.6,0.3-0.8c0.1-0.3,0.3-0.5,0.4-0.7c0.2-0.2,0.3-0.3,0.5-0.3c0.3,0,0.5,0.1,0.6,0.2
				c0.1,0.1,0.2,0.3,0.2,0.6c0,0.1,0,0.1,0,0.2c0,0.1,0,0.2-0.1,0.3s0,0.2-0.1,0.3c0,0.1,0,0.2-0.1,0.2c0.3-0.3,0.5-0.6,0.9-0.9
				c0.3-0.3,0.6-0.5,1-0.8c0.3-0.2,0.7-0.4,1-0.6c0.3-0.1,0.7-0.2,1-0.2c0.2,0,0.5,0,0.7,0.1c0.2,0.1,0.4,0.2,0.6,0.3
				c0.2,0.1,0.3,0.3,0.4,0.5c0.1,0.2,0.2,0.4,0.2,0.7c0,0.3-0.1,0.7-0.3,1.1c-0.2,0.4-0.4,0.8-0.7,1.2c-0.3,0.4-0.5,0.8-0.9,1.2
				c-0.3,0.4-0.6,0.7-0.9,1c-0.3,0.3-0.5,0.6-0.7,0.8c-0.2,0.2-0.3,0.4-0.3,0.4c0,0.1,0,0.2,0.1,0.2c0.1,0.1,0.2,0.1,0.3,0.1
				c0.1,0,0.3-0.1,0.5-0.2c0.2-0.1,0.6-0.4,1-0.7c0.4-0.3,1-0.8,1.6-1.3c0.4-0.4,1-0.8,1.6-1.4l2.8-26.2c-0.5,0.3-0.9,0.4-1.2,0.5
				C230.4,115.3,228.8,115.6,226.7,115.9z"/>
			<path id="cup-top" fill="#E94B4C" d="M211,109.7c-12.2,0-22,1.4-22,3.1c0,1.7,9.9,3.1,22,3.1c12.2,0,22-1.4,22-3.1
				C233,111,223.1,109.7,211,109.7z M217.2,114.4c-1.5,0-2.6-0.3-2.6-0.7c0-0.4,1.2-0.7,2.6-0.7c1.5,0,2.6,0.3,2.6,0.7
				C219.8,114.1,218.6,114.4,217.2,114.4z"/>
			<g id="straw">
				<g id="straw-join">
					<ellipse fill="#E94B4C" cx="217.2" cy="113.4" rx="2.1" ry="0.5"/>
				</g>
				<path id="straw-end" fill="#E94B4C" d="M233,90.6c-0.2,0.3-1.1-0.1-1.8-0.8c-0.8-0.7-1.3-1.4-1.1-1.7c0.3-0.3,1.1,0,1.9,0.7
					C232.8,89.5,233.3,90.3,233,90.6z"/>
				<polygon id="_x0A_straw" fill="#E94B4C" points="233,90.6 230.1,88.2 218.4,100.5 215,113.4 219.3,113.4 222,102.2 				"/>
			</g>
		</g>
	</g>
	<g id="Grunt">
	</g>
	<g id="ux">
	</g>
	<g id="Photoshop">
	</g>
	<g id="Illustrator">
	</g>
	<g id="React">
	</g>
</g>
<g id="GUIDE">
</g>
</svg>
