<?xml version="1.0" encoding="utf-8"?>
<!-- Generator: Adobe Illustrator 18.0.0, SVG Export Plug-In . SVG Version: 6.00 Build 0)  -->
<!DOCTYPE svg PUBLIC "-//W3C//DTD SVG 1.1//EN" "http://www.w3.org/Graphics/SVG/1.1/DTD/svg11.dtd">
<svg version="1.1" xmlns="http://www.w3.org/2000/svg" xmlns:xlink="http://www.w3.org/1999/xlink" x="0px" y="0px"
	 viewBox="295 -223 128 128" enable-background="new 295 -223 128 128" xml:space="preserve">
<g id="Networks">
	<g id="Medium">
		<circle fill="#00AB6C" cx="359" cy="-159" r="64"/>
		<g id="XMLID_110_">
			<g id="XMLID_111_">
				<path id="XMLID_115_" fill="#D0D2D3" d="M374.5-193.9c-1.2-0.6-2.2,0-2.2,1.4v54.2l22.2,11.1c2.4,1.2,4.4,0.4,4.4-1.9v-52.2
					c0-0.2-0.1-0.4-0.3-0.5L374.5-193.9z"/>
				<path id="XMLID_114_" fill="#A6A8AB" d="M345.7-151.7l25.3-41.2c0.7-1.2,2.3-1.6,3.5-1l24.2,12.1c0.2,0.1,0.2,0.3,0.1,0.4
					l-26.5,43L345.7-151.7z"/>
				<path id="XMLID_113_" fill="#808184" d="M322.7-193.2c-2-1-2.7-0.3-1.5,1.7l24.5,39.8l26.7,13.3l-26.7-43.2
					c0-0.1-0.1-0.1-0.2-0.1L322.7-193.2z"/>
				<path id="XMLID_112_" fill="#58595B" d="M345.7-129.2c0,2.3-1.7,3.3-3.7,2.3l-20.8-10.4c-1.2-0.6-2.2-2.2-2.2-3.5v-50.9
					c0-1.8,1.3-2.6,3-1.8l23.6,11.8c0.1,0,0.1,0.1,0.1,0.2V-129.2z"/>
			</g>
		</g>
	</g>
	<g id="LinkedIn">
	</g>
	<g id="NPM">
		<g id="Logo">
		</g>
	</g>
	<g id="Email">
	</g>
	<g id="Yeoman">
	</g>
	<g id="Python">
		<g id="pyicon">
		</g>
	</g>
	<g id="JS">
		<g id="JS_1_">
		</g>
	</g>
	<g id="HTML_1_">
	</g>
	<g id="CSS">
	</g>
	<g id="analytics">
	</g>
	<g id="Gulp">
	</g>
	<g id="Grunt">
	</g>
	<g id="ux">
	</g>
	<g id="Photoshop">
	</g>
	<g id="Illustrator">
	</g>
	<g id="React">
	</g>
</g>
<g id="GUIDE">
</g>
</svg>
