<?xml version="1.0" encoding="utf-8"?>
<!-- Generator: Adobe Illustrator 18.0.0, SVG Export Plug-In . SVG Version: 6.00 Build 0)  -->
<!DOCTYPE svg PUBLIC "-//W3C//DTD SVG 1.1//EN" "http://www.w3.org/Graphics/SVG/1.1/DTD/svg11.dtd">
<svg version="1.1" xmlns="http://www.w3.org/2000/svg" xmlns:xlink="http://www.w3.org/1999/xlink" x="0px" y="0px"
	 viewBox="-149 73 128 128" enable-background="new -149 73 128 128" xml:space="preserve">
<g id="Networks">
	<g id="LinkedIn">
	</g>
	<g id="NPM">
		<g id="Logo">
		</g>
	</g>
	<g id="Email">
	</g>
	<g id="Yeoman">
	</g>
	<g id="Python">
		<g id="pyicon">
		</g>
	</g>
	<g id="JS">
		<g id="JS_1_">
		</g>
	</g>
	<g id="HTML_1_">
		<circle fill="#EBEBEB" cx="-85" cy="137" r="64"/>
		<g id="HTML">
			<polygon fill="#E44F26" points="-108.1,170.5 -113.2,112.8 -56.8,112.8 -61.9,170.4 -85,176.9 			"/>
			<polygon fill="#F1662A" points="-85,172 -66.3,166.8 -61.9,117.5 -85,117.5 			"/>
			<polygon fill="#EBEBEB" points="-85,138.9 -94.4,138.9 -95,131.7 -85,131.7 -85,124.6 -85,124.6 -102.7,124.6 -102.6,126.5 
				-100.8,146 -85,146 			"/>
			<polygon fill="#EBEBEB" points="-85,157.3 -85,157.3 -92.9,155.1 -93.4,149.5 -97.2,149.5 -100.5,149.5 -99.5,160.6 -85,164.6 
				-85,164.6 			"/>
			<path fill="#010101" d="M-108,97.1h3.6v3.5h3.3v-3.5h3.6v10.7h-3.6v-3.6h-3.3v3.6h-3.6V97.1L-108,97.1z"/>
			<path fill="#010101" d="M-92.8,100.7h-3.2v-3.6h9.9v3.6h-3.2v7.2h-3.6L-92.8,100.7L-92.8,100.7z"/>
			<path fill="#010101" d="M-84.5,97.1h3.7l2.3,3.8l2.3-3.8h3.7v10.7h-3.6v-5.3l-2.5,3.8h-0.1l-2.5-3.8v5.3h-3.5L-84.5,97.1
				L-84.5,97.1z"/>
			<path fill="#010101" d="M-70.6,97.1h3.6v7.2h5.1v3.6h-8.6L-70.6,97.1L-70.6,97.1z"/>
			<polygon fill="#FFFFFF" points="-85,138.9 -85,146 -76.3,146 -77.1,155.1 -85,157.3 -85,164.6 -70.5,160.6 -70.4,159.4 
				-68.8,140.8 -68.6,138.9 -70.5,138.9 			"/>
			<polygon fill="#FFFFFF" points="-85,124.6 -85,129 -85,131.6 -85,131.7 -68,131.7 -68,131.7 -67.9,131.7 -67.8,130.1 
				-67.5,126.5 -67.3,124.6 			"/>
		</g>
	</g>
	<g id="CSS">
	</g>
	<g id="analytics">
	</g>
	<g id="Gulp">
	</g>
	<g id="Grunt">
	</g>
	<g id="ux">
	</g>
	<g id="Photoshop">
	</g>
	<g id="Illustrator">
	</g>
	<g id="React">
	</g>
</g>
<g id="GUIDE">
</g>
</svg>
