<?xml version="1.0" encoding="utf-8"?>
<!-- Generator: Adobe Illustrator 18.0.0, SVG Export Plug-In . SVG Version: 6.00 Build 0)  -->
<!DOCTYPE svg PUBLIC "-//W3C//DTD SVG 1.1//EN" "http://www.w3.org/Graphics/SVG/1.1/DTD/svg11.dtd">
<svg version="1.1" xmlns="http://www.w3.org/2000/svg" xmlns:xlink="http://www.w3.org/1999/xlink" x="0px" y="0px"
	 viewBox="221 -223 128 128" enable-background="new 221 -223 128 128" xml:space="preserve">
<g id="Networks">
	<g id="LinkedIn">
		<circle fill="#007BB5" cx="285" cy="-159" r="64"/>
		<g>
			<path fill="#FFFFFF" d="M251.3-175.7h14.5v46.5h-14.5V-175.7z M258.5-198.8c4.6,0,8.4,3.8,8.4,8.4c0,4.6-3.8,8.4-8.4,8.4
				c-4.6,0-8.4-3.8-8.4-8.4C250.1-195,253.9-198.8,258.5-198.8"/>
			<path fill="#FFFFFF" d="M274.8-175.7h13.9v6.4h0.2c1.9-3.7,6.6-7.5,13.7-7.5c14.6,0,17.3,9.6,17.3,22.1v25.5h-14.4v-22.6
				c0-5.4-0.1-12.3-7.5-12.3c-7.5,0-8.7,5.9-8.7,11.9v23h-14.4V-175.7z"/>
		</g>
	</g>
	<g id="NPM">
		<g id="Logo">
		</g>
	</g>
	<g id="Email">
	</g>
	<g id="Yeoman">
	</g>
	<g id="Python">
		<g id="pyicon">
		</g>
	</g>
	<g id="JS">
		<g id="JS_1_">
		</g>
	</g>
	<g id="HTML_1_">
	</g>
	<g id="CSS">
	</g>
	<g id="analytics">
	</g>
	<g id="Gulp">
	</g>
	<g id="Grunt">
	</g>
</g>
<g id="GUIDE">
</g>
</svg>
