<?xml version="1.0" encoding="utf-8"?>
<!-- Generator: Adobe Illustrator 18.0.0, SVG Export Plug-In . SVG Version: 6.00 Build 0)  -->
<!DOCTYPE svg PUBLIC "-//W3C//DTD SVG 1.1//EN" "http://www.w3.org/Graphics/SVG/1.1/DTD/svg11.dtd">
<svg version="1.1" xmlns="http://www.w3.org/2000/svg" xmlns:xlink="http://www.w3.org/1999/xlink" x="0px" y="0px"
	 viewBox="-297 73 128 128" enable-background="new -297 73 128 128" xml:space="preserve">
<g id="Networks">
	<g id="LinkedIn">
	</g>
	<g id="NPM">
		<g id="Logo">
		</g>
	</g>
	<g id="Email">
	</g>
	<g id="Yeoman">
	</g>
	<g id="Python">
		<g id="pyicon">
		</g>
	</g>
	<g id="JS">
		<g id="JS_1_">
		</g>
		<g>
			<circle fill="#F0DB4F" cx="-233" cy="137" r="64"/>
			<g>
				<path d="M-190.8,117.3c-4,4.8-7,10.1-11.5,14.1c0,0.1,0.1,0.2,0.1,0.3c0.3-0.1,0.6-0.1,0.9-0.2c6.1-1.5,12.4,1.2,14.8,6.6
					c3.3,7.6-0.6,16.3-9.6,18.3c-4.2,1-8.3,0.6-12.3-1.1c-5.7-2.5-8.9-8.7-7.5-14.9c0.9-3.8,2.9-6.9,5.2-9.9
					c3.1-4.2,6.3-8.4,9.4-12.5c0.2-0.3,0.6-0.6,0.9-0.7C-197.2,117.3-194.2,117.3-190.8,117.3z M-194.4,143.6c0-3.5-2.6-6.1-6.1-6.1
					c-3.8,0-6.5,2.5-6.5,6c0,3.5,2.7,6.1,6.3,6.1C-197.1,149.6-194.4,147.1-194.4,143.6z"/>
				<path d="M-269.7,133.1c5.3,0,10.3,0,15.5,0c0,2.2,0,4.3,0,6.5c-5.1,0-10.2,0-15.4,0c0,3.3,0,6.4,0,9.7c6.1,0,12.2,0,18.3,0
					c0,2.3,0,4.5,0,6.8c-0.4,0-0.8,0-1.2,0c-7.9,0-15.7,0-23.6,0c-1,0-1.4-0.2-1.4-1.3c0-12,0-24,0-35.9c0-1,0.2-1.4,1.3-1.4
					c7.6,0,15.3,0,22.9,0c0.4,0,0.7,0,1.1,0.1c0,2.1,0,4.2,0,6.5c-0.5,0-0.9,0-1.4,0c-5,0-10,0-14.9,0c-1.1,0-1.4,0.3-1.4,1.4
					C-269.7,128-269.7,130.5-269.7,133.1z"/>
				<path d="M-247.8,148.7c2.1-1.2,4.1-2.4,5.9-3.4c1.4,1.2,2.5,2.6,4,3.5c2.4,1.5,5.1,1.6,7.7,0.4c2.6-1.3,3-4.9,0.6-6.4
					c-2.2-1.4-4.6-2.3-6.9-3.4c-3.2-1.5-6.2-3.2-7.9-6.6c-3.4-7,1-14.8,8.7-15.5c3.8-0.3,7.5,0.1,10.4,3c0.9,0.9,1.6,1.9,2.6,3
					c-2.1,1.4-4,2.6-5.4,3.5c-1.1-0.8-2-1.6-3-2.2c-1.7-1-3.5-1.1-5.2-0.2c-2.2,1.1-2.6,5,0.5,6.6c1.5,0.8,3.1,1.5,4.7,2.2
					c2.9,1.3,5.9,2.7,8.1,5.1c2.2,2.4,2.7,5.3,2.5,8.5c-0.4,6-5.7,9.1-10.5,9.7c-4.5,0.5-8.6-0.2-12.3-2.6
					C-245.1,152.6-246.5,150.9-247.8,148.7z"/>
			</g>
		</g>
	</g>
	<g id="HTML_1_">
	</g>
	<g id="CSS">
	</g>
	<g id="analytics">
	</g>
	<g id="Gulp">
	</g>
	<g id="Grunt">
	</g>
	<g id="ux">
	</g>
	<g id="Photoshop">
	</g>
	<g id="Illustrator">
	</g>
	<g id="React">
	</g>
</g>
<g id="GUIDE">
</g>
</svg>
