<?xml version="1.0" encoding="utf-8"?>
<!-- Generator: Adobe Illustrator 18.0.0, SVG Export Plug-In . SVG Version: 6.00 Build 0)  -->
<!DOCTYPE svg PUBLIC "-//W3C//DTD SVG 1.1//EN" "http://www.w3.org/Graphics/SVG/1.1/DTD/svg11.dtd">
<svg version="1.1" xmlns="http://www.w3.org/2000/svg" xmlns:xlink="http://www.w3.org/1999/xlink" x="0px" y="0px"
	 viewBox="-149 -75 128 128" enable-background="new -149 -75 128 128" xml:space="preserve">
<g id="Networks">
	<g id="LinkedIn">
	</g>
	<g id="NPM">
		<g id="Logo">
		</g>
	</g>
	<g id="Email">
	</g>
	<g id="Yeoman">
		<circle fill="#5AADBB" cx="-85" cy="-10.9" r="64"/>
		<g id="YEOMAN">
			<polygon fill="#060606" points="-92.4,17.8 -90.4,17.8 -93.8,22 -97.3,17.8 -95.3,17.8 -95.3,15.8 -102.7,15.8 -102.7,17.8 
				-99.8,17.8 -94.9,23.8 -94.9,27.6 -97.7,27.6 -97.7,29.5 -90,29.5 -90,27.6 -92.8,27.6 -92.8,23.8 -87.9,17.8 -85,17.8 -85,15.8 
				-92.4,15.8 			"/>
			<path fill="#060606" d="M-70,22.7c0,1.7-0.5,2.9-1.6,3.8c-1.1,0.9-2.7,1.3-4.8,1.3c-2.2,0-3.8-0.4-4.9-1.3
				c-1.1-0.9-1.6-2.1-1.6-3.8c0-1.7,0.5-2.9,1.6-3.8c1.1-0.9,2.7-1.3,4.9-1.3c2.2,0,3.8,0.4,4.8,1.3C-70.5,19.7-70,21-70,22.7
				 M-70.4,17.3c-0.8-0.6-1.7-1-2.7-1.3c-1-0.3-2.1-0.4-3.3-0.4c-0.8,0-1.5,0.1-2.3,0.2c-0.7,0.1-1.4,0.3-2,0.6
				c-0.6,0.3-1.2,0.6-1.7,1c-0.5,0.4-1,0.8-1.4,1.4c-0.4,0.5-0.7,1.1-0.9,1.8c-0.2,0.7-0.3,1.4-0.3,2.2c0,1.2,0.2,2.3,0.7,3.2
				c0.4,0.9,1.1,1.6,1.9,2.2c0.8,0.6,1.7,1,2.7,1.3c1,0.3,2.1,0.4,3.3,0.4c1.2,0,2.3-0.1,3.3-0.4c1-0.3,2-0.7,2.7-1.3
				c0.8-0.6,1.4-1.3,1.8-2.2c0.4-0.9,0.7-2,0.7-3.2c0-1.2-0.2-2.3-0.7-3.2C-69,18.6-69.6,17.9-70.4,17.3"/>
			<g>
				<g>
					<line fill="#F3CE8B" x1="-106.8" y1="-18.2" x2="-63.2" y2="-18.2"/>
					<line fill="#F3CE8B" x1="-106.8" y1="-18.2" x2="-63.2" y2="-18.2"/>
					<line fill="#F3CE8B" x1="-106.8" y1="-18.2" x2="-63.2" y2="-18.2"/>
					<path fill="#060606" d="M-63.1-18.2l3.8-22.1c0,0-5.8-11.3-25.6-11.3c-24.1,0-25.9,11.3-25.9,11.3l3.8,22.1H-63.1z"/>
					<polygon fill="#DD1F2C" points="-108.6,-27.7 -106.9,-18.2 -63.1,-18.2 -61.4,-27.7 					"/>
					<polygon fill="#060606" points="-56.5,-12.9 -113.5,-12.9 -115.3,-18.2 -54.7,-18.2 					"/>
					<g>
						<circle fill="#060606" cx="-85" cy="-24.6" r="7.1"/>
						<path fill="#DD1F2C" d="M-85-18.4c-3.4,0-6.2-2.8-6.2-6.2c0-3.4,2.8-6.2,6.2-6.2c3.4,0,6.2,2.8,6.2,6.2
							C-78.8-21.2-81.6-18.4-85-18.4z M-85-30c-3,0-5.4,2.4-5.4,5.4c0,3,2.4,5.4,5.4,5.4c3,0,5.4-2.4,5.4-5.4
							C-79.6-27.6-82-30-85-30z"/>
						<path fill="#DD1F2C" d="M-85-20.2c-2.5,0-4.5-2-4.5-4.5c0-2.5,2-4.5,4.5-4.5c2.5,0,4.5,2,4.5,4.5
							C-80.5-22.2-82.5-20.2-85-20.2z M-85-28.5c-2.1,0-3.9,1.7-3.9,3.9c0,2.1,1.7,3.9,3.9,3.9c2.1,0,3.9-1.7,3.9-3.9
							C-81.1-26.8-82.9-28.5-85-28.5z"/>
						<polygon fill="#DD1F2C" points="-83.9,-26.2 -81.8,-27.7 -83.4,-25.7 -81,-26.3 -83.1,-25 -80.6,-24.8 -83.1,-24.3 
							-80.9,-23.2 -83.3,-23.7 -81.7,-21.8 -83.8,-23.1 -82.9,-20.8 -84.4,-22.8 -84.5,-20.3 -85.1,-22.7 -86.1,-20.4 -85.8,-22.9 
							-87.5,-21.1 -86.4,-23.3 -88.7,-22.2 -86.8,-23.9 -89.3,-23.7 -86.9,-24.6 -89.3,-25.3 -86.8,-25.3 -88.8,-26.8 -86.5,-25.9 
							-87.7,-28.1 -85.9,-26.3 -86.3,-28.8 -85.2,-26.6 -84.7,-29 -84.5,-26.5 -83.2,-28.6 						"/>
						<circle fill="#060606" cx="-85" cy="-24.6" r="1.3"/>
					</g>
				</g>
			</g>
			<g>
				<path fill="#4D1C0E" d="M-85.3-4.3c0,0-3.3-3.9-11-2c-7.7,1.9-11.7,11.5-11.7,11.5s4.2,3.2,10.8,2.3
					C-90.6,6.6-85.3-0.4-85.3-4.3z"/>
				<path fill="#4D1C0E" d="M-85.3-4.3c0,0,3.3-3.9,11-2c7.7,1.9,11.7,11.5,11.7,11.5s-4.2,3.2-10.8,2.3C-80,6.6-85.3-0.4-85.3-4.3z
					"/>
			</g>
		</g>
	</g>
	<g id="Python">
		<g id="pyicon">
		</g>
	</g>
	<g id="JS">
		<g id="JS_1_">
		</g>
	</g>
	<g id="HTML_1_">
	</g>
	<g id="CSS">
	</g>
	<g id="analytics">
	</g>
	<g id="Gulp">
	</g>
	<g id="Grunt">
	</g>
	<g id="ux">
	</g>
	<g id="Photoshop">
	</g>
	<g id="Illustrator">
	</g>
	<g id="React">
	</g>
</g>
<g id="GUIDE">
</g>
</svg>
