<?xml version="1.0" encoding="utf-8"?>
<!-- Generator: Adobe Illustrator 18.0.0, SVG Export Plug-In . SVG Version: 6.00 Build 0)  -->
<!DOCTYPE svg PUBLIC "-//W3C//DTD SVG 1.1//EN" "http://www.w3.org/Graphics/SVG/1.1/DTD/svg11.dtd">
<svg version="1.1" xmlns="http://www.w3.org/2000/svg" xmlns:xlink="http://www.w3.org/1999/xlink" x="0px" y="0px"
	 viewBox="-75 221 128 128" enable-background="new -75 221 128 128" xml:space="preserve">
<g id="Networks">
	<g id="LinkedIn">
	</g>
	<g id="NPM">
		<g id="Logo">
		</g>
	</g>
	<g id="Email">
	</g>
	<g id="Yeoman">
	</g>
	<g id="Python">
		<g id="pyicon">
		</g>
	</g>
	<g id="JS">
		<g id="JS_1_">
		</g>
	</g>
	<g id="HTML_1_">
	</g>
	<g id="CSS">
	</g>
	<g id="analytics">
	</g>
	<g id="Gulp">
		<circle fill="#FFFFFF" cx="-11" cy="285" r="64"/>
		<g>
			<path id="cup-end" fill="#E94B4C" d="M-11.2,313.3c-5.7,0-10.2-0.9-12.3-1.4c-1.5-0.4-2.6-0.7-3.5-1.1l2.8,4.9l1.1,15.2
				c0,1.7,5.4,3.1,12.1,3.1c6.7,0,12.1-1.4,12.1-3.1l0.9-15.3l2.7-4.7c-0.9,0.4-2.1,0.7-3.5,1.1C-1.1,312.4-5.5,313.3-11.2,313.3z"
				/>
			<path id="cup-main" fill="#E94B4C" d="M4.7,263.9c-4.2,0.6-9.8,0.9-15.7,0.9s-11.5-0.3-15.7-0.9c-2.1-0.3-3.7-0.6-4.9-1
				c-0.3-0.1-0.8-0.2-1.2-0.5l2.6,24c0.1-0.4,0.3-0.8,0.4-1.2c0.3-0.8,0.7-1.7,1.1-2.5c0.4-0.8,0.8-1.6,1.3-2.3c0.5-0.7,1-1.4,1.5-2
				c0.5-0.6,1.1-1.1,1.6-1.6c0.6-0.4,1.1-0.8,1.7-1c0.6-0.2,1.1-0.4,1.7-0.4c0.6,0,1.3,0.2,1.9,0.5c0.6,0.4,1.2,0.9,1.7,1.7
				c0.1,0.2,0.2,0.4,0.2,0.5c0,0.2,0,0.4,0,0.5c0,0.4-0.1,0.7-0.3,0.9c-0.2,0.2-0.4,0.3-0.6,0.3c-0.2,0-0.4-0.1-0.6-0.4
				s-0.4-0.6-0.7-1c-0.2-0.4-0.5-0.7-0.8-0.9c-0.3-0.2-0.6-0.3-0.9-0.3c-0.5,0-1,0.2-1.6,0.6c-0.6,0.4-1.1,1-1.7,1.6
				c-0.6,0.7-1.1,1.5-1.6,2.3c-0.5,0.9-1,1.8-1.4,2.7c-0.4,0.9-0.7,1.8-0.9,2.7c-0.2,0.9-0.3,1.7-0.3,2.4c0,0.2,0,0.5,0,0.7
				c0,0.2,0.1,0.5,0.2,0.7c0.1,0.2,0.2,0.4,0.4,0.5c0.2,0.1,0.3,0.2,0.6,0.2c0.3,0,0.6-0.1,0.9-0.3c0.3-0.2,0.7-0.4,1-0.7
				c0.4-0.3,0.7-0.6,1.1-1c0.4-0.4,0.7-0.7,1-1.1c0.3-0.4,0.6-0.7,0.8-1.1c0.2-0.3,0.4-0.6,0.5-0.9l1-3c0.1-0.3,0.3-0.5,0.5-0.7
				c0.2-0.1,0.4-0.2,0.6-0.2c0.1,0,0.2,0,0.3,0.1c0.1,0,0.2,0.1,0.3,0.2c0.1,0.1,0.1,0.2,0.2,0.3c0,0.1,0.1,0.2,0.1,0.4
				c0,0.4,0,0.8-0.1,1.1c-0.1,0.4-0.2,0.7-0.3,1c-0.1,0.3-0.2,0.7-0.4,1c-0.1,0.3-0.3,0.7-0.4,1.1c0,0-0.1,0.2-0.2,0.4
				c-0.1,0.2-0.2,0.5-0.3,0.8c-0.1,0.3-0.2,0.7-0.3,1.1c-0.1,0.4-0.3,0.8-0.4,1.3c-0.1,0.4-0.3,0.9-0.4,1.3
				c-0.1,0.4-0.2,0.8-0.3,1.1c-0.1,0.3-0.2,0.6-0.2,0.8c-0.1,0.2-0.1,0.4-0.1,0.4c0,0.1-0.1,0.3-0.2,0.4c-0.1,0.2-0.2,0.3-0.3,0.5
				c-0.1,0.1-0.2,0.3-0.4,0.4c-0.1,0.1-0.3,0.1-0.4,0.1c-0.2,0-0.4-0.1-0.5-0.2c-0.1-0.2-0.2-0.4-0.2-0.8c0-0.1,0-0.1,0-0.2
				c0-0.1,0-0.1,0-0.2c0-0.1,0.1-0.4,0.2-0.8c0.1-0.4,0.2-0.8,0.4-1.3c0.1-0.5,0.3-1,0.4-1.5c0.2-0.5,0.3-1,0.4-1.3
				c-0.4,0.4-0.8,0.8-1.2,1.3c-0.4,0.4-0.9,0.8-1.4,1.1c-0.5,0.3-0.9,0.6-1.4,0.8c-0.5,0.2-0.9,0.3-1.4,0.3c-0.5,0-0.9-0.1-1.3-0.3
				c-0.1,0-0.1-0.1-0.2-0.1l1.5,15.2c0.4,0.9,7.5,3.3,16.9,3.3c9.4,0,16.5-2.3,16.9-3.3l2.1-18.1c-0.2,0.2-0.3,0.3-0.5,0.5
				c-0.6,0.6-1.2,1-1.7,1.4c-0.5,0.4-1,0.7-1.6,0.9c-0.5,0.2-1,0.3-1.6,0.3c-0.5,0-1-0.1-1.3-0.4c-0.3-0.2-0.4-0.6-0.4-1
				c0,0,0-0.1,0-0.1c0,0,0-0.1,0-0.1c0-0.3,0.1-0.5,0.3-0.9c0.2-0.3,0.4-0.7,0.7-1c0.3-0.4,0.6-0.7,0.9-1.1c0.3-0.4,0.6-0.7,0.8-1
				c0.3-0.3,0.5-0.6,0.6-0.9c0.2-0.3,0.3-0.5,0.3-0.7c0-0.1,0-0.2-0.1-0.2c-0.1-0.1-0.2-0.1-0.4-0.1c-0.3,0-0.6,0.1-0.9,0.2
				c-0.3,0.1-0.6,0.3-0.9,0.6s-0.6,0.5-0.9,0.9c-0.3,0.3-0.5,0.7-0.8,1c-0.2,0.3-0.5,0.7-0.7,1c-0.2,0.3-0.4,0.7-0.5,1
				c0,0.1-0.1,0.2-0.2,0.4c-0.1,0.2-0.2,0.4-0.3,0.6c-0.1,0.2-0.2,0.4-0.3,0.7c-0.1,0.2-0.2,0.4-0.3,0.6c-0.1,0.2-0.2,0.4-0.2,0.5
				c-0.1,0.2-0.1,0.3-0.1,0.3c0,0.1-0.1,0.2-0.2,0.4c-0.1,0.2-0.2,0.5-0.3,0.7c-0.1,0.3-0.2,0.6-0.3,0.9c-0.1,0.3-0.2,0.6-0.3,0.9
				c-0.1,0.3-0.2,0.5-0.3,0.7c-0.1,0.2-0.1,0.4-0.1,0.4c-0.1,0.2-0.2,0.4-0.3,0.6c-0.1,0.2-0.2,0.4-0.3,0.5
				c-0.1,0.1-0.3,0.3-0.4,0.4c-0.2,0.1-0.3,0.1-0.5,0.1c-0.3,0-0.5-0.1-0.6-0.2c-0.2-0.1-0.3-0.4-0.3-0.7c0-0.2,0-0.3,0.1-0.5
				c0-0.2,0.1-0.4,0.2-0.5c0.1-0.2,0.1-0.3,0.2-0.5c0.1-0.2,0.1-0.3,0.2-0.5c0.4-0.8,0.8-1.7,1.2-2.5c0.4-0.8,0.8-1.7,1.1-2.5
				c0.1-0.2,0.1-0.3,0.2-0.5c0,0,0,0-0.1,0.1c-0.5,0.4-0.9,0.8-1.4,1.2c-0.5,0.3-0.9,0.6-1.4,0.8c-0.5,0.2-0.9,0.3-1.3,0.3
				c-0.3,0-0.5,0-0.7-0.1c-0.2-0.1-0.4-0.2-0.5-0.4c-0.1-0.2-0.2-0.3-0.3-0.6c0-0.1,0-0.2,0-0.2c-0.1,0.1-0.3,0.2-0.4,0.3
				c-0.4,0.3-0.9,0.6-1.3,0.8c-0.4,0.2-0.8,0.3-1.2,0.3c-0.3,0-0.6-0.1-0.8-0.3c-0.2-0.2-0.3-0.6-0.3-1.2c0-0.4,0.1-0.8,0.2-1.4
				c-0.2,0.3-0.4,0.7-0.7,1c-0.3,0.3-0.6,0.6-1,0.9c-0.4,0.3-0.8,0.5-1.2,0.7c-0.4,0.2-0.9,0.3-1.4,0.3c-0.2,0-0.5,0-0.7-0.1
				c-0.2-0.1-0.4-0.2-0.6-0.3c-0.2-0.1-0.3-0.3-0.4-0.6c-0.1-0.2-0.1-0.5-0.1-0.9c0,0,0-0.1,0-0.4c0-0.2,0.1-0.6,0.3-1.2
				c0.2-0.5,0.4-1.2,0.7-2.1c0.3-0.9,0.8-1.9,1.4-3.1c0.1-0.3,0.3-0.6,0.5-0.7c0.2-0.1,0.4-0.2,0.6-0.2c0.1,0,0.2,0,0.3,0
				c0.1,0,0.2,0.1,0.3,0.1c0.1,0.1,0.2,0.1,0.2,0.2c0.1,0.1,0.1,0.2,0.1,0.3c0,0.1,0,0.2,0,0.2c0,0.1-0.1,0.3-0.2,0.6
				c-0.1,0.2-0.3,0.5-0.4,0.8c-0.2,0.3-0.3,0.6-0.5,1c-0.2,0.3-0.3,0.7-0.5,1.1c-0.1,0.4-0.3,0.7-0.4,1.1c-0.1,0.4-0.2,0.8-0.2,1.1
				c0,0.2,0,0.3,0.1,0.4c0.1,0.1,0.2,0.2,0.4,0.2c0.5,0,0.9-0.2,1.3-0.5c0.4-0.3,0.8-0.7,1.2-1.1c0.4-0.5,0.7-0.9,1-1.5
				c0.3-0.5,0.5-1,0.7-1.4c0.1-0.3,0.3-0.6,0.4-0.9c0.1-0.3,0.2-0.6,0.3-0.9c0.1-0.3,0.3-0.5,0.4-0.7c0.2-0.2,0.4-0.3,0.6-0.3
				c0.3,0,0.5,0.1,0.6,0.3c0.1,0.2,0.2,0.4,0.2,0.7c0,0.2,0,0.4-0.1,0.6c-0.1,0.3-0.2,0.6-0.4,0.9c-0.1,0.3-0.3,0.7-0.5,1.1
				c-0.2,0.4-0.3,0.8-0.5,1.2c-0.1,0.4-0.3,0.8-0.4,1.2s-0.1,0.7-0.1,1.1c0,0.3,0.2,0.5,0.5,0.5c0.2,0,0.5-0.1,0.8-0.2
				c0.3-0.2,0.7-0.4,1-0.6c0.1-0.1,0.2-0.1,0.3-0.2c0.1-0.4,0.2-0.8,0.4-1.1c0.2-0.7,0.5-1.3,0.8-2c0.3-0.6,0.5-1.2,0.7-1.8l3.2-8.2
				c0.1-0.3,0.3-0.6,0.5-0.7c0.2-0.1,0.4-0.2,0.7-0.2c0.2,0,0.4,0.1,0.6,0.2c0.2,0.1,0.3,0.4,0.3,0.7c0,0.2,0,0.3-0.1,0.5
				c-0.1,0.2-0.1,0.3-0.2,0.5c-0.2,0.4-0.4,0.9-0.6,1.5c-0.2,0.6-0.5,1.2-0.8,1.9c-0.3,0.7-0.6,1.4-0.9,2.1
				c-0.3,0.7-0.6,1.4-0.9,2.1c-0.3,0.7-0.5,1.3-0.8,2c-0.2,0.6-0.5,1.2-0.6,1.6c-0.1,0.2-0.2,0.4-0.2,0.7c-0.1,0.3-0.1,0.5-0.1,0.7
				c0,0.1,0,0.2,0.1,0.3c0,0.1,0.1,0.1,0.2,0.1c0.1,0,0.3-0.1,0.6-0.2c0.2-0.1,0.5-0.2,0.7-0.4c0.3-0.2,0.5-0.4,0.8-0.6
				c0.3-0.2,0.6-0.5,0.8-0.7c0.3-0.2,0.5-0.5,0.8-0.7c0.3-0.2,0.5-0.5,0.7-0.7c0,0,0.1-0.1,0.2-0.1c0.1-0.4,0.2-0.7,0.3-1.1
				c0.1-0.2,0.1-0.4,0.2-0.6c0.1-0.3,0.2-0.6,0.3-0.8c0.1-0.3,0.3-0.5,0.4-0.7c0.2-0.2,0.3-0.3,0.5-0.3c0.3,0,0.5,0.1,0.6,0.2
				c0.1,0.1,0.2,0.3,0.2,0.6c0,0.1,0,0.1,0,0.2c0,0.1,0,0.2-0.1,0.3c0,0.1,0,0.2-0.1,0.3c0,0.1,0,0.2-0.1,0.2
				c0.3-0.3,0.5-0.6,0.9-0.9c0.3-0.3,0.6-0.5,1-0.8c0.3-0.2,0.7-0.4,1-0.6c0.3-0.1,0.7-0.2,1-0.2c0.2,0,0.5,0,0.7,0.1
				c0.2,0.1,0.4,0.2,0.6,0.3c0.2,0.1,0.3,0.3,0.4,0.5c0.1,0.2,0.2,0.4,0.2,0.7c0,0.3-0.1,0.7-0.3,1.1c-0.2,0.4-0.4,0.8-0.7,1.2
				c-0.3,0.4-0.5,0.8-0.9,1.2c-0.3,0.4-0.6,0.7-0.9,1c-0.3,0.3-0.5,0.6-0.7,0.8c-0.2,0.2-0.3,0.4-0.3,0.4c0,0.1,0,0.2,0.1,0.2
				c0.1,0.1,0.2,0.1,0.3,0.1c0.1,0,0.3-0.1,0.5-0.2c0.2-0.1,0.6-0.4,1-0.7c0.4-0.3,1-0.8,1.6-1.3c0.4-0.4,1-0.8,1.6-1.4l2.8-26.2
				c-0.5,0.3-0.9,0.4-1.2,0.5C8.4,263.3,6.8,263.6,4.7,263.9z"/>
			<path id="cup-top" fill="#E94B4C" d="M-11,257.7c-12.2,0-22,1.4-22,3.1s9.9,3.1,22,3.1s22-1.4,22-3.1S1.1,257.7-11,257.7z
				 M-4.8,262.4c-1.5,0-2.6-0.3-2.6-0.7s1.2-0.7,2.6-0.7c1.5,0,2.6,0.3,2.6,0.7S-3.4,262.4-4.8,262.4z"/>
			<g id="straw">
				<g id="straw-join">
					<ellipse fill="#E94B4C" cx="-4.8" cy="261.4" rx="2.1" ry="0.5"/>
				</g>
				<path id="straw-end" fill="#E94B4C" d="M11,238.6c-0.2,0.3-1.1-0.1-1.8-0.8c-0.8-0.7-1.3-1.4-1.1-1.7c0.3-0.3,1.1,0,1.9,0.7
					C10.8,237.5,11.3,238.3,11,238.6z"/>
				<polygon id="_x0A_straw" fill="#E94B4C" points="11,238.6 8.1,236.2 -3.6,248.5 -7,261.4 -2.7,261.4 0,250.2 				"/>
			</g>
		</g>
	</g>
	<g id="Grunt">
	</g>
</g>
<g id="GUIDE">
</g>
</svg>
