<?xml version="1.0" encoding="utf-8"?>
<!-- Generator: Adobe Illustrator 18.0.0, SVG Export Plug-In . SVG Version: 6.00 Build 0)  -->
<!DOCTYPE svg PUBLIC "-//W3C//DTD SVG 1.1//EN" "http://www.w3.org/Graphics/SVG/1.1/DTD/svg11.dtd">
<svg version="1.1" xmlns="http://www.w3.org/2000/svg" xmlns:xlink="http://www.w3.org/1999/xlink" x="0px" y="0px"
	 viewBox="221 -75 128 128" enable-background="new 221 -75 128 128" xml:space="preserve">
<g id="Networks">
	<g id="LinkedIn">
	</g>
	<g id="NPM">
		<g id="Logo">
		</g>
	</g>
	<g id="Email">
	</g>
	<g id="Yeoman">
	</g>
	<g id="Python">
		<circle fill="#1E405D" cx="285" cy="-11" r="64"/>
		<g id="pyicon">
			
				<linearGradient id="path1948_1_" gradientUnits="userSpaceOnUse" x1="450.8923" y1="204.2361" x2="527.4112" y2="138.4019" gradientTransform="matrix(0.5625 0 0 -0.568 -9.3997 67.3951)">
				<stop  offset="0" style="stop-color:#5A9FD4"/>
				<stop  offset="1" style="stop-color:#306998"/>
			</linearGradient>
			<path id="path1948" fill="url(#path1948_1_)" d="M284.7-50.9c-3.2,0-6.3,0.3-9,0.8c-8,1.4-9.4,4.4-9.4,9.8v7.2h18.8v2.4h-18.8
				h-7.1c-5.5,0-10.3,3.3-11.8,9.5c-1.7,7.2-1.8,11.6,0,19.1c1.3,5.6,4.5,9.5,10,9.5h6.5v-8.6c0-6.2,5.4-11.7,11.8-11.7h18.8
				c5.2,0,9.4-4.3,9.4-9.6v-17.9c0-5.1-4.3-8.9-9.4-9.8C291.3-50.6,287.9-50.9,284.7-50.9z M274.5-45.1c1.9,0,3.5,1.6,3.5,3.6
				c0,2-1.6,3.6-3.5,3.6c-2,0-3.5-1.6-3.5-3.6C271-43.5,272.6-45.1,274.5-45.1z"/>
			
				<linearGradient id="path1950_1_" gradientUnits="userSpaceOnUse" x1="556.9939" y1="98.5562" x2="529.6691" y2="137.2162" gradientTransform="matrix(0.5625 0 0 -0.568 -9.3997 67.3951)">
				<stop  offset="0" style="stop-color:#FFD43B"/>
				<stop  offset="1" style="stop-color:#FFE873"/>
			</linearGradient>
			<path id="path1950" fill="url(#path1950_1_)" d="M306.3-30.7v8.4c0,6.5-5.5,11.9-11.8,11.9h-18.8c-5.1,0-9.4,4.4-9.4,9.6V17
				c0,5.1,4.4,8.1,9.4,9.6c6,1.8,11.7,2.1,18.8,0c4.7-1.4,9.4-4.1,9.4-9.6V9.9h-18.8V7.5h18.8h9.4c5.5,0,7.5-3.8,9.4-9.5
				c2-5.9,1.9-11.6,0-19.1c-1.4-5.4-3.9-9.5-9.4-9.5H306.3z M295.7,14.6c2,0,3.5,1.6,3.5,3.6c0,2-1.6,3.6-3.5,3.6
				c-1.9,0-3.5-1.6-3.5-3.6C292.2,16.2,293.8,14.6,295.7,14.6z"/>
		</g>
	</g>
	<g id="JS">
		<g id="JS_1_">
		</g>
	</g>
	<g id="HTML_1_">
	</g>
	<g id="CSS">
	</g>
	<g id="analytics">
	</g>
	<g id="Gulp">
	</g>
	<g id="Grunt">
	</g>
</g>
<g id="GUIDE">
</g>
</svg>
