<?xml version="1.0" encoding="utf-8"?>
<!-- Generator: Adobe Illustrator 18.0.0, SVG Export Plug-In . SVG Version: 6.00 Build 0)  -->
<!DOCTYPE svg PUBLIC "-//W3C//DTD SVG 1.1//EN" "http://www.w3.org/Graphics/SVG/1.1/DTD/svg11.dtd">
<svg version="1.1" xmlns="http://www.w3.org/2000/svg" xmlns:xlink="http://www.w3.org/1999/xlink" x="0px" y="0px"
	 viewBox="73 -75 128 128" enable-background="new 73 -75 128 128" xml:space="preserve">
<g id="Networks">
	<g id="LinkedIn">
	</g>
	<g id="NPM">
		<g id="Logo">
		</g>
	</g>
	<g id="Email">
	</g>
	<g id="Yeoman">
		<circle fill="#5AADBB" cx="137" cy="-10.9" r="64"/>
		<g id="YEOMAN">
			<polygon fill="#060606" points="129.6,17.8 131.6,17.8 128.2,22 124.7,17.8 126.7,17.8 126.7,15.8 119.3,15.8 119.3,17.8 
				122.2,17.8 127.1,23.8 127.1,27.6 124.3,27.6 124.3,29.5 132,29.5 132,27.6 129.2,27.6 129.2,23.8 134.1,17.8 137,17.8 137,15.8 
				129.6,15.8 			"/>
			<path fill="#060606" d="M152,22.7c0,1.7-0.5,2.9-1.6,3.8c-1.1,0.9-2.7,1.3-4.8,1.3c-2.2,0-3.8-0.4-4.9-1.3
				c-1.1-0.9-1.6-2.1-1.6-3.8c0-1.7,0.5-2.9,1.6-3.8c1.1-0.9,2.7-1.3,4.9-1.3c2.2,0,3.8,0.4,4.8,1.3C151.5,19.7,152,21,152,22.7
				 M151.6,17.3c-0.8-0.6-1.7-1-2.7-1.3c-1-0.3-2.1-0.4-3.3-0.4c-0.8,0-1.5,0.1-2.3,0.2c-0.7,0.1-1.4,0.3-2,0.6
				c-0.6,0.3-1.2,0.6-1.7,1c-0.5,0.4-1,0.8-1.4,1.4c-0.4,0.5-0.7,1.1-0.9,1.8c-0.2,0.7-0.3,1.4-0.3,2.2c0,1.2,0.2,2.3,0.7,3.2
				c0.4,0.9,1.1,1.6,1.9,2.2c0.8,0.6,1.7,1,2.7,1.3c1,0.3,2.1,0.4,3.3,0.4c1.2,0,2.3-0.1,3.3-0.4c1-0.3,2-0.7,2.7-1.3
				c0.8-0.6,1.4-1.3,1.8-2.2c0.4-0.9,0.7-2,0.7-3.2c0-1.2-0.2-2.3-0.7-3.2C153,18.6,152.4,17.9,151.6,17.3"/>
			<g>
				<g>
					<line fill="#F3CE8B" x1="115.2" y1="-18.2" x2="158.8" y2="-18.2"/>
					<line fill="#F3CE8B" x1="115.2" y1="-18.2" x2="158.8" y2="-18.2"/>
					<line fill="#F3CE8B" x1="115.2" y1="-18.2" x2="158.8" y2="-18.2"/>
					<path fill="#060606" d="M158.9-18.2l3.8-22.1c0,0-5.8-11.3-25.6-11.3c-24.1,0-25.9,11.3-25.9,11.3l3.8,22.1H158.9z"/>
					<polygon fill="#DD1F2C" points="113.4,-27.7 115.1,-18.2 158.9,-18.2 160.6,-27.7 					"/>
					<polygon fill="#060606" points="165.5,-12.9 108.5,-12.9 106.7,-18.2 167.3,-18.2 					"/>
					<g>
						<circle fill="#060606" cx="137" cy="-24.6" r="7.1"/>
						<path fill="#DD1F2C" d="M137-18.4c-3.4,0-6.2-2.8-6.2-6.2c0-3.4,2.8-6.2,6.2-6.2c3.4,0,6.2,2.8,6.2,6.2
							C143.2-21.2,140.4-18.4,137-18.4z M137-30c-3,0-5.4,2.4-5.4,5.4c0,3,2.4,5.4,5.4,5.4c3,0,5.4-2.4,5.4-5.4
							C142.4-27.6,140-30,137-30z"/>
						<path fill="#DD1F2C" d="M137-20.2c-2.5,0-4.5-2-4.5-4.5c0-2.5,2-4.5,4.5-4.5c2.5,0,4.5,2,4.5,4.5
							C141.5-22.2,139.5-20.2,137-20.2z M137-28.5c-2.1,0-3.9,1.7-3.9,3.9c0,2.1,1.7,3.9,3.9,3.9c2.1,0,3.9-1.7,3.9-3.9
							C140.9-26.8,139.1-28.5,137-28.5z"/>
						<polygon fill="#DD1F2C" points="138.1,-26.2 140.2,-27.7 138.6,-25.7 141,-26.3 138.9,-25 141.4,-24.8 138.9,-24.3 
							141.1,-23.2 138.7,-23.7 140.3,-21.8 138.2,-23.1 139.1,-20.8 137.6,-22.8 137.5,-20.3 136.9,-22.7 135.9,-20.4 136.2,-22.9 
							134.5,-21.1 135.6,-23.3 133.3,-22.2 135.2,-23.9 132.7,-23.7 135.1,-24.6 132.7,-25.3 135.2,-25.3 133.2,-26.8 135.5,-25.9 
							134.3,-28.1 136.1,-26.3 135.7,-28.8 136.8,-26.6 137.3,-29 137.5,-26.5 138.8,-28.6 						"/>
						<circle fill="#060606" cx="137" cy="-24.6" r="1.3"/>
					</g>
				</g>
			</g>
			<g>
				<path fill="#4D1C0E" d="M136.7-4.3c0,0-3.3-3.9-11-2c-7.7,1.9-11.7,11.5-11.7,11.5s4.2,3.2,10.8,2.3
					C131.4,6.6,136.7-0.4,136.7-4.3z"/>
				<path fill="#4D1C0E" d="M136.7-4.3c0,0,3.3-3.9,11-2c7.7,1.9,11.7,11.5,11.7,11.5s-4.2,3.2-10.8,2.3
					C142,6.6,136.7-0.4,136.7-4.3z"/>
			</g>
		</g>
	</g>
	<g id="Python">
		<g id="pyicon">
		</g>
	</g>
	<g id="JS">
		<g id="JS_1_">
		</g>
	</g>
	<g id="HTML_1_">
	</g>
	<g id="CSS">
	</g>
	<g id="analytics">
	</g>
	<g id="Gulp">
	</g>
	<g id="Grunt">
	</g>
</g>
<g id="GUIDE">
</g>
</svg>
