<?xml version="1.0" encoding="utf-8"?>
<!-- Generator: Adobe Illustrator 18.0.0, SVG Export Plug-In . SVG Version: 6.00 Build 0)  -->
<!DOCTYPE svg PUBLIC "-//W3C//DTD SVG 1.1//EN" "http://www.w3.org/Graphics/SVG/1.1/DTD/svg11.dtd">
<svg version="1.1" xmlns="http://www.w3.org/2000/svg" xmlns:xlink="http://www.w3.org/1999/xlink" x="0px" y="0px"
	 viewBox="-75 -75 128 128" enable-background="new -75 -75 128 128" xml:space="preserve">
<g id="Networks">
	<g id="Twitter">
		<circle fill="#55ACEE" cx="-11" cy="-11" r="64"/>
		<path fill="#FFFFFF" d="M29-35.8c-2.9,1.3-6.1,2.2-9.4,2.6c3.4-2,6-5.2,7.2-9.1c-3.2,1.9-6.7,3.2-10.4,4c-3-3.2-7.3-5.2-12-5.2
			c-9.1,0-16.4,7.3-16.4,16.4c0,1.3,0.1,2.5,0.4,3.7c-13.6-0.6-25.7-7.2-33.8-17.1c-1.4,2.4-2.2,5.2-2.2,8.3
			c0,5.7,2.9,10.7,7.3,13.7c-2.7-0.1-5.2-0.8-7.4-2.1c0,0.1,0,0.1,0,0.2c0,8,5.7,14.6,13.2,16.1c-1.4,0.4-2.8,0.6-4.3,0.6
			c-1.1,0-2.1-0.1-3.1-0.3c2.1,6.5,8.2,11.3,15.3,11.4c-5.6,4.4-12.7,7-20.4,7c-1.3,0-2.6-0.1-3.9-0.2c7.3,4.7,15.9,7.4,25.2,7.4
			C4.5,21.6,21-3.4,21-25.1c0-0.7,0-1.4,0-2.1C24-29.6,26.8-32.5,29-35.8z"/>
	</g>
	<g id="LinkedIn">
	</g>
	<g id="NPM">
		<g id="Logo">
		</g>
	</g>
	<g id="Email">
	</g>
	<g id="Yeoman">
	</g>
	<g id="Python">
		<g id="pyicon">
		</g>
	</g>
	<g id="JS">
		<g id="JS_1_">
		</g>
	</g>
	<g id="HTML_1_">
	</g>
	<g id="CSS">
	</g>
	<g id="analytics">
	</g>
	<g id="Gulp">
	</g>
	<g id="Grunt">
	</g>
</g>
<g id="GUIDE">
</g>
</svg>
