<?xml version="1.0" encoding="utf-8"?>
<!-- Generator: Adobe Illustrator 18.0.0, SVG Export Plug-In . SVG Version: 6.00 Build 0)  -->
<!DOCTYPE svg PUBLIC "-//W3C//DTD SVG 1.1//EN" "http://www.w3.org/Graphics/SVG/1.1/DTD/svg11.dtd">
<svg version="1.1" xmlns="http://www.w3.org/2000/svg" xmlns:xlink="http://www.w3.org/1999/xlink" x="0px" y="0px"
	 viewBox="73 221 128 128" enable-background="new 73 221 128 128" xml:space="preserve">
<g id="Networks">
	<g id="LinkedIn">
	</g>
	<g id="NPM">
		<g id="Logo">
		</g>
	</g>
	<g id="Email">
	</g>
	<g id="Yeoman">
	</g>
	<g id="Python">
		<g id="pyicon">
		</g>
	</g>
	<g id="JS">
		<g id="JS_1_">
		</g>
	</g>
	<g id="HTML_1_">
	</g>
	<g id="CSS">
	</g>
	<g id="analytics">
	</g>
	<g id="Gulp">
	</g>
	<g id="Grunt">
		<circle fill="#E48632" cx="137" cy="285" r="64"/>
		<g id="Layer_1_1_">
			<g>
				<path fill="#FBA919" d="M110.5,263.9c0,0,1.4,5.4,1.6,7.2c0.2,1.8-3.6,5.8-3.6,7.8s0.8,5.6,5.2,7.4c4.4,1.8,5,6.4,5,9.2
					c0,2.8-1.6,8.2-1.6,8.2s-1,13.4,4.4,15.9c5.4,2.4,4.2,2.4,5.4,2.4c1.2,0,10,3.6,15.3,2.2c5.2-1.4,6.6-3,6.6-3s5.2,0.4,6.8-4.2
					c1.6-4.6,2.6-14.2,2-18.7c-0.6-4.4-1.4-10.2,2.2-12.2c3.6-2,7.4-4.4,6.8-6.4c-0.6-2-3.8-4.8-3.8-4.8s-0.8-5-0.2-6.2
					c0.6-1.2,4.2-4.2,2.2-6.4c-2-2.2-5.6-2.2-5.6-2.2l-4.6,0.4c0,0-7.8-7-18.1-6.6c-10.2,0.4-16.7,6.6-16.7,6.6s-3.4-1.2-6.4,0
					C110.5,261.7,109.9,260.5,110.5,263.9z"/>
				<path fill="#E78724" d="M128.8,293.8c0,0-4,6.1-6.9,10.4c-0.5,0.7,2.9,0.7,2.9,0.7L128.8,293.8z"/>
				<path fill="#E78724" d="M130.7,281.2c0,0-1.2,3-1.9,4.6c-0.7,1.7-3.4,2.6-3.4,2.6s1.4-1.5,1.4-5.2c0-1.6,2-2.2,2-2.2
					L130.7,281.2z"/>
				<path fill="#E78724" d="M129.5,282.9c0,0-2.5,2.9-7,1.3c-4.6-1.6-5-7.5-5-9.1c0-1.6,8.6,1.6,9.8,2.3
					C128.5,278.1,130.7,280.9,129.5,282.9z"/>
				<path fill="#E78724" d="M112.3,251.7c0,0,4.2-0.8,7,1.4c2.8,2.2,3.6,4,3.6,4l-4.7,3.7c0,0-2.3-1.1-3-4.1
					C114.5,253.7,115,252.3,112.3,251.7z"/>
				<path fill="#E78724" d="M128.3,274.5c-1.8-2.6-4.8-3.7-7.2-3.9c-4.1-0.3-6,1.1-6,1.1s6.7,0.3,8.6,2.8c3.6,4.7,8.8,5.1,9.6,4
					c-1,0-2-0.4-3.2-1.5C129.4,276.4,128.9,275.3,128.3,274.5z"/>
				<path fill="#E78724" d="M117.1,283.5c0,0-7.4-2.5-6-5.1c1.4-2.6,0.3-4,0.3-4s-4.1,3.1-3.1,6.4c0.6,2,1.7,3.5,7.7,6.3
					c2.9,5.3,0.6,14.8,0.7,14.9c0.2,0.1,4-1.9,3.7-10.8C120.4,288.4,120.1,284.7,117.1,283.5z"/>
				<path fill="#E78724" d="M126.7,256.2c-3.1,1.6-7.3,3.8-7.3,3.8l1.7,0.8c-0.2,0.3-0.2,0.4-0.2,0.4l1.7,0.8c0,0,4.2,3,6.7,5
					c-0.9-2.6-3.4-6.8-3.4-6.8S125.2,258.3,126.7,256.2z"/>
				<path fill="#E78724" d="M137,320.4c-9.5,0-12.7-4.8-12.7-4.8l1.5,3.6c0.6,1.6,6.6,6.4,11.2,6.4"/>
				<path fill="#E78724" d="M125.3,312.3c0,0,0.9,5.4,4.4,5.4c3,0,3.9-4.5,3.9-5.5L125.3,312.3z"/>
				<path fill="#E78724" d="M119.5,304.2c0.3-0.9,1.4-4.3,1.8-7.5c0.4-3.8,0.3-9.3,0.3-9.3s-0.9,3.6-1.8,4.2
					c-0.8,0.6-2.3,4.6-2.3,4.6s-0.8,5.9-1.2,7.9C117.3,304.3,118.2,303.7,119.5,304.2z"/>
				<path fill="#E78724" d="M111,280.8c0,0,2-0.7,2.6-5c0.6-4.3-0.7-8.1-0.7-8.1s0.1,6-0.6,7.1c-0.7,1.2-1.3,1.5-2.1,3
					C109.4,279.4,110.6,280.3,111,280.8z"/>
				<path fill="#87CCEE" d="M121.6,260.9"/>
				<path fill="#FDC168" d="M113.4,252.7l-0.4-0.3C111.8,252.5,113.4,252.7,113.4,252.7z"/>
				<path fill="#FBA919" d="M128.4,255c0,0-1.9-0.3-2.8-1.7c-0.9-1.4-3.6-4.2-7.8-4.2c-4.2,0-8.4,1.1-8.4,1.1l3.6,2.3
					c0.4,0,1.1,0,2.2,0c4.6,0.2,5.3,4.7,5.3,4.7l16.1-2.2"/>
				<path fill="#FFFFFF" d="M129.9,280c0,0-2.2,2.2-5.5,1.5c-3.4-0.7-5.4-2.2-5.5-4.8c-0.2-2.6,0.7-3.6,0.7-3.6s3.7,1.2,5.5,2.7
					C126.9,277.4,128.2,279.9,129.9,280z"/>
				<path fill="#C9C9C9" d="M127.3,279.2c0,0-1.9,0.9-4,0.2c-2.8-0.9-3-3.8-3-3.8s-1.7,5,3.1,5.9c3.8,0.8,6.1-1.4,6.1-1.4
					L127.3,279.2z"/>
				<path fill="#463014" d="M129.4,307.1"/>
				<path fill="#463014" d="M128.6,253.9c-0.2-4.3,3.3-7.7,4.5-7.8c0.1,0.7-0.1,3.6,1.1,4.4c0.4-2.3,1.5-4.9,6.3-6.5
					c-1,2.7-0.1,4.9,0.3,6c3.2-2.9,5.4-2.4,5.4-2.4s-2.2,3.9-1.4,6.4C138.4,253.4,128.7,254.6,128.6,253.9z"/>
				<path fill="#463014" d="M114.9,260.4c-1.5-1.3-0.4-2.5-0.5-3.9c-0.1-0.8-0.1-1.5-0.4-1.9c-1.4-2.2-4.8-2.9-4.8-2.9l-1.6-0.3
					l1-1.2c0.1-0.2,4.4-4.2,11-2.1c4.6,1.5,8.1,6.6,8.2,6.8l-2.3,1.1c0,0-2.7-4.8-6.7-6.1c-3.2-1-6.2-0.1-7.4,0.6
					c1.3,0.5,3.1,1.5,4.2,3.2c0.5,0.8,0.6,1.8,0.7,2.8c0.1,1.3,0.2,2.5,1.1,3.3L114.9,260.4z"/>
				<path fill="#463014" d="M110.8,279.1c0,0,1.9-2.4,2.5-7.1c0.2-1.8-0.2-5.5-0.8-6.9c0.1,3.4-0.8,6.9-0.8,6.9
					S111.1,278.4,110.8,279.1z"/>
				<path fill="#463014" d="M121,258c0,0-0.6-2.7-2.4-4.1c-2.4-1.9-5.4-0.9-5.4-0.9l-0.4-1.3c0.1,0,3.5-1.1,6.7,1.1
					c3.2,2.2,3.5,4.2,3.6,4.4L121,258z"/>
				<path fill="#463014" d="M116.9,277.4c0,0-1-1.5-0.8-3.1c0.1-0.8,0.5-1.6,1.1-1.9c1.2-0.5,1.8,0.8,1.8,0.8
					S117.2,273.7,116.9,277.4z"/>
				<path fill="#463014" d="M129.4,307.1"/>
				<path fill="#463014" d="M128.1,279.6c0,0.1,0.1,0.1,0.1,0.1s-3.2,2.4-6.4,0c-1.7-1.3-1.6-4.5-1-5.9c1.4,0.3,2.6,0.9,3.6,1.5
					c-1.2-1.1-2.3-1.9-2.3-1.9l-1.4-0.4l-2.8-0.9c0,0.2-1,4.9,1.9,8.1c1.3,1.4,7.3,4.6,10.2-0.8L128.1,279.6z"/>
				<path fill="#463014" d="M127.8,280c1.8,2.7,6.3,1.2,6.2-1.7c0,0-3,1.7-5.7-1.4c-1.6-1.8-6.6-6.7-13.3-5.1
					C119.7,272.8,125.9,277.1,127.8,280z"/>
				<g>
					<path fill="#463014" d="M129.4,307.1"/>
				</g>
				<path fill="#463014" d="M114.4,287.7c0.4,0.2,2,1.8,2,4.2c0,1.2-0.1,7.1-0.7,10.7c0.9,0.6,1.5,0.7,2.4,1.3
					c0.4-4.2,0.8-10.3,0.6-12.7c-0.2-2.8-1.7-4.7-3.1-5.5c-0.4-0.3-0.9-0.5-1.3-0.7c-2.4-1.3-4.8-2.6-4.8-4.9c0-1.8,0.7-2.3,1.4-2.9
					l0.1-0.1c0.5-0.4,1-0.8,1.4-1.6c0.9-2,1-7.1,0-8.4c-0.5-0.6-1.9-2.8-1.5-4.3c0.2-0.6,0.5-1,1.1-1.3c0.6-0.3,1.4-0.5,2.4-0.5
					c2,0,4.1,0.6,5.3,1c4,1.3,8.9,4.9,10.3,6c0,0,0.1,0,0.1,0.1l0.9,0.6l-0.6-0.9c0-0.1-3.6-5.9-9.9-8c-1.2-0.4-3.6-1.1-6-1.1
					c-1.4,0-2.6,0.2-3.6,0.7c-1.2,0.6-1.9,1.5-2.3,2.7c-0.8,2.9,1.8,6.2,1.9,6.3c0.3,0.5,0.4,4.5-0.3,6c-0.1,0.2-0.4,0.4-0.7,0.7
					c-0.1,0.1-0.2,0.2-0.3,0.3c-1,0.7-2.5,1.9-2.5,4.5c0,3.5,3.6,5.5,6.5,7C113.5,287.2,114,287.4,114.4,287.7z"/>
				<g>
					<g>
						<path fill="#463014" d="M114.9,260.4c-1.5-1.3-0.4-2.5-0.5-3.9c-0.1-0.8-0.1-1.5-0.4-1.9c-1.4-2.2-4.8-2.9-4.8-2.9l-1.6-0.3
							l1-1.2c0.1-0.2,4.4-4.2,11-2.1c4.6,1.5,8.1,6.6,8.2,6.8l-2.3,1.1c0,0-2.7-4.8-6.7-6.1c-3.2-1-6.2-0.1-7.4,0.6
							c1.3,0.5,3.1,1.5,4.2,3.2c0.5,0.8,0.6,1.8,0.7,2.8c0.1,1.3,0.2,2.5,1.1,3.3L114.9,260.4z"/>
					</g>
					<g>
						<path fill="#463014" d="M114.9,260.7L114.9,260.7c-1.2-1-1-2-0.8-2.9c0.1-0.4,0.2-0.8,0.1-1.3c-0.1-0.7-0.1-1.4-0.3-1.8
							c-1.4-2.1-4.6-2.8-4.7-2.8l-2-0.4l1.3-1.5c0,0,2.8-2.8,7.4-2.8c1.3,0,2.6,0.2,3.9,0.6c4.8,1.6,8.3,6.8,8.3,6.9l0.1,0.2
							l-2.7,1.3l-0.1-0.2c-0.3-0.5-2.9-4.8-6.6-6c-0.9-0.3-1.9-0.4-2.8-0.4c-1.8,0-3.2,0.5-4,0.8c1.3,0.6,2.8,1.5,3.8,3.1
							c0.5,0.8,0.6,1.9,0.7,2.9c0.1,1.2,0.2,2.4,1.1,3.1l0.3,0.3L114.9,260.7z"/>
					</g>
				</g>
				<g>
					<g>
						<path fill="#463014" d="M121,258c0,0-0.6-2.7-2.4-4.1c-2.4-1.9-5.4-0.9-5.4-0.9l-0.4-1.3c0.1,0,3.5-1.1,6.7,1.1
							c3.2,2.2,3.5,4.2,3.6,4.4L121,258z"/>
					</g>
					<g>
						<path fill="#463014" d="M120.9,258.3l-0.1-0.3c0,0-0.6-2.7-2.3-4c-0.9-0.7-2.1-1.1-3.4-1.1c-1,0-1.8,0.2-1.8,0.3l-0.2,0.1
							l-0.6-1.8l0.2-0.1c0.1,0,1-0.3,2.3-0.3c1.7,0,3.3,0.5,4.6,1.4c3.2,2.3,3.6,4.4,3.7,4.6l0,0.2L120.9,258.3z M115.2,252.5
							c1.4,0,2.7,0.4,3.7,1.2c1.5,1.2,2.2,3.2,2.4,4l1.6-0.6c-0.1-0.6-0.8-2.2-3.4-4.1c-1.3-0.9-2.7-1.3-4.3-1.3
							c-0.9,0-1.6,0.1-1.9,0.2l0.3,0.9C113.7,252.6,114.4,252.5,115.2,252.5z"/>
					</g>
				</g>
				<path fill="#463014" d="M129.6,316.3L129.6,316.3c-0.7,0-1.4-0.3-1.9-0.7c-0.4-0.3-1.6-1.5-2.2-2.9c-0.2-0.5-0.2-1,0.1-1.3
					c0.2-0.2,0.6-0.5,1.5-0.5l0.6,0c0.7,0,2,0,3.1,0h1c0.7,0,1.1,0.1,1.4,0.4c0.4,0.4,0.2,0.8,0.1,1.1c-0.2,0.4-0.9,1.8-2.1,3.1
					C130.9,316.1,130.3,316.3,129.6,316.3z"/>
				<path fill="#463014" d="M130.3,280.1l-2.5-0.2c0,0,0.6,1.1,1.1,2.6c0.5,1.6-0.4,4-0.4,4S131.7,282.8,130.3,280.1z"/>
				<g>
					<path fill="#463014" d="M127.2,322.9c-8.9-0.7-12-9.1-12-10.8l2.3,0l-1.2,0h1.2c0,0.8,2.4,7.9,9.9,8.5L127.2,322.9z"/>
				</g>
				<path fill="#FFFFFF" d="M124.7,307.9c-0.1-0.8-0.2-1.6,0-2.3c-0.7-0.5-1.9-0.7-2.8-1c-0.7-0.5-4.5,0.5-7.3-2.9
					c-3.5-4.2-2.7-6.7-2.7-6.7c-0.9,1-1.7,0.6-3.1,5.2c-1.4,4.6,0.6,7.8,4.3,11c1.7,1.5,4.2,2.1,6.3,2.4c-0.7-0.7,1.2-0.8,2.5-1.3
					c-0.1-1.1,0.1-2.1,0.9-3c0.5-0.5,1.1-0.8,1.7-1c0-0.1,0.1-0.2,0.1-0.2C124.7,308.1,124.7,308,124.7,307.9z"/>
				<path fill="#C9C9C9" d="M122,312.3c-0.1-0.2-0.1-0.5-0.2-0.7c-0.1-0.3-0.4-1,0-0.2c-0.1-0.2-0.2-0.4-0.2-0.6
					c-6,0-11.2-4.1-10.2-12.8c-0.8-1-1.9,2.1-1.9,2.1s-3,8.7,4.8,12.1c2.6,1.1,4.9,1.9,5.4,1.6c1.1,0.2,2.1-0.6,2.5-1.1
					C122.1,312.7,122.1,312.5,122,312.3z"/>
				<path fill="#463014" d="M124.6,306.6c0-0.7,0.2-1.4,0.5-2.1c0,0,0.1-0.1,0.1-0.1c-2.3,0-5-0.2-7.2-1.1c-2.5-1-5.6-4.4-6.1-8.4
					c0,0-4.7,3.6-3.3,11.3c1.3,7.3,7.4,9.6,14.3,10c0,0-0.8-1.7-0.5-2.7c-3.9,0.3-8.3-1.2-10.5-4.7c-1.9-3.2-1.4-8.7-0.6-9.5
					C113.2,305.5,120.2,306.8,124.6,306.6z"/>
				<path fill="#463014" d="M137,316.2"/>
				<path fill="#463014" d="M125.3,302.2c-1.2,3.7-3.8,6.6-3.8,6.6s3.5-0.2,3.7-0.8c0.1-0.5,3.2-7.5,4.3-15.8
					C128.4,294.1,125.4,301.9,125.3,302.2z"/>
				<path fill="#E78724" d="M145.2,293.8c0,0,4,6.1,6.9,10.4c0.5,0.7-2.9,0.7-2.9,0.7L145.2,293.8z"/>
				<path fill="#E78724" d="M143.3,281.2c0,0,1.2,3,1.9,4.6c0.7,1.7,3.4,2.6,3.4,2.6s-1.4-1.5-1.4-5.2c0-1.6-2-2.2-2-2.2
					L143.3,281.2z"/>
				<path fill="#E78724" d="M144.5,282.9c0,0,2.5,2.9,7,1.3c4.6-1.6,5-7.5,5-9.1c0-1.6-8.6,1.6-9.8,2.3S143.3,280.9,144.5,282.9z"/>
				<path fill="#E78724" d="M161.7,251.7c0,0-4.2-0.8-7,1.4c-2.8,2.2-3.6,4-3.6,4l4.7,3.7c0,0,2.3-1.1,3-4.1
					C159.5,253.7,159,252.3,161.7,251.7z"/>
				<path fill="#E78724" d="M145.7,274.5c1.8-2.6,4.8-3.7,7.2-3.9c4.1-0.3,6,1.1,6,1.1s-6.7,0.3-8.6,2.8c-3.6,4.7-8.8,5.1-9.6,4
					c1,0,2-0.4,3.2-1.5C144.6,276.4,145.1,275.3,145.7,274.5z"/>
				<path fill="#E78724" d="M156.9,283.5c0,0,7.4-2.5,6-5.1c-1.4-2.6-0.3-4-0.3-4s4.1,3.1,3.1,6.4c-0.6,2-1.7,3.5-7.7,6.3
					c-2.9,5.3-0.6,14.8-0.7,14.9c-0.2,0.1-4-1.9-3.7-10.8C153.6,288.4,153.9,284.7,156.9,283.5z"/>
				<path fill="#E78724" d="M147.3,256.2c3.1,1.6,7.3,3.8,7.3,3.8l-1.7,0.8c0.2,0.3,0.2,0.4,0.2,0.4l-1.7,0.8c0,0-4.2,3-6.7,5
					c0.9-2.6,3.4-6.8,3.4-6.8S148.8,258.3,147.3,256.2z"/>
				<path fill="#E78724" d="M137,320.4c9.5,0,12.7-4.8,12.7-4.8l-1.5,3.6c-0.6,1.6-6.6,6.4-11.2,6.4"/>
				<path fill="#E78724" d="M148.7,312.3c0,0-0.9,5.4-4.4,5.4c-3,0-3.9-4.5-3.9-5.5L148.7,312.3z"/>
				<path fill="#E78724" d="M154.5,304.2c-0.3-0.9-1.4-4.3-1.8-7.5c-0.4-3.8-0.3-9.3-0.3-9.3s0.9,3.6,1.8,4.2
					c0.8,0.6,2.3,4.6,2.3,4.6s0.8,5.9,1.2,7.9C156.7,304.3,155.8,303.7,154.5,304.2z"/>
				<path fill="#E78724" d="M163,280.8c0,0-2-0.7-2.6-5c-0.6-4.3,0.7-8.1,0.7-8.1s-0.1,6,0.6,7.1c0.7,1.2,1.3,1.5,2.1,3
					C164.6,279.4,163.4,280.3,163,280.8z"/>
				<path fill="#87CCEE" d="M152.4,260.9"/>
				<path fill="#FDC168" d="M160.6,252.7l0.4-0.3C162.2,252.5,160.6,252.7,160.6,252.7z"/>
				<path fill="#FBA919" d="M145.6,255c0,0,1.9-0.3,2.8-1.7c0.9-1.4,3.6-4.2,7.8-4.2c4.2,0,8.4,1.1,8.4,1.1l-3.6,2.3
					c-0.4,0-1.1,0-2.2,0c-4.6,0.2-5.3,4.7-5.3,4.7l-16.1-2.2"/>
				<path fill="#FFFFFF" d="M144.1,280c0,0,2.2,2.2,5.5,1.5c3.4-0.7,5.4-2.2,5.5-4.8c0.2-2.6-0.7-3.6-0.7-3.6s-3.7,1.2-5.5,2.7
					C147.1,277.4,145.8,279.9,144.1,280z"/>
				<path fill="#C9C9C9" d="M146.7,279.2c0,0,1.9,0.9,4,0.2c2.8-0.9,3-3.8,3-3.8s1.7,5-3.1,5.9c-3.8,0.8-6.1-1.4-6.1-1.4
					L146.7,279.2z"/>
				<path fill="#463014" d="M144.6,307.1"/>
				<path fill="#463014" d="M159.1,260.4c1.5-1.3,0.4-2.5,0.5-3.9c0.1-0.8,0.1-1.5,0.4-1.9c1.4-2.2,4.8-2.9,4.8-2.9l1.6-0.3l-1-1.2
					c-0.1-0.2-4.4-4.2-11-2.1c-4.6,1.5-8.1,6.6-8.2,6.8l2.3,1.1c0,0,2.7-4.8,6.7-6.1c3.2-1,6.2-0.1,7.4,0.6
					c-1.3,0.5-3.1,1.5-4.2,3.2c-0.5,0.8-0.6,1.8-0.7,2.8c-0.1,1.3-0.2,2.5-1.1,3.3L159.1,260.4z"/>
				<path fill="#463014" d="M163.2,279.1c0,0-1.9-2.4-2.5-7.1c-0.2-1.8,0.2-5.5,0.8-6.9c-0.1,3.4,0.8,6.9,0.8,6.9
					S162.9,278.4,163.2,279.1z"/>
				<path fill="#463014" d="M153,258c0,0,0.6-2.7,2.4-4.1c2.4-1.9,5.4-0.9,5.4-0.9l0.4-1.3c-0.1,0-3.5-1.1-6.7,1.1
					c-3.2,2.2-3.5,4.2-3.6,4.4L153,258z"/>
				<path fill="#463014" d="M157.1,277.4c0,0,1-1.5,0.8-3.1c-0.1-0.8-0.5-1.6-1.1-1.9c-1.2-0.5-1.8,0.8-1.8,0.8
					S156.8,273.7,157.1,277.4z"/>
				<path fill="#463014" d="M144.6,307.1"/>
				<path fill="#463014" d="M145.9,279.6c0,0.1-0.1,0.1-0.1,0.1s3.2,2.4,6.4,0c1.7-1.3,1.6-4.5,1-5.9c-1.4,0.3-2.6,0.9-3.6,1.5
					c1.2-1.1,2.3-1.9,2.3-1.9l1.4-0.4l2.8-0.9c0,0.2,1,4.9-1.9,8.1c-1.3,1.4-7.3,4.6-10.2-0.8L145.9,279.6z"/>
				<path fill="#463014" d="M146.2,280c-1.8,2.7-6.3,1.2-6.2-1.7c0,0,3,1.7,5.7-1.4c1.6-1.8,6.6-6.7,13.3-5.1
					C154.3,272.8,148.1,277.1,146.2,280z"/>
				<g>
					<path fill="#463014" d="M144.6,307.1"/>
				</g>
				<path fill="#463014" d="M159.6,287.7c-0.4,0.2-2,1.8-2,4.2c0,1.2,0.1,7.1,0.7,10.7c-0.9,0.6-1.5,0.7-2.4,1.3
					c-0.4-4.2-0.8-10.3-0.6-12.7c0.2-2.8,1.7-4.7,3.1-5.5c0.4-0.3,0.9-0.5,1.3-0.7c2.4-1.3,4.8-2.6,4.8-4.9c0-1.8-0.7-2.3-1.4-2.9
					l-0.1-0.1c-0.5-0.4-1-0.8-1.4-1.6c-0.9-2-1-7.1,0-8.4c0.5-0.6,1.9-2.8,1.5-4.3c-0.2-0.6-0.5-1-1.1-1.3c-0.6-0.3-1.4-0.5-2.4-0.5
					c-2,0-4.1,0.6-5.3,1c-4,1.3-8.9,4.9-10.3,6c0,0-0.1,0-0.1,0.1l-0.9,0.6l0.6-0.9c0-0.1,3.6-5.9,9.9-8c1.2-0.4,3.6-1.1,6-1.1
					c1.4,0,2.6,0.2,3.6,0.7c1.2,0.6,1.9,1.5,2.3,2.7c0.8,2.9-1.8,6.2-1.9,6.3c-0.3,0.5-0.4,4.5,0.3,6c0.1,0.2,0.4,0.4,0.7,0.7
					c0.1,0.1,0.2,0.2,0.3,0.3c1,0.7,2.5,1.9,2.5,4.5c0,3.5-3.6,5.5-6.5,7C160.5,287.2,160,287.4,159.6,287.7z"/>
				<path fill="#463014" d="M155.3,260c-0.6-1-2-2.8-5.4-4.5c-3.8-1.8-8.1-2.8-12.9-2.8v0c0,0,0,0,0,0c0,0,0,0,0,0v0
					c-4.8,0-9.2,0.9-12.9,2.8c-3.4,1.6-4.8,3.5-5.4,4.5l-0.2,0.3l2.9,0.6l0.1-0.1l0-0.1c0-0.2,0.4-1.2,3.6-2.8
					c3.4-1.7,7.4-2.5,11.9-2.5c4.5,0,8.5,0.9,11.9,2.5c3.2,1.6,3.6,2.6,3.6,2.8l0,0.1l0.1,0.1l2.9-0.6L155.3,260z"/>
				<g>
					<g>
						<path fill="#463014" d="M159.1,260.4c1.5-1.3,0.4-2.5,0.5-3.9c0.1-0.8,0.1-1.5,0.4-1.9c1.4-2.2,4.8-2.9,4.8-2.9l1.6-0.3
							l-1-1.2c-0.1-0.2-4.4-4.2-11-2.1c-4.6,1.5-8.1,6.6-8.2,6.8l2.3,1.1c0,0,2.7-4.8,6.7-6.1c3.2-1,6.2-0.1,7.4,0.6
							c-1.3,0.5-3.1,1.5-4.2,3.2c-0.5,0.8-0.6,1.8-0.7,2.8c-0.1,1.3-0.2,2.5-1.1,3.3L159.1,260.4z"/>
					</g>
					<g>
						<path fill="#463014" d="M156.1,259.7l0.3-0.3c0.9-0.7,1-1.9,1.1-3.1c0.1-1,0.2-2,0.7-2.9c1-1.5,2.5-2.5,3.8-3.1
							c-0.8-0.3-2.2-0.8-4-0.8c-1,0-1.9,0.1-2.8,0.4c-3.7,1.2-6.3,5.5-6.6,6l-0.1,0.2l-2.7-1.3l0.1-0.2c0-0.1,3.5-5.3,8.3-6.9
							c1.3-0.4,2.6-0.6,3.9-0.6c4.6,0,7.4,2.8,7.4,2.8l1.3,1.5l-2,0.4c0,0-3.3,0.7-4.7,2.8c-0.2,0.4-0.3,1.1-0.3,1.8
							c0,0.4,0.1,0.9,0.1,1.3c0.2,0.9,0.4,1.8-0.7,2.8l-0.1,0.1L156.1,259.7z"/>
					</g>
				</g>
				<g>
					<g>
						<path fill="#463014" d="M153,258c0,0,0.6-2.7,2.4-4.1c2.4-1.9,5.4-0.9,5.4-0.9l0.4-1.3c-0.1,0-3.5-1.1-6.7,1.1
							c-3.2,2.2-3.5,4.2-3.6,4.4L153,258z"/>
					</g>
					<g>
						<path fill="#463014" d="M150.7,257.3l0-0.2c0-0.2,0.4-2.3,3.7-4.6c1.3-0.9,2.9-1.4,4.6-1.4c1.3,0,2.2,0.3,2.3,0.3l0.2,0.1
							l-0.6,1.8l-0.2-0.1c-0.1,0-0.8-0.3-1.8-0.3c-1.3,0-2.4,0.4-3.4,1.1c-1.7,1.3-2.3,3.9-2.3,4l-0.1,0.3L150.7,257.3z
							 M160.6,252.7l0.3-0.9c-0.3-0.1-1-0.2-1.9-0.2c-1.6,0-3.1,0.5-4.3,1.3c-2.7,1.9-3.3,3.5-3.4,4.1l1.6,0.6
							c0.2-0.7,0.9-2.8,2.4-4c1-0.8,2.3-1.2,3.7-1.2C159.6,252.5,160.3,252.6,160.6,252.7z"/>
					</g>
				</g>
				<path fill="#463014" d="M142.7,315.6c-1.2-1.3-1.9-2.7-2.1-3.1c-0.1-0.2-0.2-0.7,0.1-1.1c0.3-0.3,0.8-0.4,1.4-0.4h1
					c1.1,0,2.3,0,3.1,0l0.6,0c0.9,0,1.3,0.3,1.5,0.5c0.3,0.3,0.3,0.7,0.1,1.3c-0.6,1.4-1.8,2.6-2.2,2.9c-0.5,0.4-1.2,0.7-1.9,0.7
					l0,0C143.7,316.3,143.1,316.1,142.7,315.6z"/>
				<path fill="#463014" d="M143.7,280.1l2.5-0.2c0,0-0.6,1.1-1,2.6c-0.5,1.6,0.4,4,0.4,4S142.3,282.8,143.7,280.1z"/>
				<path fill="#E78724" d="M137,271.2c-1.6,0-3.7,0-5.2-1.2c0,0,2,3.6,5.2,3.6l0-0.5l0,0.5c3.2,0,5.2-3.6,5.2-3.6
					C140.7,271.2,138.6,271.2,137,271.2z"/>
				<path fill="#463014" d="M141.4,271.2c-1.6,1-3,1.3-4.4,1.3c-1.4,0-2.8-0.4-4.4-1.3c0,0,2.3,2.8,4.4,2.9v0c0,0,0,0,0,0
					c0,0,0,0,0,0v0C139.1,274,141.4,271.2,141.4,271.2z"/>
				<g>
					<path fill="#463014" d="M146.8,322.9l-0.2-2.3c7.5-0.6,9.8-7.7,9.9-8.5h2.3C158.8,313.9,155.7,322.2,146.8,322.9z"/>
				</g>
				<path fill="#FFFFFF" d="M149.3,307.9c0.1-0.8,0.2-1.6,0-2.3c0.7-0.5,1.9-0.7,2.8-1c0.7-0.5,4.5,0.5,7.3-2.9
					c3.5-4.2,2.7-6.7,2.7-6.7c0.9,1,1.7,0.6,3.1,5.2c1.4,4.6-0.6,7.8-4.3,11c-1.7,1.5-4.2,2.1-6.3,2.4c0.7-0.7-1.2-0.8-2.5-1.3
					c0.1-1.1-0.1-2.1-0.9-3c-0.5-0.5-1.1-0.8-1.7-1c0-0.1-0.1-0.2-0.1-0.2C149.3,308.1,149.3,308,149.3,307.9z"/>
				<path fill="#C9C9C9" d="M152,312.3c0.1-0.2,0.1-0.5,0.2-0.7c0.1-0.3,0.4-1,0-0.2c0.1-0.2,0.2-0.4,0.2-0.6
					c6,0,11.2-4.1,10.2-12.8c0.8-1,1.9,2.1,1.9,2.1s3,8.7-4.8,12.1c-2.6,1.1-4.9,1.9-5.4,1.6c-1.1,0.2-2.1-0.6-2.5-1.1
					C151.9,312.7,151.9,312.5,152,312.3z"/>
				<path fill="#463014" d="M149.4,306.6c0-0.7-0.2-1.4-0.5-2.1c0,0-0.1-0.1-0.1-0.1c2.3,0,5-0.2,7.2-1.1c2.5-1,5.6-4.4,6.1-8.4
					c0,0,4.7,3.6,3.3,11.3c-1.3,7.3-7.4,9.6-14.3,10c0,0,0.8-1.7,0.5-2.7c3.9,0.3,8.3-1.2,10.5-4.7c1.9-3.2,1.4-8.7,0.6-9.5
					C160.8,305.5,153.8,306.8,149.4,306.6z"/>
				<g>
					<path fill="#463014" d="M137,316.2"/>
					<path fill="#463014" d="M152.2,308.5c-0.8-0.9-2.4-2-5.9-2c0,0-6.7,0-9.4,0l0,0c0,0,0,0,0,0c0,0,0,0,0,0l0,0
						c-2.7,0-9.4,0-9.4,0c-3.5,0-5,1.1-5.9,2c-1.2,1.3-1.4,3.1-0.6,5.4c2.2,6,5.3,12.2,15.8,12.2v0c0,0,0,0,0,0c0,0,0,0,0,0v0
						c10.4,0,13.6-6.1,15.8-12.2C153.6,311.6,153.4,309.8,152.2,308.5z M150.6,313.4c-1.1,3-3.9,10.4-13.6,10.4
						c-9.7,0-12.5-7.3-13.6-10.4c-0.6-1.7-0.5-2.9,0.1-3.7c0.5-0.5,1.5-1.2,3.9-1.2l2.5,0c1.9,0,4.2,0,7,0c2.8,0,5.1,0,7,0l2.5,0
						c2.4,0,3.5,0.6,3.9,1.2C151.1,310.5,151.2,311.7,150.6,313.4z"/>
				</g>
				<path fill="#463014" d="M148.7,302.2c1.2,3.7,3.8,6.6,3.8,6.6s-3.5-0.2-3.7-0.8c-0.1-0.5-3.2-7.5-4.3-15.8
					C145.6,294.1,148.6,301.9,148.7,302.2z"/>
			</g>
		</g>
	</g>
</g>
<g id="GUIDE">
</g>
</svg>
