<?xml version="1.0" encoding="utf-8"?>
<!-- Generator: Adobe Illustrator 18.0.0, SVG Export Plug-In . SVG Version: 6.00 Build 0)  -->
<!DOCTYPE svg PUBLIC "-//W3C//DTD SVG 1.1//EN" "http://www.w3.org/Graphics/SVG/1.1/DTD/svg11.dtd">
<svg version="1.1" xmlns="http://www.w3.org/2000/svg" xmlns:xlink="http://www.w3.org/1999/xlink" x="0px" y="0px"
	 viewBox="-75 73 128 128" enable-background="new -75 73 128 128" xml:space="preserve">
<g id="Networks">
	<g id="LinkedIn">
	</g>
	<g id="NPM">
		<g id="Logo">
		</g>
	</g>
	<g id="Email">
	</g>
	<g id="Yeoman">
	</g>
	<g id="Python">
		<g id="pyicon">
		</g>
	</g>
	<g id="JS">
		<g id="JS_1_">
		</g>
	</g>
	<g id="HTML_1_">
	</g>
	<g id="CSS">
	</g>
	<g id="analytics">
		<circle fill="#EBEBEB" cx="-11" cy="137" r="64"/>
		<g>
			<path fill="#F6981C" d="M24.1,165.9c0,3.4-2.8,6.2-6.2,6.2h-57.8c-3.4,0-6.2-2.8-6.2-6.2v-57.8c0-3.4,2.8-6.2,6.2-6.2h57.8
				c3.4,0,6.2,2.8,6.2,6.2V165.9z"/>
			<path fill="#FFFFFF" d="M24.1,124l-6.3-4.3c0.1-0.5,0.2-1.1,0.2-1.7c0-4.1-3.3-7.5-7.5-7.5c-4.1,0-7.5,3.3-7.5,7.5
				c0,1.6,0.5,3.1,1.4,4.3l-13.7,21c-0.6-0.1-1.1-0.2-1.7-0.2c-1.8,0-3.5,0.7-4.8,1.8l-9.2-5.3c0-0.3,0.1-0.7,0.1-1
				c0-4.1-3.3-7.5-7.5-7.5c-4.1,0-7.5,3.3-7.5,7.5c0,1,0.2,2,0.6,2.9l-6.9,6.4v6.8l10.2-9.4c1.1,0.6,2.3,0.9,3.6,0.9
				c2,0,3.8-0.8,5.1-2l9,5.2c-0.1,0.5-0.1,0.9-0.1,1.4c0,4.1,3.3,7.5,7.5,7.5c4.1,0,7.5-3.3,7.5-7.5c0-1.7-0.6-3.3-1.6-4.6
				l13.6-20.8c0.6,0.2,1.3,0.3,2,0.3c1.7,0,3.3-0.6,4.6-1.6l9,6.1V124z"/>
			<path fill="#F05620" d="M15.1,123.9c-1.3,1-2.9,1.6-4.6,1.6c-0.7,0-1.4-0.1-2-0.3L-5.1,146c1,1.3,1.6,2.8,1.6,4.6
				c0,4.1-3.3,7.5-7.5,7.5c-4.1,0-7.5-3.3-7.5-7.5c0-0.5,0-1,0.1-1.4l-9-5.2c-1.3,1.3-3.1,2-5.1,2c-1.3,0-2.5-0.3-3.6-0.9l-10.2,9.4
				v11.4c0,3.4,2.8,6.2,6.2,6.2h57.8c3.4,0,6.2-2.8,6.2-6.2v-36L15.1,123.9z"/>
		</g>
	</g>
	<g id="Gulp">
	</g>
	<g id="Grunt">
	</g>
</g>
<g id="GUIDE">
</g>
</svg>
