<?xml version="1.0" encoding="utf-8"?>
<!-- Generator: Adobe Illustrator 18.0.0, SVG Export Plug-In . SVG Version: 6.00 Build 0)  -->
<!DOCTYPE svg PUBLIC "-//W3C//DTD SVG 1.1//EN" "http://www.w3.org/Graphics/SVG/1.1/DTD/svg11.dtd">
<svg version="1.1" xmlns="http://www.w3.org/2000/svg" xmlns:xlink="http://www.w3.org/1999/xlink" x="0px" y="0px"
	 viewBox="0 0 128 128" enable-background="new 0 0 128 128" xml:space="preserve">
<g id="Networks">

	<g id="LinkedIn">
		<circle fill="#007BB5" cx="64" cy="64" r="64"/>
		<g>
			<path fill="#FFFFFF" d="M30.3,47.3h14.5v46.5H30.3V47.3z M37.5,24.2c4.6,0,8.4,3.8,8.4,8.4c0,4.6-3.8,8.4-8.4,8.4
				c-4.6,0-8.4-3.8-8.4-8.4C29.1,28,32.9,24.2,37.5,24.2"/>
			<path fill="#FFFFFF" d="M53.8,47.3h13.9v6.4h0.2c1.9-3.7,6.6-7.5,13.7-7.5c14.6,0,17.3,9.6,17.3,22.1v25.5H84.4V71.2
				c0-5.4-0.1-12.3-7.5-12.3c-7.5,0-8.7,5.9-8.7,11.9v23H53.8V47.3z"/>
		</g>
	</g>
</g>
<g id="GUIDE">
</g>
</svg>
