<?xml version="1.0" encoding="utf-8"?>
<!-- Generator: Adobe Illustrator 18.0.0, SVG Export Plug-In . SVG Version: 6.00 Build 0)  -->
<!DOCTYPE svg PUBLIC "-//W3C//DTD SVG 1.1//EN" "http://www.w3.org/Graphics/SVG/1.1/DTD/svg11.dtd">
<svg version="1.1" xmlns="http://www.w3.org/2000/svg" xmlns:xlink="http://www.w3.org/1999/xlink" x="0px" y="0px"
	 viewBox="0 0 128 128" enable-background="new 0 0 128 128" xml:space="preserve">
<g id="Medium">
	<circle fill="#00AB6C" cx="64" cy="64" r="64"/>
	<g id="XMLID_110_">
		<g id="XMLID_111_">
			<path id="XMLID_115_" fill="#D0D2D3" d="M79.5,29.1c-1.2-0.6-2.2,0-2.2,1.4v54.2l22.2,11.1c2.4,1.2,4.4,0.4,4.4-1.9V41.7
				c0-0.2-0.1-0.4-0.3-0.5L79.5,29.1z"/>
			<path id="XMLID_114_" fill="#A6A8AB" d="M50.7,71.3L76,30.1c0.7-1.2,2.3-1.6,3.5-1l24.2,12.1c0.2,0.1,0.2,0.3,0.1,0.4L77.3,84.6
				L50.7,71.3z"/>
			<path id="XMLID_113_" fill="#808184" d="M27.7,29.8c-2-1-2.7-0.3-1.5,1.7l24.5,39.8l26.7,13.3L50.7,41.4c0-0.1-0.1-0.1-0.2-0.1
				L27.7,29.8z"/>
			<path id="XMLID_112_" fill="#58595B" d="M50.7,93.8c0,2.3-1.7,3.3-3.7,2.3L26.2,85.7C25,85.1,24,83.5,24,82.2V31.3
				c0-1.8,1.3-2.6,3-1.8l23.6,11.8c0.1,0,0.1,0.1,0.1,0.2V93.8z"/>
		</g>
	</g>
</g>
</svg>
