<?xml version="1.0" encoding="utf-8"?>
<!-- Generator: Adobe Illustrator 18.0.0, SVG Export Plug-In . SVG Version: 6.00 Build 0)  -->
<!DOCTYPE svg PUBLIC "-//W3C//DTD SVG 1.1//EN" "http://www.w3.org/Graphics/SVG/1.1/DTD/svg11.dtd">
<svg version="1.1" xmlns="http://www.w3.org/2000/svg" xmlns:xlink="http://www.w3.org/1999/xlink" x="0px" y="0px"
	 viewBox="0 0 128 128" enable-background="new 0 0 128 128" xml:space="preserve">
<g id="Twitter">
	<circle fill="#55ACEE" cx="64" cy="64" r="64"/>
	<path fill="#FFFFFF" d="M104,39.2c-2.9,1.3-6.1,2.2-9.4,2.6c3.4-2,6-5.2,7.2-9.1c-3.2,1.9-6.7,3.2-10.4,4c-3-3.2-7.3-5.2-12-5.2
		c-9.1,0-16.4,7.3-16.4,16.4c0,1.3,0.1,2.5,0.4,3.7C49.8,51,37.7,44.4,29.6,34.5c-1.4,2.4-2.2,5.2-2.2,8.3c0,5.7,2.9,10.7,7.3,13.7
		c-2.7-0.1-5.2-0.8-7.4-2.1c0,0.1,0,0.1,0,0.2c0,8,5.7,14.6,13.2,16.1c-1.4,0.4-2.8,0.6-4.3,0.6c-1.1,0-2.1-0.1-3.1-0.3
		c2.1,6.5,8.2,11.3,15.3,11.4c-5.6,4.4-12.7,7-20.4,7c-1.3,0-2.6-0.1-3.9-0.2c7.3,4.7,15.9,7.4,25.2,7.4c30.2,0,46.7-25,46.7-46.7
		c0-0.7,0-1.4,0-2.1C99,45.4,101.8,42.5,104,39.2z"/>
</g>
</svg>
