<svg xmlns="http://www.w3.org/2000/svg" viewBox="0 0 57.67 57.67"><path d="M54.162 3.508c-4.678-4.678-12.287-4.678-16.964 0l-9.07 9.07c-3.477 3.477-4.364 8.573-2.671 12.881a12.026 12.026 0 0 0-4.396-.831 11.907 11.907 0 0 0-8.481 3.5l-9.071 9.07c-4.677 4.677-4.677 12.287 0 16.964 2.338 2.339 5.41 3.508 8.482 3.508s6.144-1.169 8.482-3.508l9.07-9.07c3.477-3.477 4.364-8.573 2.671-12.881 1.381.541 2.864.831 4.396.831a11.91 11.91 0 0 0 8.482-3.5l9.071-9.07c4.676-4.677 4.676-12.287-.001-16.964zm-26.034 40.17l-9.07 9.07c-3.897 3.896-10.238 3.896-14.136 0-3.896-3.897-3.896-10.238 0-14.136l9.071-9.07a9.923 9.923 0 0 1 7.067-2.914c2.34 0 4.551.79 6.325 2.243l-8.589 8.589a.999.999 0 1 0 1.414 1.414l8.588-8.588c3.211 3.922 2.988 9.733-.67 13.392zm24.62-24.62l-9.071 9.07a9.923 9.923 0 0 1-7.068 2.914c-2.34 0-4.55-.79-6.325-2.243l8.589-8.589a.999.999 0 1 0-1.414-1.414l-8.588 8.588c-3.21-3.923-2.987-9.734.671-13.393l9.07-9.07A9.971 9.971 0 0 1 45.68 2c2.56 0 5.12.975 7.068 2.923 3.898 3.897 3.898 10.238 0 14.135z"/></svg>